G04 PROTEUS GERBER X2 FILE*
%TF.GenerationSoftware,Labcenter,Proteus,8.13-SP0-Build31525*%
%TF.CreationDate,2023-08-07T13:40:14+00:00*%
%TF.FileFunction,AssemblyDrawing,Top*%
%TF.FilePolarity,Positive*%
%TF.Part,Single*%
%TF.SameCoordinates,{8d507f11-5f74-4f73-9321-756942b8957b}*%
%FSLAX45Y45*%
%MOMM*%
G01*
%TA.AperFunction,Profile*%
%ADD58C,0.203200*%
%TA.AperFunction,Material*%
%ADD61C,0.203200*%
%ADD64C,0.600000*%
%ADD153C,0.698660*%
%ADD154C,0.571500*%
%ADD155C,0.234520*%
%ADD156C,0.360000*%
%ADD157C,0.198960*%
%ADD158C,0.270000*%
%ADD159C,0.050000*%
%ADD160C,0.375920*%
%ADD60C,0.064460*%
%ADD161C,0.355600*%
%ADD162C,0.056890*%
%ADD163C,1.219200*%
%ADD164C,0.243880*%
%ADD165C,0.609600*%
%ADD166C,0.103120*%
%ADD167C,0.940000*%
%ADD168C,0.169390*%
%ADD169C,0.937260*%
%ADD170C,0.361540*%
%ADD171C,2.400000*%
%ADD172C,0.327770*%
%ADD173C,1.200000*%
%ADD174C,0.286290*%
%ADD175C,0.230960*%
%ADD176C,0.558800*%
%ADD177C,0.069740*%
%ADD178C,0.365760*%
%ADD179C,0.098000*%
%ADD180C,1.016000*%
%ADD68C,0.300310*%
%ADD181C,0.229610*%
%ADD182C,0.261040*%
%ADD183C,0.268350*%
%ADD184C,0.406400*%
%ADD185C,0.096520*%
%ADD186C,0.845820*%
%ADD187C,0.215300*%
%ADD188C,0.680000*%
%ADD189C,0.107670*%
%ADD190C,0.548640*%
%ADD191C,0.332720*%
%ADD192C,0.502920*%
%ADD193C,0.519540*%
%ADD194C,0.812800*%
%ADD195C,0.177800*%
%ADD196C,0.110060*%
%ADD197C,0.225260*%
%ADD198C,0.308660*%
%ADD199C,0.150230*%
%ADD200C,0.852000*%
%ADD201C,0.305230*%
%ADD202C,0.104190*%
%ADD203C,0.071960*%
%ADD204C,0.205900*%
%ADD205C,0.143930*%
%ADD206C,0.508000*%
%ADD207C,0.072810*%
%TD.AperFunction*%
D58*
X-4990000Y-4640000D02*
X+5000000Y-4640000D01*
X+5000000Y+5360000D01*
X-4990000Y+5360000D01*
X-4990000Y-4640000D01*
D61*
X-1554000Y+2662000D02*
X+455000Y+2662000D01*
X+455000Y+5297000D01*
X-1554000Y+5297000D01*
X-1554000Y+2662000D01*
D64*
X-1400000Y+4538000D02*
X-1400000Y+4538000D01*
D153*
X-667101Y+3036297D02*
X-317766Y+3036297D01*
X-247899Y+3114897D01*
X-247899Y+3429298D01*
X-317766Y+3507898D01*
X-667101Y+3507898D01*
X-527367Y+3822299D02*
X-667101Y+3979500D01*
X-247899Y+3979500D01*
X-317766Y+4293901D02*
X-597234Y+4293901D01*
X-667101Y+4372501D01*
X-667101Y+4686902D01*
X-597234Y+4765502D01*
X-317766Y+4765502D01*
X-247899Y+4686902D01*
X-247899Y+4372501D01*
X-317766Y+4293901D01*
X-247899Y+4293901D02*
X-667101Y+4765502D01*
D61*
X-2711950Y-1133680D02*
X-1988050Y-1133680D01*
X-1988050Y-666320D01*
X-2711950Y-666320D01*
X-2711950Y-1133680D01*
D154*
X-2610350Y-709500D02*
X-2610350Y-709500D01*
D155*
X-2561073Y-865520D02*
X-2561073Y-982783D01*
X-2534689Y-1006235D01*
X-2429153Y-1006235D01*
X-2402769Y-982783D01*
X-2402769Y-865520D01*
X-2323616Y-888972D02*
X-2297232Y-865520D01*
X-2218080Y-865520D01*
X-2191696Y-888972D01*
X-2191696Y-912425D01*
X-2218080Y-935877D01*
X-2191696Y-959330D01*
X-2191696Y-982783D01*
X-2218080Y-1006235D01*
X-2297232Y-1006235D01*
X-2323616Y-982783D01*
X-2270848Y-935877D02*
X-2218080Y-935877D01*
D61*
X-1090000Y-610160D02*
X-395000Y-610160D01*
X-395000Y-69840D01*
X-1090000Y-69840D01*
X-1090000Y-610160D01*
D156*
X-1035000Y-140000D02*
X-1035000Y-140000D01*
D157*
X-885064Y-280312D02*
X-885064Y-379792D01*
X-862681Y-399688D01*
X-773149Y-399688D01*
X-750766Y-379792D01*
X-750766Y-280312D01*
X-661234Y-320104D02*
X-616468Y-280312D01*
X-616468Y-399688D01*
D61*
X-1100000Y+269840D02*
X-450000Y+269840D01*
X-450000Y+920320D01*
X-1100000Y+920320D01*
X-1100000Y+269840D01*
D158*
X-1050000Y+895000D02*
X-1050000Y+895000D01*
D157*
X-953902Y+635304D02*
X-953902Y+535914D01*
X-931540Y+516036D01*
X-842089Y+516036D01*
X-819726Y+535914D01*
X-819726Y+635304D01*
X-752638Y+615426D02*
X-730275Y+635304D01*
X-663187Y+635304D01*
X-640824Y+615426D01*
X-640824Y+595548D01*
X-663187Y+575670D01*
X-730275Y+575670D01*
X-752638Y+555792D01*
X-752638Y+516036D01*
X-640824Y+516036D01*
D159*
X-3855000Y-120000D02*
X-3855000Y-420000D01*
X-3705000Y-420000D01*
X-3705000Y-120000D01*
X-3855000Y-120000D01*
X-3730000Y-270000D02*
X-3830000Y-270000D01*
X-3780000Y-320000D02*
X-3780000Y-220000D01*
D160*
X-3780000Y-190000D02*
X-3780000Y-190000D01*
D60*
X-3760662Y-373662D02*
X-3799338Y-373662D01*
X-3799338Y-344655D01*
X-3786446Y-330152D01*
X-3773554Y-330152D01*
X-3760662Y-344655D01*
X-3760662Y-373662D01*
X-3786446Y-301145D02*
X-3799338Y-286641D01*
X-3760662Y-286641D01*
D159*
X-3855000Y-1170000D02*
X-3855000Y-1470000D01*
X-3705000Y-1470000D01*
X-3705000Y-1170000D01*
X-3855000Y-1170000D01*
X-3730000Y-1320000D02*
X-3830000Y-1320000D01*
X-3780000Y-1370000D02*
X-3780000Y-1270000D01*
D160*
X-3780000Y-1240000D02*
X-3780000Y-1240000D01*
D60*
X-3760662Y-1423662D02*
X-3799338Y-1423662D01*
X-3799338Y-1394655D01*
X-3786446Y-1380152D01*
X-3773554Y-1380152D01*
X-3760662Y-1394655D01*
X-3760662Y-1423662D01*
X-3792892Y-1358397D02*
X-3799338Y-1351145D01*
X-3799338Y-1329390D01*
X-3792892Y-1322138D01*
X-3786446Y-1322138D01*
X-3780000Y-1329390D01*
X-3780000Y-1351145D01*
X-3773554Y-1358397D01*
X-3760662Y-1358397D01*
X-3760662Y-1322138D01*
D61*
X-1850800Y-1194450D02*
X-1749200Y-1194450D01*
X-1749200Y-932830D01*
X-1850800Y-932830D01*
X-1850800Y-1194450D01*
D161*
X-1800000Y-1150000D02*
X-1800000Y-1150000D01*
D162*
X-1788620Y-1070930D02*
X-1782931Y-1077331D01*
X-1782931Y-1096533D01*
X-1794310Y-1109334D01*
X-1805689Y-1109334D01*
X-1817068Y-1096533D01*
X-1817068Y-1077331D01*
X-1811379Y-1070930D01*
X-1805689Y-1045327D02*
X-1817068Y-1032525D01*
X-1782931Y-1032525D01*
X-1788620Y-1006922D02*
X-1811379Y-1006922D01*
X-1817068Y-1000522D01*
X-1817068Y-974919D01*
X-1811379Y-968518D01*
X-1788620Y-968518D01*
X-1782931Y-974919D01*
X-1782931Y-1000522D01*
X-1788620Y-1006922D01*
X-1782931Y-1006922D02*
X-1817068Y-968518D01*
D61*
X-1850800Y-895810D02*
X-1749200Y-895810D01*
X-1749200Y-634190D01*
X-1850800Y-634190D01*
X-1850800Y-895810D01*
D161*
X-1800000Y-851360D02*
X-1800000Y-851360D01*
D162*
X-1788620Y-746687D02*
X-1782931Y-753088D01*
X-1782931Y-772290D01*
X-1794310Y-785091D01*
X-1805689Y-785091D01*
X-1817068Y-772290D01*
X-1817068Y-753088D01*
X-1811379Y-746687D01*
X-1805689Y-695481D02*
X-1800000Y-701882D01*
X-1800000Y-721084D01*
X-1805689Y-727485D01*
X-1811379Y-727485D01*
X-1817068Y-721084D01*
X-1817068Y-701882D01*
X-1811379Y-695481D01*
X-1788620Y-695481D01*
X-1782931Y-701882D01*
X-1782931Y-721084D01*
D61*
X-1700800Y-1194450D02*
X-1599200Y-1194450D01*
X-1599200Y-932830D01*
X-1700800Y-932830D01*
X-1700800Y-1194450D01*
D161*
X-1650000Y-977280D02*
X-1650000Y-977280D01*
D162*
X-1632931Y-1145961D02*
X-1667068Y-1145961D01*
X-1667068Y-1113958D01*
X-1661379Y-1107557D01*
X-1655689Y-1107557D01*
X-1650000Y-1113958D01*
X-1650000Y-1145961D01*
X-1650000Y-1113958D02*
X-1644310Y-1107557D01*
X-1632931Y-1107557D01*
X-1655689Y-1056351D02*
X-1650000Y-1062752D01*
X-1650000Y-1081954D01*
X-1655689Y-1088355D01*
X-1661379Y-1088355D01*
X-1667068Y-1081954D01*
X-1667068Y-1062752D01*
X-1661379Y-1056351D01*
X-1638620Y-1056351D01*
X-1632931Y-1062752D01*
X-1632931Y-1081954D01*
D61*
X-1700800Y-895810D02*
X-1599200Y-895810D01*
X-1599200Y-634190D01*
X-1700800Y-634190D01*
X-1700800Y-895810D01*
D161*
X-1650000Y-678640D02*
X-1650000Y-678640D01*
D162*
X-1632931Y-872924D02*
X-1667068Y-872924D01*
X-1667068Y-840921D01*
X-1661379Y-834520D01*
X-1655689Y-834520D01*
X-1650000Y-840921D01*
X-1650000Y-872924D01*
X-1650000Y-840921D02*
X-1644310Y-834520D01*
X-1632931Y-834520D01*
X-1655689Y-808917D02*
X-1667068Y-796115D01*
X-1632931Y-796115D01*
X-1638620Y-770512D02*
X-1661379Y-770512D01*
X-1667068Y-764112D01*
X-1667068Y-738509D01*
X-1661379Y-732108D01*
X-1638620Y-732108D01*
X-1632931Y-738509D01*
X-1632931Y-764112D01*
X-1638620Y-770512D01*
X-1632931Y-770512D02*
X-1667068Y-732108D01*
D61*
X-577170Y-1490800D02*
X-315550Y-1490800D01*
X-315550Y-1389200D01*
X-577170Y-1389200D01*
X-577170Y-1490800D01*
D161*
X-360000Y-1440000D02*
X-360000Y-1440000D01*
D162*
X-554284Y-1457069D02*
X-554284Y-1422932D01*
X-522281Y-1422932D01*
X-515880Y-1428621D01*
X-515880Y-1434311D01*
X-522281Y-1440000D01*
X-554284Y-1440000D01*
X-522281Y-1440000D02*
X-515880Y-1445690D01*
X-515880Y-1457069D01*
X-496678Y-1428621D02*
X-490277Y-1422932D01*
X-471075Y-1422932D01*
X-464674Y-1428621D01*
X-464674Y-1434311D01*
X-471075Y-1440000D01*
X-490277Y-1440000D01*
X-496678Y-1445690D01*
X-496678Y-1457069D01*
X-464674Y-1457069D01*
X-413468Y-1422932D02*
X-445472Y-1422932D01*
X-445472Y-1434311D01*
X-419869Y-1434311D01*
X-413468Y-1440000D01*
X-413468Y-1451380D01*
X-419869Y-1457069D01*
X-439071Y-1457069D01*
X-445472Y-1451380D01*
D61*
X-577170Y-1160800D02*
X-315550Y-1160800D01*
X-315550Y-1059200D01*
X-577170Y-1059200D01*
X-577170Y-1160800D01*
D161*
X-360000Y-1110000D02*
X-360000Y-1110000D01*
D162*
X-554284Y-1127069D02*
X-554284Y-1092932D01*
X-522281Y-1092932D01*
X-515880Y-1098621D01*
X-515880Y-1104311D01*
X-522281Y-1110000D01*
X-554284Y-1110000D01*
X-522281Y-1110000D02*
X-515880Y-1115690D01*
X-515880Y-1127069D01*
X-496678Y-1098621D02*
X-490277Y-1092932D01*
X-471075Y-1092932D01*
X-464674Y-1098621D01*
X-464674Y-1104311D01*
X-471075Y-1110000D01*
X-490277Y-1110000D01*
X-496678Y-1115690D01*
X-496678Y-1127069D01*
X-464674Y-1127069D01*
X-413468Y-1098621D02*
X-419869Y-1092932D01*
X-439071Y-1092932D01*
X-445472Y-1098621D01*
X-445472Y-1121380D01*
X-439071Y-1127069D01*
X-419869Y-1127069D01*
X-413468Y-1121380D01*
X-413468Y-1115690D01*
X-419869Y-1110000D01*
X-445472Y-1110000D01*
D61*
X-577170Y-1640800D02*
X-315550Y-1640800D01*
X-315550Y-1539200D01*
X-577170Y-1539200D01*
X-577170Y-1640800D01*
D161*
X-532720Y-1590000D02*
X-532720Y-1590000D01*
D162*
X-466451Y-1607069D02*
X-466451Y-1572932D01*
X-434448Y-1572932D01*
X-428047Y-1578621D01*
X-428047Y-1584311D01*
X-434448Y-1590000D01*
X-466451Y-1590000D01*
X-434448Y-1590000D02*
X-428047Y-1595690D01*
X-428047Y-1607069D01*
X-402444Y-1584311D02*
X-389642Y-1572932D01*
X-389642Y-1607069D01*
D61*
X-577170Y-1310800D02*
X-315550Y-1310800D01*
X-315550Y-1209200D01*
X-577170Y-1209200D01*
X-577170Y-1310800D01*
D161*
X-532720Y-1260000D02*
X-532720Y-1260000D01*
D162*
X-466451Y-1277069D02*
X-466451Y-1242932D01*
X-434448Y-1242932D01*
X-428047Y-1248621D01*
X-428047Y-1254311D01*
X-434448Y-1260000D01*
X-466451Y-1260000D01*
X-434448Y-1260000D02*
X-428047Y-1265690D01*
X-428047Y-1277069D01*
X-408845Y-1248621D02*
X-402444Y-1242932D01*
X-383242Y-1242932D01*
X-376841Y-1248621D01*
X-376841Y-1254311D01*
X-383242Y-1260000D01*
X-402444Y-1260000D01*
X-408845Y-1265690D01*
X-408845Y-1277069D01*
X-376841Y-1277069D01*
D61*
X-253410Y-1634450D02*
X-151810Y-1634450D01*
X-151810Y-1372830D01*
X-253410Y-1372830D01*
X-253410Y-1634450D01*
D161*
X-202610Y-1590000D02*
X-202610Y-1590000D01*
D162*
X-191230Y-1485327D02*
X-185541Y-1491728D01*
X-185541Y-1510930D01*
X-196920Y-1523731D01*
X-208299Y-1523731D01*
X-219678Y-1510930D01*
X-219678Y-1491728D01*
X-213989Y-1485327D01*
X-213989Y-1466125D02*
X-219678Y-1459724D01*
X-219678Y-1440522D01*
X-213989Y-1434121D01*
X-208299Y-1434121D01*
X-202610Y-1440522D01*
X-196920Y-1434121D01*
X-191230Y-1434121D01*
X-185541Y-1440522D01*
X-185541Y-1459724D01*
X-191230Y-1466125D01*
X-202610Y-1453323D02*
X-202610Y-1440522D01*
D61*
X-253410Y-1304450D02*
X-151810Y-1304450D01*
X-151810Y-1042830D01*
X-253410Y-1042830D01*
X-253410Y-1304450D01*
D161*
X-202610Y-1260000D02*
X-202610Y-1260000D01*
D162*
X-191230Y-1155327D02*
X-185541Y-1161728D01*
X-185541Y-1180930D01*
X-196920Y-1193731D01*
X-208299Y-1193731D01*
X-219678Y-1180930D01*
X-219678Y-1161728D01*
X-213989Y-1155327D01*
X-208299Y-1129724D02*
X-219678Y-1116922D01*
X-185541Y-1116922D01*
D61*
X-4710160Y-3910160D02*
X-3889840Y-3910160D01*
X-3889840Y-2889840D01*
X-4710160Y-2889840D01*
X-4710160Y-3910160D01*
D163*
X-4300000Y-3150000D02*
X-4300000Y-3150000D01*
D164*
X-4519493Y-3584949D02*
X-4519493Y-3609337D01*
X-4492057Y-3633725D01*
X-4382310Y-3633725D01*
X-4354874Y-3609337D01*
X-4354874Y-3487396D01*
X-4245127Y-3560560D02*
X-4272564Y-3536172D01*
X-4272564Y-3511784D01*
X-4245127Y-3487396D01*
X-4162817Y-3487396D01*
X-4135381Y-3511784D01*
X-4135381Y-3536172D01*
X-4162817Y-3560560D01*
X-4245127Y-3560560D01*
X-4272564Y-3584949D01*
X-4272564Y-3609337D01*
X-4245127Y-3633725D01*
X-4162817Y-3633725D01*
X-4135381Y-3609337D01*
X-4135381Y-3584949D01*
X-4162817Y-3560560D01*
D61*
X-4290800Y-4513820D02*
X-3874240Y-4513820D01*
X-3874240Y-4346180D01*
X-4290800Y-4346180D01*
X-4290800Y-4513820D01*
D165*
X-3925040Y-4430000D02*
X-3925040Y-4430000D01*
D166*
X-4215971Y-4460938D02*
X-4215971Y-4399063D01*
X-4146363Y-4399063D01*
X-4215971Y-4430000D02*
X-4169566Y-4430000D01*
X-4099958Y-4419688D02*
X-4076755Y-4399063D01*
X-4076755Y-4460938D01*
D159*
X-2383000Y-3171000D02*
X-1667000Y-3171000D01*
X-1667000Y-2829000D01*
X-2383000Y-2829000D01*
X-2383000Y-3171000D01*
D167*
X-2240000Y-3000000D02*
X-2240000Y-3000000D01*
D168*
X-2157429Y-3050818D02*
X-2157429Y-2949182D01*
X-2081203Y-2949182D01*
X-2043090Y-2983061D01*
X-2043090Y-3016939D01*
X-2081203Y-3050818D01*
X-2157429Y-3050818D01*
X-1985920Y-2966121D02*
X-1966863Y-2949182D01*
X-1909693Y-2949182D01*
X-1890637Y-2966121D01*
X-1890637Y-2983061D01*
X-1909693Y-3000000D01*
X-1966863Y-3000000D01*
X-1985920Y-3016939D01*
X-1985920Y-3050818D01*
X-1890637Y-3050818D01*
X-1814410Y-3000000D02*
X-1833467Y-2983061D01*
X-1833467Y-2966121D01*
X-1814410Y-2949182D01*
X-1757240Y-2949182D01*
X-1738184Y-2966121D01*
X-1738184Y-2983061D01*
X-1757240Y-3000000D01*
X-1814410Y-3000000D01*
X-1833467Y-3016939D01*
X-1833467Y-3033879D01*
X-1814410Y-3050818D01*
X-1757240Y-3050818D01*
X-1738184Y-3033879D01*
X-1738184Y-3016939D01*
X-1757240Y-3000000D01*
D159*
X-2600000Y-3140000D02*
X-2600000Y-1580000D01*
X-3700000Y-1580000D01*
X-3700000Y-3140000D01*
X-2600000Y-3140000D01*
X-3200000Y-2360000D02*
X-3100000Y-2360000D01*
X-3150000Y-2310000D02*
X-3150000Y-2410000D01*
D169*
X-3490000Y-2960000D02*
X-3490000Y-2960000D01*
D170*
X-3258464Y-2733407D02*
X-3077690Y-2733407D01*
X-3041535Y-2692733D01*
X-3041535Y-2530037D01*
X-3077690Y-2489363D01*
X-3258464Y-2489363D01*
X-3186154Y-2326666D02*
X-3258464Y-2245318D01*
X-3041535Y-2245318D01*
X-3186154Y-2001273D02*
X-3258464Y-1919925D01*
X-3041535Y-1919925D01*
D61*
X-3635000Y-4510160D02*
X-2155000Y-4510160D01*
X-2155000Y-3239840D01*
X-3635000Y-3239840D01*
X-3635000Y-4510160D01*
D171*
X-3470000Y-3880000D02*
X-3470000Y-3880000D01*
D172*
X-2850832Y-4169998D02*
X-2654167Y-4169998D01*
X-2654167Y-3948750D01*
X-2785277Y-3801251D02*
X-2850832Y-3727501D01*
X-2654167Y-3727501D01*
D61*
X-3800800Y-3567170D02*
X-3699200Y-3567170D01*
X-3699200Y-3305550D01*
X-3800800Y-3305550D01*
X-3800800Y-3567170D01*
D161*
X-3750000Y-3350000D02*
X-3750000Y-3350000D01*
D162*
X-3738620Y-3505880D02*
X-3732931Y-3512281D01*
X-3732931Y-3531483D01*
X-3744310Y-3544284D01*
X-3755689Y-3544284D01*
X-3767068Y-3531483D01*
X-3767068Y-3512281D01*
X-3761379Y-3505880D01*
X-3761379Y-3486678D02*
X-3767068Y-3480277D01*
X-3767068Y-3461075D01*
X-3761379Y-3454674D01*
X-3755689Y-3454674D01*
X-3750000Y-3461075D01*
X-3750000Y-3480277D01*
X-3744310Y-3486678D01*
X-3732931Y-3486678D01*
X-3732931Y-3454674D01*
X-3761379Y-3435472D02*
X-3767068Y-3429071D01*
X-3767068Y-3409869D01*
X-3761379Y-3403468D01*
X-3755689Y-3403468D01*
X-3750000Y-3409869D01*
X-3744310Y-3403468D01*
X-3738620Y-3403468D01*
X-3732931Y-3409869D01*
X-3732931Y-3429071D01*
X-3738620Y-3435472D01*
X-3750000Y-3422670D02*
X-3750000Y-3409869D01*
D61*
X-240160Y-3180000D02*
X+790160Y-3180000D01*
X+790160Y-1890000D01*
X-240160Y-1890000D01*
X-240160Y-3180000D01*
D173*
X+280000Y-3030000D02*
X+280000Y-3030000D01*
D174*
X+332259Y-2623247D02*
X+360888Y-2655455D01*
X+360888Y-2752079D01*
X+303629Y-2816494D01*
X+246371Y-2816494D01*
X+189112Y-2752079D01*
X+189112Y-2655455D01*
X+217741Y-2623247D01*
X+217741Y-2526624D02*
X+189112Y-2494416D01*
X+189112Y-2397792D01*
X+217741Y-2365584D01*
X+246371Y-2365584D01*
X+275000Y-2397792D01*
X+275000Y-2494416D01*
X+303629Y-2526624D01*
X+360888Y-2526624D01*
X+360888Y-2365584D01*
X+246371Y-2236753D02*
X+189112Y-2172337D01*
X+360888Y-2172337D01*
D61*
X-1250800Y-3037170D02*
X-1149200Y-3037170D01*
X-1149200Y-2775550D01*
X-1250800Y-2775550D01*
X-1250800Y-3037170D01*
D161*
X-1200000Y-2820000D02*
X-1200000Y-2820000D01*
D162*
X-1188620Y-2975880D02*
X-1182931Y-2982281D01*
X-1182931Y-3001483D01*
X-1194310Y-3014284D01*
X-1205689Y-3014284D01*
X-1217068Y-3001483D01*
X-1217068Y-2982281D01*
X-1211379Y-2975880D01*
X-1211379Y-2956678D02*
X-1217068Y-2950277D01*
X-1217068Y-2931075D01*
X-1211379Y-2924674D01*
X-1205689Y-2924674D01*
X-1200000Y-2931075D01*
X-1200000Y-2950277D01*
X-1194310Y-2956678D01*
X-1182931Y-2956678D01*
X-1182931Y-2924674D01*
X-1205689Y-2873468D02*
X-1200000Y-2879869D01*
X-1200000Y-2899071D01*
X-1205689Y-2905472D01*
X-1211379Y-2905472D01*
X-1217068Y-2899071D01*
X-1217068Y-2879869D01*
X-1211379Y-2873468D01*
X-1188620Y-2873468D01*
X-1182931Y-2879869D01*
X-1182931Y-2899071D01*
D61*
X-3550160Y-1480000D02*
X-2829840Y-1480000D01*
X-2829840Y-480000D01*
X-3550160Y-480000D01*
X-3550160Y-1480000D01*
D173*
X-3190000Y-1330000D02*
X-3190000Y-1330000D01*
D175*
X-3143808Y-1030898D02*
X-3120712Y-1056881D01*
X-3120712Y-1134830D01*
X-3166904Y-1186796D01*
X-3213096Y-1186796D01*
X-3259288Y-1134830D01*
X-3259288Y-1056881D01*
X-3236192Y-1030898D01*
X-3236192Y-952949D02*
X-3259288Y-926966D01*
X-3259288Y-849017D01*
X-3236192Y-823034D01*
X-3213096Y-823034D01*
X-3190000Y-849017D01*
X-3190000Y-926966D01*
X-3166904Y-952949D01*
X-3120712Y-952949D01*
X-3120712Y-823034D01*
X-3236192Y-615170D02*
X-3259288Y-641153D01*
X-3259288Y-719102D01*
X-3236192Y-745085D01*
X-3143808Y-745085D01*
X-3120712Y-719102D01*
X-3120712Y-641153D01*
X-3143808Y-615170D01*
X-3166904Y-615170D01*
X-3190000Y-641153D01*
X-3190000Y-745085D01*
D61*
X-2550000Y-2190160D02*
X-1550000Y-2190160D01*
X-1550000Y-1469840D01*
X-2550000Y-1469840D01*
X-2550000Y-2190160D01*
D173*
X-2400000Y-1830000D02*
X-2400000Y-1830000D01*
D175*
X-2100898Y-1876192D02*
X-2126881Y-1899288D01*
X-2204830Y-1899288D01*
X-2256796Y-1853096D01*
X-2256796Y-1806904D01*
X-2204830Y-1760712D01*
X-2126881Y-1760712D01*
X-2100898Y-1783808D01*
X-2022949Y-1783808D02*
X-1996966Y-1760712D01*
X-1919017Y-1760712D01*
X-1893034Y-1783808D01*
X-1893034Y-1806904D01*
X-1919017Y-1830000D01*
X-1996966Y-1830000D01*
X-2022949Y-1853096D01*
X-2022949Y-1899288D01*
X-1893034Y-1899288D01*
X-1815085Y-1783808D02*
X-1789102Y-1760712D01*
X-1711153Y-1760712D01*
X-1685170Y-1783808D01*
X-1685170Y-1806904D01*
X-1711153Y-1830000D01*
X-1789102Y-1830000D01*
X-1815085Y-1853096D01*
X-1815085Y-1899288D01*
X-1685170Y-1899288D01*
D159*
X-2393000Y-2761000D02*
X-1677000Y-2761000D01*
X-1677000Y-2419000D01*
X-2393000Y-2419000D01*
X-2393000Y-2761000D01*
D167*
X-2250000Y-2590000D02*
X-2250000Y-2590000D01*
D168*
X-2167429Y-2640818D02*
X-2167429Y-2539182D01*
X-2091203Y-2539182D01*
X-2053090Y-2573061D01*
X-2053090Y-2606939D01*
X-2091203Y-2640818D01*
X-2167429Y-2640818D01*
X-1995920Y-2556121D02*
X-1976863Y-2539182D01*
X-1919693Y-2539182D01*
X-1900637Y-2556121D01*
X-1900637Y-2573061D01*
X-1919693Y-2590000D01*
X-1976863Y-2590000D01*
X-1995920Y-2606939D01*
X-1995920Y-2640818D01*
X-1900637Y-2640818D01*
X-1748184Y-2573061D02*
X-1767240Y-2590000D01*
X-1824410Y-2590000D01*
X-1843467Y-2573061D01*
X-1843467Y-2556121D01*
X-1824410Y-2539182D01*
X-1767240Y-2539182D01*
X-1748184Y-2556121D01*
X-1748184Y-2623879D01*
X-1767240Y-2640818D01*
X-1824410Y-2640818D01*
D61*
X-2067170Y-1360800D02*
X-1805550Y-1360800D01*
X-1805550Y-1259200D01*
X-2067170Y-1259200D01*
X-2067170Y-1360800D01*
D161*
X-2022720Y-1310000D02*
X-2022720Y-1310000D01*
D162*
X-1982054Y-1327069D02*
X-1982054Y-1292932D01*
X-1950051Y-1292932D01*
X-1943650Y-1298621D01*
X-1943650Y-1304311D01*
X-1950051Y-1310000D01*
X-1982054Y-1310000D01*
X-1950051Y-1310000D02*
X-1943650Y-1315690D01*
X-1943650Y-1327069D01*
X-1892444Y-1298621D02*
X-1898845Y-1292932D01*
X-1918047Y-1292932D01*
X-1924448Y-1298621D01*
X-1924448Y-1321380D01*
X-1918047Y-1327069D01*
X-1898845Y-1327069D01*
X-1892444Y-1321380D01*
X-1892444Y-1315690D01*
X-1898845Y-1310000D01*
X-1924448Y-1310000D01*
X-1841238Y-1315690D02*
X-1879642Y-1315690D01*
X-1854039Y-1292932D01*
X-1854039Y-1327069D01*
D159*
X-4215000Y-4135000D02*
X-3885000Y-4135000D01*
X-3885000Y-3945000D01*
X-4215000Y-3945000D01*
X-4215000Y-4135000D01*
X-4050000Y-3990000D02*
X-4050000Y-4090000D01*
X-4000000Y-4040000D02*
X-4100000Y-4040000D01*
D176*
X-4140000Y-4040000D02*
X-4140000Y-4040000D01*
D177*
X-4060051Y-4060924D02*
X-4060051Y-4019077D01*
X-4020820Y-4019077D01*
X-4012973Y-4026051D01*
X-4012973Y-4033026D01*
X-4020820Y-4040000D01*
X-4060051Y-4040000D01*
X-3997280Y-4019077D02*
X-3997280Y-4060924D01*
X-3973741Y-4040000D01*
X-3950202Y-4060924D01*
X-3950202Y-4019077D01*
D61*
X-1978160Y-4211160D02*
X-433840Y-4211160D01*
X-433840Y-3428840D01*
X-1978160Y-3428840D01*
X-1978160Y-4211160D01*
D163*
X-1714000Y-3820000D02*
X-1714000Y-3820000D01*
D178*
X-1372624Y-3856576D02*
X-1372624Y-3893152D01*
X-1331476Y-3929728D01*
X-1166884Y-3929728D01*
X-1125736Y-3893152D01*
X-1125736Y-3710272D01*
X-1002292Y-3710272D02*
X-796552Y-3710272D01*
X-796552Y-3746848D01*
X-1002292Y-3929728D01*
D61*
X+2007700Y-247180D02*
X+2731600Y-247180D01*
X+2731600Y+220180D01*
X+2007700Y+220180D01*
X+2007700Y-247180D01*
D154*
X+2109300Y+177000D02*
X+2109300Y+177000D01*
D155*
X+2053041Y+20980D02*
X+2053041Y-96283D01*
X+2079425Y-119735D01*
X+2184961Y-119735D01*
X+2211345Y-96283D01*
X+2211345Y+20980D01*
X+2316882Y-25925D02*
X+2369650Y+20980D01*
X+2369650Y-119735D01*
X+2501571Y+20980D02*
X+2633491Y+20980D01*
X+2633491Y-2472D01*
X+2501571Y-119735D01*
D61*
X-1094450Y-1150800D02*
X-832830Y-1150800D01*
X-832830Y-1049200D01*
X-1094450Y-1049200D01*
X-1094450Y-1150800D01*
D161*
X-1050000Y-1100000D02*
X-1050000Y-1100000D01*
D162*
X-970930Y-1111380D02*
X-977331Y-1117069D01*
X-996533Y-1117069D01*
X-1009334Y-1105690D01*
X-1009334Y-1094311D01*
X-996533Y-1082932D01*
X-977331Y-1082932D01*
X-970930Y-1088621D01*
X-951728Y-1088621D02*
X-945327Y-1082932D01*
X-926125Y-1082932D01*
X-919724Y-1088621D01*
X-919724Y-1094311D01*
X-926125Y-1100000D01*
X-919724Y-1105690D01*
X-919724Y-1111380D01*
X-926125Y-1117069D01*
X-945327Y-1117069D01*
X-951728Y-1111380D01*
X-938926Y-1100000D02*
X-926125Y-1100000D01*
X-900522Y-1088621D02*
X-894121Y-1082932D01*
X-874919Y-1082932D01*
X-868518Y-1088621D01*
X-868518Y-1094311D01*
X-874919Y-1100000D01*
X-894121Y-1100000D01*
X-900522Y-1105690D01*
X-900522Y-1117069D01*
X-868518Y-1117069D01*
D61*
X-1007170Y-2320800D02*
X-745550Y-2320800D01*
X-745550Y-2219200D01*
X-1007170Y-2219200D01*
X-1007170Y-2320800D01*
D161*
X-790000Y-2270000D02*
X-790000Y-2270000D01*
D162*
X-984284Y-2287069D02*
X-984284Y-2252932D01*
X-952281Y-2252932D01*
X-945880Y-2258621D01*
X-945880Y-2264311D01*
X-952281Y-2270000D01*
X-984284Y-2270000D01*
X-952281Y-2270000D02*
X-945880Y-2275690D01*
X-945880Y-2287069D01*
X-926678Y-2252932D02*
X-894674Y-2252932D01*
X-894674Y-2258621D01*
X-926678Y-2287069D01*
X-843468Y-2264311D02*
X-849869Y-2270000D01*
X-869071Y-2270000D01*
X-875472Y-2264311D01*
X-875472Y-2258621D01*
X-869071Y-2252932D01*
X-849869Y-2252932D01*
X-843468Y-2258621D01*
X-843468Y-2281380D01*
X-849869Y-2287069D01*
X-869071Y-2287069D01*
D61*
X-1297170Y-2320800D02*
X-1035550Y-2320800D01*
X-1035550Y-2219200D01*
X-1297170Y-2219200D01*
X-1297170Y-2320800D01*
D161*
X-1080000Y-2270000D02*
X-1080000Y-2270000D01*
D162*
X-1274284Y-2287069D02*
X-1274284Y-2252932D01*
X-1242281Y-2252932D01*
X-1235880Y-2258621D01*
X-1235880Y-2264311D01*
X-1242281Y-2270000D01*
X-1274284Y-2270000D01*
X-1242281Y-2270000D02*
X-1235880Y-2275690D01*
X-1235880Y-2287069D01*
X-1216678Y-2252932D02*
X-1184674Y-2252932D01*
X-1184674Y-2258621D01*
X-1216678Y-2287069D01*
X-1159071Y-2270000D02*
X-1165472Y-2264311D01*
X-1165472Y-2258621D01*
X-1159071Y-2252932D01*
X-1139869Y-2252932D01*
X-1133468Y-2258621D01*
X-1133468Y-2264311D01*
X-1139869Y-2270000D01*
X-1159071Y-2270000D01*
X-1165472Y-2275690D01*
X-1165472Y-2281380D01*
X-1159071Y-2287069D01*
X-1139869Y-2287069D01*
X-1133468Y-2281380D01*
X-1133468Y-2275690D01*
X-1139869Y-2270000D01*
D61*
X-1084450Y-2850160D02*
X-655550Y-2850160D01*
X-655550Y-2689840D01*
X-1084450Y-2689840D01*
X-1084450Y-2850160D01*
D165*
X-1040000Y-2770000D02*
X-1040000Y-2770000D01*
D179*
X-964835Y-2799400D02*
X-964835Y-2740600D01*
X-920735Y-2740600D01*
X-898685Y-2760200D01*
X-898685Y-2779800D01*
X-920735Y-2799400D01*
X-964835Y-2799400D01*
X-865610Y-2750400D02*
X-854585Y-2740600D01*
X-821510Y-2740600D01*
X-810485Y-2750400D01*
X-810485Y-2760200D01*
X-821510Y-2770000D01*
X-854585Y-2770000D01*
X-865610Y-2779800D01*
X-865610Y-2799400D01*
X-810485Y-2799400D01*
X-722285Y-2750400D02*
X-733310Y-2740600D01*
X-766385Y-2740600D01*
X-777410Y-2750400D01*
X-777410Y-2789600D01*
X-766385Y-2799400D01*
X-733310Y-2799400D01*
X-722285Y-2789600D01*
X-722285Y-2779800D01*
X-733310Y-2770000D01*
X-777410Y-2770000D01*
D61*
X-1377170Y-2640800D02*
X-1115550Y-2640800D01*
X-1115550Y-2539200D01*
X-1377170Y-2539200D01*
X-1377170Y-2640800D01*
D161*
X-1332720Y-2590000D02*
X-1332720Y-2590000D01*
D162*
X-1253650Y-2601380D02*
X-1260051Y-2607069D01*
X-1279253Y-2607069D01*
X-1292054Y-2595690D01*
X-1292054Y-2584311D01*
X-1279253Y-2572932D01*
X-1260051Y-2572932D01*
X-1253650Y-2578621D01*
X-1234448Y-2578621D02*
X-1228047Y-2572932D01*
X-1208845Y-2572932D01*
X-1202444Y-2578621D01*
X-1202444Y-2584311D01*
X-1208845Y-2590000D01*
X-1202444Y-2595690D01*
X-1202444Y-2601380D01*
X-1208845Y-2607069D01*
X-1228047Y-2607069D01*
X-1234448Y-2601380D01*
X-1221646Y-2590000D02*
X-1208845Y-2590000D01*
X-1176841Y-2584311D02*
X-1164039Y-2572932D01*
X-1164039Y-2607069D01*
D61*
X-1004450Y-1950800D02*
X-742830Y-1950800D01*
X-742830Y-1849200D01*
X-1004450Y-1849200D01*
X-1004450Y-1950800D01*
D161*
X-960000Y-1900000D02*
X-960000Y-1900000D01*
D162*
X-919334Y-1917069D02*
X-919334Y-1882932D01*
X-887331Y-1882932D01*
X-880930Y-1888621D01*
X-880930Y-1894311D01*
X-887331Y-1900000D01*
X-919334Y-1900000D01*
X-887331Y-1900000D02*
X-880930Y-1905690D01*
X-880930Y-1917069D01*
X-855327Y-1900000D02*
X-861728Y-1894311D01*
X-861728Y-1888621D01*
X-855327Y-1882932D01*
X-836125Y-1882932D01*
X-829724Y-1888621D01*
X-829724Y-1894311D01*
X-836125Y-1900000D01*
X-855327Y-1900000D01*
X-861728Y-1905690D01*
X-861728Y-1911380D01*
X-855327Y-1917069D01*
X-836125Y-1917069D01*
X-829724Y-1911380D01*
X-829724Y-1905690D01*
X-836125Y-1900000D01*
X-804121Y-1894311D02*
X-791319Y-1882932D01*
X-791319Y-1917069D01*
D61*
X-1314450Y-1950800D02*
X-1052830Y-1950800D01*
X-1052830Y-1849200D01*
X-1314450Y-1849200D01*
X-1314450Y-1950800D01*
D161*
X-1270000Y-1900000D02*
X-1270000Y-1900000D01*
D162*
X-1229334Y-1917069D02*
X-1229334Y-1882932D01*
X-1197331Y-1882932D01*
X-1190930Y-1888621D01*
X-1190930Y-1894311D01*
X-1197331Y-1900000D01*
X-1229334Y-1900000D01*
X-1197331Y-1900000D02*
X-1190930Y-1905690D01*
X-1190930Y-1917069D01*
X-1165327Y-1900000D02*
X-1171728Y-1894311D01*
X-1171728Y-1888621D01*
X-1165327Y-1882932D01*
X-1146125Y-1882932D01*
X-1139724Y-1888621D01*
X-1139724Y-1894311D01*
X-1146125Y-1900000D01*
X-1165327Y-1900000D01*
X-1171728Y-1905690D01*
X-1171728Y-1911380D01*
X-1165327Y-1917069D01*
X-1146125Y-1917069D01*
X-1139724Y-1911380D01*
X-1139724Y-1905690D01*
X-1146125Y-1900000D01*
X-1126922Y-1911380D02*
X-1126922Y-1888621D01*
X-1120522Y-1882932D01*
X-1094919Y-1882932D01*
X-1088518Y-1888621D01*
X-1088518Y-1911380D01*
X-1094919Y-1917069D01*
X-1120522Y-1917069D01*
X-1126922Y-1911380D01*
X-1126922Y-1917069D02*
X-1088518Y-1882932D01*
D61*
X-1084450Y-3140160D02*
X-655550Y-3140160D01*
X-655550Y-2979840D01*
X-1084450Y-2979840D01*
X-1084450Y-3140160D01*
D165*
X-700000Y-3060000D02*
X-700000Y-3060000D01*
D179*
X-1039765Y-3089400D02*
X-1039765Y-3030600D01*
X-995665Y-3030600D01*
X-973615Y-3050200D01*
X-973615Y-3069800D01*
X-995665Y-3089400D01*
X-1039765Y-3089400D01*
X-940540Y-3040400D02*
X-929515Y-3030600D01*
X-896440Y-3030600D01*
X-885415Y-3040400D01*
X-885415Y-3050200D01*
X-896440Y-3060000D01*
X-929515Y-3060000D01*
X-940540Y-3069800D01*
X-940540Y-3089400D01*
X-885415Y-3089400D01*
X-852340Y-3030600D02*
X-797215Y-3030600D01*
X-797215Y-3040400D01*
X-852340Y-3089400D01*
D61*
X-1087170Y-2640800D02*
X-825550Y-2640800D01*
X-825550Y-2539200D01*
X-1087170Y-2539200D01*
X-1087170Y-2640800D01*
D161*
X-1042720Y-2590000D02*
X-1042720Y-2590000D01*
D162*
X-963650Y-2601380D02*
X-970051Y-2607069D01*
X-989253Y-2607069D01*
X-1002054Y-2595690D01*
X-1002054Y-2584311D01*
X-989253Y-2572932D01*
X-970051Y-2572932D01*
X-963650Y-2578621D01*
X-944448Y-2578621D02*
X-938047Y-2572932D01*
X-918845Y-2572932D01*
X-912444Y-2578621D01*
X-912444Y-2584311D01*
X-918845Y-2590000D01*
X-912444Y-2595690D01*
X-912444Y-2601380D01*
X-918845Y-2607069D01*
X-938047Y-2607069D01*
X-944448Y-2601380D01*
X-931646Y-2590000D02*
X-918845Y-2590000D01*
X-899642Y-2601380D02*
X-899642Y-2578621D01*
X-893242Y-2572932D01*
X-867639Y-2572932D01*
X-861238Y-2578621D01*
X-861238Y-2601380D01*
X-867639Y-2607069D01*
X-893242Y-2607069D01*
X-899642Y-2601380D01*
X-899642Y-2607069D02*
X-861238Y-2572932D01*
D61*
X+1302120Y-2319250D02*
X+2469250Y-2319250D01*
X+2469250Y-1620750D01*
X+1302120Y-1620750D01*
X+1302120Y-2319250D01*
D180*
X+1429120Y-1741400D02*
X+1429120Y-1741400D01*
D68*
X+1704305Y-1939969D02*
X+1771875Y-1879907D01*
X+1839445Y-1879907D01*
X+1907015Y-1939969D01*
X+1907015Y-2000032D01*
X+1839445Y-2060094D01*
X+1771875Y-2060094D01*
X+1704305Y-2000032D01*
X+1704305Y-1939969D01*
X+1839445Y-2000032D02*
X+1907015Y-2060094D01*
X+2008370Y-1909938D02*
X+2042155Y-1879907D01*
X+2143510Y-1879907D01*
X+2177295Y-1909938D01*
X+2177295Y-1939969D01*
X+2143510Y-1970000D01*
X+2042155Y-1970000D01*
X+2008370Y-2000032D01*
X+2008370Y-2060094D01*
X+2177295Y-2060094D01*
D61*
X+1242830Y+4044200D02*
X+1504450Y+4044200D01*
X+1504450Y+4145800D01*
X+1242830Y+4145800D01*
X+1242830Y+4044200D01*
D161*
X+1460000Y+4095000D02*
X+1460000Y+4095000D01*
D162*
X+1265716Y+4077931D02*
X+1265716Y+4112068D01*
X+1297719Y+4112068D01*
X+1304120Y+4106379D01*
X+1304120Y+4100689D01*
X+1297719Y+4095000D01*
X+1265716Y+4095000D01*
X+1297719Y+4095000D02*
X+1304120Y+4089310D01*
X+1304120Y+4077931D01*
X+1355326Y+4089310D02*
X+1316922Y+4089310D01*
X+1342525Y+4112068D01*
X+1342525Y+4077931D01*
X+1406532Y+4112068D02*
X+1374528Y+4112068D01*
X+1374528Y+4100689D01*
X+1400131Y+4100689D01*
X+1406532Y+4095000D01*
X+1406532Y+4083620D01*
X+1400131Y+4077931D01*
X+1380929Y+4077931D01*
X+1374528Y+4083620D01*
D61*
X+1172830Y+2994200D02*
X+1434450Y+2994200D01*
X+1434450Y+3095800D01*
X+1172830Y+3095800D01*
X+1172830Y+2994200D01*
D161*
X+1217280Y+3045000D02*
X+1217280Y+3045000D01*
D162*
X+1296350Y+3033620D02*
X+1289949Y+3027931D01*
X+1270747Y+3027931D01*
X+1257946Y+3039310D01*
X+1257946Y+3050689D01*
X+1270747Y+3062068D01*
X+1289949Y+3062068D01*
X+1296350Y+3056379D01*
X+1315552Y+3056379D02*
X+1321953Y+3062068D01*
X+1341155Y+3062068D01*
X+1347556Y+3056379D01*
X+1347556Y+3050689D01*
X+1341155Y+3045000D01*
X+1347556Y+3039310D01*
X+1347556Y+3033620D01*
X+1341155Y+3027931D01*
X+1321953Y+3027931D01*
X+1315552Y+3033620D01*
X+1328354Y+3045000D02*
X+1341155Y+3045000D01*
X+1398762Y+3062068D02*
X+1366758Y+3062068D01*
X+1366758Y+3050689D01*
X+1392361Y+3050689D01*
X+1398762Y+3045000D01*
X+1398762Y+3033620D01*
X+1392361Y+3027931D01*
X+1373159Y+3027931D01*
X+1366758Y+3033620D01*
D61*
X+1172830Y+2474200D02*
X+1434450Y+2474200D01*
X+1434450Y+2575800D01*
X+1172830Y+2575800D01*
X+1172830Y+2474200D01*
D161*
X+1217280Y+2525000D02*
X+1217280Y+2525000D01*
D162*
X+1257946Y+2507931D02*
X+1257946Y+2542068D01*
X+1289949Y+2542068D01*
X+1296350Y+2536379D01*
X+1296350Y+2530689D01*
X+1289949Y+2525000D01*
X+1257946Y+2525000D01*
X+1289949Y+2525000D02*
X+1296350Y+2519310D01*
X+1296350Y+2507931D01*
X+1347556Y+2519310D02*
X+1309152Y+2519310D01*
X+1334755Y+2542068D01*
X+1334755Y+2507931D01*
X+1360358Y+2513620D02*
X+1360358Y+2536379D01*
X+1366758Y+2542068D01*
X+1392361Y+2542068D01*
X+1398762Y+2536379D01*
X+1398762Y+2513620D01*
X+1392361Y+2507931D01*
X+1366758Y+2507931D01*
X+1360358Y+2513620D01*
X+1360358Y+2507931D02*
X+1398762Y+2542068D01*
D61*
X+2422830Y+3324200D02*
X+2684450Y+3324200D01*
X+2684450Y+3425800D01*
X+2422830Y+3425800D01*
X+2422830Y+3324200D01*
D161*
X+2640000Y+3375000D02*
X+2640000Y+3375000D01*
D162*
X+2445716Y+3357931D02*
X+2445716Y+3392068D01*
X+2477719Y+3392068D01*
X+2484120Y+3386379D01*
X+2484120Y+3380689D01*
X+2477719Y+3375000D01*
X+2445716Y+3375000D01*
X+2477719Y+3375000D02*
X+2484120Y+3369310D01*
X+2484120Y+3357931D01*
X+2535326Y+3369310D02*
X+2496922Y+3369310D01*
X+2522525Y+3392068D01*
X+2522525Y+3357931D01*
X+2560929Y+3380689D02*
X+2573731Y+3392068D01*
X+2573731Y+3357931D01*
D61*
X+2425550Y+3194200D02*
X+2687170Y+3194200D01*
X+2687170Y+3295800D01*
X+2425550Y+3295800D01*
X+2425550Y+3194200D01*
D161*
X+2642720Y+3245000D02*
X+2642720Y+3245000D01*
D162*
X+2448436Y+3227931D02*
X+2448436Y+3262068D01*
X+2480439Y+3262068D01*
X+2486840Y+3256379D01*
X+2486840Y+3250689D01*
X+2480439Y+3245000D01*
X+2448436Y+3245000D01*
X+2480439Y+3245000D02*
X+2486840Y+3239310D01*
X+2486840Y+3227931D01*
X+2538046Y+3239310D02*
X+2499642Y+3239310D01*
X+2525245Y+3262068D01*
X+2525245Y+3227931D01*
X+2557248Y+3256379D02*
X+2563649Y+3262068D01*
X+2582851Y+3262068D01*
X+2589252Y+3256379D01*
X+2589252Y+3250689D01*
X+2582851Y+3245000D01*
X+2563649Y+3245000D01*
X+2557248Y+3239310D01*
X+2557248Y+3227931D01*
X+2589252Y+3227931D01*
D61*
X+1152830Y+3444200D02*
X+1414450Y+3444200D01*
X+1414450Y+3545800D01*
X+1152830Y+3545800D01*
X+1152830Y+3444200D01*
D161*
X+1370000Y+3495000D02*
X+1370000Y+3495000D01*
D162*
X+1175716Y+3477931D02*
X+1175716Y+3512068D01*
X+1207719Y+3512068D01*
X+1214120Y+3506379D01*
X+1214120Y+3500689D01*
X+1207719Y+3495000D01*
X+1175716Y+3495000D01*
X+1207719Y+3495000D02*
X+1214120Y+3489310D01*
X+1214120Y+3477931D01*
X+1233322Y+3506379D02*
X+1239723Y+3512068D01*
X+1258925Y+3512068D01*
X+1265326Y+3506379D01*
X+1265326Y+3500689D01*
X+1258925Y+3495000D01*
X+1265326Y+3489310D01*
X+1265326Y+3483620D01*
X+1258925Y+3477931D01*
X+1239723Y+3477931D01*
X+1233322Y+3483620D01*
X+1246124Y+3495000D02*
X+1258925Y+3495000D01*
X+1290929Y+3495000D02*
X+1284528Y+3500689D01*
X+1284528Y+3506379D01*
X+1290929Y+3512068D01*
X+1310131Y+3512068D01*
X+1316532Y+3506379D01*
X+1316532Y+3500689D01*
X+1310131Y+3495000D01*
X+1290929Y+3495000D01*
X+1284528Y+3489310D01*
X+1284528Y+3483620D01*
X+1290929Y+3477931D01*
X+1310131Y+3477931D01*
X+1316532Y+3483620D01*
X+1316532Y+3489310D01*
X+1310131Y+3495000D01*
D61*
X+1152830Y+3304200D02*
X+1414450Y+3304200D01*
X+1414450Y+3405800D01*
X+1152830Y+3405800D01*
X+1152830Y+3304200D01*
D161*
X+1197280Y+3355000D02*
X+1197280Y+3355000D01*
D162*
X+1237946Y+3337931D02*
X+1237946Y+3372068D01*
X+1269949Y+3372068D01*
X+1276350Y+3366379D01*
X+1276350Y+3360689D01*
X+1269949Y+3355000D01*
X+1237946Y+3355000D01*
X+1269949Y+3355000D02*
X+1276350Y+3349310D01*
X+1276350Y+3337931D01*
X+1295552Y+3366379D02*
X+1301953Y+3372068D01*
X+1321155Y+3372068D01*
X+1327556Y+3366379D01*
X+1327556Y+3360689D01*
X+1321155Y+3355000D01*
X+1327556Y+3349310D01*
X+1327556Y+3343620D01*
X+1321155Y+3337931D01*
X+1301953Y+3337931D01*
X+1295552Y+3343620D01*
X+1308354Y+3355000D02*
X+1321155Y+3355000D01*
X+1378762Y+3360689D02*
X+1372361Y+3355000D01*
X+1353159Y+3355000D01*
X+1346758Y+3360689D01*
X+1346758Y+3366379D01*
X+1353159Y+3372068D01*
X+1372361Y+3372068D01*
X+1378762Y+3366379D01*
X+1378762Y+3343620D01*
X+1372361Y+3337931D01*
X+1353159Y+3337931D01*
D61*
X+1239610Y+3928180D02*
X+1501230Y+3928180D01*
X+1501230Y+4029780D01*
X+1239610Y+4029780D01*
X+1239610Y+3928180D01*
D161*
X+1456780Y+3978980D02*
X+1456780Y+3978980D01*
D162*
X+1262496Y+3961911D02*
X+1262496Y+3996048D01*
X+1294499Y+3996048D01*
X+1300900Y+3990359D01*
X+1300900Y+3984669D01*
X+1294499Y+3978980D01*
X+1262496Y+3978980D01*
X+1294499Y+3978980D02*
X+1300900Y+3973290D01*
X+1300900Y+3961911D01*
X+1352106Y+3973290D02*
X+1313702Y+3973290D01*
X+1339305Y+3996048D01*
X+1339305Y+3961911D01*
X+1403312Y+3990359D02*
X+1396911Y+3996048D01*
X+1377709Y+3996048D01*
X+1371308Y+3990359D01*
X+1371308Y+3967600D01*
X+1377709Y+3961911D01*
X+1396911Y+3961911D01*
X+1403312Y+3967600D01*
X+1403312Y+3973290D01*
X+1396911Y+3978980D01*
X+1371308Y+3978980D01*
D61*
X+1172830Y+2854200D02*
X+1434450Y+2854200D01*
X+1434450Y+2955800D01*
X+1172830Y+2955800D01*
X+1172830Y+2854200D01*
D161*
X+1217280Y+2905000D02*
X+1217280Y+2905000D01*
D162*
X+1257946Y+2887931D02*
X+1257946Y+2922068D01*
X+1289949Y+2922068D01*
X+1296350Y+2916379D01*
X+1296350Y+2910689D01*
X+1289949Y+2905000D01*
X+1257946Y+2905000D01*
X+1289949Y+2905000D02*
X+1296350Y+2899310D01*
X+1296350Y+2887931D01*
X+1347556Y+2899310D02*
X+1309152Y+2899310D01*
X+1334755Y+2922068D01*
X+1334755Y+2887931D01*
X+1398762Y+2899310D02*
X+1360358Y+2899310D01*
X+1385961Y+2922068D01*
X+1385961Y+2887931D01*
D61*
X-4991160Y-1822160D02*
X-4208840Y-1822160D01*
X-4208840Y-785840D01*
X-4991160Y-785840D01*
X-4991160Y-1822160D01*
D163*
X-4600000Y-1050000D02*
X-4600000Y-1050000D01*
D181*
X-4909981Y-1489522D02*
X-4909981Y-1512484D01*
X-4884150Y-1535445D01*
X-4780823Y-1535445D01*
X-4754991Y-1512484D01*
X-4754991Y-1397676D01*
X-4677496Y-1420637D02*
X-4651664Y-1397676D01*
X-4574169Y-1397676D01*
X-4548337Y-1420637D01*
X-4548337Y-1443599D01*
X-4574169Y-1466560D01*
X-4651664Y-1466560D01*
X-4677496Y-1489522D01*
X-4677496Y-1535445D01*
X-4548337Y-1535445D01*
X-4445010Y-1443599D02*
X-4393346Y-1397676D01*
X-4393346Y-1535445D01*
D61*
X+2449200Y+1291180D02*
X+2865760Y+1291180D01*
X+2865760Y+1458820D01*
X+2449200Y+1458820D01*
X+2449200Y+1291180D01*
D165*
X+2814960Y+1375000D02*
X+2814960Y+1375000D01*
D166*
X+2547232Y+1354375D02*
X+2535630Y+1344062D01*
X+2500826Y+1344062D01*
X+2477624Y+1364687D01*
X+2477624Y+1385312D01*
X+2500826Y+1405937D01*
X+2535630Y+1405937D01*
X+2547232Y+1395624D01*
X+2582036Y+1395624D02*
X+2593637Y+1405937D01*
X+2628441Y+1405937D01*
X+2640043Y+1395624D01*
X+2640043Y+1385312D01*
X+2628441Y+1375000D01*
X+2640043Y+1364687D01*
X+2640043Y+1354375D01*
X+2628441Y+1344062D01*
X+2593637Y+1344062D01*
X+2582036Y+1354375D01*
X+2605239Y+1375000D02*
X+2628441Y+1375000D01*
X+2732854Y+1364687D02*
X+2663246Y+1364687D01*
X+2709651Y+1405937D01*
X+2709651Y+1344062D01*
D61*
X+2435550Y+1494840D02*
X+2864450Y+1494840D01*
X+2864450Y+1655160D01*
X+2435550Y+1655160D01*
X+2435550Y+1494840D01*
D165*
X+2480000Y+1575000D02*
X+2480000Y+1575000D01*
D179*
X+2555165Y+1545600D02*
X+2555165Y+1604400D01*
X+2599265Y+1604400D01*
X+2621315Y+1584800D01*
X+2621315Y+1565200D01*
X+2599265Y+1545600D01*
X+2555165Y+1545600D01*
X+2654390Y+1594600D02*
X+2665415Y+1604400D01*
X+2698490Y+1604400D01*
X+2709515Y+1594600D01*
X+2709515Y+1584800D01*
X+2698490Y+1575000D01*
X+2709515Y+1565200D01*
X+2709515Y+1555400D01*
X+2698490Y+1545600D01*
X+2665415Y+1545600D01*
X+2654390Y+1555400D01*
X+2676440Y+1575000D02*
X+2698490Y+1575000D01*
X+2742590Y+1594600D02*
X+2753615Y+1604400D01*
X+2786690Y+1604400D01*
X+2797715Y+1594600D01*
X+2797715Y+1584800D01*
X+2786690Y+1575000D01*
X+2797715Y+1565200D01*
X+2797715Y+1555400D01*
X+2786690Y+1545600D01*
X+2753615Y+1545600D01*
X+2742590Y+1555400D01*
X+2764640Y+1575000D02*
X+2786690Y+1575000D01*
D61*
X-2772500Y+4597500D02*
X-1947500Y+4597500D01*
X-1947500Y+5290160D01*
X-2772500Y+5290160D01*
X-2772500Y+4597500D01*
D156*
X-2230000Y+4690000D02*
X-2230000Y+4690000D01*
D182*
X-2594943Y+4972975D02*
X-2594943Y+4946870D01*
X-2565576Y+4920765D01*
X-2448104Y+4920765D01*
X-2418736Y+4946870D01*
X-2418736Y+5077394D01*
X-2183793Y+5025184D02*
X-2213161Y+4999080D01*
X-2301265Y+4999080D01*
X-2330633Y+5025184D01*
X-2330633Y+5051289D01*
X-2301265Y+5077394D01*
X-2213161Y+5077394D01*
X-2183793Y+5051289D01*
X-2183793Y+4946870D01*
X-2213161Y+4920765D01*
X-2301265Y+4920765D01*
D61*
X-2662457Y+3621239D02*
X-1687097Y+3621239D01*
X-1687097Y+4345139D01*
X-2662457Y+4345139D01*
X-2662457Y+3621239D01*
D154*
X-1730277Y+4243539D02*
X-1730277Y+4243539D01*
D183*
X-2572926Y+4063694D02*
X-2572926Y+3929519D01*
X-2542737Y+3902684D01*
X-2421980Y+3902684D01*
X-2391790Y+3929519D01*
X-2391790Y+4063694D01*
X-2271033Y+4010024D02*
X-2210654Y+4063694D01*
X-2210654Y+3902684D01*
X-1908760Y+3956354D02*
X-2089896Y+3956354D01*
X-1969139Y+4063694D01*
X-1969139Y+3902684D01*
D61*
X-1250800Y-1363820D02*
X-834240Y-1363820D01*
X-834240Y-1196180D01*
X-1250800Y-1196180D01*
X-1250800Y-1363820D01*
D165*
X-1200000Y-1280000D02*
X-1200000Y-1280000D01*
D166*
X-1071488Y-1300625D02*
X-1083090Y-1310938D01*
X-1117894Y-1310938D01*
X-1141096Y-1290313D01*
X-1141096Y-1269688D01*
X-1117894Y-1249063D01*
X-1083090Y-1249063D01*
X-1071488Y-1259376D01*
X-1025083Y-1269688D02*
X-1001880Y-1249063D01*
X-1001880Y-1310938D01*
X-932272Y-1280000D02*
X-943873Y-1269688D01*
X-943873Y-1259376D01*
X-932272Y-1249063D01*
X-897468Y-1249063D01*
X-885866Y-1259376D01*
X-885866Y-1269688D01*
X-897468Y-1280000D01*
X-932272Y-1280000D01*
X-943873Y-1290313D01*
X-943873Y-1300625D01*
X-932272Y-1310938D01*
X-897468Y-1310938D01*
X-885866Y-1300625D01*
X-885866Y-1290313D01*
X-897468Y-1280000D01*
D61*
X-1250800Y-1563820D02*
X-834240Y-1563820D01*
X-834240Y-1396180D01*
X-1250800Y-1396180D01*
X-1250800Y-1563820D01*
D165*
X-1200000Y-1480000D02*
X-1200000Y-1480000D01*
D166*
X-1071488Y-1500625D02*
X-1083090Y-1510938D01*
X-1117894Y-1510938D01*
X-1141096Y-1490313D01*
X-1141096Y-1469688D01*
X-1117894Y-1449063D01*
X-1083090Y-1449063D01*
X-1071488Y-1459376D01*
X-1025083Y-1469688D02*
X-1001880Y-1449063D01*
X-1001880Y-1510938D01*
X-885866Y-1469688D02*
X-897468Y-1480000D01*
X-932272Y-1480000D01*
X-943873Y-1469688D01*
X-943873Y-1459376D01*
X-932272Y-1449063D01*
X-897468Y-1449063D01*
X-885866Y-1459376D01*
X-885866Y-1500625D01*
X-897468Y-1510938D01*
X-932272Y-1510938D01*
D61*
X-1250800Y-1763820D02*
X-834240Y-1763820D01*
X-834240Y-1596180D01*
X-1250800Y-1596180D01*
X-1250800Y-1763820D01*
D165*
X-1200000Y-1680000D02*
X-1200000Y-1680000D01*
D166*
X-1071488Y-1700625D02*
X-1083090Y-1710938D01*
X-1117894Y-1710938D01*
X-1141096Y-1690313D01*
X-1141096Y-1669688D01*
X-1117894Y-1649063D01*
X-1083090Y-1649063D01*
X-1071488Y-1659376D01*
X-1036684Y-1659376D02*
X-1025083Y-1649063D01*
X-990279Y-1649063D01*
X-978677Y-1659376D01*
X-978677Y-1669688D01*
X-990279Y-1680000D01*
X-1025083Y-1680000D01*
X-1036684Y-1690313D01*
X-1036684Y-1710938D01*
X-978677Y-1710938D01*
X-955474Y-1700625D02*
X-955474Y-1659376D01*
X-943873Y-1649063D01*
X-897468Y-1649063D01*
X-885866Y-1659376D01*
X-885866Y-1700625D01*
X-897468Y-1710938D01*
X-943873Y-1710938D01*
X-955474Y-1700625D01*
X-955474Y-1710938D02*
X-885866Y-1649063D01*
D61*
X-1937170Y+2959200D02*
X-1675550Y+2959200D01*
X-1675550Y+3060800D01*
X-1937170Y+3060800D01*
X-1937170Y+2959200D01*
D161*
X-1892720Y+3010000D02*
X-1892720Y+3010000D01*
D162*
X-1813650Y+2998620D02*
X-1820051Y+2992931D01*
X-1839253Y+2992931D01*
X-1852054Y+3004310D01*
X-1852054Y+3015689D01*
X-1839253Y+3027068D01*
X-1820051Y+3027068D01*
X-1813650Y+3021379D01*
X-1794448Y+3021379D02*
X-1788047Y+3027068D01*
X-1768845Y+3027068D01*
X-1762444Y+3021379D01*
X-1762444Y+3015689D01*
X-1768845Y+3010000D01*
X-1788047Y+3010000D01*
X-1794448Y+3004310D01*
X-1794448Y+2992931D01*
X-1762444Y+2992931D01*
X-1743242Y+3027068D02*
X-1711238Y+3027068D01*
X-1711238Y+3021379D01*
X-1743242Y+2992931D01*
D61*
X-2363602Y+2262389D02*
X-2053722Y+2262389D01*
X-2053722Y+2554489D01*
X-2363602Y+2554489D01*
X-2363602Y+2262389D01*
D184*
X-2114682Y+2503689D02*
X-2114682Y+2503689D01*
D185*
X-2338964Y+2382531D02*
X-2317247Y+2401835D01*
X-2295530Y+2401835D01*
X-2273813Y+2382531D01*
X-2273813Y+2363227D01*
X-2295530Y+2343923D01*
X-2317247Y+2343923D01*
X-2338964Y+2363227D01*
X-2338964Y+2382531D01*
X-2295530Y+2363227D02*
X-2273813Y+2343923D01*
X-2230379Y+2382531D02*
X-2208662Y+2401835D01*
X-2208662Y+2343923D01*
X-2143511Y+2382531D02*
X-2121794Y+2401835D01*
X-2121794Y+2343923D01*
D61*
X-2813602Y+2262389D02*
X-2503722Y+2262389D01*
X-2503722Y+2554489D01*
X-2813602Y+2554489D01*
X-2813602Y+2262389D01*
D184*
X-2564682Y+2503689D02*
X-2564682Y+2503689D01*
D185*
X-2788964Y+2382531D02*
X-2767247Y+2401835D01*
X-2745530Y+2401835D01*
X-2723813Y+2382531D01*
X-2723813Y+2363227D01*
X-2745530Y+2343923D01*
X-2767247Y+2343923D01*
X-2788964Y+2363227D01*
X-2788964Y+2382531D01*
X-2745530Y+2363227D02*
X-2723813Y+2343923D01*
X-2680379Y+2382531D02*
X-2658662Y+2401835D01*
X-2658662Y+2343923D01*
X-2604370Y+2392183D02*
X-2593511Y+2401835D01*
X-2560936Y+2401835D01*
X-2550077Y+2392183D01*
X-2550077Y+2382531D01*
X-2560936Y+2372879D01*
X-2593511Y+2372879D01*
X-2604370Y+2363227D01*
X-2604370Y+2343923D01*
X-2550077Y+2343923D01*
D61*
X-2317170Y+1979200D02*
X-2055550Y+1979200D01*
X-2055550Y+2080800D01*
X-2317170Y+2080800D01*
X-2317170Y+1979200D01*
D161*
X-2272720Y+2030000D02*
X-2272720Y+2030000D01*
D162*
X-2232054Y+2012931D02*
X-2232054Y+2047068D01*
X-2200051Y+2047068D01*
X-2193650Y+2041379D01*
X-2193650Y+2035689D01*
X-2200051Y+2030000D01*
X-2232054Y+2030000D01*
X-2200051Y+2030000D02*
X-2193650Y+2024310D01*
X-2193650Y+2012931D01*
X-2142444Y+2041379D02*
X-2148845Y+2047068D01*
X-2168047Y+2047068D01*
X-2174448Y+2041379D01*
X-2174448Y+2018620D01*
X-2168047Y+2012931D01*
X-2148845Y+2012931D01*
X-2142444Y+2018620D01*
X-2142444Y+2024310D01*
X-2148845Y+2030000D01*
X-2174448Y+2030000D01*
X-2091238Y+2047068D02*
X-2123242Y+2047068D01*
X-2123242Y+2035689D01*
X-2097639Y+2035689D01*
X-2091238Y+2030000D01*
X-2091238Y+2018620D01*
X-2097639Y+2012931D01*
X-2116841Y+2012931D01*
X-2123242Y+2018620D01*
D61*
X-2789472Y+2012389D02*
X-2527852Y+2012389D01*
X-2527852Y+2113989D01*
X-2789472Y+2113989D01*
X-2789472Y+2012389D01*
D161*
X-2745022Y+2063189D02*
X-2745022Y+2063189D01*
D162*
X-2704356Y+2046120D02*
X-2704356Y+2080257D01*
X-2672353Y+2080257D01*
X-2665952Y+2074568D01*
X-2665952Y+2068878D01*
X-2672353Y+2063189D01*
X-2704356Y+2063189D01*
X-2672353Y+2063189D02*
X-2665952Y+2057499D01*
X-2665952Y+2046120D01*
X-2614746Y+2074568D02*
X-2621147Y+2080257D01*
X-2640349Y+2080257D01*
X-2646750Y+2074568D01*
X-2646750Y+2051809D01*
X-2640349Y+2046120D01*
X-2621147Y+2046120D01*
X-2614746Y+2051809D01*
X-2614746Y+2057499D01*
X-2621147Y+2063189D01*
X-2646750Y+2063189D01*
X-2563540Y+2074568D02*
X-2569941Y+2080257D01*
X-2589143Y+2080257D01*
X-2595544Y+2074568D01*
X-2595544Y+2051809D01*
X-2589143Y+2046120D01*
X-2569941Y+2046120D01*
X-2563540Y+2051809D01*
X-2563540Y+2057499D01*
X-2569941Y+2063189D01*
X-2595544Y+2063189D01*
D159*
X-2114777Y+2668189D02*
X-2114777Y+3518189D01*
X-2834777Y+3518189D01*
X-2834777Y+2668189D01*
X-2114777Y+2668189D01*
X-2524777Y+3093189D02*
X-2424777Y+3093189D01*
X-2474777Y+3143189D02*
X-2474777Y+3043189D01*
D186*
X-2704777Y+2803189D02*
X-2704777Y+2803189D01*
D187*
X-2765442Y+3247676D02*
X-2765442Y+3140022D01*
X-2741220Y+3118491D01*
X-2644332Y+3118491D01*
X-2620110Y+3140022D01*
X-2620110Y+3247676D01*
X-2523221Y+3204614D02*
X-2474777Y+3247676D01*
X-2474777Y+3118491D01*
X-2353666Y+3226145D02*
X-2329444Y+3247676D01*
X-2256778Y+3247676D01*
X-2232556Y+3226145D01*
X-2232556Y+3204614D01*
X-2256778Y+3183084D01*
X-2232556Y+3161553D01*
X-2232556Y+3140022D01*
X-2256778Y+3118491D01*
X-2329444Y+3118491D01*
X-2353666Y+3140022D01*
X-2305222Y+3183084D02*
X-2256778Y+3183084D01*
D61*
X-1797978Y+1953545D02*
X-1247978Y+1953545D01*
X-1247978Y+2273865D01*
X-1797978Y+2273865D01*
X-1797978Y+1953545D01*
D188*
X-1732978Y+2113705D02*
X-1732978Y+2113705D01*
D189*
X-1667284Y+2081404D02*
X-1667284Y+2146006D01*
X-1606720Y+2146006D01*
X-1594607Y+2135239D01*
X-1594607Y+2124472D01*
X-1606720Y+2113705D01*
X-1594607Y+2102938D01*
X-1594607Y+2092171D01*
X-1606720Y+2081404D01*
X-1667284Y+2081404D01*
X-1667284Y+2113705D02*
X-1606720Y+2113705D01*
X-1570381Y+2146006D02*
X-1497704Y+2146006D01*
X-1534043Y+2146006D02*
X-1534043Y+2081404D01*
X-1473478Y+2081404D02*
X-1473478Y+2146006D01*
X-1400801Y+2081404D01*
X-1400801Y+2146006D01*
X-1352350Y+2124472D02*
X-1328124Y+2146006D01*
X-1328124Y+2081404D01*
D61*
X-1795000Y+1369840D02*
X-1245000Y+1369840D01*
X-1245000Y+1690160D01*
X-1795000Y+1690160D01*
X-1795000Y+1369840D01*
D188*
X-1730000Y+1530000D02*
X-1730000Y+1530000D01*
D189*
X-1664306Y+1497699D02*
X-1664306Y+1562301D01*
X-1603742Y+1562301D01*
X-1591629Y+1551534D01*
X-1591629Y+1540767D01*
X-1603742Y+1530000D01*
X-1591629Y+1519233D01*
X-1591629Y+1508466D01*
X-1603742Y+1497699D01*
X-1664306Y+1497699D01*
X-1664306Y+1530000D02*
X-1603742Y+1530000D01*
X-1567403Y+1562301D02*
X-1494726Y+1562301D01*
X-1531065Y+1562301D02*
X-1531065Y+1497699D01*
X-1470500Y+1497699D02*
X-1470500Y+1562301D01*
X-1397823Y+1497699D01*
X-1397823Y+1562301D01*
X-1361485Y+1551534D02*
X-1349372Y+1562301D01*
X-1313033Y+1562301D01*
X-1300920Y+1551534D01*
X-1300920Y+1540767D01*
X-1313033Y+1530000D01*
X-1349372Y+1530000D01*
X-1361485Y+1519233D01*
X-1361485Y+1497699D01*
X-1300920Y+1497699D01*
D61*
X-1937170Y+3239200D02*
X-1675550Y+3239200D01*
X-1675550Y+3340800D01*
X-1937170Y+3340800D01*
X-1937170Y+3239200D01*
D161*
X-1892720Y+3290000D02*
X-1892720Y+3290000D01*
D162*
X-1813650Y+3278620D02*
X-1820051Y+3272931D01*
X-1839253Y+3272931D01*
X-1852054Y+3284310D01*
X-1852054Y+3295689D01*
X-1839253Y+3307068D01*
X-1820051Y+3307068D01*
X-1813650Y+3301379D01*
X-1794448Y+3301379D02*
X-1788047Y+3307068D01*
X-1768845Y+3307068D01*
X-1762444Y+3301379D01*
X-1762444Y+3295689D01*
X-1768845Y+3290000D01*
X-1788047Y+3290000D01*
X-1794448Y+3284310D01*
X-1794448Y+3272931D01*
X-1762444Y+3272931D01*
X-1711238Y+3307068D02*
X-1743242Y+3307068D01*
X-1743242Y+3295689D01*
X-1717639Y+3295689D01*
X-1711238Y+3290000D01*
X-1711238Y+3278620D01*
X-1717639Y+3272931D01*
X-1736841Y+3272931D01*
X-1743242Y+3278620D01*
D159*
X+1485000Y+1910500D02*
X+2675000Y+1910500D01*
X+2675000Y+3010500D01*
X+1485000Y+3010500D01*
X+1485000Y+1910500D01*
X+2080000Y+2510500D02*
X+2080000Y+2410500D01*
X+2130000Y+2460500D02*
X+2030000Y+2460500D01*
D190*
X+1610000Y+2905000D02*
X+1610000Y+2905000D01*
D191*
X+1630819Y+2492602D02*
X+1630819Y+2326239D01*
X+1668250Y+2292966D01*
X+1817977Y+2292966D01*
X+1855409Y+2326239D01*
X+1855409Y+2492602D01*
X+2005136Y+2426057D02*
X+2080000Y+2492602D01*
X+2080000Y+2292966D01*
X+2304590Y+2392784D02*
X+2267158Y+2426057D01*
X+2267158Y+2459329D01*
X+2304590Y+2492602D01*
X+2416885Y+2492602D01*
X+2454317Y+2459329D01*
X+2454317Y+2426057D01*
X+2416885Y+2392784D01*
X+2304590Y+2392784D01*
X+2267158Y+2359511D01*
X+2267158Y+2326239D01*
X+2304590Y+2292966D01*
X+2416885Y+2292966D01*
X+2454317Y+2326239D01*
X+2454317Y+2359511D01*
X+2416885Y+2392784D01*
D61*
X-4991160Y-772160D02*
X-4208840Y-772160D01*
X-4208840Y+264160D01*
X-4991160Y+264160D01*
X-4991160Y-772160D01*
D163*
X-4600000Y+0D02*
X-4600000Y+0D01*
D181*
X-4909981Y-439522D02*
X-4909981Y-462484D01*
X-4884150Y-485445D01*
X-4780823Y-485445D01*
X-4754991Y-462484D01*
X-4754991Y-347676D01*
X-4651664Y-393599D02*
X-4600000Y-347676D01*
X-4600000Y-485445D01*
X-4341683Y-393599D02*
X-4367515Y-416560D01*
X-4445010Y-416560D01*
X-4470842Y-393599D01*
X-4470842Y-370637D01*
X-4445010Y-347676D01*
X-4367515Y-347676D01*
X-4341683Y-370637D01*
X-4341683Y-462484D01*
X-4367515Y-485445D01*
X-4445010Y-485445D01*
D61*
X+3231300Y+2692560D02*
X+4917860Y+2692560D01*
X+4917860Y+4516280D01*
X+3231300Y+4516280D01*
X+3231300Y+2692560D01*
D176*
X+3625000Y+3419000D02*
X+3625000Y+3419000D01*
D192*
X+4436276Y+2925478D02*
X+4134524Y+2925478D01*
X+4134524Y+3208370D01*
X+4184816Y+3264949D01*
X+4235108Y+3264949D01*
X+4285400Y+3208370D01*
X+4285400Y+2925478D01*
X+4285400Y+3208370D02*
X+4335692Y+3264949D01*
X+4436276Y+3264949D01*
X+4335692Y+3378106D02*
X+4385984Y+3378106D01*
X+4436276Y+3434684D01*
X+4436276Y+3660998D01*
X+4385984Y+3717577D01*
X+4134524Y+3717577D01*
X+4235108Y+3943891D02*
X+4134524Y+4057048D01*
X+4436276Y+4057048D01*
D61*
X+3231300Y+842560D02*
X+4917860Y+842560D01*
X+4917860Y+2666280D01*
X+3231300Y+2666280D01*
X+3231300Y+842560D01*
D176*
X+3625000Y+1569000D02*
X+3625000Y+1569000D01*
D192*
X+4436276Y+1075478D02*
X+4134524Y+1075478D01*
X+4134524Y+1358370D01*
X+4184816Y+1414949D01*
X+4235108Y+1414949D01*
X+4285400Y+1358370D01*
X+4285400Y+1075478D01*
X+4285400Y+1358370D02*
X+4335692Y+1414949D01*
X+4436276Y+1414949D01*
X+4335692Y+1528106D02*
X+4385984Y+1528106D01*
X+4436276Y+1584684D01*
X+4436276Y+1810998D01*
X+4385984Y+1867577D01*
X+4134524Y+1867577D01*
X+4184816Y+2037312D02*
X+4134524Y+2093891D01*
X+4134524Y+2263626D01*
X+4184816Y+2320205D01*
X+4235108Y+2320205D01*
X+4285400Y+2263626D01*
X+4285400Y+2093891D01*
X+4335692Y+2037312D01*
X+4436276Y+2037312D01*
X+4436276Y+2320205D01*
D61*
X+3231300Y-1011440D02*
X+4917860Y-1011440D01*
X+4917860Y+812280D01*
X+3231300Y+812280D01*
X+3231300Y-1011440D01*
D176*
X+3625000Y-285000D02*
X+3625000Y-285000D01*
D192*
X+4436276Y-778522D02*
X+4134524Y-778522D01*
X+4134524Y-495630D01*
X+4184816Y-439051D01*
X+4235108Y-439051D01*
X+4285400Y-495630D01*
X+4285400Y-778522D01*
X+4285400Y-495630D02*
X+4335692Y-439051D01*
X+4436276Y-439051D01*
X+4335692Y-325894D02*
X+4385984Y-325894D01*
X+4436276Y-269316D01*
X+4436276Y-43002D01*
X+4385984Y+13577D01*
X+4134524Y+13577D01*
X+4184816Y+183312D02*
X+4134524Y+239891D01*
X+4134524Y+409626D01*
X+4184816Y+466205D01*
X+4235108Y+466205D01*
X+4285400Y+409626D01*
X+4335692Y+466205D01*
X+4385984Y+466205D01*
X+4436276Y+409626D01*
X+4436276Y+239891D01*
X+4385984Y+183312D01*
X+4285400Y+296469D02*
X+4285400Y+409626D01*
D61*
X-4941350Y+3423650D02*
X-3128650Y+3423650D01*
X-3128650Y+4536350D01*
X-4941350Y+4536350D01*
X-4941350Y+3423650D01*
D193*
X-4736380Y+4135862D02*
X-4736380Y+3876091D01*
X-4677932Y+3824137D01*
X-4444139Y+3824137D01*
X-4385690Y+3876091D01*
X-4385690Y+4135862D01*
X-4210345Y+4083908D02*
X-4151897Y+4135862D01*
X-3976552Y+4135862D01*
X-3918103Y+4083908D01*
X-3918103Y+4031954D01*
X-3976552Y+3980000D01*
X-3918103Y+3928045D01*
X-3918103Y+3876091D01*
X-3976552Y+3824137D01*
X-4151897Y+3824137D01*
X-4210345Y+3876091D01*
X-4093448Y+3980000D02*
X-3976552Y+3980000D01*
X-3684310Y+3980000D02*
X-3742758Y+4031954D01*
X-3742758Y+4083908D01*
X-3684310Y+4135862D01*
X-3508965Y+4135862D01*
X-3450516Y+4083908D01*
X-3450516Y+4031954D01*
X-3508965Y+3980000D01*
X-3684310Y+3980000D01*
X-3742758Y+3928045D01*
X-3742758Y+3876091D01*
X-3684310Y+3824137D01*
X-3508965Y+3824137D01*
X-3450516Y+3876091D01*
X-3450516Y+3928045D01*
X-3508965Y+3980000D01*
D61*
X-4936338Y+2174640D02*
X-3123638Y+2174640D01*
X-3123638Y+3287340D01*
X-4936338Y+3287340D01*
X-4936338Y+2174640D01*
D193*
X-4731368Y+2886852D02*
X-4731368Y+2627081D01*
X-4672920Y+2575127D01*
X-4439127Y+2575127D01*
X-4380678Y+2627081D01*
X-4380678Y+2886852D01*
X-4205333Y+2834898D02*
X-4146885Y+2886852D01*
X-3971540Y+2886852D01*
X-3913091Y+2834898D01*
X-3913091Y+2782944D01*
X-3971540Y+2730990D01*
X-3913091Y+2679035D01*
X-3913091Y+2627081D01*
X-3971540Y+2575127D01*
X-4146885Y+2575127D01*
X-4205333Y+2627081D01*
X-4088436Y+2730990D02*
X-3971540Y+2730990D01*
X-3445504Y+2782944D02*
X-3503953Y+2730990D01*
X-3679298Y+2730990D01*
X-3737746Y+2782944D01*
X-3737746Y+2834898D01*
X-3679298Y+2886852D01*
X-3503953Y+2886852D01*
X-3445504Y+2834898D01*
X-3445504Y+2627081D01*
X-3503953Y+2575127D01*
X-3679298Y+2575127D01*
D61*
X-4941350Y+923650D02*
X-3128650Y+923650D01*
X-3128650Y+2036350D01*
X-4941350Y+2036350D01*
X-4941350Y+923650D01*
D193*
X-4736380Y+1635862D02*
X-4736380Y+1376091D01*
X-4677932Y+1324137D01*
X-4444139Y+1324137D01*
X-4385690Y+1376091D01*
X-4385690Y+1635862D01*
X-3918103Y+1428045D02*
X-4268793Y+1428045D01*
X-4035000Y+1635862D01*
X-4035000Y+1324137D01*
X-3801206Y+1376091D02*
X-3801206Y+1583908D01*
X-3742758Y+1635862D01*
X-3508965Y+1635862D01*
X-3450516Y+1583908D01*
X-3450516Y+1376091D01*
X-3508965Y+1324137D01*
X-3742758Y+1324137D01*
X-3801206Y+1376091D01*
X-3801206Y+1324137D02*
X-3450516Y+1635862D01*
D61*
X+1700600Y+4558840D02*
X+3244920Y+4558840D01*
X+3244920Y+5341160D01*
X+1700600Y+5341160D01*
X+1700600Y+4558840D01*
D163*
X+2980760Y+4950000D02*
X+2980760Y+4950000D01*
D178*
X+1981016Y+4913424D02*
X+1981016Y+4876848D01*
X+2022164Y+4840272D01*
X+2186756Y+4840272D01*
X+2227904Y+4876848D01*
X+2227904Y+5059728D01*
X+2392496Y+4986576D02*
X+2474792Y+5059728D01*
X+2474792Y+4840272D01*
D61*
X-341160Y-4587160D02*
X+1203160Y-4587160D01*
X+1203160Y-4312840D01*
X-341160Y-4312840D01*
X-341160Y-4587160D01*
D194*
X-204000Y-4450000D02*
X-204000Y-4450000D01*
D195*
X+279870Y-4485560D02*
X+299872Y-4503340D01*
X+379882Y-4503340D01*
X+399885Y-4485560D01*
X+399885Y-4467780D01*
X+379882Y-4450000D01*
X+299872Y-4450000D01*
X+279870Y-4432220D01*
X+279870Y-4414440D01*
X+299872Y-4396660D01*
X+379882Y-4396660D01*
X+399885Y-4414440D01*
X+439890Y-4503340D02*
X+439890Y-4396660D01*
X+539902Y-4396660D01*
X+559905Y-4414440D01*
X+559905Y-4432220D01*
X+539902Y-4450000D01*
X+439890Y-4450000D01*
X+619912Y-4396660D02*
X+699922Y-4396660D01*
X+659917Y-4396660D02*
X+659917Y-4503340D01*
X+619912Y-4503340D02*
X+699922Y-4503340D01*
D61*
X+608220Y+4558840D02*
X+1644540Y+4558840D01*
X+1644540Y+5341160D01*
X+608220Y+5341160D01*
X+608220Y+4558840D01*
D163*
X+1380380Y+4950000D02*
X+1380380Y+4950000D01*
D181*
X+986782Y+4640019D02*
X+1009744Y+4640019D01*
X+1032705Y+4665850D01*
X+1032705Y+4769177D01*
X+1009744Y+4795009D01*
X+894936Y+4795009D01*
X+917897Y+4872504D02*
X+894936Y+4898336D01*
X+894936Y+4975831D01*
X+917897Y+5001663D01*
X+940859Y+5001663D01*
X+963820Y+4975831D01*
X+963820Y+4898336D01*
X+986782Y+4872504D01*
X+1032705Y+4872504D01*
X+1032705Y+5001663D01*
X+917897Y+5079158D02*
X+894936Y+5104990D01*
X+894936Y+5182485D01*
X+917897Y+5208317D01*
X+940859Y+5208317D01*
X+963820Y+5182485D01*
X+986782Y+5208317D01*
X+1009744Y+5208317D01*
X+1032705Y+5182485D01*
X+1032705Y+5104990D01*
X+1009744Y+5079158D01*
X+963820Y+5130822D02*
X+963820Y+5182485D01*
D61*
X+1528050Y+3201320D02*
X+2251950Y+3201320D01*
X+2251950Y+3668680D01*
X+1528050Y+3668680D01*
X+1528050Y+3201320D01*
D154*
X+1629650Y+3625500D02*
X+1629650Y+3625500D01*
D155*
X+1573391Y+3469480D02*
X+1573391Y+3352217D01*
X+1599775Y+3328765D01*
X+1705311Y+3328765D01*
X+1731695Y+3352217D01*
X+1731695Y+3469480D01*
X+1837232Y+3422575D02*
X+1890000Y+3469480D01*
X+1890000Y+3328765D01*
X+2153841Y+3422575D02*
X+2127457Y+3399123D01*
X+2048305Y+3399123D01*
X+2021921Y+3422575D01*
X+2021921Y+3446028D01*
X+2048305Y+3469480D01*
X+2127457Y+3469480D01*
X+2153841Y+3446028D01*
X+2153841Y+3352217D01*
X+2127457Y+3328765D01*
X+2048305Y+3328765D01*
D61*
X+1155550Y+3574200D02*
X+1417170Y+3574200D01*
X+1417170Y+3675800D01*
X+1155550Y+3675800D01*
X+1155550Y+3574200D01*
D161*
X+1200000Y+3625000D02*
X+1200000Y+3625000D01*
D162*
X+1240666Y+3607931D02*
X+1240666Y+3642068D01*
X+1272669Y+3642068D01*
X+1279070Y+3636379D01*
X+1279070Y+3630689D01*
X+1272669Y+3625000D01*
X+1240666Y+3625000D01*
X+1272669Y+3625000D02*
X+1279070Y+3619310D01*
X+1279070Y+3607931D01*
X+1298272Y+3636379D02*
X+1304673Y+3642068D01*
X+1323875Y+3642068D01*
X+1330276Y+3636379D01*
X+1330276Y+3630689D01*
X+1323875Y+3625000D01*
X+1330276Y+3619310D01*
X+1330276Y+3613620D01*
X+1323875Y+3607931D01*
X+1304673Y+3607931D01*
X+1298272Y+3613620D01*
X+1311074Y+3625000D02*
X+1323875Y+3625000D01*
X+1349478Y+3642068D02*
X+1381482Y+3642068D01*
X+1381482Y+3636379D01*
X+1349478Y+3607931D01*
D61*
X+1165550Y+2604200D02*
X+1427170Y+2604200D01*
X+1427170Y+2705800D01*
X+1165550Y+2705800D01*
X+1165550Y+2604200D01*
D161*
X+1210000Y+2655000D02*
X+1210000Y+2655000D01*
D162*
X+1250666Y+2637931D02*
X+1250666Y+2672068D01*
X+1282669Y+2672068D01*
X+1289070Y+2666379D01*
X+1289070Y+2660689D01*
X+1282669Y+2655000D01*
X+1250666Y+2655000D01*
X+1282669Y+2655000D02*
X+1289070Y+2649310D01*
X+1289070Y+2637931D01*
X+1340276Y+2649310D02*
X+1301872Y+2649310D01*
X+1327475Y+2672068D01*
X+1327475Y+2637931D01*
X+1359478Y+2666379D02*
X+1365879Y+2672068D01*
X+1385081Y+2672068D01*
X+1391482Y+2666379D01*
X+1391482Y+2660689D01*
X+1385081Y+2655000D01*
X+1391482Y+2649310D01*
X+1391482Y+2643620D01*
X+1385081Y+2637931D01*
X+1365879Y+2637931D01*
X+1359478Y+2643620D01*
X+1372280Y+2655000D02*
X+1385081Y+2655000D01*
D61*
X+878700Y+3921080D02*
X+1170800Y+3921080D01*
X+1170800Y+4230960D01*
X+878700Y+4230960D01*
X+878700Y+3921080D01*
D184*
X+1120000Y+3982040D02*
X+1120000Y+3982040D01*
D185*
X+979538Y+3989152D02*
X+960234Y+4010869D01*
X+960234Y+4032586D01*
X+979538Y+4054303D01*
X+998842Y+4054303D01*
X+1018146Y+4032586D01*
X+1018146Y+4010869D01*
X+998842Y+3989152D01*
X+979538Y+3989152D01*
X+998842Y+4032586D02*
X+1018146Y+4054303D01*
X+979538Y+4097737D02*
X+960234Y+4119454D01*
X+1018146Y+4119454D01*
D61*
X+2522830Y+1684200D02*
X+2784450Y+1684200D01*
X+2784450Y+1785800D01*
X+2522830Y+1785800D01*
X+2522830Y+1684200D01*
D161*
X+2567280Y+1735000D02*
X+2567280Y+1735000D01*
D162*
X+2607946Y+1717931D02*
X+2607946Y+1752068D01*
X+2639949Y+1752068D01*
X+2646350Y+1746379D01*
X+2646350Y+1740689D01*
X+2639949Y+1735000D01*
X+2607946Y+1735000D01*
X+2639949Y+1735000D02*
X+2646350Y+1729310D01*
X+2646350Y+1717931D01*
X+2671953Y+1735000D02*
X+2665552Y+1740689D01*
X+2665552Y+1746379D01*
X+2671953Y+1752068D01*
X+2691155Y+1752068D01*
X+2697556Y+1746379D01*
X+2697556Y+1740689D01*
X+2691155Y+1735000D01*
X+2671953Y+1735000D01*
X+2665552Y+1729310D01*
X+2665552Y+1723620D01*
X+2671953Y+1717931D01*
X+2691155Y+1717931D01*
X+2697556Y+1723620D01*
X+2697556Y+1729310D01*
X+2691155Y+1735000D01*
X+2748762Y+1729310D02*
X+2710358Y+1729310D01*
X+2735961Y+1752068D01*
X+2735961Y+1717931D01*
D61*
X+1302120Y-3079250D02*
X+2469250Y-3079250D01*
X+2469250Y-2380750D01*
X+1302120Y-2380750D01*
X+1302120Y-3079250D01*
D180*
X+1429120Y-2501400D02*
X+1429120Y-2501400D01*
D68*
X+1704305Y-2699969D02*
X+1771875Y-2639907D01*
X+1839445Y-2639907D01*
X+1907015Y-2699969D01*
X+1907015Y-2760032D01*
X+1839445Y-2820094D01*
X+1771875Y-2820094D01*
X+1704305Y-2760032D01*
X+1704305Y-2699969D01*
X+1839445Y-2760032D02*
X+1907015Y-2820094D01*
X+2008370Y-2669938D02*
X+2042155Y-2639907D01*
X+2143510Y-2639907D01*
X+2177295Y-2669938D01*
X+2177295Y-2699969D01*
X+2143510Y-2730000D01*
X+2177295Y-2760032D01*
X+2177295Y-2790063D01*
X+2143510Y-2820094D01*
X+2042155Y-2820094D01*
X+2008370Y-2790063D01*
X+2075940Y-2730000D02*
X+2143510Y-2730000D01*
D61*
X-4137160Y+5012840D02*
X-3100840Y+5012840D01*
X-3100840Y+5287160D01*
X-4137160Y+5287160D01*
X-4137160Y+5012840D01*
D194*
X-3238000Y+5150000D02*
X-3238000Y+5150000D01*
D195*
X-3927928Y+5203340D02*
X-3847918Y+5203340D01*
X-3887923Y+5203340D02*
X-3887923Y+5096660D01*
X-3927928Y+5096660D02*
X-3847918Y+5096660D01*
X-3767908Y+5185560D02*
X-3747905Y+5203340D01*
X-3687898Y+5203340D01*
X-3667895Y+5185560D01*
X-3667895Y+5167780D01*
X-3687898Y+5150000D01*
X-3747905Y+5150000D01*
X-3767908Y+5132220D01*
X-3767908Y+5096660D01*
X-3667895Y+5096660D01*
X-3507875Y+5114440D02*
X-3527878Y+5096660D01*
X-3587885Y+5096660D01*
X-3627890Y+5132220D01*
X-3627890Y+5167780D01*
X-3587885Y+5203340D01*
X-3527878Y+5203340D01*
X-3507875Y+5185560D01*
D61*
X-1927160Y-407160D02*
X-1398840Y-407160D01*
X-1398840Y-132840D01*
X-1927160Y-132840D01*
X-1927160Y-407160D01*
D194*
X-1536000Y-270000D02*
X-1536000Y-270000D01*
D196*
X-1900488Y-281007D02*
X-1900488Y-292014D01*
X-1888106Y-303020D01*
X-1838577Y-303020D01*
X-1826194Y-292014D01*
X-1826194Y-236981D01*
X-1801429Y-303020D02*
X-1801429Y-236981D01*
X-1739518Y-236981D01*
X-1727135Y-247987D01*
X-1727135Y-258994D01*
X-1739518Y-270000D01*
X-1801429Y-270000D01*
X-1677606Y-258994D02*
X-1652841Y-236981D01*
X-1652841Y-303020D01*
D61*
X+1485080Y-4271160D02*
X+3029400Y-4271160D01*
X+3029400Y-3488840D01*
X+1485080Y-3488840D01*
X+1485080Y-4271160D01*
D163*
X+1749240Y-3880000D02*
X+1749240Y-3880000D01*
D197*
X+1912963Y-3947579D02*
X+1912963Y-3812422D01*
X+2039672Y-3812422D01*
X+2065014Y-3834948D01*
X+2065014Y-3857474D01*
X+2039672Y-3880000D01*
X+1912963Y-3880000D01*
X+2039672Y-3880000D02*
X+2065014Y-3902527D01*
X+2065014Y-3947579D01*
X+2267749Y-3947579D02*
X+2115698Y-3947579D01*
X+2115698Y-3812422D01*
X+2267749Y-3812422D01*
X+2115698Y-3880000D02*
X+2217065Y-3880000D01*
X+2318433Y-3812422D02*
X+2318433Y-3947579D01*
X+2470484Y-3947579D01*
X+2521168Y-3947579D02*
X+2521168Y-3857474D01*
X+2571851Y-3812422D01*
X+2622535Y-3812422D01*
X+2673219Y-3857474D01*
X+2673219Y-3947579D01*
X+2521168Y-3902527D02*
X+2673219Y-3902527D01*
X+2875954Y-3812422D02*
X+2723903Y-3947579D01*
X+2723903Y-3812422D02*
X+2799928Y-3880000D01*
D61*
X+2612840Y-3077160D02*
X+4783160Y-3077160D01*
X+4783160Y-1356840D01*
X+2612840Y-1356840D01*
X+2612840Y-3077160D01*
D198*
X+2864603Y-2309600D02*
X+2864603Y-2124401D01*
X+3038227Y-2124401D01*
X+3072952Y-2155267D01*
X+3072952Y-2186134D01*
X+3038227Y-2217000D01*
X+2864603Y-2217000D01*
X+3038227Y-2217000D02*
X+3072952Y-2247867D01*
X+3072952Y-2309600D01*
X+3350751Y-2309600D02*
X+3142402Y-2309600D01*
X+3142402Y-2124401D01*
X+3350751Y-2124401D01*
X+3142402Y-2217000D02*
X+3281301Y-2217000D01*
X+3420201Y-2124401D02*
X+3420201Y-2309600D01*
X+3628550Y-2309600D01*
X+3698000Y-2309600D02*
X+3698000Y-2186134D01*
X+3767449Y-2124401D01*
X+3836899Y-2124401D01*
X+3906349Y-2186134D01*
X+3906349Y-2309600D01*
X+3698000Y-2247867D02*
X+3906349Y-2247867D01*
X+4184148Y-2124401D02*
X+3975799Y-2309600D01*
X+3975799Y-2124401D02*
X+4079973Y-2217000D01*
X+4323047Y-2186134D02*
X+4392497Y-2124401D01*
X+4392497Y-2309600D01*
D61*
X-4710160Y-2880160D02*
X-3889840Y-2880160D01*
X-3889840Y-1859840D01*
X-4710160Y-1859840D01*
X-4710160Y-2880160D01*
D163*
X-4300000Y-2120000D02*
X-4300000Y-2120000D01*
D199*
X-4536619Y-2515536D02*
X-4553521Y-2530560D01*
X-4604225Y-2530560D01*
X-4621126Y-2515536D01*
X-4621126Y-2500513D01*
X-4604225Y-2485489D01*
X-4553521Y-2485489D01*
X-4536619Y-2500513D01*
X-4536619Y-2560607D01*
X-4553521Y-2575630D01*
X-4604225Y-2575630D01*
X-4401408Y-2485489D02*
X-4502816Y-2575630D01*
X-4333803Y-2515536D02*
X-4300000Y-2485489D01*
X-4300000Y-2575630D01*
X-4215493Y-2500513D02*
X-4198592Y-2485489D01*
X-4147888Y-2485489D01*
X-4130986Y-2500513D01*
X-4130986Y-2515536D01*
X-4147888Y-2530560D01*
X-4198592Y-2530560D01*
X-4215493Y-2545583D01*
X-4215493Y-2575630D01*
X-4130986Y-2575630D01*
X-4097183Y-2485489D02*
X-4097183Y-2530560D01*
X-4046479Y-2575630D01*
X-3995775Y-2530560D01*
X-3995775Y-2485489D01*
D61*
X+3035460Y-4271160D02*
X+4071780Y-4271160D01*
X+4071780Y-3488840D01*
X+3035460Y-3488840D01*
X+3035460Y-4271160D01*
D163*
X+3299620Y-3880000D02*
X+3299620Y-3880000D01*
D166*
X+3747095Y-4204607D02*
X+3685265Y-4204607D01*
X+3716180Y-4169828D01*
X+3685265Y-4135049D01*
X+3747095Y-4135049D01*
X+3705875Y-4111862D02*
X+3685265Y-4088676D01*
X+3685265Y-4065490D01*
X+3705875Y-4042304D01*
X+3726485Y-4042304D01*
X+3747095Y-4065490D01*
X+3747095Y-4088676D01*
X+3726485Y-4111862D01*
X+3705875Y-4111862D01*
X+3736790Y-4019117D02*
X+3747095Y-4007524D01*
X+3747095Y-3961152D01*
X+3736790Y-3949559D01*
X+3726485Y-3949559D01*
X+3716180Y-3961152D01*
X+3716180Y-4007524D01*
X+3705875Y-4019117D01*
X+3695570Y-4019117D01*
X+3685265Y-4007524D01*
X+3685265Y-3961152D01*
X+3695570Y-3949559D01*
X+3747095Y-3926372D02*
X+3685265Y-3926372D01*
X+3685265Y-3856814D01*
X+3716180Y-3926372D02*
X+3716180Y-3880000D01*
X+3747095Y-3764069D02*
X+3747095Y-3833627D01*
X+3685265Y-3833627D01*
X+3685265Y-3764069D01*
X+3716180Y-3833627D02*
X+3716180Y-3787255D01*
X+3685265Y-3740882D02*
X+3685265Y-3671324D01*
X+3685265Y-3706103D02*
X+3747095Y-3706103D01*
X+3736790Y-3648137D02*
X+3747095Y-3636544D01*
X+3747095Y-3590172D01*
X+3736790Y-3578579D01*
X+3726485Y-3578579D01*
X+3716180Y-3590172D01*
X+3716180Y-3636544D01*
X+3705875Y-3648137D01*
X+3695570Y-3648137D01*
X+3685265Y-3636544D01*
X+3685265Y-3590172D01*
X+3695570Y-3578579D01*
D159*
X-2068000Y+1794006D02*
X-2068000Y+1044006D01*
X-2116000Y+1044006D01*
X-2116000Y+858006D01*
X-2578000Y+858006D01*
X-2578000Y+1044006D01*
X-2626000Y+1044006D01*
X-2626000Y+1794006D01*
X-2578000Y+1794006D01*
X-2578000Y+1980006D01*
X-2116000Y+1980006D01*
X-2116000Y+1794006D01*
X-2068000Y+1794006D01*
D200*
X-2220000Y+1848012D02*
X-2220000Y+1848012D01*
D201*
X-2438571Y+1055745D02*
X-2285952Y+1055745D01*
X-2255428Y+1090084D01*
X-2255428Y+1227441D01*
X-2285952Y+1261780D01*
X-2438571Y+1261780D01*
X-2347000Y+1399137D02*
X-2377523Y+1364798D01*
X-2408047Y+1364798D01*
X-2438571Y+1399137D01*
X-2438571Y+1502155D01*
X-2408047Y+1536494D01*
X-2377523Y+1536494D01*
X-2347000Y+1502155D01*
X-2347000Y+1399137D01*
X-2316476Y+1364798D01*
X-2285952Y+1364798D01*
X-2255428Y+1399137D01*
X-2255428Y+1502155D01*
X-2285952Y+1536494D01*
X-2316476Y+1536494D01*
X-2347000Y+1502155D01*
D159*
X-2048000Y+544006D02*
X-2048000Y-205994D01*
X-2096000Y-205994D01*
X-2096000Y-391994D01*
X-2558000Y-391994D01*
X-2558000Y-205994D01*
X-2606000Y-205994D01*
X-2606000Y+544006D01*
X-2558000Y+544006D01*
X-2558000Y+730006D01*
X-2096000Y+730006D01*
X-2096000Y+544006D01*
X-2048000Y+544006D01*
D200*
X-2200000Y+598012D02*
X-2200000Y+598012D01*
D201*
X-2418571Y-331612D02*
X-2265952Y-331612D01*
X-2235428Y-297273D01*
X-2235428Y-159916D01*
X-2265952Y-125577D01*
X-2418571Y-125577D01*
X-2388047Y-22559D02*
X-2418571Y+11780D01*
X-2418571Y+114798D01*
X-2388047Y+149137D01*
X-2357523Y+149137D01*
X-2327000Y+114798D01*
X-2327000Y+11780D01*
X-2296476Y-22559D01*
X-2235428Y-22559D01*
X-2235428Y+149137D01*
X-2388047Y+423851D02*
X-2418571Y+389512D01*
X-2418571Y+286494D01*
X-2388047Y+252155D01*
X-2265952Y+252155D01*
X-2235428Y+286494D01*
X-2235428Y+389512D01*
X-2265952Y+423851D01*
X-2296476Y+423851D01*
X-2327000Y+389512D01*
X-2327000Y+252155D01*
D61*
X-141180Y+1166450D02*
X+961180Y+1166450D01*
X+961180Y+2093550D01*
X-141180Y+2093550D01*
X-141180Y+1166450D01*
D154*
X-98000Y+1268050D02*
X-98000Y+1268050D01*
D202*
X+23881Y+1661259D02*
X+23881Y+1609161D01*
X+35603Y+1598741D01*
X+82491Y+1598741D01*
X+94213Y+1609161D01*
X+94213Y+1661259D01*
X+117658Y+1661259D02*
X+117658Y+1598741D01*
X+187990Y+1598741D01*
X+211435Y+1598741D02*
X+211435Y+1661259D01*
X+281767Y+1598741D01*
X+281767Y+1661259D01*
X+316934Y+1650839D02*
X+328656Y+1661259D01*
X+363822Y+1661259D01*
X+375544Y+1650839D01*
X+375544Y+1640420D01*
X+363822Y+1630000D01*
X+328656Y+1630000D01*
X+316934Y+1619580D01*
X+316934Y+1598741D01*
X+375544Y+1598741D01*
X+422433Y+1630000D02*
X+410711Y+1640420D01*
X+410711Y+1650839D01*
X+422433Y+1661259D01*
X+457599Y+1661259D01*
X+469321Y+1650839D01*
X+469321Y+1640420D01*
X+457599Y+1630000D01*
X+422433Y+1630000D01*
X+410711Y+1619580D01*
X+410711Y+1609161D01*
X+422433Y+1598741D01*
X+457599Y+1598741D01*
X+469321Y+1609161D01*
X+469321Y+1619580D01*
X+457599Y+1630000D01*
X+492766Y+1609161D02*
X+492766Y+1650839D01*
X+504488Y+1661259D01*
X+551376Y+1661259D01*
X+563098Y+1650839D01*
X+563098Y+1609161D01*
X+551376Y+1598741D01*
X+504488Y+1598741D01*
X+492766Y+1609161D01*
X+492766Y+1598741D02*
X+563098Y+1661259D01*
X+598265Y+1650839D02*
X+609987Y+1661259D01*
X+645153Y+1661259D01*
X+656875Y+1650839D01*
X+656875Y+1640420D01*
X+645153Y+1630000D01*
X+656875Y+1619580D01*
X+656875Y+1609161D01*
X+645153Y+1598741D01*
X+609987Y+1598741D01*
X+598265Y+1609161D01*
X+621709Y+1630000D02*
X+645153Y+1630000D01*
X+680320Y+1598741D02*
X+680320Y+1640420D01*
X+703764Y+1661259D01*
X+727208Y+1661259D01*
X+750652Y+1640420D01*
X+750652Y+1598741D01*
X+680320Y+1619580D02*
X+750652Y+1619580D01*
X+820985Y+1619580D02*
X+844429Y+1619580D01*
X+844429Y+1598741D01*
X+797541Y+1598741D01*
X+774097Y+1619580D01*
X+774097Y+1640420D01*
X+797541Y+1661259D01*
X+832707Y+1661259D01*
X+844429Y+1650839D01*
D159*
X+2169240Y-3335000D02*
X+2469240Y-3335000D01*
X+2469240Y-3185000D01*
X+2169240Y-3185000D01*
X+2169240Y-3335000D01*
X+2319240Y-3210000D02*
X+2319240Y-3310000D01*
X+2369240Y-3260000D02*
X+2269240Y-3260000D01*
D160*
X+2239240Y-3260000D02*
X+2239240Y-3260000D01*
D60*
X+2277867Y-3253554D02*
X+2292370Y-3240662D01*
X+2306874Y-3240662D01*
X+2321377Y-3253554D01*
X+2321377Y-3266446D01*
X+2306874Y-3279338D01*
X+2292370Y-3279338D01*
X+2277867Y-3266446D01*
X+2277867Y-3253554D01*
X+2306874Y-3266446D02*
X+2321377Y-3279338D01*
X+2335881Y-3253554D02*
X+2350384Y-3240662D01*
X+2364888Y-3240662D01*
X+2379391Y-3253554D01*
X+2379391Y-3266446D01*
X+2364888Y-3279338D01*
X+2350384Y-3279338D01*
X+2335881Y-3266446D01*
X+2335881Y-3253554D01*
X+2408398Y-3253554D02*
X+2422902Y-3240662D01*
X+2422902Y-3279338D01*
D159*
X+3229240Y-3335000D02*
X+3529240Y-3335000D01*
X+3529240Y-3185000D01*
X+3229240Y-3185000D01*
X+3229240Y-3335000D01*
X+3379240Y-3210000D02*
X+3379240Y-3310000D01*
X+3429240Y-3260000D02*
X+3329240Y-3260000D01*
D160*
X+3299240Y-3260000D02*
X+3299240Y-3260000D01*
D60*
X+3337867Y-3253554D02*
X+3352370Y-3240662D01*
X+3366874Y-3240662D01*
X+3381377Y-3253554D01*
X+3381377Y-3266446D01*
X+3366874Y-3279338D01*
X+3352370Y-3279338D01*
X+3337867Y-3266446D01*
X+3337867Y-3253554D01*
X+3366874Y-3266446D02*
X+3381377Y-3279338D01*
X+3395881Y-3272892D02*
X+3395881Y-3247108D01*
X+3403132Y-3240662D01*
X+3432139Y-3240662D01*
X+3439391Y-3247108D01*
X+3439391Y-3272892D01*
X+3432139Y-3279338D01*
X+3403132Y-3279338D01*
X+3395881Y-3272892D01*
X+3395881Y-3279338D02*
X+3439391Y-3240662D01*
X+3461146Y-3247108D02*
X+3468398Y-3240662D01*
X+3490153Y-3240662D01*
X+3497405Y-3247108D01*
X+3497405Y-3253554D01*
X+3490153Y-3260000D01*
X+3468398Y-3260000D01*
X+3461146Y-3266446D01*
X+3461146Y-3279338D01*
X+3497405Y-3279338D01*
D159*
X+3739240Y-3335000D02*
X+4039240Y-3335000D01*
X+4039240Y-3185000D01*
X+3739240Y-3185000D01*
X+3739240Y-3335000D01*
X+3889240Y-3210000D02*
X+3889240Y-3310000D01*
X+3939240Y-3260000D02*
X+3839240Y-3260000D01*
D160*
X+3809240Y-3260000D02*
X+3809240Y-3260000D01*
D60*
X+3847867Y-3253554D02*
X+3862370Y-3240662D01*
X+3876874Y-3240662D01*
X+3891377Y-3253554D01*
X+3891377Y-3266446D01*
X+3876874Y-3279338D01*
X+3862370Y-3279338D01*
X+3847867Y-3266446D01*
X+3847867Y-3253554D01*
X+3876874Y-3266446D02*
X+3891377Y-3279338D01*
X+3905881Y-3272892D02*
X+3905881Y-3247108D01*
X+3913132Y-3240662D01*
X+3942139Y-3240662D01*
X+3949391Y-3247108D01*
X+3949391Y-3272892D01*
X+3942139Y-3279338D01*
X+3913132Y-3279338D01*
X+3905881Y-3272892D01*
X+3905881Y-3279338D02*
X+3949391Y-3240662D01*
X+3971146Y-3247108D02*
X+3978398Y-3240662D01*
X+4000153Y-3240662D01*
X+4007405Y-3247108D01*
X+4007405Y-3253554D01*
X+4000153Y-3260000D01*
X+4007405Y-3266446D01*
X+4007405Y-3272892D01*
X+4000153Y-3279338D01*
X+3978398Y-3279338D01*
X+3971146Y-3272892D01*
X+3985650Y-3260000D02*
X+4000153Y-3260000D01*
D58*
X+1385625Y-1221172D02*
X+4785625Y-1221172D01*
X+4785625Y-1111172D01*
X+1385625Y-1111172D01*
X+1385625Y-1221172D01*
X+855625Y-3091172D02*
X+965625Y-3091172D01*
X+965625Y-1401172D01*
X+855625Y-1401172D01*
X+855625Y-3091172D01*
D61*
X+2007700Y+412820D02*
X+2731600Y+412820D01*
X+2731600Y+880180D01*
X+2007700Y+880180D01*
X+2007700Y+412820D01*
D154*
X+2109300Y+837000D02*
X+2109300Y+837000D01*
D155*
X+2053041Y+680980D02*
X+2053041Y+563717D01*
X+2079425Y+540265D01*
X+2184961Y+540265D01*
X+2211345Y+563717D01*
X+2211345Y+680980D01*
X+2290498Y+657528D02*
X+2316882Y+680980D01*
X+2396034Y+680980D01*
X+2422418Y+657528D01*
X+2422418Y+634075D01*
X+2396034Y+610623D01*
X+2316882Y+610623D01*
X+2290498Y+587170D01*
X+2290498Y+540265D01*
X+2422418Y+540265D01*
X+2527955Y+634075D02*
X+2580723Y+680980D01*
X+2580723Y+540265D01*
D61*
X+3445340Y+4879340D02*
X+4354660Y+4879340D01*
X+4354660Y+5280660D01*
X+3445340Y+5280660D01*
X+3445340Y+4879340D01*
D194*
X+3646000Y+5080000D02*
X+3646000Y+5080000D01*
D203*
X+3729190Y+5058410D02*
X+3729190Y+5101589D01*
X+3769670Y+5101589D01*
X+3777766Y+5094393D01*
X+3777766Y+5087196D01*
X+3769670Y+5080000D01*
X+3729190Y+5080000D01*
X+3793959Y+5058410D02*
X+3793959Y+5101589D01*
X+3834439Y+5101589D01*
X+3842535Y+5094393D01*
X+3842535Y+5087196D01*
X+3834439Y+5080000D01*
X+3793959Y+5080000D01*
X+3834439Y+5080000D02*
X+3842535Y+5072803D01*
X+3842535Y+5058410D01*
X+3907304Y+5058410D02*
X+3858728Y+5058410D01*
X+3858728Y+5101589D01*
X+3907304Y+5101589D01*
X+3858728Y+5080000D02*
X+3891112Y+5080000D01*
X+3923497Y+5065606D02*
X+3931593Y+5058410D01*
X+3963977Y+5058410D01*
X+3972073Y+5065606D01*
X+3972073Y+5072803D01*
X+3963977Y+5080000D01*
X+3931593Y+5080000D01*
X+3923497Y+5087196D01*
X+3923497Y+5094393D01*
X+3931593Y+5101589D01*
X+3963977Y+5101589D01*
X+3972073Y+5094393D01*
X+4036842Y+5058410D02*
X+3988266Y+5058410D01*
X+3988266Y+5101589D01*
X+4036842Y+5101589D01*
X+3988266Y+5080000D02*
X+4020650Y+5080000D01*
X+4053035Y+5101589D02*
X+4101611Y+5101589D01*
X+4077323Y+5101589D02*
X+4077323Y+5058410D01*
X+4125900Y+5080000D02*
X+4166380Y+5080000D01*
X+4182573Y+5087196D02*
X+4198765Y+5101589D01*
X+4214957Y+5101589D01*
X+4231149Y+5087196D01*
X+4231149Y+5072803D01*
X+4214957Y+5058410D01*
X+4198765Y+5058410D01*
X+4182573Y+5072803D01*
X+4182573Y+5087196D01*
X+4247342Y+5101589D02*
X+4247342Y+5058410D01*
X+4271630Y+5080000D01*
X+4295918Y+5058410D01*
X+4295918Y+5101589D01*
D61*
X-3515280Y-391600D02*
X-2854880Y-391600D01*
X-2854880Y+441520D01*
X-3515280Y+441520D01*
X-3515280Y-391600D01*
D194*
X-3411140Y-290000D02*
X-3411140Y-290000D01*
D204*
X-3246853Y-181897D02*
X-3143898Y-181897D01*
X-3123307Y-158733D01*
X-3123307Y-66074D01*
X-3143898Y-42909D01*
X-3246853Y-42909D01*
X-3205671Y+49750D02*
X-3246853Y+96080D01*
X-3123307Y+96080D01*
X-3226262Y+211903D02*
X-3246853Y+235068D01*
X-3246853Y+304562D01*
X-3226262Y+327727D01*
X-3205671Y+327727D01*
X-3185080Y+304562D01*
X-3185080Y+235068D01*
X-3164489Y+211903D01*
X-3123307Y+211903D01*
X-3123307Y+327727D01*
D58*
X+1264865Y-4511172D02*
X+1374865Y-4511172D01*
X+1374865Y-3331172D01*
X+1264865Y-3331172D01*
X+1264865Y-4511172D01*
D159*
X+2143000Y+3766000D02*
X+2859000Y+3766000D01*
X+2859000Y+4108000D01*
X+2143000Y+4108000D01*
X+2143000Y+3766000D01*
D167*
X+2716000Y+3937000D02*
X+2716000Y+3937000D01*
D168*
X+2176071Y+3886182D02*
X+2176071Y+3987818D01*
X+2252297Y+3987818D01*
X+2290410Y+3953939D01*
X+2290410Y+3920061D01*
X+2252297Y+3886182D01*
X+2176071Y+3886182D01*
X+2366637Y+3953939D02*
X+2404750Y+3987818D01*
X+2404750Y+3886182D01*
X+2500033Y+3970879D02*
X+2519090Y+3987818D01*
X+2576260Y+3987818D01*
X+2595316Y+3970879D01*
X+2595316Y+3953939D01*
X+2576260Y+3937000D01*
X+2595316Y+3920061D01*
X+2595316Y+3903121D01*
X+2576260Y+3886182D01*
X+2519090Y+3886182D01*
X+2500033Y+3903121D01*
X+2538146Y+3937000D02*
X+2576260Y+3937000D01*
D61*
X+1755140Y+1206500D02*
X+2054860Y+1206500D01*
X+2054860Y+1752600D01*
X+1755140Y+1752600D01*
X+1755140Y+1206500D01*
D165*
X+1905000Y+1689100D02*
X+1905000Y+1689100D01*
D205*
X+1948180Y+1238252D02*
X+1861820Y+1238252D01*
X+1861820Y+1303021D01*
X+1890607Y+1335406D01*
X+1919393Y+1335406D01*
X+1948180Y+1303021D01*
X+1948180Y+1238252D01*
X+1933787Y+1367791D02*
X+1876213Y+1367791D01*
X+1861820Y+1383983D01*
X+1861820Y+1448752D01*
X+1876213Y+1464945D01*
X+1933787Y+1464945D01*
X+1948180Y+1448752D01*
X+1948180Y+1383983D01*
X+1933787Y+1367791D01*
X+1948180Y+1367791D02*
X+1861820Y+1464945D01*
X+1890607Y+1529714D02*
X+1861820Y+1562099D01*
X+1948180Y+1562099D01*
D61*
X+96100Y-1789860D02*
X+642200Y-1789860D01*
X+642200Y-1490140D01*
X+96100Y-1490140D01*
X+96100Y-1789860D01*
D165*
X+578700Y-1640000D02*
X+578700Y-1640000D01*
D205*
X+192621Y-1683180D02*
X+192621Y-1596820D01*
X+257390Y-1596820D01*
X+289775Y-1625607D01*
X+289775Y-1654393D01*
X+257390Y-1683180D01*
X+192621Y-1683180D01*
X+419314Y-1625607D02*
X+403121Y-1640000D01*
X+354544Y-1640000D01*
X+338352Y-1625607D01*
X+338352Y-1611213D01*
X+354544Y-1596820D01*
X+403121Y-1596820D01*
X+419314Y-1611213D01*
X+419314Y-1668787D01*
X+403121Y-1683180D01*
X+354544Y-1683180D01*
D61*
X+96500Y-1459860D02*
X+642600Y-1459860D01*
X+642600Y-1160140D01*
X+96500Y-1160140D01*
X+96500Y-1459860D01*
D165*
X+160000Y-1310000D02*
X+160000Y-1310000D01*
D205*
X+222232Y-1353180D02*
X+222232Y-1266820D01*
X+287001Y-1266820D01*
X+319386Y-1295607D01*
X+319386Y-1324393D01*
X+287001Y-1353180D01*
X+222232Y-1353180D01*
X+384155Y-1295607D02*
X+416540Y-1266820D01*
X+416540Y-1353180D01*
X+578464Y-1324393D02*
X+481310Y-1324393D01*
X+546079Y-1266820D01*
X+546079Y-1353180D01*
D61*
X-4114800Y-718820D02*
X-3698240Y-718820D01*
X-3698240Y-551180D01*
X-4114800Y-551180D01*
X-4114800Y-718820D01*
D165*
X-4064000Y-635000D02*
X-4064000Y-635000D01*
D166*
X-4005096Y-665938D02*
X-4005096Y-604063D01*
X-3947090Y-604063D01*
X-3935488Y-614376D01*
X-3935488Y-624688D01*
X-3947090Y-635000D01*
X-4005096Y-635000D01*
X-3947090Y-635000D02*
X-3935488Y-645313D01*
X-3935488Y-665938D01*
X-3889083Y-624688D02*
X-3865880Y-604063D01*
X-3865880Y-665938D01*
X-3807873Y-604063D02*
X-3749866Y-604063D01*
X-3749866Y-614376D01*
X-3807873Y-665938D01*
D61*
X-4020820Y-1320800D02*
X-3853180Y-1320800D01*
X-3853180Y-904240D01*
X-4020820Y-904240D01*
X-4020820Y-1320800D01*
D165*
X-3937000Y-1270000D02*
X-3937000Y-1270000D01*
D166*
X-3906062Y-1211096D02*
X-3967937Y-1211096D01*
X-3967937Y-1153090D01*
X-3957624Y-1141488D01*
X-3947312Y-1141488D01*
X-3937000Y-1153090D01*
X-3937000Y-1211096D01*
X-3937000Y-1153090D02*
X-3926687Y-1141488D01*
X-3906062Y-1141488D01*
X-3947312Y-1095083D02*
X-3967937Y-1071880D01*
X-3906062Y-1071880D01*
X-3937000Y-1002272D02*
X-3947312Y-1013873D01*
X-3957624Y-1013873D01*
X-3967937Y-1002272D01*
X-3967937Y-967468D01*
X-3957624Y-955866D01*
X-3947312Y-955866D01*
X-3937000Y-967468D01*
X-3937000Y-1002272D01*
X-3926687Y-1013873D01*
X-3916375Y-1013873D01*
X-3906062Y-1002272D01*
X-3906062Y-967468D01*
X-3916375Y-955866D01*
X-3926687Y-955866D01*
X-3937000Y-967468D01*
D61*
X-1781450Y+46840D02*
X-1352550Y+46840D01*
X-1352550Y+207160D01*
X-1781450Y+207160D01*
X-1781450Y+46840D01*
D165*
X-1737000Y+127000D02*
X-1737000Y+127000D01*
D179*
X-1661835Y+97600D02*
X-1661835Y+156400D01*
X-1617735Y+156400D01*
X-1595685Y+136800D01*
X-1595685Y+117200D01*
X-1617735Y+97600D01*
X-1661835Y+97600D01*
X-1507485Y+146600D02*
X-1518510Y+156400D01*
X-1551585Y+156400D01*
X-1562610Y+146600D01*
X-1562610Y+107400D01*
X-1551585Y+97600D01*
X-1518510Y+97600D01*
X-1507485Y+107400D01*
X-1507485Y+117200D01*
X-1518510Y+127000D01*
X-1562610Y+127000D01*
X-1474410Y+146600D02*
X-1463385Y+156400D01*
X-1430310Y+156400D01*
X-1419285Y+146600D01*
X-1419285Y+136800D01*
X-1430310Y+127000D01*
X-1463385Y+127000D01*
X-1474410Y+117200D01*
X-1474410Y+97600D01*
X-1419285Y+97600D01*
D61*
X-708660Y-1026160D02*
X-566420Y-1026160D01*
X-566420Y-711200D01*
X-708660Y-711200D01*
X-708660Y-1026160D01*
D206*
X-635000Y-762000D02*
X-635000Y-762000D01*
D207*
X-615696Y-1005076D02*
X-659384Y-1005076D01*
X-659384Y-964120D01*
X-652103Y-955928D01*
X-644821Y-955928D01*
X-637540Y-964120D01*
X-637540Y-1005076D01*
X-637540Y-964120D02*
X-630259Y-955928D01*
X-615696Y-955928D01*
X-652103Y-931354D02*
X-659384Y-923163D01*
X-659384Y-898589D01*
X-652103Y-890397D01*
X-644821Y-890397D01*
X-637540Y-898589D01*
X-630259Y-890397D01*
X-622977Y-890397D01*
X-615696Y-898589D01*
X-615696Y-923163D01*
X-622977Y-931354D01*
X-637540Y-914971D02*
X-637540Y-898589D01*
X-652103Y-824866D02*
X-659384Y-833058D01*
X-659384Y-857632D01*
X-652103Y-865823D01*
X-622977Y-865823D01*
X-615696Y-857632D01*
X-615696Y-833058D01*
X-622977Y-824866D01*
X-630259Y-824866D01*
X-637540Y-833058D01*
X-637540Y-865823D01*
D61*
X+1486340Y-1024160D02*
X+1628580Y-1024160D01*
X+1628580Y-709200D01*
X+1486340Y-709200D01*
X+1486340Y-1024160D01*
D206*
X+1560000Y-760000D02*
X+1560000Y-760000D01*
D207*
X+1579304Y-1003076D02*
X+1535616Y-1003076D01*
X+1535616Y-962120D01*
X+1542897Y-953928D01*
X+1550179Y-953928D01*
X+1557460Y-962120D01*
X+1557460Y-1003076D01*
X+1557460Y-962120D02*
X+1564741Y-953928D01*
X+1579304Y-953928D01*
X+1535616Y-888397D02*
X+1535616Y-929354D01*
X+1550179Y-929354D01*
X+1550179Y-896589D01*
X+1557460Y-888397D01*
X+1572023Y-888397D01*
X+1579304Y-896589D01*
X+1579304Y-921163D01*
X+1572023Y-929354D01*
X+1542897Y-863823D02*
X+1535616Y-855632D01*
X+1535616Y-831058D01*
X+1542897Y-822866D01*
X+1550179Y-822866D01*
X+1557460Y-831058D01*
X+1557460Y-855632D01*
X+1564741Y-863823D01*
X+1579304Y-863823D01*
X+1579304Y-822866D01*
D61*
X+820420Y-3479800D02*
X+962660Y-3479800D01*
X+962660Y-3164840D01*
X+820420Y-3164840D01*
X+820420Y-3479800D01*
D206*
X+889000Y-3429000D02*
X+889000Y-3429000D01*
D207*
X+913384Y-3382516D02*
X+869696Y-3382516D01*
X+869696Y-3341560D01*
X+876977Y-3333368D01*
X+884259Y-3333368D01*
X+891540Y-3341560D01*
X+891540Y-3382516D01*
X+891540Y-3341560D02*
X+898821Y-3333368D01*
X+913384Y-3333368D01*
X+869696Y-3267837D02*
X+869696Y-3308794D01*
X+884259Y-3308794D01*
X+884259Y-3276029D01*
X+891540Y-3267837D01*
X+906103Y-3267837D01*
X+913384Y-3276029D01*
X+913384Y-3300603D01*
X+906103Y-3308794D01*
X+869696Y-3202306D02*
X+869696Y-3243263D01*
X+884259Y-3243263D01*
X+884259Y-3210498D01*
X+891540Y-3202306D01*
X+906103Y-3202306D01*
X+913384Y-3210498D01*
X+913384Y-3235072D01*
X+906103Y-3243263D01*
D61*
X-645160Y-2227580D02*
X-330200Y-2227580D01*
X-330200Y-2085340D01*
X-645160Y-2085340D01*
X-645160Y-2227580D01*
D206*
X-381000Y-2159000D02*
X-381000Y-2159000D01*
D207*
X-624076Y-2178304D02*
X-624076Y-2134616D01*
X-583120Y-2134616D01*
X-574928Y-2141897D01*
X-574928Y-2149179D01*
X-583120Y-2156460D01*
X-624076Y-2156460D01*
X-583120Y-2156460D02*
X-574928Y-2163741D01*
X-574928Y-2178304D01*
X-509397Y-2141897D02*
X-517589Y-2134616D01*
X-542163Y-2134616D01*
X-550354Y-2141897D01*
X-550354Y-2171023D01*
X-542163Y-2178304D01*
X-517589Y-2178304D01*
X-509397Y-2171023D01*
X-509397Y-2163741D01*
X-517589Y-2156460D01*
X-550354Y-2156460D01*
X-484823Y-2141897D02*
X-476632Y-2134616D01*
X-452058Y-2134616D01*
X-443866Y-2141897D01*
X-443866Y-2149179D01*
X-452058Y-2156460D01*
X-443866Y-2163741D01*
X-443866Y-2171023D01*
X-452058Y-2178304D01*
X-476632Y-2178304D01*
X-484823Y-2171023D01*
X-468440Y-2156460D02*
X-452058Y-2156460D01*
D61*
X-1441450Y-812800D02*
X-1179830Y-812800D01*
X-1179830Y-711200D01*
X-1441450Y-711200D01*
X-1441450Y-812800D01*
D161*
X-1397000Y-762000D02*
X-1397000Y-762000D01*
D162*
X-1317930Y-773380D02*
X-1324331Y-779069D01*
X-1343533Y-779069D01*
X-1356334Y-767690D01*
X-1356334Y-756311D01*
X-1343533Y-744932D01*
X-1324331Y-744932D01*
X-1317930Y-750621D01*
X-1298728Y-750621D02*
X-1292327Y-744932D01*
X-1273125Y-744932D01*
X-1266724Y-750621D01*
X-1266724Y-756311D01*
X-1273125Y-762000D01*
X-1292327Y-762000D01*
X-1298728Y-767690D01*
X-1298728Y-779069D01*
X-1266724Y-779069D01*
X-1215518Y-767690D02*
X-1253922Y-767690D01*
X-1228319Y-744932D01*
X-1228319Y-779069D01*
D61*
X+1860550Y+3886200D02*
X+2122170Y+3886200D01*
X+2122170Y+3987800D01*
X+1860550Y+3987800D01*
X+1860550Y+3886200D01*
D161*
X+1905000Y+3937000D02*
X+1905000Y+3937000D01*
D162*
X+1984070Y+3925620D02*
X+1977669Y+3919931D01*
X+1958467Y+3919931D01*
X+1945666Y+3931310D01*
X+1945666Y+3942689D01*
X+1958467Y+3954068D01*
X+1977669Y+3954068D01*
X+1984070Y+3948379D01*
X+2003272Y+3948379D02*
X+2009673Y+3954068D01*
X+2028875Y+3954068D01*
X+2035276Y+3948379D01*
X+2035276Y+3942689D01*
X+2028875Y+3937000D01*
X+2009673Y+3937000D01*
X+2003272Y+3931310D01*
X+2003272Y+3919931D01*
X+2035276Y+3919931D01*
X+2060879Y+3937000D02*
X+2054478Y+3942689D01*
X+2054478Y+3948379D01*
X+2060879Y+3954068D01*
X+2080081Y+3954068D01*
X+2086482Y+3948379D01*
X+2086482Y+3942689D01*
X+2080081Y+3937000D01*
X+2060879Y+3937000D01*
X+2054478Y+3931310D01*
X+2054478Y+3925620D01*
X+2060879Y+3919931D01*
X+2080081Y+3919931D01*
X+2086482Y+3925620D01*
X+2086482Y+3931310D01*
X+2080081Y+3937000D01*
D61*
X+1479550Y+1600200D02*
X+1741170Y+1600200D01*
X+1741170Y+1701800D01*
X+1479550Y+1701800D01*
X+1479550Y+1600200D01*
D161*
X+1524000Y+1651000D02*
X+1524000Y+1651000D01*
D162*
X+1603070Y+1639620D02*
X+1596669Y+1633931D01*
X+1577467Y+1633931D01*
X+1564666Y+1645310D01*
X+1564666Y+1656689D01*
X+1577467Y+1668068D01*
X+1596669Y+1668068D01*
X+1603070Y+1662379D01*
X+1622272Y+1662379D02*
X+1628673Y+1668068D01*
X+1647875Y+1668068D01*
X+1654276Y+1662379D01*
X+1654276Y+1656689D01*
X+1647875Y+1651000D01*
X+1654276Y+1645310D01*
X+1654276Y+1639620D01*
X+1647875Y+1633931D01*
X+1628673Y+1633931D01*
X+1622272Y+1639620D01*
X+1635074Y+1651000D02*
X+1647875Y+1651000D01*
X+1673478Y+1662379D02*
X+1679879Y+1668068D01*
X+1699081Y+1668068D01*
X+1705482Y+1662379D01*
X+1705482Y+1656689D01*
X+1699081Y+1651000D01*
X+1705482Y+1645310D01*
X+1705482Y+1639620D01*
X+1699081Y+1633931D01*
X+1679879Y+1633931D01*
X+1673478Y+1639620D01*
X+1686280Y+1651000D02*
X+1699081Y+1651000D01*
D61*
X-2711450Y-1447800D02*
X-2449830Y-1447800D01*
X-2449830Y-1346200D01*
X-2711450Y-1346200D01*
X-2711450Y-1447800D01*
D161*
X-2667000Y-1397000D02*
X-2667000Y-1397000D01*
D162*
X-2587930Y-1408380D02*
X-2594331Y-1414069D01*
X-2613533Y-1414069D01*
X-2626334Y-1402690D01*
X-2626334Y-1391311D01*
X-2613533Y-1379932D01*
X-2594331Y-1379932D01*
X-2587930Y-1385621D01*
X-2568728Y-1385621D02*
X-2562327Y-1379932D01*
X-2543125Y-1379932D01*
X-2536724Y-1385621D01*
X-2536724Y-1391311D01*
X-2543125Y-1397000D01*
X-2536724Y-1402690D01*
X-2536724Y-1408380D01*
X-2543125Y-1414069D01*
X-2562327Y-1414069D01*
X-2568728Y-1408380D01*
X-2555926Y-1397000D02*
X-2543125Y-1397000D01*
X-2485518Y-1385621D02*
X-2491919Y-1379932D01*
X-2511121Y-1379932D01*
X-2517522Y-1385621D01*
X-2517522Y-1408380D01*
X-2511121Y-1414069D01*
X-2491919Y-1414069D01*
X-2485518Y-1408380D01*
X-2485518Y-1402690D01*
X-2491919Y-1397000D01*
X-2517522Y-1397000D01*
D61*
X-1955800Y+1052830D02*
X-1854200Y+1052830D01*
X-1854200Y+1314450D01*
X-1955800Y+1314450D01*
X-1955800Y+1052830D01*
D161*
X-1905000Y+1270000D02*
X-1905000Y+1270000D01*
D162*
X-1893620Y+1114120D02*
X-1887931Y+1107719D01*
X-1887931Y+1088517D01*
X-1899310Y+1075716D01*
X-1910689Y+1075716D01*
X-1922068Y+1088517D01*
X-1922068Y+1107719D01*
X-1916379Y+1114120D01*
X-1916379Y+1133322D02*
X-1922068Y+1139723D01*
X-1922068Y+1158925D01*
X-1916379Y+1165326D01*
X-1910689Y+1165326D01*
X-1905000Y+1158925D01*
X-1899310Y+1165326D01*
X-1893620Y+1165326D01*
X-1887931Y+1158925D01*
X-1887931Y+1139723D01*
X-1893620Y+1133322D01*
X-1905000Y+1146124D02*
X-1905000Y+1158925D01*
X-1905000Y+1190929D02*
X-1910689Y+1184528D01*
X-1916379Y+1184528D01*
X-1922068Y+1190929D01*
X-1922068Y+1210131D01*
X-1916379Y+1216532D01*
X-1910689Y+1216532D01*
X-1905000Y+1210131D01*
X-1905000Y+1190929D01*
X-1899310Y+1184528D01*
X-1893620Y+1184528D01*
X-1887931Y+1190929D01*
X-1887931Y+1210131D01*
X-1893620Y+1216532D01*
X-1899310Y+1216532D01*
X-1905000Y+1210131D01*
D61*
X+1720200Y-547170D02*
X+1821800Y-547170D01*
X+1821800Y-285550D01*
X+1720200Y-285550D01*
X+1720200Y-547170D01*
D161*
X+1771000Y-330000D02*
X+1771000Y-330000D01*
D162*
X+1782380Y-485880D02*
X+1788069Y-492281D01*
X+1788069Y-511483D01*
X+1776690Y-524284D01*
X+1765311Y-524284D01*
X+1753932Y-511483D01*
X+1753932Y-492281D01*
X+1759621Y-485880D01*
X+1759621Y-434674D02*
X+1753932Y-441075D01*
X+1753932Y-460277D01*
X+1759621Y-466678D01*
X+1782380Y-466678D01*
X+1788069Y-460277D01*
X+1788069Y-441075D01*
X+1782380Y-434674D01*
X+1776690Y-434674D01*
X+1771000Y-441075D01*
X+1771000Y-466678D01*
X+1759621Y-415472D02*
X+1753932Y-409071D01*
X+1753932Y-389869D01*
X+1759621Y-383468D01*
X+1765311Y-383468D01*
X+1771000Y-389869D01*
X+1776690Y-383468D01*
X+1782380Y-383468D01*
X+1788069Y-389869D01*
X+1788069Y-409071D01*
X+1782380Y-415472D01*
X+1771000Y-402670D02*
X+1771000Y-389869D01*
D61*
X+1814830Y+1092200D02*
X+2076450Y+1092200D01*
X+2076450Y+1193800D01*
X+1814830Y+1193800D01*
X+1814830Y+1092200D01*
D161*
X+2032000Y+1143000D02*
X+2032000Y+1143000D01*
D162*
X+1837716Y+1125931D02*
X+1837716Y+1160068D01*
X+1869719Y+1160068D01*
X+1876120Y+1154379D01*
X+1876120Y+1148689D01*
X+1869719Y+1143000D01*
X+1837716Y+1143000D01*
X+1869719Y+1143000D02*
X+1876120Y+1137310D01*
X+1876120Y+1125931D01*
X+1927326Y+1137310D02*
X+1888922Y+1137310D01*
X+1914525Y+1160068D01*
X+1914525Y+1125931D01*
X+1946528Y+1160068D02*
X+1978532Y+1160068D01*
X+1978532Y+1154379D01*
X+1946528Y+1125931D01*
D61*
X+1466200Y-547170D02*
X+1567800Y-547170D01*
X+1567800Y-285550D01*
X+1466200Y-285550D01*
X+1466200Y-547170D01*
D161*
X+1517000Y-330000D02*
X+1517000Y-330000D01*
D162*
X+1534069Y-524284D02*
X+1499932Y-524284D01*
X+1499932Y-492281D01*
X+1505621Y-485880D01*
X+1511311Y-485880D01*
X+1517000Y-492281D01*
X+1517000Y-524284D01*
X+1517000Y-492281D02*
X+1522690Y-485880D01*
X+1534069Y-485880D01*
X+1522690Y-434674D02*
X+1522690Y-473078D01*
X+1499932Y-447475D01*
X+1534069Y-447475D01*
X+1517000Y-409071D02*
X+1511311Y-415472D01*
X+1505621Y-415472D01*
X+1499932Y-409071D01*
X+1499932Y-389869D01*
X+1505621Y-383468D01*
X+1511311Y-383468D01*
X+1517000Y-389869D01*
X+1517000Y-409071D01*
X+1522690Y-415472D01*
X+1528380Y-415472D01*
X+1534069Y-409071D01*
X+1534069Y-389869D01*
X+1528380Y-383468D01*
X+1522690Y-383468D01*
X+1517000Y-389869D01*
D61*
X+4140200Y-4027170D02*
X+4241800Y-4027170D01*
X+4241800Y-3765550D01*
X+4140200Y-3765550D01*
X+4140200Y-4027170D01*
D161*
X+4191000Y-3810000D02*
X+4191000Y-3810000D01*
D162*
X+4208069Y-4004284D02*
X+4173932Y-4004284D01*
X+4173932Y-3972281D01*
X+4179621Y-3965880D01*
X+4185311Y-3965880D01*
X+4191000Y-3972281D01*
X+4191000Y-4004284D01*
X+4191000Y-3972281D02*
X+4196690Y-3965880D01*
X+4208069Y-3965880D01*
X+4196690Y-3914674D02*
X+4196690Y-3953078D01*
X+4173932Y-3927475D01*
X+4208069Y-3927475D01*
X+4185311Y-3863468D02*
X+4191000Y-3869869D01*
X+4191000Y-3889071D01*
X+4185311Y-3895472D01*
X+4179621Y-3895472D01*
X+4173932Y-3889071D01*
X+4173932Y-3869869D01*
X+4179621Y-3863468D01*
X+4202380Y-3863468D01*
X+4208069Y-3869869D01*
X+4208069Y-3889071D01*
D61*
X+4227830Y-3606800D02*
X+4489450Y-3606800D01*
X+4489450Y-3505200D01*
X+4227830Y-3505200D01*
X+4227830Y-3606800D01*
D161*
X+4445000Y-3556000D02*
X+4445000Y-3556000D01*
D162*
X+4250716Y-3573069D02*
X+4250716Y-3538932D01*
X+4282719Y-3538932D01*
X+4289120Y-3544621D01*
X+4289120Y-3550311D01*
X+4282719Y-3556000D01*
X+4250716Y-3556000D01*
X+4282719Y-3556000D02*
X+4289120Y-3561690D01*
X+4289120Y-3573069D01*
X+4340326Y-3538932D02*
X+4308322Y-3538932D01*
X+4308322Y-3550311D01*
X+4333925Y-3550311D01*
X+4340326Y-3556000D01*
X+4340326Y-3567380D01*
X+4333925Y-3573069D01*
X+4314723Y-3573069D01*
X+4308322Y-3567380D01*
X+4353128Y-3567380D02*
X+4353128Y-3544621D01*
X+4359528Y-3538932D01*
X+4385131Y-3538932D01*
X+4391532Y-3544621D01*
X+4391532Y-3567380D01*
X+4385131Y-3573069D01*
X+4359528Y-3573069D01*
X+4353128Y-3567380D01*
X+4353128Y-3573069D02*
X+4391532Y-3538932D01*
D61*
X-725170Y-1828800D02*
X-463550Y-1828800D01*
X-463550Y-1727200D01*
X-725170Y-1727200D01*
X-725170Y-1828800D01*
D161*
X-508000Y-1778000D02*
X-508000Y-1778000D01*
D162*
X-702284Y-1795069D02*
X-702284Y-1760932D01*
X-670281Y-1760932D01*
X-663880Y-1766621D01*
X-663880Y-1772311D01*
X-670281Y-1778000D01*
X-702284Y-1778000D01*
X-670281Y-1778000D02*
X-663880Y-1783690D01*
X-663880Y-1795069D01*
X-612674Y-1760932D02*
X-644678Y-1760932D01*
X-644678Y-1772311D01*
X-619075Y-1772311D01*
X-612674Y-1778000D01*
X-612674Y-1789380D01*
X-619075Y-1795069D01*
X-638277Y-1795069D01*
X-644678Y-1789380D01*
X-587071Y-1772311D02*
X-574269Y-1760932D01*
X-574269Y-1795069D01*
D61*
X+2576830Y+1092200D02*
X+2838450Y+1092200D01*
X+2838450Y+1193800D01*
X+2576830Y+1193800D01*
X+2576830Y+1092200D01*
D161*
X+2794000Y+1143000D02*
X+2794000Y+1143000D01*
D162*
X+2599716Y+1125931D02*
X+2599716Y+1160068D01*
X+2631719Y+1160068D01*
X+2638120Y+1154379D01*
X+2638120Y+1148689D01*
X+2631719Y+1143000D01*
X+2599716Y+1143000D01*
X+2631719Y+1143000D02*
X+2638120Y+1137310D01*
X+2638120Y+1125931D01*
X+2689326Y+1160068D02*
X+2657322Y+1160068D01*
X+2657322Y+1148689D01*
X+2682925Y+1148689D01*
X+2689326Y+1143000D01*
X+2689326Y+1131620D01*
X+2682925Y+1125931D01*
X+2663723Y+1125931D01*
X+2657322Y+1131620D01*
X+2708528Y+1154379D02*
X+2714929Y+1160068D01*
X+2734131Y+1160068D01*
X+2740532Y+1154379D01*
X+2740532Y+1148689D01*
X+2734131Y+1143000D01*
X+2740532Y+1137310D01*
X+2740532Y+1131620D01*
X+2734131Y+1125931D01*
X+2714929Y+1125931D01*
X+2708528Y+1131620D01*
X+2721330Y+1143000D02*
X+2734131Y+1143000D01*
D61*
X-3098800Y+1941830D02*
X-2997200Y+1941830D01*
X-2997200Y+2203450D01*
X-3098800Y+2203450D01*
X-3098800Y+1941830D01*
D161*
X-3048000Y+2159000D02*
X-3048000Y+2159000D01*
D162*
X-3030931Y+1964716D02*
X-3065068Y+1964716D01*
X-3065068Y+1996719D01*
X-3059379Y+2003120D01*
X-3053689Y+2003120D01*
X-3048000Y+1996719D01*
X-3048000Y+1964716D01*
X-3048000Y+1996719D02*
X-3042310Y+2003120D01*
X-3030931Y+2003120D01*
X-3065068Y+2054326D02*
X-3065068Y+2022322D01*
X-3053689Y+2022322D01*
X-3053689Y+2047925D01*
X-3048000Y+2054326D01*
X-3036620Y+2054326D01*
X-3030931Y+2047925D01*
X-3030931Y+2028723D01*
X-3036620Y+2022322D01*
X-3042310Y+2105532D02*
X-3042310Y+2067128D01*
X-3065068Y+2092731D01*
X-3030931Y+2092731D01*
D61*
X+4521200Y-4027170D02*
X+4622800Y-4027170D01*
X+4622800Y-3765550D01*
X+4521200Y-3765550D01*
X+4521200Y-4027170D01*
D161*
X+4572000Y-3810000D02*
X+4572000Y-3810000D01*
D162*
X+4589069Y-4004284D02*
X+4554932Y-4004284D01*
X+4554932Y-3972281D01*
X+4560621Y-3965880D01*
X+4566311Y-3965880D01*
X+4572000Y-3972281D01*
X+4572000Y-4004284D01*
X+4572000Y-3972281D02*
X+4577690Y-3965880D01*
X+4589069Y-3965880D01*
X+4554932Y-3914674D02*
X+4554932Y-3946678D01*
X+4566311Y-3946678D01*
X+4566311Y-3921075D01*
X+4572000Y-3914674D01*
X+4583380Y-3914674D01*
X+4589069Y-3921075D01*
X+4589069Y-3940277D01*
X+4583380Y-3946678D01*
X+4560621Y-3863468D02*
X+4554932Y-3869869D01*
X+4554932Y-3889071D01*
X+4560621Y-3895472D01*
X+4583380Y-3895472D01*
X+4589069Y-3889071D01*
X+4589069Y-3869869D01*
X+4583380Y-3863468D01*
X+4577690Y-3863468D01*
X+4572000Y-3869869D01*
X+4572000Y-3895472D01*
D61*
X-2971800Y+2368550D02*
X-2870200Y+2368550D01*
X-2870200Y+2630170D01*
X-2971800Y+2630170D01*
X-2971800Y+2368550D01*
D161*
X-2921000Y+2413000D02*
X-2921000Y+2413000D01*
D162*
X-2903931Y+2453666D02*
X-2938068Y+2453666D01*
X-2938068Y+2485669D01*
X-2932379Y+2492070D01*
X-2926689Y+2492070D01*
X-2921000Y+2485669D01*
X-2921000Y+2453666D01*
X-2921000Y+2485669D02*
X-2915310Y+2492070D01*
X-2903931Y+2492070D01*
X-2932379Y+2543276D02*
X-2938068Y+2536875D01*
X-2938068Y+2517673D01*
X-2932379Y+2511272D01*
X-2909620Y+2511272D01*
X-2903931Y+2517673D01*
X-2903931Y+2536875D01*
X-2909620Y+2543276D01*
X-2915310Y+2543276D01*
X-2921000Y+2536875D01*
X-2921000Y+2511272D01*
X-2938068Y+2562478D02*
X-2938068Y+2594482D01*
X-2932379Y+2594482D01*
X-2903931Y+2562478D01*
D61*
X-2971800Y+3257550D02*
X-2870200Y+3257550D01*
X-2870200Y+3519170D01*
X-2971800Y+3519170D01*
X-2971800Y+3257550D01*
D161*
X-2921000Y+3302000D02*
X-2921000Y+3302000D01*
D162*
X-2903931Y+3342666D02*
X-2938068Y+3342666D01*
X-2938068Y+3374669D01*
X-2932379Y+3381070D01*
X-2926689Y+3381070D01*
X-2921000Y+3374669D01*
X-2921000Y+3342666D01*
X-2921000Y+3374669D02*
X-2915310Y+3381070D01*
X-2903931Y+3381070D01*
X-2932379Y+3432276D02*
X-2938068Y+3425875D01*
X-2938068Y+3406673D01*
X-2932379Y+3400272D01*
X-2909620Y+3400272D01*
X-2903931Y+3406673D01*
X-2903931Y+3425875D01*
X-2909620Y+3432276D01*
X-2915310Y+3432276D01*
X-2921000Y+3425875D01*
X-2921000Y+3400272D01*
X-2921000Y+3457879D02*
X-2926689Y+3451478D01*
X-2932379Y+3451478D01*
X-2938068Y+3457879D01*
X-2938068Y+3477081D01*
X-2932379Y+3483482D01*
X-2926689Y+3483482D01*
X-2921000Y+3477081D01*
X-2921000Y+3457879D01*
X-2915310Y+3451478D01*
X-2909620Y+3451478D01*
X-2903931Y+3457879D01*
X-2903931Y+3477081D01*
X-2909620Y+3483482D01*
X-2915310Y+3483482D01*
X-2921000Y+3477081D01*
D61*
X+525550Y+3886200D02*
X+787170Y+3886200D01*
X+787170Y+3987800D01*
X+525550Y+3987800D01*
X+525550Y+3886200D01*
D161*
X+570000Y+3937000D02*
X+570000Y+3937000D01*
D162*
X+610666Y+3919931D02*
X+610666Y+3954068D01*
X+642669Y+3954068D01*
X+649070Y+3948379D01*
X+649070Y+3942689D01*
X+642669Y+3937000D01*
X+610666Y+3937000D01*
X+642669Y+3937000D02*
X+649070Y+3931310D01*
X+649070Y+3919931D01*
X+700276Y+3948379D02*
X+693875Y+3954068D01*
X+674673Y+3954068D01*
X+668272Y+3948379D01*
X+668272Y+3925620D01*
X+674673Y+3919931D01*
X+693875Y+3919931D01*
X+700276Y+3925620D01*
X+700276Y+3931310D01*
X+693875Y+3937000D01*
X+668272Y+3937000D01*
X+751482Y+3942689D02*
X+745081Y+3937000D01*
X+725879Y+3937000D01*
X+719478Y+3942689D01*
X+719478Y+3948379D01*
X+725879Y+3954068D01*
X+745081Y+3954068D01*
X+751482Y+3948379D01*
X+751482Y+3925620D01*
X+745081Y+3919931D01*
X+725879Y+3919931D01*
D61*
X+475550Y+4269200D02*
X+737170Y+4269200D01*
X+737170Y+4370800D01*
X+475550Y+4370800D01*
X+475550Y+4269200D01*
D161*
X+520000Y+4320000D02*
X+520000Y+4320000D01*
D162*
X+560666Y+4302931D02*
X+560666Y+4337068D01*
X+592669Y+4337068D01*
X+599070Y+4331379D01*
X+599070Y+4325689D01*
X+592669Y+4320000D01*
X+560666Y+4320000D01*
X+592669Y+4320000D02*
X+599070Y+4314310D01*
X+599070Y+4302931D01*
X+618272Y+4337068D02*
X+650276Y+4337068D01*
X+650276Y+4331379D01*
X+618272Y+4302931D01*
X+663078Y+4308620D02*
X+663078Y+4331379D01*
X+669478Y+4337068D01*
X+695081Y+4337068D01*
X+701482Y+4331379D01*
X+701482Y+4308620D01*
X+695081Y+4302931D01*
X+669478Y+4302931D01*
X+663078Y+4308620D01*
X+663078Y+4302931D02*
X+701482Y+4337068D01*
D61*
X-1394450Y-150800D02*
X-1132830Y-150800D01*
X-1132830Y-49200D01*
X-1394450Y-49200D01*
X-1394450Y-150800D01*
D161*
X-1177280Y-100000D02*
X-1177280Y-100000D01*
D162*
X-1371564Y-117069D02*
X-1371564Y-82932D01*
X-1339561Y-82932D01*
X-1333160Y-88621D01*
X-1333160Y-94311D01*
X-1339561Y-100000D01*
X-1371564Y-100000D01*
X-1339561Y-100000D02*
X-1333160Y-105690D01*
X-1333160Y-117069D01*
X-1281954Y-94311D02*
X-1288355Y-100000D01*
X-1307557Y-100000D01*
X-1313958Y-94311D01*
X-1313958Y-88621D01*
X-1307557Y-82932D01*
X-1288355Y-82932D01*
X-1281954Y-88621D01*
X-1281954Y-111380D01*
X-1288355Y-117069D01*
X-1307557Y-117069D01*
X-1262752Y-88621D02*
X-1256351Y-82932D01*
X-1237149Y-82932D01*
X-1230748Y-88621D01*
X-1230748Y-94311D01*
X-1237149Y-100000D01*
X-1230748Y-105690D01*
X-1230748Y-111380D01*
X-1237149Y-117069D01*
X-1256351Y-117069D01*
X-1262752Y-111380D01*
X-1249950Y-100000D02*
X-1237149Y-100000D01*
D61*
X-1240800Y-24450D02*
X-1139200Y-24450D01*
X-1139200Y+237170D01*
X-1240800Y+237170D01*
X-1240800Y-24450D01*
D161*
X-1190000Y+20000D02*
X-1190000Y+20000D01*
D162*
X-1172931Y+60666D02*
X-1207068Y+60666D01*
X-1207068Y+92669D01*
X-1201379Y+99070D01*
X-1195689Y+99070D01*
X-1190000Y+92669D01*
X-1190000Y+60666D01*
X-1190000Y+92669D02*
X-1184310Y+99070D01*
X-1172931Y+99070D01*
X-1195689Y+150276D02*
X-1190000Y+143875D01*
X-1190000Y+124673D01*
X-1195689Y+118272D01*
X-1201379Y+118272D01*
X-1207068Y+124673D01*
X-1207068Y+143875D01*
X-1201379Y+150276D01*
X-1178620Y+150276D01*
X-1172931Y+143875D01*
X-1172931Y+124673D01*
X-1184310Y+201482D02*
X-1184310Y+163078D01*
X-1207068Y+188681D01*
X-1172931Y+188681D01*
D159*
X-1495000Y+4975000D02*
X-1825000Y+4975000D01*
X-1825000Y+4785000D01*
X-1495000Y+4785000D01*
X-1495000Y+4975000D01*
X-1660000Y+4830000D02*
X-1660000Y+4930000D01*
X-1710000Y+4880000D02*
X-1610000Y+4880000D01*
D176*
X-1570000Y+4880000D02*
X-1570000Y+4880000D01*
D177*
X-1806876Y+4859076D02*
X-1806876Y+4900923D01*
X-1775491Y+4900923D01*
X-1759798Y+4886974D01*
X-1759798Y+4873025D01*
X-1775491Y+4859076D01*
X-1806876Y+4859076D01*
X-1736259Y+4893949D02*
X-1728413Y+4900923D01*
X-1704874Y+4900923D01*
X-1697027Y+4893949D01*
X-1697027Y+4886974D01*
X-1704874Y+4880000D01*
X-1697027Y+4873025D01*
X-1697027Y+4866050D01*
X-1704874Y+4859076D01*
X-1728413Y+4859076D01*
X-1736259Y+4866050D01*
X-1720566Y+4880000D02*
X-1704874Y+4880000D01*
X-1665642Y+4886974D02*
X-1649949Y+4900923D01*
X-1649949Y+4859076D01*
D61*
X-2971800Y+1606550D02*
X-2870200Y+1606550D01*
X-2870200Y+1868170D01*
X-2971800Y+1868170D01*
X-2971800Y+1606550D01*
D161*
X-2921000Y+1651000D02*
X-2921000Y+1651000D01*
D162*
X-2903931Y+1691666D02*
X-2938068Y+1691666D01*
X-2938068Y+1723669D01*
X-2932379Y+1730070D01*
X-2926689Y+1730070D01*
X-2921000Y+1723669D01*
X-2921000Y+1691666D01*
X-2921000Y+1723669D02*
X-2915310Y+1730070D01*
X-2903931Y+1730070D01*
X-2938068Y+1749272D02*
X-2938068Y+1781276D01*
X-2932379Y+1781276D01*
X-2903931Y+1749272D01*
X-2932379Y+1800478D02*
X-2938068Y+1806879D01*
X-2938068Y+1826081D01*
X-2932379Y+1832482D01*
X-2926689Y+1832482D01*
X-2921000Y+1826081D01*
X-2921000Y+1806879D01*
X-2915310Y+1800478D01*
X-2903931Y+1800478D01*
X-2903931Y+1832482D01*
D159*
X-1515000Y+5315000D02*
X-1845000Y+5315000D01*
X-1845000Y+5125000D01*
X-1515000Y+5125000D01*
X-1515000Y+5315000D01*
X-1680000Y+5170000D02*
X-1680000Y+5270000D01*
X-1730000Y+5220000D02*
X-1630000Y+5220000D01*
D176*
X-1590000Y+5220000D02*
X-1590000Y+5220000D01*
D177*
X-1826876Y+5199076D02*
X-1826876Y+5240923D01*
X-1795491Y+5240923D01*
X-1779798Y+5226974D01*
X-1779798Y+5213025D01*
X-1795491Y+5199076D01*
X-1826876Y+5199076D01*
X-1756259Y+5233949D02*
X-1748413Y+5240923D01*
X-1724874Y+5240923D01*
X-1717027Y+5233949D01*
X-1717027Y+5226974D01*
X-1724874Y+5220000D01*
X-1717027Y+5213025D01*
X-1717027Y+5206050D01*
X-1724874Y+5199076D01*
X-1748413Y+5199076D01*
X-1756259Y+5206050D01*
X-1740566Y+5220000D02*
X-1724874Y+5220000D01*
X-1693488Y+5233949D02*
X-1685642Y+5240923D01*
X-1662103Y+5240923D01*
X-1654256Y+5233949D01*
X-1654256Y+5226974D01*
X-1662103Y+5220000D01*
X-1685642Y+5220000D01*
X-1693488Y+5213025D01*
X-1693488Y+5199076D01*
X-1654256Y+5199076D01*
D61*
X+2870200Y+2195830D02*
X+2971800Y+2195830D01*
X+2971800Y+2457450D01*
X+2870200Y+2457450D01*
X+2870200Y+2195830D01*
D161*
X+2921000Y+2413000D02*
X+2921000Y+2413000D01*
D162*
X+2938069Y+2218716D02*
X+2903932Y+2218716D01*
X+2903932Y+2250719D01*
X+2909621Y+2257120D01*
X+2915311Y+2257120D01*
X+2921000Y+2250719D01*
X+2921000Y+2218716D01*
X+2921000Y+2250719D02*
X+2926690Y+2257120D01*
X+2938069Y+2257120D01*
X+2903932Y+2276322D02*
X+2903932Y+2308326D01*
X+2909621Y+2308326D01*
X+2938069Y+2276322D01*
X+2909621Y+2327528D02*
X+2903932Y+2333929D01*
X+2903932Y+2353131D01*
X+2909621Y+2359532D01*
X+2915311Y+2359532D01*
X+2921000Y+2353131D01*
X+2926690Y+2359532D01*
X+2932380Y+2359532D01*
X+2938069Y+2353131D01*
X+2938069Y+2333929D01*
X+2932380Y+2327528D01*
X+2921000Y+2340330D02*
X+2921000Y+2353131D01*
D61*
X-431800Y-44450D02*
X-330200Y-44450D01*
X-330200Y+217170D01*
X-431800Y+217170D01*
X-431800Y-44450D01*
D161*
X-381000Y+0D02*
X-381000Y+0D01*
D162*
X-363931Y+40666D02*
X-398068Y+40666D01*
X-398068Y+72669D01*
X-392379Y+79070D01*
X-386689Y+79070D01*
X-381000Y+72669D01*
X-381000Y+40666D01*
X-381000Y+72669D02*
X-375310Y+79070D01*
X-363931Y+79070D01*
X-381000Y+104673D02*
X-386689Y+98272D01*
X-392379Y+98272D01*
X-398068Y+104673D01*
X-398068Y+123875D01*
X-392379Y+130276D01*
X-386689Y+130276D01*
X-381000Y+123875D01*
X-381000Y+104673D01*
X-375310Y+98272D01*
X-369620Y+98272D01*
X-363931Y+104673D01*
X-363931Y+123875D01*
X-369620Y+130276D01*
X-375310Y+130276D01*
X-381000Y+123875D01*
X-398068Y+181482D02*
X-398068Y+149478D01*
X-386689Y+149478D01*
X-386689Y+175081D01*
X-381000Y+181482D01*
X-369620Y+181482D01*
X-363931Y+175081D01*
X-363931Y+155879D01*
X-369620Y+149478D01*
D61*
X-939800Y-44450D02*
X-838200Y-44450D01*
X-838200Y+217170D01*
X-939800Y+217170D01*
X-939800Y-44450D01*
D161*
X-889000Y+0D02*
X-889000Y+0D01*
D162*
X-871931Y+40666D02*
X-906068Y+40666D01*
X-906068Y+72669D01*
X-900379Y+79070D01*
X-894689Y+79070D01*
X-889000Y+72669D01*
X-889000Y+40666D01*
X-889000Y+72669D02*
X-883310Y+79070D01*
X-871931Y+79070D01*
X-889000Y+104673D02*
X-894689Y+98272D01*
X-900379Y+98272D01*
X-906068Y+104673D01*
X-906068Y+123875D01*
X-900379Y+130276D01*
X-894689Y+130276D01*
X-889000Y+123875D01*
X-889000Y+104673D01*
X-883310Y+98272D01*
X-877620Y+98272D01*
X-871931Y+104673D01*
X-871931Y+123875D01*
X-877620Y+130276D01*
X-883310Y+130276D01*
X-889000Y+123875D01*
X-900379Y+181482D02*
X-906068Y+175081D01*
X-906068Y+155879D01*
X-900379Y+149478D01*
X-877620Y+149478D01*
X-871931Y+155879D01*
X-871931Y+175081D01*
X-877620Y+181482D01*
X-883310Y+181482D01*
X-889000Y+175081D01*
X-889000Y+149478D01*
D61*
X-97160Y-3994799D02*
X+939160Y-3994799D01*
X+939160Y-3720479D01*
X-97160Y-3720479D01*
X-97160Y-3994799D01*
D194*
X+40000Y-3857639D02*
X+40000Y-3857639D01*
D195*
X+189860Y-3804299D02*
X+309875Y-3804299D01*
X+249867Y-3804299D02*
X+249867Y-3910979D01*
X+349880Y-3804299D02*
X+469895Y-3910979D01*
X+349880Y-3910979D02*
X+469895Y-3804299D01*
X+509900Y-3910979D02*
X+509900Y-3804299D01*
X+609912Y-3804299D01*
X+629915Y-3822079D01*
X+629915Y-3839859D01*
X+609912Y-3857639D01*
X+509900Y-3857639D01*
X+609912Y-3857639D02*
X+629915Y-3875419D01*
X+629915Y-3910979D01*
X+669920Y-3804299D02*
X+789935Y-3910979D01*
X+669920Y-3910979D02*
X+789935Y-3804299D01*
D61*
X+2172840Y-787160D02*
X+2701160Y-787160D01*
X+2701160Y-512840D01*
X+2172840Y-512840D01*
X+2172840Y-787160D01*
D194*
X+2310000Y-650000D02*
X+2310000Y-650000D01*
D196*
X+2377312Y-661007D02*
X+2377312Y-672014D01*
X+2389694Y-683020D01*
X+2439223Y-683020D01*
X+2451606Y-672014D01*
X+2451606Y-616981D01*
X+2476371Y-683020D02*
X+2476371Y-616981D01*
X+2538282Y-616981D01*
X+2550665Y-627987D01*
X+2550665Y-638994D01*
X+2538282Y-650000D01*
X+2476371Y-650000D01*
X+2587812Y-627987D02*
X+2600194Y-616981D01*
X+2637341Y-616981D01*
X+2649724Y-627987D01*
X+2649724Y-638994D01*
X+2637341Y-650000D01*
X+2600194Y-650000D01*
X+2587812Y-661007D01*
X+2587812Y-683020D01*
X+2649724Y-683020D01*
M02*
