G04 PROTEUS GERBER X2 FILE*
%TF.GenerationSoftware,Labcenter,Proteus,8.13-SP0-Build31525*%
%TF.CreationDate,2023-08-07T13:40:14+00:00*%
%TF.FileFunction,Paste,Top*%
%TF.FilePolarity,Positive*%
%TF.Part,Single*%
%TF.SameCoordinates,{8d507f11-5f74-4f73-9321-756942b8957b}*%
%FSLAX45Y45*%
%MOMM*%
G01*
%TA.AperFunction,Material*%
%ADD118R,1.500000X0.900000*%
%ADD119R,0.900000X1.500000*%
%TA.AperFunction,Material*%
%ADD120R,2.032000X0.635000*%
%TA.AperFunction,Material*%
%ADD121R,1.100000X0.400000*%
%TA.AperFunction,Material*%
%ADD122R,1.000000X0.300000*%
%TA.AperFunction,Material*%
%ADD123R,0.939800X0.889000*%
%ADD124R,0.889000X0.889000*%
%ADD125R,1.016000X1.524000*%
%ADD126R,2.350000X1.550000*%
%TA.AperFunction,Material*%
%ADD127R,1.041400X2.997200*%
%ADD128R,10.490200X6.908800*%
%TA.AperFunction,Material*%
%ADD129R,3.300000X6.000000*%
%ADD130R,1.400000X3.000000*%
%ADD131R,3.000000X1.400000*%
%ADD132R,0.990600X1.397000*%
%ADD133R,0.889000X1.524000*%
%TA.AperFunction,Material*%
%ADD134R,2.540000X1.524000*%
%ADD135R,6.985000X6.985000*%
%TA.AperFunction,Material*%
%ADD136R,0.400000X1.400000*%
%TA.AperFunction,Material*%
%ADD137R,0.635000X2.032000*%
%TA.AperFunction,Material*%
%ADD138R,0.889000X1.016000*%
%TA.AperFunction,Material*%
%ADD139R,0.939800X2.159000*%
%ADD140R,3.251200X2.159000*%
%TA.AperFunction,Material*%
%ADD141R,1.300000X1.700000*%
%TA.AperFunction,Material*%
%ADD142R,2.006600X0.609600*%
%TA.AperFunction,Material*%
%ADD143R,1.016000X0.889000*%
%AMPPAD134*
4,1,36,
-0.777240,-0.754740,
-0.754910,-0.828480,
-0.719440,-0.894800,
-0.672260,-0.952260,
-0.614800,-0.999440,
-0.548480,-1.034910,
-0.474740,-1.057240,
-0.395000,-1.065000,
0.395000,-1.065000,
0.474740,-1.057240,
0.548480,-1.034910,
0.614800,-0.999440,
0.672260,-0.952260,
0.719440,-0.894800,
0.754910,-0.828480,
0.777240,-0.754740,
0.785000,-0.675000,
0.785000,0.675000,
0.777240,0.754740,
0.754910,0.828480,
0.719440,0.894800,
0.672260,0.952260,
0.614800,0.999440,
0.548480,1.034910,
0.474740,1.057240,
0.395000,1.065000,
-0.395000,1.065000,
-0.474740,1.057240,
-0.548480,1.034910,
-0.614800,0.999440,
-0.672260,0.952260,
-0.719440,0.894800,
-0.754910,0.828480,
-0.777240,0.754740,
-0.785000,0.675000,
-0.785000,-0.675000,
-0.777240,-0.754740,
0*%
%TA.AperFunction,Material*%
%ADD144PPAD134*%
%TA.AperFunction,Material*%
%ADD145R,0.889000X0.939800*%
%TA.AperFunction,Material*%
%ADD146R,1.524000X2.032000*%
%ADD147R,3.810000X2.032000*%
%TA.AperFunction,Material*%
%ADD148R,1.524000X1.270000*%
%ADD149R,1.270000X1.524000*%
%ADD150R,1.524000X1.016000*%
%ADD151R,1.270000X1.016000*%
%ADD152R,1.016000X1.270000*%
%TA.AperFunction,Profile*%
%ADD58C,0.203200*%
%TD.AperFunction*%
D118*
X-1400000Y+4538000D03*
X-1400000Y+4411000D03*
X-1400000Y+4284000D03*
X-1400000Y+4157000D03*
X-1400000Y+4030000D03*
X-1400000Y+3903000D03*
X-1400000Y+3776000D03*
X-1400000Y+3649000D03*
X-1400000Y+3522000D03*
X-1400000Y+3395000D03*
X-1400000Y+3268000D03*
X-1400000Y+3141000D03*
X-1400000Y+3014000D03*
X-1400000Y+2887000D03*
D119*
X-1081000Y+2737000D03*
X-954000Y+2737000D03*
X-827000Y+2737000D03*
X-700000Y+2737000D03*
X-573000Y+2737000D03*
X-446000Y+2737000D03*
X-319000Y+2737000D03*
X-192000Y+2737000D03*
X-65000Y+2737000D03*
X+62000Y+2737000D03*
D118*
X+380000Y+2887000D03*
X+380000Y+3014000D03*
X+380000Y+3141000D03*
X+380000Y+3268000D03*
X+380000Y+3395000D03*
X+380000Y+3522000D03*
X+380000Y+3649000D03*
X+380000Y+3776000D03*
X+380000Y+3903000D03*
X+380000Y+4030000D03*
X+380000Y+4157000D03*
X+380000Y+4284000D03*
X+380000Y+4411000D03*
X+380000Y+4538000D03*
D120*
X-2610350Y-709500D03*
X-2610350Y-836500D03*
X-2610350Y-963500D03*
X-2610350Y-1090500D03*
X-2089650Y-1090500D03*
X-2089650Y-963500D03*
X-2089650Y-836500D03*
X-2089650Y-709500D03*
D121*
X-1035000Y-140000D03*
X-1035000Y-205000D03*
X-1035000Y-270000D03*
X-1035000Y-335000D03*
X-1035000Y-400000D03*
X-1035000Y-465000D03*
X-1035000Y-530000D03*
X-450000Y-530000D03*
X-450000Y-465000D03*
X-450000Y-400000D03*
X-450000Y-335000D03*
X-450000Y-270000D03*
X-450000Y-205000D03*
X-450000Y-140000D03*
D122*
X-1050000Y+895000D03*
X-1050000Y+830000D03*
X-1050000Y+765000D03*
X-1050000Y+700000D03*
X-1050000Y+635000D03*
X-1050000Y+570000D03*
X-1050000Y+505000D03*
X-1050000Y+440000D03*
X-1050000Y+375000D03*
X-1050000Y+310000D03*
X-500000Y+310000D03*
X-500000Y+375000D03*
X-500000Y+440000D03*
X-500000Y+505000D03*
X-500000Y+570000D03*
X-500000Y+635000D03*
X-500000Y+700000D03*
X-500000Y+765000D03*
X-500000Y+830000D03*
X-500000Y+895000D03*
D123*
X-3780000Y-350000D03*
X-3780000Y-190000D03*
X-3780000Y-1400000D03*
X-3780000Y-1240000D03*
D124*
X-1800000Y-1150000D03*
X-1800000Y-977280D03*
X-1800000Y-851360D03*
X-1800000Y-678640D03*
X-1650000Y-977280D03*
X-1650000Y-1150000D03*
X-1650000Y-678640D03*
X-1650000Y-851360D03*
X-360000Y-1440000D03*
X-532720Y-1440000D03*
X-360000Y-1110000D03*
X-532720Y-1110000D03*
X-532720Y-1590000D03*
X-360000Y-1590000D03*
X-532720Y-1260000D03*
X-360000Y-1260000D03*
X-202610Y-1590000D03*
X-202610Y-1417280D03*
X-202610Y-1260000D03*
X-202610Y-1087280D03*
D125*
X-3925040Y-4430000D03*
X-4240000Y-4430000D03*
D126*
X-1810000Y-3000000D03*
X-2240000Y-3000000D03*
D127*
X-3490000Y-2960000D03*
X-3320000Y-2960000D03*
X-3150000Y-2960000D03*
X-2980000Y-2960000D03*
X-2810000Y-2960000D03*
D128*
X-3150000Y-1950000D03*
D129*
X-3470000Y-3880000D03*
X-2320000Y-3870000D03*
D124*
X-3750000Y-3350000D03*
X-3750000Y-3522720D03*
D130*
X+280000Y-2040000D03*
X+280000Y-3030000D03*
D124*
X-1200000Y-2820000D03*
X-1200000Y-2992720D03*
D130*
X-3190000Y-630000D03*
X-3190000Y-1330000D03*
D131*
X-1700000Y-1830000D03*
X-2400000Y-1830000D03*
D126*
X-1820000Y-2590000D03*
X-2250000Y-2590000D03*
D124*
X-2022720Y-1310000D03*
X-1850000Y-1310000D03*
D132*
X-3960000Y-4040000D03*
X-4140000Y-4040000D03*
D120*
X+2109300Y+177000D03*
X+2109300Y+50000D03*
X+2109300Y-77000D03*
X+2109300Y-204000D03*
X+2630000Y-204000D03*
X+2630000Y-77000D03*
X+2630000Y+50000D03*
X+2630000Y+177000D03*
D124*
X-1050000Y-1100000D03*
X-877280Y-1100000D03*
X-790000Y-2270000D03*
X-962720Y-2270000D03*
X-1080000Y-2270000D03*
X-1252720Y-2270000D03*
D133*
X-700000Y-2770000D03*
X-1040000Y-2770000D03*
D124*
X-1332720Y-2590000D03*
X-1160000Y-2590000D03*
X-960000Y-1900000D03*
X-787280Y-1900000D03*
X-1270000Y-1900000D03*
X-1097280Y-1900000D03*
D133*
X-1040000Y-3060000D03*
X-700000Y-3060000D03*
D124*
X-1042720Y-2590000D03*
X-870000Y-2590000D03*
D134*
X+1429120Y-1741400D03*
X+1429120Y-2198600D03*
D135*
X+2120000Y-1970000D03*
D124*
X+1460000Y+4095000D03*
X+1287280Y+4095000D03*
X+1217280Y+3045000D03*
X+1390000Y+3045000D03*
X+1217280Y+2525000D03*
X+1390000Y+2525000D03*
X+2640000Y+3375000D03*
X+2467280Y+3375000D03*
X+2642720Y+3245000D03*
X+2470000Y+3245000D03*
X+1370000Y+3495000D03*
X+1197280Y+3495000D03*
X+1197280Y+3355000D03*
X+1370000Y+3355000D03*
X+1456780Y+3978980D03*
X+1284060Y+3978980D03*
X+1217280Y+2905000D03*
X+1390000Y+2905000D03*
D125*
X+2814960Y+1375000D03*
X+2500000Y+1375000D03*
D133*
X+2820000Y+1575000D03*
X+2480000Y+1575000D03*
D136*
X-2230000Y+4690000D03*
X-2295000Y+4690000D03*
X-2360000Y+4690000D03*
X-2425000Y+4690000D03*
X-2490000Y+4690000D03*
D137*
X-1730277Y+4243539D03*
X-1857277Y+4243539D03*
X-1984277Y+4243539D03*
X-2111277Y+4243539D03*
X-2238277Y+4243539D03*
X-2365277Y+4243539D03*
X-2492277Y+4243539D03*
X-2619277Y+4243539D03*
X-2619277Y+3722839D03*
X-2492277Y+3722839D03*
X-2365277Y+3722839D03*
X-2238277Y+3722839D03*
X-2111277Y+3722839D03*
X-1984277Y+3722839D03*
X-1857277Y+3722839D03*
X-1730277Y+3722839D03*
D125*
X-1200000Y-1280000D03*
X-885040Y-1280000D03*
X-1200000Y-1480000D03*
X-885040Y-1480000D03*
X-1200000Y-1680000D03*
X-885040Y-1680000D03*
D124*
X-1892720Y+3010000D03*
X-1720000Y+3010000D03*
D138*
X-2114682Y+2503689D03*
X-2302642Y+2503689D03*
X-2208662Y+2313189D03*
X-2564682Y+2503689D03*
X-2752642Y+2503689D03*
X-2658662Y+2313189D03*
D124*
X-2272720Y+2030000D03*
X-2100000Y+2030000D03*
X-2745022Y+2063189D03*
X-2572302Y+2063189D03*
D139*
X-2704777Y+2803189D03*
X-2474777Y+2803189D03*
X-2244777Y+2803189D03*
D140*
X-2474777Y+3383189D03*
D141*
X-1732978Y+2113705D03*
X-1312978Y+2113705D03*
X-1730000Y+1530000D03*
X-1310000Y+1530000D03*
D124*
X-1892720Y+3290000D03*
X-1720000Y+3290000D03*
D142*
X+1610000Y+2905000D03*
X+1610000Y+2778000D03*
X+1610000Y+2651000D03*
X+1610000Y+2524000D03*
X+1610000Y+2397000D03*
X+1610000Y+2270000D03*
X+1610000Y+2143000D03*
X+1610000Y+2016000D03*
X+2550000Y+2016000D03*
X+2550000Y+2143000D03*
X+2550000Y+2270000D03*
X+2550000Y+2397000D03*
X+2550000Y+2524000D03*
X+2550000Y+2651000D03*
X+2550000Y+2778000D03*
X+2550000Y+2905000D03*
D120*
X+1629650Y+3625500D03*
X+1629650Y+3498500D03*
X+1629650Y+3371500D03*
X+1629650Y+3244500D03*
X+2150350Y+3244500D03*
X+2150350Y+3371500D03*
X+2150350Y+3498500D03*
X+2150350Y+3625500D03*
D124*
X+1200000Y+3625000D03*
X+1372720Y+3625000D03*
X+1210000Y+2655000D03*
X+1382720Y+2655000D03*
D143*
X+1120000Y+3982040D03*
X+1120000Y+4170000D03*
X+929500Y+4076020D03*
D124*
X+2567280Y+1735000D03*
X+2740000Y+1735000D03*
D134*
X+1429120Y-2501400D03*
X+1429120Y-2958600D03*
D135*
X+2120000Y-2730000D03*
D144*
X-2220000Y+1848012D03*
X-2474000Y+1848012D03*
X-2474000Y+990000D03*
X-2220000Y+990000D03*
X-2200000Y+598012D03*
X-2454000Y+598012D03*
X-2454000Y-260000D03*
X-2200000Y-260000D03*
D137*
X-98000Y+1268050D03*
X+29000Y+1268050D03*
X+156000Y+1268050D03*
X+283000Y+1268050D03*
X+410000Y+1268050D03*
X+537000Y+1268050D03*
X+664000Y+1268050D03*
X+791000Y+1268050D03*
X+918000Y+1268050D03*
X+918000Y+1991950D03*
X+791000Y+1991950D03*
X+664000Y+1991950D03*
X+537000Y+1991950D03*
X+410000Y+1991950D03*
X+283000Y+1991950D03*
X+156000Y+1991950D03*
X+29000Y+1991950D03*
X-98000Y+1991950D03*
D145*
X+2399240Y-3260000D03*
X+2239240Y-3260000D03*
X+3459240Y-3260000D03*
X+3299240Y-3260000D03*
X+3969240Y-3260000D03*
X+3809240Y-3260000D03*
D120*
X+2109300Y+837000D03*
X+2109300Y+710000D03*
X+2109300Y+583000D03*
X+2109300Y+456000D03*
X+2630000Y+456000D03*
X+2630000Y+583000D03*
X+2630000Y+710000D03*
X+2630000Y+837000D03*
D146*
X-3411140Y-290000D03*
X-3180000Y-290000D03*
X-2948860Y-290000D03*
D147*
X-3180000Y+339920D03*
D126*
X+2286000Y+3937000D03*
X+2716000Y+3937000D03*
D148*
X+1905000Y+1270000D03*
X+1905000Y+1689100D03*
D149*
X+159600Y-1640000D03*
X+578700Y-1640000D03*
X+579100Y-1310000D03*
X+160000Y-1310000D03*
D125*
X-4064000Y-635000D03*
X-3749040Y-635000D03*
D150*
X-3937000Y-1270000D03*
X-3937000Y-955040D03*
D133*
X-1397000Y+127000D03*
X-1737000Y+127000D03*
D151*
X-635000Y-762000D03*
X-635000Y-975360D03*
X+1560000Y-760000D03*
X+1560000Y-973360D03*
X+889000Y-3429000D03*
X+889000Y-3215640D03*
D152*
X-381000Y-2159000D03*
X-594360Y-2159000D03*
D124*
X-1397000Y-762000D03*
X-1224280Y-762000D03*
X+1905000Y+3937000D03*
X+2077720Y+3937000D03*
X+1524000Y+1651000D03*
X+1696720Y+1651000D03*
X-2667000Y-1397000D03*
X-2494280Y-1397000D03*
X-1905000Y+1270000D03*
X-1905000Y+1097280D03*
X+1771000Y-330000D03*
X+1771000Y-502720D03*
X+2032000Y+1143000D03*
X+1859280Y+1143000D03*
X+1517000Y-330000D03*
X+1517000Y-502720D03*
X+4191000Y-3810000D03*
X+4191000Y-3982720D03*
X+4445000Y-3556000D03*
X+4272280Y-3556000D03*
X-508000Y-1778000D03*
X-680720Y-1778000D03*
X+2794000Y+1143000D03*
X+2621280Y+1143000D03*
X-3048000Y+2159000D03*
X-3048000Y+1986280D03*
X+4572000Y-3810000D03*
X+4572000Y-3982720D03*
X-2921000Y+2413000D03*
X-2921000Y+2585720D03*
X-2921000Y+3302000D03*
X-2921000Y+3474720D03*
X+570000Y+3937000D03*
X+742720Y+3937000D03*
X+520000Y+4320000D03*
X+692720Y+4320000D03*
X-1177280Y-100000D03*
X-1350000Y-100000D03*
X-1190000Y+20000D03*
X-1190000Y+192720D03*
D132*
X-1750000Y+4880000D03*
X-1570000Y+4880000D03*
D124*
X-2921000Y+1651000D03*
X-2921000Y+1823720D03*
D132*
X-1770000Y+5220000D03*
X-1590000Y+5220000D03*
D124*
X+2921000Y+2413000D03*
X+2921000Y+2240280D03*
X-381000Y+0D03*
X-381000Y+172720D03*
X-889000Y+0D03*
X-889000Y+172720D03*
D58*
X-4990000Y-4640000D02*
X+5000000Y-4640000D01*
X+5000000Y+5360000D01*
X-4990000Y+5360000D01*
X-4990000Y-4640000D01*
X+1385625Y-1221172D02*
X+4785625Y-1221172D01*
X+4785625Y-1111172D01*
X+1385625Y-1111172D01*
X+1385625Y-1221172D01*
X+855625Y-3091172D02*
X+965625Y-3091172D01*
X+965625Y-1401172D01*
X+855625Y-1401172D01*
X+855625Y-3091172D01*
X+1264865Y-4511172D02*
X+1374865Y-4511172D01*
X+1374865Y-3331172D01*
X+1264865Y-3331172D01*
X+1264865Y-4511172D01*
M02*
