G04 PROTEUS GERBER X2 FILE*
%TF.GenerationSoftware,Labcenter,Proteus,8.13-SP0-Build31525*%
%TF.CreationDate,2023-08-07T13:40:14+00:00*%
%TF.FileFunction,Soldermask,Top*%
%TF.FilePolarity,Negative*%
%TF.Part,Single*%
%TF.SameCoordinates,{8d507f11-5f74-4f73-9321-756942b8957b}*%
%FSLAX45Y45*%
%MOMM*%
G01*
%TA.AperFunction,Material*%
%ADD69C,1.016000*%
%AMPPAD064*
4,1,4,
-0.750000,0.450000,
0.750000,0.450000,
0.750000,-0.450000,
-0.750000,-0.450000,
-0.750000,0.450000,
0*%
%TA.AperFunction,Material*%
%ADD74PPAD064*%
%AMPPAD065*
4,1,4,
-0.450000,0.750000,
0.450000,0.750000,
0.450000,-0.750000,
-0.450000,-0.750000,
-0.450000,0.750000,
0*%
%ADD75PPAD065*%
%AMPPAD066*
4,1,36,
-1.143000,-0.317500,
-1.143000,0.317500,
-1.140470,0.343470,
-1.133200,0.367480,
-1.121650,0.389080,
-1.106290,0.407790,
-1.087570,0.423150,
-1.065980,0.434700,
-1.041970,0.441970,
-1.016000,0.444500,
1.016000,0.444500,
1.041970,0.441970,
1.065980,0.434700,
1.087570,0.423150,
1.106290,0.407790,
1.121650,0.389080,
1.133200,0.367480,
1.140470,0.343470,
1.143000,0.317500,
1.143000,-0.317500,
1.140470,-0.343470,
1.133200,-0.367480,
1.121650,-0.389080,
1.106290,-0.407790,
1.087570,-0.423150,
1.065980,-0.434700,
1.041970,-0.441970,
1.016000,-0.444500,
-1.016000,-0.444500,
-1.041970,-0.441970,
-1.065980,-0.434700,
-1.087570,-0.423150,
-1.106290,-0.407790,
-1.121650,-0.389080,
-1.133200,-0.367480,
-1.140470,-0.343470,
-1.143000,-0.317500,
0*%
%TA.AperFunction,Material*%
%ADD76PPAD066*%
%AMPPAD067*
4,1,36,
-0.677000,-0.200000,
-0.677000,0.200000,
-0.674470,0.225970,
-0.667200,0.249980,
-0.655650,0.271580,
-0.640290,0.290290,
-0.621570,0.305650,
-0.599980,0.317200,
-0.575970,0.324470,
-0.550000,0.327000,
0.550000,0.327000,
0.575970,0.324470,
0.599980,0.317200,
0.621570,0.305650,
0.640290,0.290290,
0.655650,0.271580,
0.667200,0.249980,
0.674470,0.225970,
0.677000,0.200000,
0.677000,-0.200000,
0.674470,-0.225970,
0.667200,-0.249980,
0.655650,-0.271580,
0.640290,-0.290290,
0.621570,-0.305650,
0.599980,-0.317200,
0.575970,-0.324470,
0.550000,-0.327000,
-0.550000,-0.327000,
-0.575970,-0.324470,
-0.599980,-0.317200,
-0.621570,-0.305650,
-0.640290,-0.290290,
-0.655650,-0.271580,
-0.667200,-0.249980,
-0.674470,-0.225970,
-0.677000,-0.200000,
0*%
%TA.AperFunction,Material*%
%ADD77PPAD067*%
%AMPPAD068*
4,1,36,
-0.627000,-0.150000,
-0.627000,0.150000,
-0.624470,0.175970,
-0.617200,0.199980,
-0.605650,0.221580,
-0.590290,0.240290,
-0.571570,0.255650,
-0.549980,0.267200,
-0.525970,0.274470,
-0.500000,0.277000,
0.500000,0.277000,
0.525970,0.274470,
0.549980,0.267200,
0.571570,0.255650,
0.590290,0.240290,
0.605650,0.221580,
0.617200,0.199980,
0.624470,0.175970,
0.627000,0.150000,
0.627000,-0.150000,
0.624470,-0.175970,
0.617200,-0.199980,
0.605650,-0.221580,
0.590290,-0.240290,
0.571570,-0.255650,
0.549980,-0.267200,
0.525970,-0.274470,
0.500000,-0.277000,
-0.500000,-0.277000,
-0.525970,-0.274470,
-0.549980,-0.267200,
-0.571570,-0.255650,
-0.590290,-0.240290,
-0.605650,-0.221580,
-0.617200,-0.199980,
-0.624470,-0.175970,
-0.627000,-0.150000,
0*%
%TA.AperFunction,Material*%
%ADD78PPAD068*%
%AMPPAD069*
4,1,4,
0.469900,0.444500,
0.469900,-0.444500,
-0.469900,-0.444500,
-0.469900,0.444500,
0.469900,0.444500,
0*%
%TA.AperFunction,Material*%
%ADD79PPAD069*%
%AMPPAD070*
4,1,36,
-0.571500,-0.444500,
-0.571500,0.444500,
-0.568970,0.470470,
-0.561700,0.494480,
-0.550150,0.516080,
-0.534790,0.534790,
-0.516070,0.550150,
-0.494480,0.561700,
-0.470470,0.568970,
-0.444500,0.571500,
0.444500,0.571500,
0.470470,0.568970,
0.494480,0.561700,
0.516070,0.550150,
0.534790,0.534790,
0.550150,0.516080,
0.561700,0.494480,
0.568970,0.470470,
0.571500,0.444500,
0.571500,-0.444500,
0.568970,-0.470470,
0.561700,-0.494480,
0.550150,-0.516080,
0.534790,-0.534790,
0.516070,-0.550150,
0.494480,-0.561700,
0.470470,-0.568970,
0.444500,-0.571500,
-0.444500,-0.571500,
-0.470470,-0.568970,
-0.494480,-0.561700,
-0.516070,-0.550150,
-0.534790,-0.534790,
-0.550150,-0.516080,
-0.561700,-0.494480,
-0.568970,-0.470470,
-0.571500,-0.444500,
0*%
%ADD80PPAD070*%
%AMPPAD071*
4,1,36,
0.444500,-0.571500,
-0.444500,-0.571500,
-0.470470,-0.568970,
-0.494480,-0.561700,
-0.516080,-0.550150,
-0.534790,-0.534790,
-0.550150,-0.516070,
-0.561700,-0.494480,
-0.568970,-0.470470,
-0.571500,-0.444500,
-0.571500,0.444500,
-0.568970,0.470470,
-0.561700,0.494480,
-0.550150,0.516070,
-0.534790,0.534790,
-0.516080,0.550150,
-0.494480,0.561700,
-0.470470,0.568970,
-0.444500,0.571500,
0.444500,0.571500,
0.470470,0.568970,
0.494480,0.561700,
0.516080,0.550150,
0.534790,0.534790,
0.550150,0.516070,
0.561700,0.494480,
0.568970,0.470470,
0.571500,0.444500,
0.571500,-0.444500,
0.568970,-0.470470,
0.561700,-0.494480,
0.550150,-0.516070,
0.534790,-0.534790,
0.516080,-0.550150,
0.494480,-0.561700,
0.470470,-0.568970,
0.444500,-0.571500,
0*%
%ADD81PPAD071*%
%ADD82C,3.302000*%
%AMPPAD073*
4,1,36,
0.508000,-0.889000,
-0.508000,-0.889000,
-0.533970,-0.886470,
-0.557980,-0.879200,
-0.579580,-0.867650,
-0.598290,-0.852290,
-0.613650,-0.833570,
-0.625200,-0.811980,
-0.632470,-0.787970,
-0.635000,-0.762000,
-0.635000,0.762000,
-0.632470,0.787970,
-0.625200,0.811980,
-0.613650,0.833570,
-0.598290,0.852290,
-0.579580,0.867650,
-0.557980,0.879200,
-0.533970,0.886470,
-0.508000,0.889000,
0.508000,0.889000,
0.533970,0.886470,
0.557980,0.879200,
0.579580,0.867650,
0.598290,0.852290,
0.613650,0.833570,
0.625200,0.811980,
0.632470,0.787970,
0.635000,0.762000,
0.635000,-0.762000,
0.632470,-0.787970,
0.625200,-0.811980,
0.613650,-0.833570,
0.598290,-0.852290,
0.579580,-0.867650,
0.557980,-0.879200,
0.533970,-0.886470,
0.508000,-0.889000,
0*%
%ADD83PPAD073*%
%AMPPAD074*
4,1,4,
1.175000,-0.775000,
-1.175000,-0.775000,
-1.175000,0.775000,
1.175000,0.775000,
1.175000,-0.775000,
0*%
%ADD84PPAD074*%
%AMPPAD075*
4,1,4,
0.520700,-1.498600,
-0.520700,-1.498600,
-0.520700,1.498600,
0.520700,1.498600,
0.520700,-1.498600,
0*%
%TA.AperFunction,Material*%
%ADD85PPAD075*%
%AMPPAD076*
4,1,4,
-5.245100,-3.454400,
-5.245100,3.454400,
5.245100,3.454400,
5.245100,-3.454400,
-5.245100,-3.454400,
0*%
%ADD86PPAD076*%
%AMPPAD077*
4,1,36,
-1.650000,3.127000,
1.650000,3.127000,
1.675970,3.124470,
1.699980,3.117200,
1.721580,3.105650,
1.740290,3.090290,
1.755650,3.071570,
1.767200,3.049980,
1.774470,3.025970,
1.777000,3.000000,
1.777000,-3.000000,
1.774470,-3.025970,
1.767200,-3.049980,
1.755650,-3.071570,
1.740290,-3.090290,
1.721580,-3.105650,
1.699980,-3.117200,
1.675970,-3.124470,
1.650000,-3.127000,
-1.650000,-3.127000,
-1.675970,-3.124470,
-1.699980,-3.117200,
-1.721580,-3.105650,
-1.740290,-3.090290,
-1.755650,-3.071570,
-1.767200,-3.049980,
-1.774470,-3.025970,
-1.777000,-3.000000,
-1.777000,3.000000,
-1.774470,3.025970,
-1.767200,3.049980,
-1.755650,3.071570,
-1.740290,3.090290,
-1.721580,3.105650,
-1.699980,3.117200,
-1.675970,3.124470,
-1.650000,3.127000,
0*%
%TA.AperFunction,Material*%
%ADD87PPAD077*%
%AMPPAD078*
4,1,36,
-0.700000,1.627000,
0.700000,1.627000,
0.725970,1.624470,
0.749980,1.617200,
0.771580,1.605650,
0.790290,1.590290,
0.805650,1.571570,
0.817200,1.549980,
0.824470,1.525970,
0.827000,1.500000,
0.827000,-1.500000,
0.824470,-1.525970,
0.817200,-1.549980,
0.805650,-1.571570,
0.790290,-1.590290,
0.771580,-1.605650,
0.749980,-1.617200,
0.725970,-1.624470,
0.700000,-1.627000,
-0.700000,-1.627000,
-0.725970,-1.624470,
-0.749980,-1.617200,
-0.771580,-1.605650,
-0.790290,-1.590290,
-0.805650,-1.571570,
-0.817200,-1.549980,
-0.824470,-1.525970,
-0.827000,-1.500000,
-0.827000,1.500000,
-0.824470,1.525970,
-0.817200,1.549980,
-0.805650,1.571570,
-0.790290,1.590290,
-0.771580,1.605650,
-0.749980,1.617200,
-0.725970,1.624470,
-0.700000,1.627000,
0*%
%ADD88PPAD078*%
%AMPPAD079*
4,1,36,
1.627000,0.700000,
1.627000,-0.700000,
1.624470,-0.725970,
1.617200,-0.749980,
1.605650,-0.771580,
1.590290,-0.790290,
1.571570,-0.805650,
1.549980,-0.817200,
1.525970,-0.824470,
1.500000,-0.827000,
-1.500000,-0.827000,
-1.525970,-0.824470,
-1.549980,-0.817200,
-1.571570,-0.805650,
-1.590290,-0.790290,
-1.605650,-0.771580,
-1.617200,-0.749980,
-1.624470,-0.725970,
-1.627000,-0.700000,
-1.627000,0.700000,
-1.624470,0.725970,
-1.617200,0.749980,
-1.605650,0.771580,
-1.590290,0.790290,
-1.571570,0.805650,
-1.549980,0.817200,
-1.525970,0.824470,
-1.500000,0.827000,
1.500000,0.827000,
1.525970,0.824470,
1.549980,0.817200,
1.571570,0.805650,
1.590290,0.790290,
1.605650,0.771580,
1.617200,0.749980,
1.624470,0.725970,
1.627000,0.700000,
0*%
%ADD89PPAD079*%
%AMPPAD080*
4,1,4,
-0.495300,0.698500,
0.495300,0.698500,
0.495300,-0.698500,
-0.495300,-0.698500,
-0.495300,0.698500,
0*%
%ADD90PPAD080*%
%AMPPAD081*
4,1,36,
0.444500,-0.889000,
-0.444500,-0.889000,
-0.470470,-0.886470,
-0.494480,-0.879200,
-0.516080,-0.867650,
-0.534790,-0.852290,
-0.550150,-0.833570,
-0.561700,-0.811980,
-0.568970,-0.787970,
-0.571500,-0.762000,
-0.571500,0.762000,
-0.568970,0.787970,
-0.561700,0.811980,
-0.550150,0.833570,
-0.534790,0.852290,
-0.516080,0.867650,
-0.494480,0.879200,
-0.470470,0.886470,
-0.444500,0.889000,
0.444500,0.889000,
0.470470,0.886470,
0.494480,0.879200,
0.516080,0.867650,
0.534790,0.852290,
0.550150,0.833570,
0.561700,0.811980,
0.568970,0.787970,
0.571500,0.762000,
0.571500,-0.762000,
0.568970,-0.787970,
0.561700,-0.811980,
0.550150,-0.833570,
0.534790,-0.852290,
0.516080,-0.867650,
0.494480,-0.879200,
0.470470,-0.886470,
0.444500,-0.889000,
0*%
%ADD91PPAD081*%
%AMPPAD082*
4,1,36,
1.397000,0.762000,
1.397000,-0.762000,
1.394470,-0.787970,
1.387200,-0.811980,
1.375650,-0.833580,
1.360290,-0.852290,
1.341570,-0.867650,
1.319980,-0.879200,
1.295970,-0.886470,
1.270000,-0.889000,
-1.270000,-0.889000,
-1.295970,-0.886470,
-1.319980,-0.879200,
-1.341570,-0.867650,
-1.360290,-0.852290,
-1.375650,-0.833580,
-1.387200,-0.811980,
-1.394470,-0.787970,
-1.397000,-0.762000,
-1.397000,0.762000,
-1.394470,0.787970,
-1.387200,0.811980,
-1.375650,0.833580,
-1.360290,0.852290,
-1.341570,0.867650,
-1.319980,0.879200,
-1.295970,0.886470,
-1.270000,0.889000,
1.270000,0.889000,
1.295970,0.886470,
1.319980,0.879200,
1.341570,0.867650,
1.360290,0.852290,
1.375650,0.833580,
1.387200,0.811980,
1.394470,0.787970,
1.397000,0.762000,
0*%
%TA.AperFunction,Material*%
%ADD92PPAD082*%
%AMPPAD083*
4,1,36,
3.619500,3.492500,
3.619500,-3.492500,
3.616970,-3.518470,
3.609700,-3.542480,
3.598150,-3.564080,
3.582790,-3.582790,
3.564070,-3.598150,
3.542480,-3.609700,
3.518470,-3.616970,
3.492500,-3.619500,
-3.492500,-3.619500,
-3.518470,-3.616970,
-3.542480,-3.609700,
-3.564070,-3.598150,
-3.582790,-3.582790,
-3.598150,-3.564080,
-3.609700,-3.542480,
-3.616970,-3.518470,
-3.619500,-3.492500,
-3.619500,3.492500,
-3.616970,3.518470,
-3.609700,3.542480,
-3.598150,3.564080,
-3.582790,3.582790,
-3.564070,3.598150,
-3.542480,3.609700,
-3.518470,3.616970,
-3.492500,3.619500,
3.492500,3.619500,
3.518470,3.616970,
3.542480,3.609700,
3.564070,3.598150,
3.582790,3.582790,
3.598150,3.564080,
3.609700,3.542480,
3.616970,3.518470,
3.619500,3.492500,
0*%
%ADD93PPAD083*%
%TA.AperFunction,Material*%
%ADD94C,2.286000*%
%AMPPAD085*
4,1,36,
0.200000,-0.827000,
-0.200000,-0.827000,
-0.225970,-0.824470,
-0.249980,-0.817200,
-0.271580,-0.805650,
-0.290290,-0.790290,
-0.305650,-0.771570,
-0.317200,-0.749980,
-0.324470,-0.725970,
-0.327000,-0.700000,
-0.327000,0.700000,
-0.324470,0.725970,
-0.317200,0.749980,
-0.305650,0.771570,
-0.290290,0.790290,
-0.271580,0.805650,
-0.249980,0.817200,
-0.225970,0.824470,
-0.200000,0.827000,
0.200000,0.827000,
0.225970,0.824470,
0.249980,0.817200,
0.271580,0.805650,
0.290290,0.790290,
0.305650,0.771570,
0.317200,0.749980,
0.324470,0.725970,
0.327000,0.700000,
0.327000,-0.700000,
0.324470,-0.725970,
0.317200,-0.749980,
0.305650,-0.771570,
0.290290,-0.790290,
0.271580,-0.805650,
0.249980,-0.817200,
0.225970,-0.824470,
0.200000,-0.827000,
0*%
%TA.AperFunction,Material*%
%ADD95PPAD085*%
%AMPPAD086*
4,1,36,
0.220200,-1.052000,
-0.220200,-1.052000,
-0.308490,-1.043410,
-0.390130,-1.018690,
-0.463560,-0.979420,
-0.527180,-0.927180,
-0.579420,-0.863560,
-0.618690,-0.790130,
-0.643410,-0.708490,
-0.652000,-0.620200,
-0.652000,0.620200,
-0.643410,0.708490,
-0.618690,0.790130,
-0.579420,0.863560,
-0.527180,0.927180,
-0.463560,0.979420,
-0.390130,1.018690,
-0.308490,1.043410,
-0.220200,1.052000,
0.220200,1.052000,
0.308490,1.043410,
0.390130,1.018690,
0.463560,0.979420,
0.527180,0.927180,
0.579420,0.863560,
0.618690,0.790130,
0.643410,0.708490,
0.652000,0.620200,
0.652000,-0.620200,
0.643410,-0.708490,
0.618690,-0.790130,
0.579420,-0.863560,
0.527180,-0.927180,
0.463560,-0.979420,
0.390130,-1.018690,
0.308490,-1.043410,
0.220200,-1.052000,
0*%
%ADD96PPAD086*%
%AMPPAD087*
4,1,36,
-0.317500,1.143000,
0.317500,1.143000,
0.343470,1.140470,
0.367480,1.133200,
0.389080,1.121650,
0.407790,1.106290,
0.423150,1.087570,
0.434700,1.065980,
0.441970,1.041970,
0.444500,1.016000,
0.444500,-1.016000,
0.441970,-1.041970,
0.434700,-1.065980,
0.423150,-1.087570,
0.407790,-1.106290,
0.389080,-1.121650,
0.367480,-1.133200,
0.343470,-1.140470,
0.317500,-1.143000,
-0.317500,-1.143000,
-0.343470,-1.140470,
-0.367480,-1.133200,
-0.389080,-1.121650,
-0.407790,-1.106290,
-0.423150,-1.087570,
-0.434700,-1.065980,
-0.441970,-1.041970,
-0.444500,-1.016000,
-0.444500,1.016000,
-0.441970,1.041970,
-0.434700,1.065980,
-0.423150,1.087570,
-0.407790,1.106290,
-0.389080,1.121650,
-0.367480,1.133200,
-0.343470,1.140470,
-0.317500,1.143000,
0*%
%TA.AperFunction,Material*%
%ADD97PPAD087*%
%AMPPAD088*
4,1,36,
-0.444500,0.635000,
0.444500,0.635000,
0.470470,0.632470,
0.494480,0.625200,
0.516080,0.613650,
0.534790,0.598290,
0.550150,0.579570,
0.561700,0.557980,
0.568970,0.533970,
0.571500,0.508000,
0.571500,-0.508000,
0.568970,-0.533970,
0.561700,-0.557980,
0.550150,-0.579570,
0.534790,-0.598290,
0.516080,-0.613650,
0.494480,-0.625200,
0.470470,-0.632470,
0.444500,-0.635000,
-0.444500,-0.635000,
-0.470470,-0.632470,
-0.494480,-0.625200,
-0.516080,-0.613650,
-0.534790,-0.598290,
-0.550150,-0.579570,
-0.561700,-0.557980,
-0.568970,-0.533970,
-0.571500,-0.508000,
-0.571500,0.508000,
-0.568970,0.533970,
-0.561700,0.557980,
-0.550150,0.579570,
-0.534790,0.598290,
-0.516080,0.613650,
-0.494480,0.625200,
-0.470470,0.632470,
-0.444500,0.635000,
0*%
%TA.AperFunction,Material*%
%ADD98PPAD088*%
%AMPPAD089*
4,1,4,
0.469900,-1.079500,
-0.469900,-1.079500,
-0.469900,1.079500,
0.469900,1.079500,
0.469900,-1.079500,
0*%
%TA.AperFunction,Material*%
%ADD99PPAD089*%
%AMPPAD090*
4,1,4,
-1.625600,-1.079500,
-1.625600,1.079500,
1.625600,1.079500,
1.625600,-1.079500,
-1.625600,-1.079500,
0*%
%ADD100PPAD090*%
%AMPPAD091*
4,1,68,
-0.650000,1.104000,
0.650000,1.104000,
0.676400,1.102720,
0.701930,1.098950,
0.726490,1.092800,
0.749960,1.084400,
0.772220,1.073870,
0.793150,1.061300,
0.812650,1.046840,
0.830580,1.030580,
0.846840,1.012640,
0.861300,0.993150,
0.873860,0.972220,
0.884400,0.949960,
0.892800,0.926490,
0.898950,0.901930,
0.902720,0.876400,
0.904000,0.850000,
0.904000,-0.850000,
0.902720,-0.876400,
0.898950,-0.901930,
0.892800,-0.926490,
0.884400,-0.949960,
0.873860,-0.972220,
0.861300,-0.993150,
0.846840,-1.012640,
0.830580,-1.030580,
0.812650,-1.046840,
0.793150,-1.061300,
0.772220,-1.073870,
0.749960,-1.084400,
0.726490,-1.092800,
0.701930,-1.098950,
0.676400,-1.102720,
0.650000,-1.104000,
-0.650000,-1.104000,
-0.676400,-1.102720,
-0.701930,-1.098950,
-0.726490,-1.092800,
-0.749960,-1.084400,
-0.772220,-1.073870,
-0.793150,-1.061300,
-0.812650,-1.046840,
-0.830580,-1.030580,
-0.846840,-1.012640,
-0.861300,-0.993150,
-0.873860,-0.972220,
-0.884400,-0.949960,
-0.892800,-0.926490,
-0.898950,-0.901930,
-0.902720,-0.876400,
-0.904000,-0.850000,
-0.904000,0.850000,
-0.902720,0.876400,
-0.898950,0.901930,
-0.892800,0.926490,
-0.884400,0.949960,
-0.873860,0.972220,
-0.861300,0.993150,
-0.846840,1.012640,
-0.830580,1.030580,
-0.812650,1.046840,
-0.793150,1.061300,
-0.772220,1.073870,
-0.749960,1.084400,
-0.726490,1.092800,
-0.701930,1.098950,
-0.676400,1.102720,
-0.650000,1.104000,
0*%
%TA.AperFunction,Material*%
%ADD101PPAD091*%
%AMPPAD092*
4,1,4,
-1.003300,-0.304800,
-1.003300,0.304800,
1.003300,0.304800,
1.003300,-0.304800,
-1.003300,-0.304800,
0*%
%TA.AperFunction,Material*%
%ADD102PPAD092*%
%TA.AperFunction,Material*%
%ADD103C,1.905000*%
%AMPPAD094*
4,1,36,
0.705000,0.654050,
0.705000,-0.654050,
0.703990,-0.664470,
0.701070,-0.674100,
0.696430,-0.682760,
0.690270,-0.690270,
0.682760,-0.696430,
0.674100,-0.701070,
0.664460,-0.703990,
0.654050,-0.705000,
-0.654050,-0.705000,
-0.664460,-0.703990,
-0.674100,-0.701070,
-0.682760,-0.696430,
-0.690270,-0.690270,
-0.696430,-0.682760,
-0.701070,-0.674100,
-0.703990,-0.664470,
-0.705000,-0.654050,
-0.705000,0.654050,
-0.703990,0.664470,
-0.701070,0.674100,
-0.696430,0.682760,
-0.690270,0.690270,
-0.682760,0.696430,
-0.674100,0.701070,
-0.664460,0.703990,
-0.654050,0.705000,
0.654050,0.705000,
0.664460,0.703990,
0.674100,0.701070,
0.682760,0.696430,
0.690270,0.690270,
0.696430,0.682760,
0.701070,0.674100,
0.703990,0.664470,
0.705000,0.654050,
0*%
%ADD104PPAD094*%
%ADD105C,1.524000*%
%AMPPAD096*
4,1,36,
-1.016000,1.143000,
1.016000,1.143000,
1.041970,1.140470,
1.065980,1.133200,
1.087580,1.121650,
1.106290,1.106290,
1.121650,1.087570,
1.133200,1.065980,
1.140470,1.041970,
1.143000,1.016000,
1.143000,-1.016000,
1.140470,-1.041970,
1.133200,-1.065980,
1.121650,-1.087570,
1.106290,-1.106290,
1.087580,-1.121650,
1.065980,-1.133200,
1.041970,-1.140470,
1.016000,-1.143000,
-1.016000,-1.143000,
-1.041970,-1.140470,
-1.065980,-1.133200,
-1.087580,-1.121650,
-1.106290,-1.106290,
-1.121650,-1.087570,
-1.133200,-1.065980,
-1.140470,-1.041970,
-1.143000,-1.016000,
-1.143000,1.016000,
-1.140470,1.041970,
-1.133200,1.065980,
-1.121650,1.087570,
-1.106290,1.106290,
-1.087580,1.121650,
-1.065980,1.133200,
-1.041970,1.140470,
-1.016000,1.143000,
0*%
%ADD106PPAD096*%
%AMPPAD097*
4,1,36,
0.635000,0.444500,
0.635000,-0.444500,
0.632470,-0.470470,
0.625200,-0.494480,
0.613650,-0.516080,
0.598290,-0.534790,
0.579570,-0.550150,
0.557980,-0.561700,
0.533970,-0.568970,
0.508000,-0.571500,
-0.508000,-0.571500,
-0.533970,-0.568970,
-0.557980,-0.561700,
-0.579570,-0.550150,
-0.598290,-0.534790,
-0.613650,-0.516080,
-0.625200,-0.494480,
-0.632470,-0.470470,
-0.635000,-0.444500,
-0.635000,0.444500,
-0.632470,0.470470,
-0.625200,0.494480,
-0.613650,0.516080,
-0.598290,0.534790,
-0.579570,0.550150,
-0.557980,0.561700,
-0.533970,0.568970,
-0.508000,0.571500,
0.508000,0.571500,
0.533970,0.568970,
0.557980,0.561700,
0.579570,0.550150,
0.598290,0.534790,
0.613650,0.516080,
0.625200,0.494480,
0.632470,0.470470,
0.635000,0.444500,
0*%
%TA.AperFunction,Material*%
%ADD107PPAD097*%
%TA.AperFunction,Material*%
%ADD108C,2.794000*%
%AMPPAD099*
4,1,36,
0.785000,0.675000,
0.785000,-0.675000,
0.777240,-0.754740,
0.754910,-0.828480,
0.719440,-0.894800,
0.672260,-0.952260,
0.614800,-0.999440,
0.548480,-1.034910,
0.474740,-1.057240,
0.395000,-1.065000,
-0.395000,-1.065000,
-0.474740,-1.057240,
-0.548480,-1.034910,
-0.614800,-0.999440,
-0.672260,-0.952260,
-0.719440,-0.894800,
-0.754910,-0.828480,
-0.777240,-0.754740,
-0.785000,-0.675000,
-0.785000,0.675000,
-0.777240,0.754740,
-0.754910,0.828480,
-0.719440,0.894800,
-0.672260,0.952260,
-0.614800,0.999440,
-0.548480,1.034910,
-0.474740,1.057240,
-0.395000,1.065000,
0.395000,1.065000,
0.474740,1.057240,
0.548480,1.034910,
0.614800,0.999440,
0.672260,0.952260,
0.719440,0.894800,
0.754910,0.828480,
0.777240,0.754740,
0.785000,0.675000,
0*%
%TA.AperFunction,Material*%
%ADD109PPAD099*%
%AMPPAD100*
4,1,4,
-0.444500,0.469900,
0.444500,0.469900,
0.444500,-0.469900,
-0.444500,-0.469900,
-0.444500,0.469900,
0*%
%TA.AperFunction,Material*%
%ADD110PPAD100*%
%AMPPAD101*
4,1,36,
-0.762000,1.143000,
0.762000,1.143000,
0.787970,1.140470,
0.811980,1.133200,
0.833580,1.121650,
0.852290,1.106290,
0.867650,1.087570,
0.879200,1.065980,
0.886470,1.041970,
0.889000,1.016000,
0.889000,-1.016000,
0.886470,-1.041970,
0.879200,-1.065980,
0.867650,-1.087570,
0.852290,-1.106290,
0.833580,-1.121650,
0.811980,-1.133200,
0.787970,-1.140470,
0.762000,-1.143000,
-0.762000,-1.143000,
-0.787970,-1.140470,
-0.811980,-1.133200,
-0.833580,-1.121650,
-0.852290,-1.106290,
-0.867650,-1.087570,
-0.879200,-1.065980,
-0.886470,-1.041970,
-0.889000,-1.016000,
-0.889000,1.016000,
-0.886470,1.041970,
-0.879200,1.065980,
-0.867650,1.087570,
-0.852290,1.106290,
-0.833580,1.121650,
-0.811980,1.133200,
-0.787970,1.140470,
-0.762000,1.143000,
0*%
%TA.AperFunction,Material*%
%ADD111PPAD101*%
%AMPPAD102*
4,1,36,
2.032000,1.016000,
2.032000,-1.016000,
2.029470,-1.041970,
2.022200,-1.065980,
2.010650,-1.087580,
1.995290,-1.106290,
1.976570,-1.121650,
1.954980,-1.133200,
1.930970,-1.140470,
1.905000,-1.143000,
-1.905000,-1.143000,
-1.930970,-1.140470,
-1.954980,-1.133200,
-1.976570,-1.121650,
-1.995290,-1.106290,
-2.010650,-1.087580,
-2.022200,-1.065980,
-2.029470,-1.041970,
-2.032000,-1.016000,
-2.032000,1.016000,
-2.029470,1.041970,
-2.022200,1.065980,
-2.010650,1.087580,
-1.995290,1.106290,
-1.976570,1.121650,
-1.954980,1.133200,
-1.930970,1.140470,
-1.905000,1.143000,
1.905000,1.143000,
1.930970,1.140470,
1.954980,1.133200,
1.976570,1.121650,
1.995290,1.106290,
2.010650,1.087580,
2.022200,1.065980,
2.029470,1.041970,
2.032000,1.016000,
0*%
%ADD112PPAD102*%
%AMPPAD103*
4,1,36,
-0.889000,-0.635000,
-0.889000,0.635000,
-0.886470,0.660970,
-0.879200,0.684980,
-0.867650,0.706580,
-0.852290,0.725290,
-0.833570,0.740650,
-0.811980,0.752200,
-0.787970,0.759470,
-0.762000,0.762000,
0.762000,0.762000,
0.787970,0.759470,
0.811980,0.752200,
0.833570,0.740650,
0.852290,0.725290,
0.867650,0.706580,
0.879200,0.684980,
0.886470,0.660970,
0.889000,0.635000,
0.889000,-0.635000,
0.886470,-0.660970,
0.879200,-0.684980,
0.867650,-0.706580,
0.852290,-0.725290,
0.833570,-0.740650,
0.811980,-0.752200,
0.787970,-0.759470,
0.762000,-0.762000,
-0.762000,-0.762000,
-0.787970,-0.759470,
-0.811980,-0.752200,
-0.833570,-0.740650,
-0.852290,-0.725290,
-0.867650,-0.706580,
-0.879200,-0.684980,
-0.886470,-0.660970,
-0.889000,-0.635000,
0*%
%TA.AperFunction,Material*%
%ADD113PPAD103*%
%AMPPAD104*
4,1,36,
-0.635000,0.889000,
0.635000,0.889000,
0.660970,0.886470,
0.684980,0.879200,
0.706580,0.867650,
0.725290,0.852290,
0.740650,0.833570,
0.752200,0.811980,
0.759470,0.787970,
0.762000,0.762000,
0.762000,-0.762000,
0.759470,-0.787970,
0.752200,-0.811980,
0.740650,-0.833570,
0.725290,-0.852290,
0.706580,-0.867650,
0.684980,-0.879200,
0.660970,-0.886470,
0.635000,-0.889000,
-0.635000,-0.889000,
-0.660970,-0.886470,
-0.684980,-0.879200,
-0.706580,-0.867650,
-0.725290,-0.852290,
-0.740650,-0.833570,
-0.752200,-0.811980,
-0.759470,-0.787970,
-0.762000,-0.762000,
-0.762000,0.762000,
-0.759470,0.787970,
-0.752200,0.811980,
-0.740650,0.833570,
-0.725290,0.852290,
-0.706580,0.867650,
-0.684980,0.879200,
-0.660970,0.886470,
-0.635000,0.889000,
0*%
%ADD114PPAD104*%
%AMPPAD105*
4,1,36,
-0.889000,-0.508000,
-0.889000,0.508000,
-0.886470,0.533970,
-0.879200,0.557980,
-0.867650,0.579580,
-0.852290,0.598290,
-0.833570,0.613650,
-0.811980,0.625200,
-0.787970,0.632470,
-0.762000,0.635000,
0.762000,0.635000,
0.787970,0.632470,
0.811980,0.625200,
0.833570,0.613650,
0.852290,0.598290,
0.867650,0.579580,
0.879200,0.557980,
0.886470,0.533970,
0.889000,0.508000,
0.889000,-0.508000,
0.886470,-0.533970,
0.879200,-0.557980,
0.867650,-0.579580,
0.852290,-0.598290,
0.833570,-0.613650,
0.811980,-0.625200,
0.787970,-0.632470,
0.762000,-0.635000,
-0.762000,-0.635000,
-0.787970,-0.632470,
-0.811980,-0.625200,
-0.833570,-0.613650,
-0.852290,-0.598290,
-0.867650,-0.579580,
-0.879200,-0.557980,
-0.886470,-0.533970,
-0.889000,-0.508000,
0*%
%ADD115PPAD105*%
%AMPPAD106*
4,1,36,
0.762000,0.508000,
0.762000,-0.508000,
0.759470,-0.533970,
0.752200,-0.557980,
0.740650,-0.579580,
0.725290,-0.598290,
0.706570,-0.613650,
0.684980,-0.625200,
0.660970,-0.632470,
0.635000,-0.635000,
-0.635000,-0.635000,
-0.660970,-0.632470,
-0.684980,-0.625200,
-0.706570,-0.613650,
-0.725290,-0.598290,
-0.740650,-0.579580,
-0.752200,-0.557980,
-0.759470,-0.533970,
-0.762000,-0.508000,
-0.762000,0.508000,
-0.759470,0.533970,
-0.752200,0.557980,
-0.740650,0.579580,
-0.725290,0.598290,
-0.706570,0.613650,
-0.684980,0.625200,
-0.660970,0.632470,
-0.635000,0.635000,
0.635000,0.635000,
0.660970,0.632470,
0.684980,0.625200,
0.706570,0.613650,
0.725290,0.598290,
0.740650,0.579580,
0.752200,0.557980,
0.759470,0.533970,
0.762000,0.508000,
0*%
%ADD116PPAD106*%
%AMPPAD107*
4,1,36,
0.508000,-0.762000,
-0.508000,-0.762000,
-0.533970,-0.759470,
-0.557980,-0.752200,
-0.579580,-0.740650,
-0.598290,-0.725290,
-0.613650,-0.706570,
-0.625200,-0.684980,
-0.632470,-0.660970,
-0.635000,-0.635000,
-0.635000,0.635000,
-0.632470,0.660970,
-0.625200,0.684980,
-0.613650,0.706570,
-0.598290,0.725290,
-0.579580,0.740650,
-0.557980,0.752200,
-0.533970,0.759470,
-0.508000,0.762000,
0.508000,0.762000,
0.533970,0.759470,
0.557980,0.752200,
0.579580,0.740650,
0.598290,0.725290,
0.613650,0.706570,
0.625200,0.684980,
0.632470,0.660970,
0.635000,0.635000,
0.635000,-0.635000,
0.632470,-0.660970,
0.625200,-0.684980,
0.613650,-0.706570,
0.598290,-0.725290,
0.579580,-0.740650,
0.557980,-0.752200,
0.533970,-0.759470,
0.508000,-0.762000,
0*%
%ADD117PPAD107*%
%TA.AperFunction,Profile*%
%ADD58C,0.203200*%
%TD.AperFunction*%
D69*
X-698500Y-1333500D03*
X-3619500Y-254000D03*
X+230000Y+3810000D03*
X+550000Y+3810000D03*
X+540000Y+4510000D03*
X-1841500Y+4508500D03*
X-952500Y-2159000D03*
X-190500Y+63500D03*
X+1841500Y+4699000D03*
X-1905000Y+5270500D03*
X-2286000Y-1333500D03*
X-3873500Y-3429000D03*
X+317500Y+1016000D03*
X+1270000Y-1016000D03*
X+1270000Y-2349500D03*
X-1968500Y+762000D03*
X-508000Y-1905000D03*
X-762000Y-825500D03*
X+1079500Y+2413000D03*
X+2032000Y+1778000D03*
X+889000Y+2413000D03*
X-1530000Y+2857500D03*
X-1524000Y+4381500D03*
X-1524000Y+2413000D03*
X-1397000Y-444500D03*
X-1397000Y-571500D03*
X-698500Y-2032000D03*
X-2730500Y-2349500D03*
X-889000Y-3238500D03*
X+1460500Y+1270000D03*
X+2286000Y-3365500D03*
X-2159000Y-3175000D03*
X-1460500Y-2413000D03*
X-3556000Y-381000D03*
X-3556000Y-2730500D03*
X-1587500Y-2413000D03*
X-3619500Y-3492500D03*
X-2222500Y-2857500D03*
X+254000Y-952500D03*
X+254000Y+1778000D03*
X+508000Y-635000D03*
X+381000Y+2222500D03*
X+381000Y+1841500D03*
X-381000Y+825500D03*
X-381000Y+3746500D03*
X+63500Y-254000D03*
X+0Y-3365500D03*
X-1670000Y+3560000D03*
X+2222500Y+1651000D03*
X+2159000Y+2603500D03*
X-635000Y+2349500D03*
X+950000Y+2300000D03*
X-930000Y+320000D03*
X-889000Y-254000D03*
X-1190000Y-440000D03*
X-1206500Y+444500D03*
X-1841500Y+4000500D03*
X-317500Y+4572000D03*
X+952500Y+2540000D03*
X+1397000Y+2413000D03*
X-310000Y+350000D03*
X-254000Y+2476500D03*
X-2095500Y+2286000D03*
X-2470000Y+2095500D03*
X-1524000Y+1651000D03*
X-1587500Y+4254500D03*
X+2476500Y+1016000D03*
X-1397000Y+0D03*
X+1841500Y+508000D03*
X+317500Y-3429000D03*
X-1143000Y+4635500D03*
X+762000Y+1778000D03*
X-1524000Y-952500D03*
X-4064000Y-3619500D03*
X-1905000Y+2730500D03*
X-1120239Y-2484738D03*
X-1267913Y-1895272D03*
X-1397000Y-1841500D03*
X+254000Y+2794000D03*
X+254000Y+2286000D03*
X-2440057Y+2290000D03*
X-1587500Y+2095500D03*
X-508000Y+2984500D03*
X-698500Y+1143000D03*
X-635000Y-1524000D03*
X-635000Y+410000D03*
X-2349500Y+1206500D03*
X+127000Y+1714500D03*
X+127000Y+3111500D03*
X+127000Y+1587500D03*
X+540000Y+3110000D03*
X+444500Y+1460500D03*
X-762000Y+3492500D03*
X-1016000Y+0D03*
X-698500Y+317500D03*
X-635000Y-1143000D03*
X+190500Y+1079500D03*
X+190500Y+2984500D03*
X+63500Y+3619500D03*
X+63500Y+4381500D03*
X+1206500Y-1587500D03*
X+1270000Y-508000D03*
X+2032000Y-3175000D03*
X+317500Y-1524000D03*
X+1714500Y-3238500D03*
X-762000Y-3302000D03*
X-190500Y+4064000D03*
X+1968500Y+3429000D03*
X+254000Y+4254500D03*
X+1968500Y+2794000D03*
X+0Y+5207000D03*
X+220000Y+4360000D03*
X+230000Y+3910000D03*
X+1905000Y+3175000D03*
X+698500Y+2476500D03*
X+444500Y-1397000D03*
X+444500Y-1587500D03*
X+190500Y+3429000D03*
X-190500Y+254000D03*
X-254000Y+2921000D03*
X+762000Y+3683000D03*
X-1714500Y+3937000D03*
X-2222500Y+4508500D03*
X+2095500Y+3810000D03*
X+889000Y+1460500D03*
X-1714500Y-1651000D03*
X-1524000Y-63500D03*
X-1587500Y-1333500D03*
X+2682250Y+967750D03*
X-1998208Y+1834760D03*
X-900000Y+890000D03*
X-762000Y+0D03*
X-2190000Y-2430000D03*
X-2210000Y+2600000D03*
X-2286000Y+2159000D03*
X-1016000Y+190500D03*
X+1397000Y+952500D03*
X-254000Y-1905000D03*
X-444500Y+4000500D03*
X-1079500Y-2032000D03*
X-3429000Y+698500D03*
X-1841500Y+127000D03*
X-825500Y-2857500D03*
X-1016000Y-1778000D03*
X+317500Y-2794000D03*
X+317500Y-762000D03*
X+190500Y-1810000D03*
X-190500Y-190500D03*
X-381000Y-1714500D03*
X+2286000Y+3111500D03*
X-2794000Y+3302000D03*
X-2921000Y+2794000D03*
X-2730500Y-508000D03*
X-2290000Y+1330000D03*
X+1143000Y-1714500D03*
X+1143000Y-1079500D03*
X+63500Y-3480000D03*
X+63500Y-698500D03*
X-30000Y+2560000D03*
X+1079500Y-2159000D03*
X+1079500Y+0D03*
D74*
X-1400000Y+4538000D03*
X-1400000Y+4411000D03*
X-1400000Y+4284000D03*
X-1400000Y+4157000D03*
X-1400000Y+4030000D03*
X-1400000Y+3903000D03*
X-1400000Y+3776000D03*
X-1400000Y+3649000D03*
X-1400000Y+3522000D03*
X-1400000Y+3395000D03*
X-1400000Y+3268000D03*
X-1400000Y+3141000D03*
X-1400000Y+3014000D03*
X-1400000Y+2887000D03*
D75*
X-1081000Y+2737000D03*
X-954000Y+2737000D03*
X-827000Y+2737000D03*
X-700000Y+2737000D03*
X-573000Y+2737000D03*
X-446000Y+2737000D03*
X-319000Y+2737000D03*
X-192000Y+2737000D03*
X-65000Y+2737000D03*
X+62000Y+2737000D03*
D74*
X+380000Y+2887000D03*
X+380000Y+3014000D03*
X+380000Y+3141000D03*
X+380000Y+3268000D03*
X+380000Y+3395000D03*
X+380000Y+3522000D03*
X+380000Y+3649000D03*
X+380000Y+3776000D03*
X+380000Y+3903000D03*
X+380000Y+4030000D03*
X+380000Y+4157000D03*
X+380000Y+4284000D03*
X+380000Y+4411000D03*
X+380000Y+4538000D03*
D76*
X-2610350Y-709500D03*
X-2610350Y-836500D03*
X-2610350Y-963500D03*
X-2610350Y-1090500D03*
X-2089650Y-1090500D03*
X-2089650Y-963500D03*
X-2089650Y-836500D03*
X-2089650Y-709500D03*
D77*
X-1035000Y-140000D03*
X-1035000Y-205000D03*
X-1035000Y-270000D03*
X-1035000Y-335000D03*
X-1035000Y-400000D03*
X-1035000Y-465000D03*
X-1035000Y-530000D03*
X-450000Y-530000D03*
X-450000Y-465000D03*
X-450000Y-400000D03*
X-450000Y-335000D03*
X-450000Y-270000D03*
X-450000Y-205000D03*
X-450000Y-140000D03*
D78*
X-1050000Y+895000D03*
X-1050000Y+830000D03*
X-1050000Y+765000D03*
X-1050000Y+700000D03*
X-1050000Y+635000D03*
X-1050000Y+570000D03*
X-1050000Y+505000D03*
X-1050000Y+440000D03*
X-1050000Y+375000D03*
X-1050000Y+310000D03*
X-500000Y+310000D03*
X-500000Y+375000D03*
X-500000Y+440000D03*
X-500000Y+505000D03*
X-500000Y+570000D03*
X-500000Y+635000D03*
X-500000Y+700000D03*
X-500000Y+765000D03*
X-500000Y+830000D03*
X-500000Y+895000D03*
D79*
X-3780000Y-350000D03*
X-3780000Y-190000D03*
X-3780000Y-1400000D03*
X-3780000Y-1240000D03*
D80*
X-1800000Y-1150000D03*
X-1800000Y-977280D03*
X-1800000Y-851360D03*
X-1800000Y-678640D03*
X-1650000Y-977280D03*
X-1650000Y-1150000D03*
X-1650000Y-678640D03*
X-1650000Y-851360D03*
D81*
X-360000Y-1440000D03*
X-532720Y-1440000D03*
X-360000Y-1110000D03*
X-532720Y-1110000D03*
X-532720Y-1590000D03*
X-360000Y-1590000D03*
X-532720Y-1260000D03*
X-360000Y-1260000D03*
D80*
X-202610Y-1590000D03*
X-202610Y-1417280D03*
X-202610Y-1260000D03*
X-202610Y-1087280D03*
D82*
X-4300000Y-3150000D03*
X-4300000Y-3650380D03*
D83*
X-3925040Y-4430000D03*
X-4240000Y-4430000D03*
D84*
X-1810000Y-3000000D03*
X-2240000Y-3000000D03*
D85*
X-3490000Y-2960000D03*
X-3320000Y-2960000D03*
X-3150000Y-2960000D03*
X-2980000Y-2960000D03*
X-2810000Y-2960000D03*
D86*
X-3150000Y-1950000D03*
D87*
X-3470000Y-3880000D03*
X-2320000Y-3870000D03*
D80*
X-3750000Y-3350000D03*
X-3750000Y-3522720D03*
D88*
X+280000Y-2040000D03*
X+280000Y-3030000D03*
D80*
X-1200000Y-2820000D03*
X-1200000Y-2992720D03*
D88*
X-3190000Y-630000D03*
X-3190000Y-1330000D03*
D89*
X-1700000Y-1830000D03*
X-2400000Y-1830000D03*
D84*
X-1820000Y-2590000D03*
X-2250000Y-2590000D03*
D81*
X-2022720Y-1310000D03*
X-1850000Y-1310000D03*
D90*
X-3960000Y-4040000D03*
X-4140000Y-4040000D03*
D82*
X-1714000Y-3820000D03*
X-1213620Y-3820000D03*
X-713240Y-3820000D03*
D76*
X+2109300Y+177000D03*
X+2109300Y+50000D03*
X+2109300Y-77000D03*
X+2109300Y-204000D03*
X+2630000Y-204000D03*
X+2630000Y-77000D03*
X+2630000Y+50000D03*
X+2630000Y+177000D03*
D81*
X-1050000Y-1100000D03*
X-877280Y-1100000D03*
X-790000Y-2270000D03*
X-962720Y-2270000D03*
X-1080000Y-2270000D03*
X-1252720Y-2270000D03*
D91*
X-700000Y-2770000D03*
X-1040000Y-2770000D03*
D81*
X-1332720Y-2590000D03*
X-1160000Y-2590000D03*
X-960000Y-1900000D03*
X-787280Y-1900000D03*
X-1270000Y-1900000D03*
X-1097280Y-1900000D03*
D91*
X-1040000Y-3060000D03*
X-700000Y-3060000D03*
D81*
X-1042720Y-2590000D03*
X-870000Y-2590000D03*
D92*
X+1429120Y-1741400D03*
X+1429120Y-2198600D03*
D93*
X+2120000Y-1970000D03*
D81*
X+1460000Y+4095000D03*
X+1287280Y+4095000D03*
X+1217280Y+3045000D03*
X+1390000Y+3045000D03*
X+1217280Y+2525000D03*
X+1390000Y+2525000D03*
X+2640000Y+3375000D03*
X+2467280Y+3375000D03*
X+2642720Y+3245000D03*
X+2470000Y+3245000D03*
X+1370000Y+3495000D03*
X+1197280Y+3495000D03*
X+1197280Y+3355000D03*
X+1370000Y+3355000D03*
X+1456780Y+3978980D03*
X+1284060Y+3978980D03*
D94*
X+1350000Y+1630000D03*
X-640000Y+1630000D03*
D81*
X+1217280Y+2905000D03*
X+1390000Y+2905000D03*
D82*
X-4600000Y-1050000D03*
X-4600000Y-1550380D03*
D83*
X+2814960Y+1375000D03*
X+2500000Y+1375000D03*
D91*
X+2820000Y+1575000D03*
X+2480000Y+1575000D03*
D95*
X-2230000Y+4690000D03*
X-2295000Y+4690000D03*
X-2360000Y+4690000D03*
X-2425000Y+4690000D03*
X-2490000Y+4690000D03*
D96*
X-2720000Y+5030000D03*
X-2720000Y+4690000D03*
X-2000000Y+4690000D03*
X-2000000Y+5030000D03*
D97*
X-1730277Y+4243539D03*
X-1857277Y+4243539D03*
X-1984277Y+4243539D03*
X-2111277Y+4243539D03*
X-2238277Y+4243539D03*
X-2365277Y+4243539D03*
X-2492277Y+4243539D03*
X-2619277Y+4243539D03*
X-2619277Y+3722839D03*
X-2492277Y+3722839D03*
X-2365277Y+3722839D03*
X-2238277Y+3722839D03*
X-2111277Y+3722839D03*
X-1984277Y+3722839D03*
X-1857277Y+3722839D03*
X-1730277Y+3722839D03*
D83*
X-1200000Y-1280000D03*
X-885040Y-1280000D03*
X-1200000Y-1480000D03*
X-885040Y-1480000D03*
X-1200000Y-1680000D03*
X-885040Y-1680000D03*
D81*
X-1892720Y+3010000D03*
X-1720000Y+3010000D03*
D98*
X-2114682Y+2503689D03*
X-2302642Y+2503689D03*
X-2208662Y+2313189D03*
X-2564682Y+2503689D03*
X-2752642Y+2503689D03*
X-2658662Y+2313189D03*
D81*
X-2272720Y+2030000D03*
X-2100000Y+2030000D03*
X-2745022Y+2063189D03*
X-2572302Y+2063189D03*
D99*
X-2704777Y+2803189D03*
X-2474777Y+2803189D03*
X-2244777Y+2803189D03*
D100*
X-2474777Y+3383189D03*
D101*
X-1732978Y+2113705D03*
X-1312978Y+2113705D03*
X-1730000Y+1530000D03*
X-1310000Y+1530000D03*
D81*
X-1892720Y+3290000D03*
X-1720000Y+3290000D03*
D102*
X+1610000Y+2905000D03*
X+1610000Y+2778000D03*
X+1610000Y+2651000D03*
X+1610000Y+2524000D03*
X+1610000Y+2397000D03*
X+1610000Y+2270000D03*
X+1610000Y+2143000D03*
X+1610000Y+2016000D03*
X+2550000Y+2016000D03*
X+2550000Y+2143000D03*
X+2550000Y+2270000D03*
X+2550000Y+2397000D03*
X+2550000Y+2524000D03*
X+2550000Y+2651000D03*
X+2550000Y+2778000D03*
X+2550000Y+2905000D03*
D82*
X-4600000Y+0D03*
X-4600000Y-500380D03*
D103*
X+3625000Y+3419000D03*
X+3371000Y+3546000D03*
X+3625000Y+3673000D03*
X+3371000Y+3800000D03*
X+3625000Y+1569000D03*
X+3371000Y+1696000D03*
X+3625000Y+1823000D03*
X+3371000Y+1950000D03*
X+3625000Y-285000D03*
X+3371000Y-158000D03*
X+3625000Y-31000D03*
X+3371000Y+96000D03*
D104*
X-3236000Y+4125000D03*
X-3236000Y+3829000D03*
X-3485012Y+4229010D03*
X-3480000Y+3930000D03*
D105*
X-4134998Y+4430000D03*
X-4134998Y+3530002D03*
D104*
X-3230988Y+2875990D03*
X-3230988Y+2579990D03*
X-3480000Y+2980000D03*
X-3474988Y+2680990D03*
D105*
X-4129986Y+3180990D03*
X-4129986Y+2280992D03*
D104*
X-3236000Y+1625000D03*
X-3236000Y+1329000D03*
X-3485012Y+1729010D03*
X-3480000Y+1430000D03*
D105*
X-4134998Y+1930000D03*
X-4134998Y+1030002D03*
D82*
X+2980760Y+4950000D03*
X+2480380Y+4950000D03*
X+1980000Y+4950000D03*
D106*
X-204000Y-4450000D03*
X+50000Y-4450000D03*
X+304000Y-4450000D03*
X+558000Y-4450000D03*
X+812000Y-4450000D03*
X+1066000Y-4450000D03*
D82*
X+1380380Y+4950000D03*
X+880000Y+4950000D03*
D76*
X+1629650Y+3625500D03*
X+1629650Y+3498500D03*
X+1629650Y+3371500D03*
X+1629650Y+3244500D03*
X+2150350Y+3244500D03*
X+2150350Y+3371500D03*
X+2150350Y+3498500D03*
X+2150350Y+3625500D03*
D81*
X+1200000Y+3625000D03*
X+1372720Y+3625000D03*
X+1210000Y+2655000D03*
X+1382720Y+2655000D03*
D107*
X+1120000Y+3982040D03*
X+1120000Y+4170000D03*
X+929500Y+4076020D03*
D81*
X+2567280Y+1735000D03*
X+2740000Y+1735000D03*
D92*
X+1429120Y-2501400D03*
X+1429120Y-2958600D03*
D93*
X+2120000Y-2730000D03*
D106*
X-3238000Y+5150000D03*
X-3492000Y+5150000D03*
X-3746000Y+5150000D03*
X-4000000Y+5150000D03*
X-1536000Y-270000D03*
X-1790000Y-270000D03*
D82*
X+1749240Y-3880000D03*
X+2249620Y-3880000D03*
X+2750000Y-3880000D03*
D108*
X+4300000Y-2830000D03*
X+4300000Y-1630000D03*
X+4500000Y-2230000D03*
X+3050000Y-1630000D03*
X+3050000Y-2830000D03*
D82*
X-4300000Y-2120000D03*
X-4300000Y-2620380D03*
X+3299620Y-3880000D03*
X+3800000Y-3880000D03*
D109*
X-2220000Y+1848012D03*
X-2474000Y+1848012D03*
X-2474000Y+990000D03*
X-2220000Y+990000D03*
X-2200000Y+598012D03*
X-2454000Y+598012D03*
X-2454000Y-260000D03*
X-2200000Y-260000D03*
D97*
X-98000Y+1268050D03*
X+29000Y+1268050D03*
X+156000Y+1268050D03*
X+283000Y+1268050D03*
X+410000Y+1268050D03*
X+537000Y+1268050D03*
X+664000Y+1268050D03*
X+791000Y+1268050D03*
X+918000Y+1268050D03*
X+918000Y+1991950D03*
X+791000Y+1991950D03*
X+664000Y+1991950D03*
X+537000Y+1991950D03*
X+410000Y+1991950D03*
X+283000Y+1991950D03*
X+156000Y+1991950D03*
X+29000Y+1991950D03*
X-98000Y+1991950D03*
D110*
X+2399240Y-3260000D03*
X+2239240Y-3260000D03*
X+3459240Y-3260000D03*
X+3299240Y-3260000D03*
X+3969240Y-3260000D03*
X+3809240Y-3260000D03*
D76*
X+2109300Y+837000D03*
X+2109300Y+710000D03*
X+2109300Y+583000D03*
X+2109300Y+456000D03*
X+2630000Y+456000D03*
X+2630000Y+583000D03*
X+2630000Y+710000D03*
X+2630000Y+837000D03*
D94*
X+3646000Y+5080000D03*
X+4154000Y+5080000D03*
X+3900000Y+5080000D03*
D111*
X-3411140Y-290000D03*
X-3180000Y-290000D03*
X-2948860Y-290000D03*
D112*
X-3180000Y+339920D03*
D84*
X+2286000Y+3937000D03*
X+2716000Y+3937000D03*
D113*
X+1905000Y+1270000D03*
X+1905000Y+1689100D03*
D114*
X+159600Y-1640000D03*
X+578700Y-1640000D03*
X+579100Y-1310000D03*
X+160000Y-1310000D03*
D83*
X-4064000Y-635000D03*
X-3749040Y-635000D03*
D115*
X-3937000Y-1270000D03*
X-3937000Y-955040D03*
D91*
X-1397000Y+127000D03*
X-1737000Y+127000D03*
D116*
X-635000Y-762000D03*
X-635000Y-975360D03*
X+1560000Y-760000D03*
X+1560000Y-973360D03*
X+889000Y-3429000D03*
X+889000Y-3215640D03*
D117*
X-381000Y-2159000D03*
X-594360Y-2159000D03*
D81*
X-1397000Y-762000D03*
X-1224280Y-762000D03*
X+1905000Y+3937000D03*
X+2077720Y+3937000D03*
X+1524000Y+1651000D03*
X+1696720Y+1651000D03*
X-2667000Y-1397000D03*
X-2494280Y-1397000D03*
D80*
X-1905000Y+1270000D03*
X-1905000Y+1097280D03*
X+1771000Y-330000D03*
X+1771000Y-502720D03*
D81*
X+2032000Y+1143000D03*
X+1859280Y+1143000D03*
D80*
X+1517000Y-330000D03*
X+1517000Y-502720D03*
X+4191000Y-3810000D03*
X+4191000Y-3982720D03*
D81*
X+4445000Y-3556000D03*
X+4272280Y-3556000D03*
X-508000Y-1778000D03*
X-680720Y-1778000D03*
X+2794000Y+1143000D03*
X+2621280Y+1143000D03*
D80*
X-3048000Y+2159000D03*
X-3048000Y+1986280D03*
X+4572000Y-3810000D03*
X+4572000Y-3982720D03*
X-2921000Y+2413000D03*
X-2921000Y+2585720D03*
X-2921000Y+3302000D03*
X-2921000Y+3474720D03*
D81*
X+570000Y+3937000D03*
X+742720Y+3937000D03*
X+520000Y+4320000D03*
X+692720Y+4320000D03*
X-1177280Y-100000D03*
X-1350000Y-100000D03*
D80*
X-1190000Y+20000D03*
X-1190000Y+192720D03*
D90*
X-1750000Y+4880000D03*
X-1570000Y+4880000D03*
D80*
X-2921000Y+1651000D03*
X-2921000Y+1823720D03*
D90*
X-1770000Y+5220000D03*
X-1590000Y+5220000D03*
D80*
X+2921000Y+2413000D03*
X+2921000Y+2240280D03*
X-381000Y+0D03*
X-381000Y+172720D03*
X-889000Y+0D03*
X-889000Y+172720D03*
D106*
X+40000Y-3857639D03*
X+294000Y-3857639D03*
X+548000Y-3857639D03*
X+802000Y-3857639D03*
X+2310000Y-650000D03*
X+2564000Y-650000D03*
D58*
X-4990000Y-4640000D02*
X+5000000Y-4640000D01*
X+5000000Y+5360000D01*
X-4990000Y+5360000D01*
X-4990000Y-4640000D01*
X+1385625Y-1221172D02*
X+4785625Y-1221172D01*
X+4785625Y-1111172D01*
X+1385625Y-1111172D01*
X+1385625Y-1221172D01*
X+855625Y-3091172D02*
X+965625Y-3091172D01*
X+965625Y-1401172D01*
X+855625Y-1401172D01*
X+855625Y-3091172D01*
X+1264865Y-4511172D02*
X+1374865Y-4511172D01*
X+1374865Y-3331172D01*
X+1264865Y-3331172D01*
X+1264865Y-4511172D01*
M02*
