G04 PROTEUS GERBER X2 FILE*
%TF.GenerationSoftware,Labcenter,Proteus,8.13-SP0-Build31525*%
%TF.CreationDate,2023-08-07T13:40:14+00:00*%
%TF.FileFunction,Soldermask,Bot*%
%TF.FilePolarity,Negative*%
%TF.Part,Single*%
%TF.SameCoordinates,{8d507f11-5f74-4f73-9321-756942b8957b}*%
%FSLAX45Y45*%
%MOMM*%
G01*
%TA.AperFunction,Material*%
%ADD69C,1.016000*%
%TA.AperFunction,Material*%
%ADD82C,3.302000*%
%ADD94C,2.286000*%
%AMPPAD086*
4,1,36,
0.220200,-1.052000,
-0.220200,-1.052000,
-0.308490,-1.043410,
-0.390130,-1.018690,
-0.463560,-0.979420,
-0.527180,-0.927180,
-0.579420,-0.863560,
-0.618690,-0.790130,
-0.643410,-0.708490,
-0.652000,-0.620200,
-0.652000,0.620200,
-0.643410,0.708490,
-0.618690,0.790130,
-0.579420,0.863560,
-0.527180,0.927180,
-0.463560,0.979420,
-0.390130,1.018690,
-0.308490,1.043410,
-0.220200,1.052000,
0.220200,1.052000,
0.308490,1.043410,
0.390130,1.018690,
0.463560,0.979420,
0.527180,0.927180,
0.579420,0.863560,
0.618690,0.790130,
0.643410,0.708490,
0.652000,0.620200,
0.652000,-0.620200,
0.643410,-0.708490,
0.618690,-0.790130,
0.579420,-0.863560,
0.527180,-0.927180,
0.463560,-0.979420,
0.390130,-1.018690,
0.308490,-1.043410,
0.220200,-1.052000,
0*%
%TA.AperFunction,Material*%
%ADD96PPAD086*%
%TA.AperFunction,Material*%
%ADD103C,1.905000*%
%AMPPAD094*
4,1,36,
0.705000,0.654050,
0.705000,-0.654050,
0.703990,-0.664470,
0.701070,-0.674100,
0.696430,-0.682760,
0.690270,-0.690270,
0.682760,-0.696430,
0.674100,-0.701070,
0.664460,-0.703990,
0.654050,-0.705000,
-0.654050,-0.705000,
-0.664460,-0.703990,
-0.674100,-0.701070,
-0.682760,-0.696430,
-0.690270,-0.690270,
-0.696430,-0.682760,
-0.701070,-0.674100,
-0.703990,-0.664470,
-0.705000,-0.654050,
-0.705000,0.654050,
-0.703990,0.664470,
-0.701070,0.674100,
-0.696430,0.682760,
-0.690270,0.690270,
-0.682760,0.696430,
-0.674100,0.701070,
-0.664460,0.703990,
-0.654050,0.705000,
0.654050,0.705000,
0.664460,0.703990,
0.674100,0.701070,
0.682760,0.696430,
0.690270,0.690270,
0.696430,0.682760,
0.701070,0.674100,
0.703990,0.664470,
0.705000,0.654050,
0*%
%ADD104PPAD094*%
%ADD105C,1.524000*%
%AMPPAD096*
4,1,36,
-1.016000,1.143000,
1.016000,1.143000,
1.041970,1.140470,
1.065980,1.133200,
1.087580,1.121650,
1.106290,1.106290,
1.121650,1.087570,
1.133200,1.065980,
1.140470,1.041970,
1.143000,1.016000,
1.143000,-1.016000,
1.140470,-1.041970,
1.133200,-1.065980,
1.121650,-1.087570,
1.106290,-1.106290,
1.087580,-1.121650,
1.065980,-1.133200,
1.041970,-1.140470,
1.016000,-1.143000,
-1.016000,-1.143000,
-1.041970,-1.140470,
-1.065980,-1.133200,
-1.087580,-1.121650,
-1.106290,-1.106290,
-1.121650,-1.087570,
-1.133200,-1.065980,
-1.140470,-1.041970,
-1.143000,-1.016000,
-1.143000,1.016000,
-1.140470,1.041970,
-1.133200,1.065980,
-1.121650,1.087570,
-1.106290,1.106290,
-1.087580,1.121650,
-1.065980,1.133200,
-1.041970,1.140470,
-1.016000,1.143000,
0*%
%ADD106PPAD096*%
%TA.AperFunction,Material*%
%ADD108C,2.794000*%
%TA.AperFunction,Profile*%
%ADD58C,0.203200*%
%TD.AperFunction*%
D69*
X-698500Y-1333500D03*
X-3619500Y-254000D03*
X+230000Y+3810000D03*
X+550000Y+3810000D03*
X+540000Y+4510000D03*
X-1841500Y+4508500D03*
X-952500Y-2159000D03*
X-190500Y+63500D03*
X+1841500Y+4699000D03*
X-1905000Y+5270500D03*
X-2286000Y-1333500D03*
X-3873500Y-3429000D03*
X+317500Y+1016000D03*
X+1270000Y-1016000D03*
X+1270000Y-2349500D03*
X-1968500Y+762000D03*
X-508000Y-1905000D03*
X-762000Y-825500D03*
X+1079500Y+2413000D03*
X+2032000Y+1778000D03*
X+889000Y+2413000D03*
X-1530000Y+2857500D03*
X-1524000Y+4381500D03*
X-1524000Y+2413000D03*
X-1397000Y-444500D03*
X-1397000Y-571500D03*
X-698500Y-2032000D03*
X-2730500Y-2349500D03*
X-889000Y-3238500D03*
X+1460500Y+1270000D03*
X+2286000Y-3365500D03*
X-2159000Y-3175000D03*
X-1460500Y-2413000D03*
X-3556000Y-381000D03*
X-3556000Y-2730500D03*
X-1587500Y-2413000D03*
X-3619500Y-3492500D03*
X-2222500Y-2857500D03*
X+254000Y-952500D03*
X+254000Y+1778000D03*
X+508000Y-635000D03*
X+381000Y+2222500D03*
X+381000Y+1841500D03*
X-381000Y+825500D03*
X-381000Y+3746500D03*
X+63500Y-254000D03*
X+0Y-3365500D03*
X-1670000Y+3560000D03*
X+2222500Y+1651000D03*
X+2159000Y+2603500D03*
X-635000Y+2349500D03*
X+950000Y+2300000D03*
X-930000Y+320000D03*
X-889000Y-254000D03*
X-1190000Y-440000D03*
X-1206500Y+444500D03*
X-1841500Y+4000500D03*
X-317500Y+4572000D03*
X+952500Y+2540000D03*
X+1397000Y+2413000D03*
X-310000Y+350000D03*
X-254000Y+2476500D03*
X-2095500Y+2286000D03*
X-2470000Y+2095500D03*
X-1524000Y+1651000D03*
X-1587500Y+4254500D03*
X+2476500Y+1016000D03*
X-1397000Y+0D03*
X+1841500Y+508000D03*
X+317500Y-3429000D03*
X-1143000Y+4635500D03*
X+762000Y+1778000D03*
X-1524000Y-952500D03*
X-4064000Y-3619500D03*
X-1905000Y+2730500D03*
X-1120239Y-2484738D03*
X-1267913Y-1895272D03*
X-1397000Y-1841500D03*
X+254000Y+2794000D03*
X+254000Y+2286000D03*
X-2440057Y+2290000D03*
X-1587500Y+2095500D03*
X-508000Y+2984500D03*
X-698500Y+1143000D03*
X-635000Y-1524000D03*
X-635000Y+410000D03*
X-2349500Y+1206500D03*
X+127000Y+1714500D03*
X+127000Y+3111500D03*
X+127000Y+1587500D03*
X+540000Y+3110000D03*
X+444500Y+1460500D03*
X-762000Y+3492500D03*
X-1016000Y+0D03*
X-698500Y+317500D03*
X-635000Y-1143000D03*
X+190500Y+1079500D03*
X+190500Y+2984500D03*
X+63500Y+3619500D03*
X+63500Y+4381500D03*
X+1206500Y-1587500D03*
X+1270000Y-508000D03*
X+2032000Y-3175000D03*
X+317500Y-1524000D03*
X+1714500Y-3238500D03*
X-762000Y-3302000D03*
X-190500Y+4064000D03*
X+1968500Y+3429000D03*
X+254000Y+4254500D03*
X+1968500Y+2794000D03*
X+0Y+5207000D03*
X+220000Y+4360000D03*
X+230000Y+3910000D03*
X+1905000Y+3175000D03*
X+698500Y+2476500D03*
X+444500Y-1397000D03*
X+444500Y-1587500D03*
X+190500Y+3429000D03*
X-190500Y+254000D03*
X-254000Y+2921000D03*
X+762000Y+3683000D03*
X-1714500Y+3937000D03*
X-2222500Y+4508500D03*
X+2095500Y+3810000D03*
X+889000Y+1460500D03*
X-1714500Y-1651000D03*
X-1524000Y-63500D03*
X-1587500Y-1333500D03*
X+2682250Y+967750D03*
X-1998208Y+1834760D03*
X-900000Y+890000D03*
X-762000Y+0D03*
X-2190000Y-2430000D03*
X-2210000Y+2600000D03*
X-2286000Y+2159000D03*
X-1016000Y+190500D03*
X+1397000Y+952500D03*
X-254000Y-1905000D03*
X-444500Y+4000500D03*
X-1079500Y-2032000D03*
X-3429000Y+698500D03*
X-1841500Y+127000D03*
X-825500Y-2857500D03*
X-1016000Y-1778000D03*
X+317500Y-2794000D03*
X+317500Y-762000D03*
X+190500Y-1810000D03*
X-190500Y-190500D03*
X-381000Y-1714500D03*
X+2286000Y+3111500D03*
X-2794000Y+3302000D03*
X-2921000Y+2794000D03*
X-2730500Y-508000D03*
X-2290000Y+1330000D03*
X+1143000Y-1714500D03*
X+1143000Y-1079500D03*
X+63500Y-3480000D03*
X+63500Y-698500D03*
X-30000Y+2560000D03*
X+1079500Y-2159000D03*
X+1079500Y+0D03*
D82*
X-4300000Y-3150000D03*
X-4300000Y-3650380D03*
X-1714000Y-3820000D03*
X-1213620Y-3820000D03*
X-713240Y-3820000D03*
D94*
X+1350000Y+1630000D03*
X-640000Y+1630000D03*
D82*
X-4600000Y-1050000D03*
X-4600000Y-1550380D03*
D96*
X-2720000Y+5030000D03*
X-2720000Y+4690000D03*
X-2000000Y+4690000D03*
X-2000000Y+5030000D03*
D82*
X-4600000Y+0D03*
X-4600000Y-500380D03*
D103*
X+3625000Y+3419000D03*
X+3371000Y+3546000D03*
X+3625000Y+3673000D03*
X+3371000Y+3800000D03*
X+3625000Y+1569000D03*
X+3371000Y+1696000D03*
X+3625000Y+1823000D03*
X+3371000Y+1950000D03*
X+3625000Y-285000D03*
X+3371000Y-158000D03*
X+3625000Y-31000D03*
X+3371000Y+96000D03*
D104*
X-3236000Y+4125000D03*
X-3236000Y+3829000D03*
X-3485012Y+4229010D03*
X-3480000Y+3930000D03*
D105*
X-4134998Y+4430000D03*
X-4134998Y+3530002D03*
D104*
X-3230988Y+2875990D03*
X-3230988Y+2579990D03*
X-3480000Y+2980000D03*
X-3474988Y+2680990D03*
D105*
X-4129986Y+3180990D03*
X-4129986Y+2280992D03*
D104*
X-3236000Y+1625000D03*
X-3236000Y+1329000D03*
X-3485012Y+1729010D03*
X-3480000Y+1430000D03*
D105*
X-4134998Y+1930000D03*
X-4134998Y+1030002D03*
D82*
X+2980760Y+4950000D03*
X+2480380Y+4950000D03*
X+1980000Y+4950000D03*
D106*
X-204000Y-4450000D03*
X+50000Y-4450000D03*
X+304000Y-4450000D03*
X+558000Y-4450000D03*
X+812000Y-4450000D03*
X+1066000Y-4450000D03*
D82*
X+1380380Y+4950000D03*
X+880000Y+4950000D03*
D106*
X-3238000Y+5150000D03*
X-3492000Y+5150000D03*
X-3746000Y+5150000D03*
X-4000000Y+5150000D03*
X-1536000Y-270000D03*
X-1790000Y-270000D03*
D82*
X+1749240Y-3880000D03*
X+2249620Y-3880000D03*
X+2750000Y-3880000D03*
D108*
X+4300000Y-2830000D03*
X+4300000Y-1630000D03*
X+4500000Y-2230000D03*
X+3050000Y-1630000D03*
X+3050000Y-2830000D03*
D82*
X-4300000Y-2120000D03*
X-4300000Y-2620380D03*
X+3299620Y-3880000D03*
X+3800000Y-3880000D03*
D94*
X+3646000Y+5080000D03*
X+4154000Y+5080000D03*
X+3900000Y+5080000D03*
D106*
X+40000Y-3857639D03*
X+294000Y-3857639D03*
X+548000Y-3857639D03*
X+802000Y-3857639D03*
X+2310000Y-650000D03*
X+2564000Y-650000D03*
D58*
X-4990000Y-4640000D02*
X+5000000Y-4640000D01*
X+5000000Y+5360000D01*
X-4990000Y+5360000D01*
X-4990000Y-4640000D01*
X+1385625Y-1221172D02*
X+4785625Y-1221172D01*
X+4785625Y-1111172D01*
X+1385625Y-1111172D01*
X+1385625Y-1221172D01*
X+855625Y-3091172D02*
X+965625Y-3091172D01*
X+965625Y-1401172D01*
X+855625Y-1401172D01*
X+855625Y-3091172D01*
X+1264865Y-4511172D02*
X+1374865Y-4511172D01*
X+1374865Y-3331172D01*
X+1264865Y-3331172D01*
X+1264865Y-4511172D01*
M02*
