G04 PROTEUS GERBER X2 FILE*
%TF.GenerationSoftware,Labcenter,Proteus,8.13-SP0-Build31525*%
%TF.CreationDate,2023-08-07T13:40:14+00:00*%
%TF.FileFunction,Copper,L2,Bot*%
%TF.FilePolarity,Positive*%
%TF.Part,Single*%
%TF.SameCoordinates,{8d507f11-5f74-4f73-9321-756942b8957b}*%
%FSLAX45Y45*%
%MOMM*%
G01*
%TA.AperFunction,Conductor*%
%ADD11C,0.203200*%
%ADD10C,0.304800*%
%ADD12C,0.254000*%
%ADD13C,0.635000*%
%ADD14C,0.762000*%
%TA.AperFunction,ViaPad*%
%ADD16C,0.762000*%
%TA.AperFunction,Conductor*%
%ADD17C,1.016000*%
%TA.AperFunction,ComponentPad*%
%ADD23C,3.048000*%
%ADD33C,2.032000*%
%AMPPAD029*
4,1,36,
0.220200,-0.925000,
-0.220200,-0.925000,
-0.282520,-0.918940,
-0.340160,-0.901490,
-0.391980,-0.873770,
-0.436890,-0.836890,
-0.473760,-0.791980,
-0.501480,-0.740160,
-0.518930,-0.682520,
-0.525000,-0.620200,
-0.525000,0.620200,
-0.518930,0.682520,
-0.501480,0.740160,
-0.473760,0.791980,
-0.436890,0.836890,
-0.391980,0.873770,
-0.340160,0.901490,
-0.282520,0.918940,
-0.220200,0.925000,
0.220200,0.925000,
0.282520,0.918940,
0.340160,0.901490,
0.391980,0.873770,
0.436890,0.836890,
0.473760,0.791980,
0.501480,0.740160,
0.518930,0.682520,
0.525000,0.620200,
0.525000,-0.620200,
0.518930,-0.682520,
0.501480,-0.740160,
0.473760,-0.791980,
0.436890,-0.836890,
0.391980,-0.873770,
0.340160,-0.901490,
0.282520,-0.918940,
0.220200,-0.925000,
0*%
%TA.AperFunction,WasherPad*%
%ADD35PPAD029*%
%TA.AperFunction,OtherPad,Unknown*%
%ADD41C,4.500000*%
%TA.AperFunction,ComponentPad*%
%ADD43C,1.397000*%
%ADD44R,1.308100X1.308100*%
%ADD45C,1.524000*%
%ADD46R,2.032000X2.032000*%
%TA.AperFunction,ComponentPad*%
%ADD48C,2.540000*%
%TA.AperFunction,Profile*%
%ADD58C,0.203200*%
%TD.AperFunction*%
G36*
X-2009139Y+5275579D02*
X-2168955Y+5275579D01*
X-2174636Y+5281260D01*
X-2009139Y+5281260D01*
X-2009139Y+5275579D01*
G37*
G36*
X+4921260Y+5199555D02*
X+4839555Y+5281260D01*
X+4921260Y+5281260D01*
X+4921260Y+5199555D01*
G37*
G36*
X-4911260Y+5139555D02*
X-4911260Y+5281260D01*
X-4769555Y+5281260D01*
X-4911260Y+5139555D01*
G37*
G36*
X-4167639Y+4982361D02*
X-4068579Y+4982361D01*
X-4068579Y+4553961D01*
X-4079237Y+4564619D01*
X-4190759Y+4564619D01*
X-4269617Y+4485761D01*
X-4269617Y+4374239D01*
X-4190759Y+4295381D01*
X-4079237Y+4295381D01*
X-4068579Y+4306039D01*
X-4068579Y+3653963D01*
X-4079237Y+3664621D01*
X-4190759Y+3664621D01*
X-4269617Y+3585763D01*
X-4269617Y+3474241D01*
X-4190759Y+3395383D01*
X-4079237Y+3395383D01*
X-4068579Y+3406041D01*
X-4068579Y+3309963D01*
X-4074225Y+3315609D01*
X-4185747Y+3315609D01*
X-4264605Y+3236751D01*
X-4264605Y+3125229D01*
X-4185747Y+3046371D01*
X-4074225Y+3046371D01*
X-4068579Y+3052017D01*
X-4068579Y+2638595D01*
X-3941395Y+2511411D01*
X-3354827Y+2511411D01*
X-3354827Y+2456151D01*
X-3180079Y+2456151D01*
X-3180079Y+2377905D01*
X-3816815Y+1741169D01*
X-3966349Y+1741169D01*
X-4690169Y+1017349D01*
X-4690169Y+218439D01*
X-4690480Y+218439D01*
X-4818439Y+90480D01*
X-4818439Y-90480D01*
X-4818218Y-90700D01*
X-4911260Y-183742D01*
X-4911260Y+4860445D01*
X-4767396Y+4716581D01*
X-4532604Y+4716581D01*
X-4366581Y+4882604D01*
X-4366581Y+5117396D01*
X-4530445Y+5281260D01*
X-4167639Y+5281260D01*
X-4167639Y+4982361D01*
G37*
%LPC*%
G36*
X-4185747Y+2415611D02*
X-4074225Y+2415611D01*
X-3995367Y+2336753D01*
X-3995367Y+2225231D01*
X-4074225Y+2146373D01*
X-4185747Y+2146373D01*
X-4264605Y+2225231D01*
X-4264605Y+2336753D01*
X-4185747Y+2415611D01*
G37*
G36*
X-4190759Y+2064619D02*
X-4079237Y+2064619D01*
X-4000379Y+1985761D01*
X-4000379Y+1874239D01*
X-4079237Y+1795381D01*
X-4190759Y+1795381D01*
X-4269617Y+1874239D01*
X-4269617Y+1985761D01*
X-4190759Y+2064619D01*
G37*
%LPD*%
G36*
X-4818218Y-959300D02*
X-4818439Y-959520D01*
X-4818439Y-1140480D01*
X-4690480Y-1268439D01*
X-4518059Y-1268439D01*
X-4426519Y-1359979D01*
X-4426519Y-1414942D01*
X-4509520Y-1331941D01*
X-4690480Y-1331941D01*
X-4818439Y-1459900D01*
X-4818439Y-1640860D01*
X-4690480Y-1768819D01*
X-4509520Y-1768819D01*
X-4426519Y-1685818D01*
X-4426519Y-1686521D01*
X-4668519Y-1928521D01*
X-4668519Y-2388359D01*
X-4518439Y-2538439D01*
X-4518439Y-2710860D01*
X-4390480Y-2838819D01*
X-4209520Y-2838819D01*
X-4209300Y-2838598D01*
X-4130169Y-2917729D01*
X-4130169Y-3010912D01*
X-4209520Y-2931561D01*
X-4390480Y-2931561D01*
X-4518439Y-3059520D01*
X-4518439Y-3240480D01*
X-4390480Y-3368439D01*
X-4209520Y-3368439D01*
X-4130169Y-3289088D01*
X-4130169Y-3511292D01*
X-4209520Y-3431941D01*
X-4390480Y-3431941D01*
X-4518439Y-3559900D01*
X-4518439Y-3740860D01*
X-4390480Y-3868819D01*
X-4342693Y-3868819D01*
X-4316893Y-3915260D01*
X-4274559Y-3940169D01*
X-4089765Y-3940169D01*
X-4053171Y-3922872D01*
X-3973831Y-3826284D01*
X-3973831Y-3676606D01*
X-3959861Y-3662636D01*
X-3959861Y-3642879D01*
X-3949831Y-3632849D01*
X-3949831Y-3499944D01*
X-3916636Y-3533139D01*
X-3891307Y-3533139D01*
X-3903659Y-3545491D01*
X-3903659Y-3790509D01*
X-3860509Y-3833659D01*
X-2268991Y-3833659D01*
X-2148841Y-3713509D01*
X-2148841Y-3279139D01*
X-2115864Y-3279139D01*
X-2054861Y-3218136D01*
X-2054861Y-3167845D01*
X-1391921Y-2504905D01*
X-1391921Y-2491696D01*
X-1356361Y-2456136D01*
X-1356361Y-2369864D01*
X-1417364Y-2308861D01*
X-1503636Y-2308861D01*
X-1524000Y-2329225D01*
X-1544364Y-2308861D01*
X-1630636Y-2308861D01*
X-1691639Y-2369864D01*
X-1691639Y-2412971D01*
X-1872009Y-2593341D01*
X-2062511Y-2593341D01*
X-2105659Y-2636489D01*
X-2105659Y-2636491D01*
X-2217421Y-2748253D01*
X-2217421Y-2534139D01*
X-2146864Y-2534139D01*
X-2085861Y-2473136D01*
X-2085861Y-2464883D01*
X-1853180Y-2342344D01*
X-1831341Y-2306841D01*
X-1831341Y-1910079D01*
X-1749595Y-1910079D01*
X-1645921Y-1806405D01*
X-1645921Y-1729696D01*
X-1610361Y-1694136D01*
X-1610361Y-1607864D01*
X-1645921Y-1572304D01*
X-1645921Y-1488905D01*
X-1594655Y-1437639D01*
X-1592579Y-1437639D01*
X-1592579Y-1742905D01*
X-1501139Y-1834345D01*
X-1501139Y-1884636D01*
X-1465579Y-1920196D01*
X-1465579Y-1996906D01*
X-1425406Y-2037079D01*
X-1344034Y-2037079D01*
X-1344034Y-2365111D01*
X-1224378Y-2484767D01*
X-1224378Y-2527874D01*
X-1188818Y-2563434D01*
X-1188818Y-3197834D01*
X-1608032Y-3617048D01*
X-1623520Y-3601561D01*
X-1804480Y-3601561D01*
X-1932439Y-3729520D01*
X-1932439Y-3910480D01*
X-1804480Y-4038439D01*
X-1623520Y-4038439D01*
X-1495561Y-3910480D01*
X-1495561Y-3729520D01*
X-1511048Y-3714032D01*
X-1465579Y-3668563D01*
X-1465579Y-4536905D01*
X-1441224Y-4561260D01*
X-4490445Y-4561260D01*
X-4356581Y-4427396D01*
X-4356581Y-4192604D01*
X-4522604Y-4026581D01*
X-4757396Y-4026581D01*
X-4911260Y-4180445D01*
X-4911260Y-866258D01*
X-4818218Y-959300D01*
G37*
G36*
X+4376581Y+5177396D02*
X+4376581Y+4942604D01*
X+4542604Y+4776581D01*
X+4777396Y+4776581D01*
X+4921260Y+4920445D01*
X+4921260Y-4561260D01*
X+4789555Y-4561260D01*
X+4913419Y-4437396D01*
X+4913419Y-4202604D01*
X+4747396Y-4036581D01*
X+4512604Y-4036581D01*
X+4346581Y-4202604D01*
X+4346581Y-4437396D01*
X+4470445Y-4561260D01*
X+1436131Y-4561260D01*
X+1453605Y-4543786D01*
X+1453605Y-3307079D01*
X+1635804Y-3307079D01*
X+1671364Y-3342639D01*
X+1757636Y-3342639D01*
X+1793196Y-3307079D01*
X+1813095Y-3307079D01*
X+2042259Y-3536243D01*
X+1903481Y-3675021D01*
X+1903481Y-3725322D01*
X+1839720Y-3661561D01*
X+1658760Y-3661561D01*
X+1530801Y-3789520D01*
X+1530801Y-3970480D01*
X+1658760Y-4098439D01*
X+1659071Y-4098439D01*
X+1659071Y-4186589D01*
X+1952651Y-4480169D01*
X+3775349Y-4480169D01*
X+4090669Y-4164849D01*
X+4090669Y-2766849D01*
X+4106961Y-2750557D01*
X+4106961Y-2909959D01*
X+4220041Y-3023039D01*
X+4379959Y-3023039D01*
X+4493039Y-2909959D01*
X+4493039Y-2750041D01*
X+4484991Y-2741993D01*
X+4894579Y-2332405D01*
X+4894579Y-320095D01*
X+4790905Y-216421D01*
X+3790563Y-216421D01*
X+3878579Y-128405D01*
X+3878579Y+1412405D01*
X+3773589Y+1517395D01*
X+3773589Y+1620605D01*
X+3878579Y+1725595D01*
X+3878579Y+3262405D01*
X+3773589Y+3367395D01*
X+3773589Y+3480548D01*
X+3739060Y+3515076D01*
X+3815079Y+3591095D01*
X+3815079Y+4727405D01*
X+3711405Y+4831079D01*
X+3170758Y+4831079D01*
X+3199199Y+4859520D01*
X+3199199Y+5040480D01*
X+3071240Y+5168439D01*
X+2890280Y+5168439D01*
X+2762321Y+5040480D01*
X+2762321Y+4859520D01*
X+2790762Y+4831079D01*
X+2670378Y+4831079D01*
X+2698819Y+4859520D01*
X+2698819Y+5040480D01*
X+2570860Y+5168439D01*
X+2389900Y+5168439D01*
X+2261941Y+5040480D01*
X+2261941Y+4859520D01*
X+2290382Y+4831079D01*
X+2195905Y+4831079D01*
X+2182952Y+4844032D01*
X+2198439Y+4859520D01*
X+2198439Y+5040480D01*
X+2070480Y+5168439D01*
X+1889520Y+5168439D01*
X+1761561Y+5040480D01*
X+1761561Y+4875923D01*
X+1721439Y+4916045D01*
X+1721439Y+5233545D01*
X+1673724Y+5281260D01*
X+4480445Y+5281260D01*
X+4376581Y+5177396D01*
G37*
%LPC*%
G36*
X+4163733Y+4413409D02*
X+4356267Y+4413409D01*
X+4492409Y+4277267D01*
X+4492409Y+4084733D01*
X+4356267Y+3948591D01*
X+4163733Y+3948591D01*
X+4027591Y+4084733D01*
X+4027591Y+4277267D01*
X+4163733Y+4413409D01*
G37*
G36*
X+4163733Y+3270409D02*
X+4356267Y+3270409D01*
X+4492409Y+3134267D01*
X+4492409Y+2941733D01*
X+4356267Y+2805591D01*
X+4163733Y+2805591D01*
X+4027591Y+2941733D01*
X+4027591Y+3134267D01*
X+4163733Y+3270409D01*
G37*
G36*
X+4163733Y+2563409D02*
X+4356267Y+2563409D01*
X+4492409Y+2427267D01*
X+4492409Y+2234733D01*
X+4356267Y+2098591D01*
X+4163733Y+2098591D01*
X+4027591Y+2234733D01*
X+4027591Y+2427267D01*
X+4163733Y+2563409D01*
G37*
G36*
X+4163733Y+1420409D02*
X+4356267Y+1420409D01*
X+4492409Y+1284267D01*
X+4492409Y+1091733D01*
X+4356267Y+955591D01*
X+4163733Y+955591D01*
X+4027591Y+1091733D01*
X+4027591Y+1284267D01*
X+4163733Y+1420409D01*
G37*
G36*
X+4163733Y+709409D02*
X+4356267Y+709409D01*
X+4492409Y+573267D01*
X+4492409Y+380733D01*
X+4356267Y+244591D01*
X+4163733Y+244591D01*
X+4027591Y+380733D01*
X+4027591Y+573267D01*
X+4163733Y+709409D01*
G37*
G36*
X+4321639Y+5149438D02*
X+4321639Y+5010562D01*
X+4223438Y+4912361D01*
X+4084562Y+4912361D01*
X+4027000Y+4969923D01*
X+3969438Y+4912361D01*
X+3830562Y+4912361D01*
X+3773000Y+4969923D01*
X+3715438Y+4912361D01*
X+3576562Y+4912361D01*
X+3478361Y+5010562D01*
X+3478361Y+5149438D01*
X+3576562Y+5247639D01*
X+3715438Y+5247639D01*
X+3773000Y+5190077D01*
X+3830562Y+5247639D01*
X+3969438Y+5247639D01*
X+4027000Y+5190077D01*
X+4084562Y+5247639D01*
X+4223438Y+5247639D01*
X+4321639Y+5149438D01*
G37*
%LPD*%
G36*
X-4789555Y-4561260D02*
X-4911260Y-4561260D01*
X-4911260Y-4439555D01*
X-4789555Y-4561260D01*
G37*
G36*
X+1584281Y+5176735D02*
X+1584281Y+5055018D01*
X+1470860Y+5168439D01*
X+1289900Y+5168439D01*
X+1161941Y+5040480D01*
X+1161941Y+4859520D01*
X+1289900Y+4731561D01*
X+1470860Y+4731561D01*
X+1591408Y+4852108D01*
X+1737361Y+4706155D01*
X+1737361Y+4655864D01*
X+1739566Y+4653659D01*
X-251884Y+4653659D01*
X-274364Y+4676139D01*
X-360636Y+4676139D01*
X-421639Y+4615136D01*
X-421639Y+4577972D01*
X-1053650Y+4577575D01*
X-1038861Y+4592364D01*
X-1038861Y+4642655D01*
X-800095Y+4881421D01*
X+661561Y+4881421D01*
X+661561Y+4859520D01*
X+789520Y+4731561D01*
X+970480Y+4731561D01*
X+1098439Y+4859520D01*
X+1098439Y+5040480D01*
X+970480Y+5168439D01*
X+789520Y+5168439D01*
X+661561Y+5040480D01*
X+661561Y+5018579D01*
X-856905Y+5018579D01*
X-1135845Y+4739639D01*
X-1186136Y+4739639D01*
X-1247139Y+4678636D01*
X-1247139Y+4640579D01*
X-1881461Y+4640579D01*
X-1881461Y+4848539D01*
X-1931422Y+4848539D01*
X-1931422Y+4871461D01*
X-1881461Y+4871461D01*
X-1881461Y+5138421D01*
X-78696Y+5138421D01*
X-43136Y+5102861D01*
X+43136Y+5102861D01*
X+104139Y+5163864D01*
X+104139Y+5211421D01*
X+1549595Y+5211421D01*
X+1584281Y+5176735D01*
G37*
G36*
X-2265939Y+5178595D02*
X-2265939Y+5178594D01*
X-2225766Y+5138421D01*
X-2118539Y+5138421D01*
X-2118539Y+4928579D01*
X-2204975Y+4928579D01*
X-2268579Y+4864975D01*
X-2268579Y+4775025D01*
X-2204975Y+4711421D01*
X-2118539Y+4711421D01*
X-2118539Y+4640579D01*
X-2598421Y+4640579D01*
X-2598421Y+4711421D01*
X-2515025Y+4711421D01*
X-2451421Y+4775025D01*
X-2451421Y+4864975D01*
X-2515025Y+4928579D01*
X-2601461Y+4928579D01*
X-2601461Y+5188539D01*
X-2838539Y+5188539D01*
X-2838539Y+4871461D01*
X-2788579Y+4871461D01*
X-2788579Y+4848539D01*
X-2838539Y+4848539D01*
X-2838539Y+4577079D01*
X-3019595Y+4577079D01*
X-3141516Y+4699000D01*
X-3042921Y+4797595D01*
X-3042921Y+5051905D01*
X-3070361Y+5079345D01*
X-3070361Y+5227061D01*
X-2314405Y+5227061D01*
X-2265939Y+5178595D01*
G37*
G36*
X-3180079Y+4854405D02*
X-3423421Y+4611063D01*
X-3423421Y+4982361D01*
X-3180079Y+4982361D01*
X-3180079Y+4854405D01*
G37*
G36*
X+2119008Y+4714008D02*
X+2139095Y+4693921D01*
X+3654595Y+4693921D01*
X+3677921Y+4670595D01*
X+3677921Y+4554247D01*
X+3578509Y+4653659D01*
X+1943434Y+4653659D01*
X+1945639Y+4655864D01*
X+1945639Y+4731561D01*
X+2070480Y+4731561D01*
X+2085968Y+4747048D01*
X+2119008Y+4714008D01*
G37*
G36*
X-1945639Y+4465364D02*
X-1930354Y+4450079D01*
X-2067095Y+4450079D01*
X-2118361Y+4501345D01*
X-2118361Y+4503421D01*
X-1945639Y+4503421D01*
X-1945639Y+4465364D01*
G37*
G36*
X-1628139Y+4358639D02*
X-1630636Y+4358639D01*
X-1645921Y+4343354D01*
X-1645921Y+4353095D01*
X-1628139Y+4370877D01*
X-1628139Y+4358639D01*
G37*
G36*
X+1150648Y+4149868D02*
X+264159Y+4149868D01*
X+264159Y+4150361D01*
X+297136Y+4150361D01*
X+332696Y+4185921D01*
X+1114595Y+4185921D01*
X+1150648Y+4149868D01*
G37*
G36*
X-3560579Y+4388488D02*
X-3560579Y+4360083D01*
X-3553591Y+4353095D01*
X-3553591Y+4352849D01*
X-3608851Y+4352849D01*
X-3608851Y+4202155D01*
X-3677421Y+4133585D01*
X-3677421Y+4982361D01*
X-3560579Y+4982361D01*
X-3560579Y+4388488D01*
G37*
G36*
X-3096492Y+4460008D02*
X-3076405Y+4439921D01*
X-2755095Y+4439921D01*
X-2691595Y+4503421D01*
X-2326639Y+4503421D01*
X-2326639Y+4465364D01*
X-2265636Y+4404361D01*
X-2215345Y+4404361D01*
X-2123905Y+4312921D01*
X-1846579Y+4312921D01*
X-1846579Y+4104639D01*
X-1884636Y+4104639D01*
X-1920196Y+4069079D01*
X-3083095Y+4069079D01*
X-3112161Y+4098145D01*
X-3112161Y+4248839D01*
X-3296921Y+4248839D01*
X-3296921Y+4543595D01*
X-3238500Y+4602016D01*
X-3096492Y+4460008D01*
G37*
G36*
X-3434079Y+4053839D02*
X-3550921Y+4053839D01*
X-3550921Y+4066117D01*
X-3511867Y+4105171D01*
X-3434079Y+4105171D01*
X-3434079Y+4053839D01*
G37*
G36*
X+3551341Y+4472491D02*
X+3551341Y+3975143D01*
X+3457405Y+4069079D01*
X+2194095Y+4069079D01*
X+2090421Y+3965405D01*
X+2090421Y+3914139D01*
X+2088345Y+3914139D01*
X+1496143Y+4506341D01*
X+3517491Y+4506341D01*
X+3551341Y+4472491D01*
G37*
G36*
X-3160823Y+3952839D02*
X-3262855Y+3952839D01*
X-3296921Y+3986905D01*
X-3296921Y+4001161D01*
X-3209145Y+4001161D01*
X-3160823Y+3952839D01*
G37*
G36*
X+100485Y+4219905D02*
X+100485Y+4189396D01*
X+116841Y+4173040D01*
X+116841Y+3918991D01*
X+125861Y+3909971D01*
X+125861Y+3866864D01*
X+132725Y+3860000D01*
X+125861Y+3853136D01*
X+125861Y+3766864D01*
X+151620Y+3741104D01*
X+120396Y+3709880D01*
X+106636Y+3723639D01*
X+20364Y+3723639D01*
X-28891Y+3674384D01*
X-28891Y+4192125D01*
X+56345Y+4277361D01*
X+100485Y+4277361D01*
X+100485Y+4219905D01*
G37*
G36*
X+1842778Y+3260054D02*
X+1800861Y+3218136D01*
X+1800861Y+3131864D01*
X+1861864Y+3070861D01*
X+1899921Y+3070861D01*
X+1899921Y+3005589D01*
X+1864839Y+2970507D01*
X+1864839Y+2837614D01*
X+1864361Y+2837136D01*
X+1864361Y+2799079D01*
X+1742905Y+2799079D01*
X+1044405Y+3497579D01*
X+269196Y+3497579D01*
X+233636Y+3533139D01*
X+195579Y+3533139D01*
X+195579Y+3591095D01*
X+218905Y+3614421D01*
X+683304Y+3614421D01*
X+718864Y+3578861D01*
X+805136Y+3578861D01*
X+866139Y+3639864D01*
X+866139Y+3726136D01*
X+805136Y+3787139D01*
X+718864Y+3787139D01*
X+683304Y+3751579D01*
X+638854Y+3751579D01*
X+654139Y+3766864D01*
X+654139Y+3853136D01*
X+593136Y+3914139D01*
X+506864Y+3914139D01*
X+471304Y+3878579D01*
X+334139Y+3878579D01*
X+334139Y+3953136D01*
X+284725Y+4002550D01*
X+1100282Y+4002550D01*
X+1842778Y+3260054D01*
G37*
G36*
X+3222411Y+3861548D02*
X+3222411Y+3748395D01*
X+3169921Y+3695905D01*
X+3169921Y+3624579D01*
X+2702095Y+3624579D01*
X+2293155Y+3215639D01*
X+2242864Y+3215639D01*
X+2227579Y+3200354D01*
X+2227579Y+3908595D01*
X+2250905Y+3931921D01*
X+3292784Y+3931921D01*
X+3222411Y+3861548D01*
G37*
G36*
X-40639Y+4374345D02*
X-166049Y+4248935D01*
X-166049Y+4168139D01*
X-233636Y+4168139D01*
X-294639Y+4107136D01*
X-294639Y+4020864D01*
X-233636Y+3959861D01*
X-195579Y+3959861D01*
X-195579Y+3009854D01*
X-210864Y+3025139D01*
X-297136Y+3025139D01*
X-312421Y+3009854D01*
X-312421Y+3667804D01*
X-276861Y+3703364D01*
X-276861Y+3789636D01*
X-337864Y+3850639D01*
X-375921Y+3850639D01*
X-375921Y+3921804D01*
X-340361Y+3957364D01*
X-340361Y+4043636D01*
X-401364Y+4104639D01*
X-487636Y+4104639D01*
X-548639Y+4043636D01*
X-548639Y+3957364D01*
X-513079Y+3921804D01*
X-513079Y+3088639D01*
X-551136Y+3088639D01*
X-612139Y+3027636D01*
X-612139Y+2941364D01*
X-576579Y+2905804D01*
X-576579Y+2438354D01*
X-591864Y+2453639D01*
X-678136Y+2453639D01*
X-693421Y+2438354D01*
X-693421Y+3413804D01*
X-657861Y+3449364D01*
X-657861Y+3535636D01*
X-718864Y+3596639D01*
X-805136Y+3596639D01*
X-866139Y+3535636D01*
X-866139Y+3449364D01*
X-830579Y+3413804D01*
X-830579Y+1758405D01*
X-856594Y+1732390D01*
X-856594Y+1527610D01*
X-830579Y+1501595D01*
X-830579Y+1440391D01*
X-928519Y+1538331D01*
X-928519Y+1538333D01*
X-971667Y+1581481D01*
X-1446244Y+1581481D01*
X-1419861Y+1607864D01*
X-1419861Y+1694136D01*
X-1450341Y+1724616D01*
X-1450341Y+2004503D01*
X-1405900Y+2048944D01*
X-1405900Y+2156068D01*
X-1450341Y+2200509D01*
X-1450341Y+2316509D01*
X-1461778Y+2327946D01*
X-1419861Y+2369864D01*
X-1419861Y+2456136D01*
X-1453565Y+2489840D01*
X-1455884Y+2650458D01*
X-1457560Y+2782665D01*
X-1425861Y+2814364D01*
X-1425861Y+2900636D01*
X-1456341Y+2931116D01*
X-1456341Y+3554477D01*
X-1452116Y+4134363D01*
X-1420810Y+4165669D01*
X-1420810Y+4337415D01*
X-1419861Y+4338364D01*
X-1419861Y+4376421D01*
X-40639Y+4376421D01*
X-40639Y+4374345D01*
G37*
G36*
X+294639Y+2991921D02*
X+294639Y+3027636D01*
X+233636Y+3088639D01*
X+231139Y+3088639D01*
X+231139Y+3106421D01*
X+427724Y+3106421D01*
X+294639Y+2991921D01*
G37*
G36*
X-3603839Y+3006855D02*
X-3603839Y+2906825D01*
X-3677421Y+2980407D01*
X-3677421Y+3080437D01*
X-3603839Y+3006855D01*
G37*
G36*
X-3359839Y+3705161D02*
X-3304579Y+3705161D01*
X-3304579Y+3146595D01*
X-3299567Y+3141583D01*
X-3299567Y+2999829D01*
X-3354827Y+2999829D01*
X-3354827Y+2804829D01*
X-3501843Y+2804829D01*
X-3553175Y+2856161D01*
X-3356161Y+2856161D01*
X-3356161Y+3103839D01*
X-3506855Y+3103839D01*
X-3550921Y+3147905D01*
X-3550921Y+3806161D01*
X-3359839Y+3806161D01*
X-3359839Y+3705161D01*
G37*
G36*
X+1991361Y+3817155D02*
X+1991361Y+3766864D01*
X+2052364Y+3705861D01*
X+2090421Y+3705861D01*
X+2090421Y+2822405D01*
X+2072639Y+2804623D01*
X+2072639Y+2837136D01*
X+2012157Y+2897618D01*
X+2012157Y+2909489D01*
X+2042158Y+2939490D01*
X+2042158Y+3000510D01*
X+2037079Y+3005589D01*
X+2037079Y+3139905D01*
X+2014684Y+3162300D01*
X+2037079Y+3184695D01*
X+2037079Y+3202911D01*
X+2042158Y+3207990D01*
X+2042158Y+3269010D01*
X+1986307Y+3324861D01*
X+2011636Y+3324861D01*
X+2072639Y+3385864D01*
X+2072639Y+3472136D01*
X+2011636Y+3533139D01*
X+1961345Y+3533139D01*
X+1171405Y+4323079D01*
X+332696Y+4323079D01*
X+324139Y+4331636D01*
X+324139Y+4376421D01*
X+1432095Y+4376421D01*
X+1991361Y+3817155D01*
G37*
G36*
X-1884636Y+3896361D02*
X-1818639Y+3896361D01*
X-1818639Y+3893864D01*
X-1757636Y+3832861D01*
X-1671364Y+3832861D01*
X-1668579Y+3835646D01*
X-1668579Y+3664139D01*
X-1713136Y+3664139D01*
X-1774139Y+3603136D01*
X-1774139Y+3516864D01*
X-1713136Y+3455861D01*
X-1697689Y+3455861D01*
X-1697689Y+2780795D01*
X-1742905Y+2735579D01*
X-1800861Y+2735579D01*
X-1800861Y+2773636D01*
X-1861864Y+2834639D01*
X-1948136Y+2834639D01*
X-1983696Y+2799079D01*
X-2816861Y+2799079D01*
X-2816861Y+2837136D01*
X-2852421Y+2872696D01*
X-2852421Y+3146595D01*
X-2801155Y+3197861D01*
X-2750864Y+3197861D01*
X-2689861Y+3258864D01*
X-2689861Y+3345136D01*
X-2750864Y+3406139D01*
X-2837136Y+3406139D01*
X-2898139Y+3345136D01*
X-2898139Y+3294845D01*
X-2989579Y+3203405D01*
X-2989579Y+2872696D01*
X-3025139Y+2837136D01*
X-3025139Y+2786845D01*
X-3042921Y+2769063D01*
X-3042921Y+2784907D01*
X-3107149Y+2849135D01*
X-3107149Y+2999829D01*
X-3162409Y+2999829D01*
X-3162409Y+3198393D01*
X-3167421Y+3203405D01*
X-3167421Y+3705161D01*
X-3112161Y+3705161D01*
X-3112161Y+3931921D01*
X-1920196Y+3931921D01*
X-1884636Y+3896361D01*
G37*
G36*
X-3180079Y+2728097D02*
X-3180079Y+2703829D01*
X-3351149Y+2703829D01*
X-3351149Y+2752151D01*
X-3204133Y+2752151D01*
X-3180079Y+2728097D01*
G37*
G36*
X+2217421Y+2692354D02*
X+2202136Y+2707639D01*
X+2169623Y+2707639D01*
X+2217421Y+2755437D01*
X+2217421Y+2692354D01*
G37*
G36*
X-5079Y+3540804D02*
X-5079Y+2664139D01*
X-28891Y+2664139D01*
X-28891Y+3564616D01*
X-5079Y+3540804D01*
G37*
G36*
X-3814579Y+2952002D02*
X-3814579Y+2923597D01*
X-3598827Y+2707845D01*
X-3598827Y+2648569D01*
X-3884585Y+2648569D01*
X-3931421Y+2695405D01*
X-3931421Y+4982361D01*
X-3814579Y+4982361D01*
X-3814579Y+2952002D01*
G37*
G36*
X-297136Y+2816861D02*
X-259079Y+2816861D01*
X-259079Y+2580639D01*
X-297136Y+2580639D01*
X-312421Y+2565354D01*
X-312421Y+2832146D01*
X-297136Y+2816861D01*
G37*
G36*
X-2328868Y+2585300D02*
X-2350443Y+2563725D01*
X-2350443Y+2472827D01*
X-2359195Y+2481579D01*
X-2481421Y+2481579D01*
X-2481421Y+2565095D01*
X-2448095Y+2598421D01*
X-2315747Y+2598421D01*
X-2328868Y+2585300D01*
G37*
G36*
X+1686095Y+2661921D02*
X+2070146Y+2661921D01*
X+2054861Y+2646636D01*
X+2054861Y+2560364D01*
X+2090421Y+2524804D01*
X+2090421Y+2373659D01*
X+1501139Y+2373659D01*
X+1501139Y+2456136D01*
X+1440136Y+2517139D01*
X+1389845Y+2517139D01*
X+1298405Y+2608579D01*
X+1031196Y+2608579D01*
X+995636Y+2644139D01*
X+909364Y+2644139D01*
X+848361Y+2583136D01*
X+848361Y+2517139D01*
X+845864Y+2517139D01*
X+802639Y+2473914D01*
X+802639Y+2519636D01*
X+741636Y+2580639D01*
X+703579Y+2580639D01*
X+703579Y+3139905D01*
X+599905Y+3243579D01*
X+218905Y+3243579D01*
X+195579Y+3266905D01*
X+195579Y+3324861D01*
X+233636Y+3324861D01*
X+269196Y+3360421D01*
X+987595Y+3360421D01*
X+1686095Y+2661921D01*
G37*
G36*
X+1292861Y+2420155D02*
X+1292861Y+2373659D01*
X+1183639Y+2373659D01*
X+1183639Y+2456136D01*
X+1168354Y+2471421D01*
X+1241595Y+2471421D01*
X+1292861Y+2420155D01*
G37*
G36*
X-1668579Y+2377906D02*
X-1668579Y+2377905D01*
X-1882405Y+2164079D01*
X-2026921Y+2164079D01*
X-2026921Y+2207304D01*
X-1991361Y+2242864D01*
X-1991361Y+2329136D01*
X-2052364Y+2390139D01*
X-2138636Y+2390139D01*
X-2199639Y+2329136D01*
X-2199639Y+2242864D01*
X-2164079Y+2207304D01*
X-2164079Y+2164079D01*
X-2181861Y+2164079D01*
X-2181861Y+2202136D01*
X-2212341Y+2232616D01*
X-2212341Y+2288410D01*
X-2203125Y+2297626D01*
X-2203125Y+2495861D01*
X-2166864Y+2495861D01*
X-2105861Y+2556864D01*
X-2105861Y+2598421D01*
X-1686094Y+2598421D01*
X-1668579Y+2615936D01*
X-1668579Y+2377906D01*
G37*
G36*
X-1597659Y+2199639D02*
X-1630636Y+2199639D01*
X-1691639Y+2138636D01*
X-1691639Y+2088345D01*
X-1742905Y+2037079D01*
X-1815437Y+2037079D01*
X-1597659Y+2254857D01*
X-1597659Y+2199639D01*
G37*
G36*
X+3169921Y+3464095D02*
X+3273595Y+3360421D01*
X+3457405Y+3360421D01*
X+3476411Y+3379427D01*
X+3476411Y+3357452D01*
X+3563452Y+3270411D01*
X+3676605Y+3270411D01*
X+3741421Y+3205595D01*
X+3741421Y+1916716D01*
X+3686548Y+1971589D01*
X+3563452Y+1971589D01*
X+3519589Y+1927726D01*
X+3519589Y+2011548D01*
X+3432548Y+2098589D01*
X+3319395Y+2098589D01*
X+3063405Y+2354579D01*
X+2441405Y+2354579D01*
X+2354579Y+2441405D01*
X+2354579Y+3032804D01*
X+2390139Y+3068364D01*
X+2390139Y+3118655D01*
X+2758905Y+3487421D01*
X+3169921Y+3487421D01*
X+3169921Y+3464095D01*
G37*
G36*
X-2598492Y+2641992D02*
X-2618579Y+2621905D01*
X-2618579Y+1923405D01*
X-2631905Y+1910079D01*
X-3453937Y+1910079D01*
X-3042921Y+2321095D01*
X-3042921Y+2575095D01*
X-2956095Y+2661921D01*
X-2578563Y+2661921D01*
X-2598492Y+2641992D01*
G37*
G36*
X+566421Y+1880063D02*
X+536405Y+1910079D01*
X+459696Y+1910079D01*
X+449579Y+1920196D01*
X+449579Y+2143804D01*
X+485139Y+2179364D01*
X+485139Y+2265636D01*
X+424136Y+2326639D01*
X+386079Y+2326639D01*
X+386079Y+2699693D01*
X+418859Y+2732473D01*
X+418859Y+2852738D01*
X+386079Y+2885518D01*
X+386079Y+2888954D01*
X+525882Y+3005861D01*
X+566421Y+3005861D01*
X+566421Y+1880063D01*
G37*
G36*
X+3476411Y+1800726D02*
X+3454137Y+1823000D01*
X+3476411Y+1845274D01*
X+3476411Y+1800726D01*
G37*
G36*
X+2153921Y+2211219D02*
X+2153921Y+1729696D01*
X+2122804Y+1698579D01*
X+2099854Y+1698579D01*
X+2136139Y+1734864D01*
X+2136139Y+1821136D01*
X+2075136Y+1882139D01*
X+2024845Y+1882139D01*
X+1776522Y+2130462D01*
X+1014522Y+2130462D01*
X+957579Y+2187405D01*
X+957579Y+2195861D01*
X+993136Y+2195861D01*
X+1023616Y+2226341D01*
X+2138799Y+2226341D01*
X+2153921Y+2211219D01*
G37*
G36*
X+784861Y+2369864D02*
X+786650Y+2368075D01*
X+773880Y+2355305D01*
X+773880Y+2200658D01*
X+820421Y+2154117D01*
X+820421Y+2130595D01*
X+957712Y+1993304D01*
X+1719712Y+1993304D01*
X+1927861Y+1785155D01*
X+1927861Y+1734864D01*
X+1964146Y+1698579D01*
X+1517639Y+1698579D01*
X+1517639Y+1699438D01*
X+1419438Y+1797639D01*
X+1280562Y+1797639D01*
X+1182361Y+1699438D01*
X+1182361Y+1698579D01*
X+938405Y+1698579D01*
X+932643Y+1704341D01*
X+974584Y+1704341D01*
X+1081234Y+1810991D01*
X+1081234Y+1872009D01*
X+1002932Y+1950311D01*
X+846409Y+1950311D01*
X+811257Y+1915159D01*
X+799489Y+1915159D01*
X+767079Y+1882749D01*
X+767079Y+2397804D01*
X+784861Y+2415586D01*
X+784861Y+2369864D01*
G37*
G36*
X+3541863Y+1696000D02*
X+3519589Y+1673726D01*
X+3519589Y+1718274D01*
X+3541863Y+1696000D01*
G37*
G36*
X+2344421Y+2257595D02*
X+2344421Y+1679405D01*
X+2326639Y+1661623D01*
X+2326639Y+1694136D01*
X+2291079Y+1729696D01*
X+2291079Y+2268029D01*
X+2232658Y+2326450D01*
X+2232658Y+2333634D01*
X+2227579Y+2338713D01*
X+2227579Y+2374437D01*
X+2344421Y+2257595D01*
G37*
G36*
X-3688079Y+1660095D02*
X-3651643Y+1623659D01*
X-3678491Y+1623659D01*
X-3709424Y+1654592D01*
X-3688079Y+1675937D01*
X-3688079Y+1660095D01*
G37*
G36*
X-1597659Y+1724616D02*
X-1628139Y+1694136D01*
X-1628139Y+1607864D01*
X-1601756Y+1581481D01*
X-1640761Y+1581481D01*
X-1894069Y+1834789D01*
X-1894069Y+1877896D01*
X-1916094Y+1899921D01*
X-1686094Y+1899921D01*
X-1597659Y+1988357D01*
X-1597659Y+1724616D01*
G37*
G36*
X+502921Y+1749595D02*
X+502921Y+1679405D01*
X+479594Y+1656079D01*
X+439421Y+1615906D01*
X+439421Y+1564639D01*
X+437345Y+1564639D01*
X+386079Y+1615905D01*
X+386079Y+1737361D01*
X+424136Y+1737361D01*
X+459696Y+1772921D01*
X+479595Y+1772921D01*
X+502921Y+1749595D01*
G37*
G36*
X+1182361Y+1560562D02*
X+1213844Y+1529079D01*
X+967696Y+1529079D01*
X+935354Y+1561421D01*
X+1182361Y+1561421D01*
X+1182361Y+1560562D01*
G37*
G36*
X-3359839Y+1297823D02*
X-3368177Y+1306161D01*
X-3359839Y+1306161D01*
X-3359839Y+1297823D01*
G37*
G36*
X-576579Y+1148079D02*
X-594361Y+1148079D01*
X-594361Y+1186136D01*
X-655364Y+1247139D01*
X-693421Y+1247139D01*
X-693421Y+1462361D01*
X-576579Y+1462361D01*
X-576579Y+1148079D01*
G37*
G36*
X-2457910Y+1979926D02*
X-2377905Y+1899921D01*
X-2080322Y+1899921D01*
X-2102347Y+1877896D01*
X-2102347Y+1791624D01*
X-2041344Y+1730621D01*
X-1998237Y+1730621D01*
X-1701779Y+1434163D01*
X-1032687Y+1434163D01*
X-973659Y+1375135D01*
X-973659Y+963616D01*
X-1004139Y+933136D01*
X-1004139Y+846864D01*
X-962659Y+805384D01*
X-962659Y+538511D01*
X-992159Y+509011D01*
X-992159Y+501825D01*
X-1041401Y+452583D01*
X-1041401Y+790405D01*
X-1145075Y+894079D01*
X-3584405Y+894079D01*
X-3688079Y+790405D01*
X-3688079Y-175304D01*
X-3723639Y-210864D01*
X-3723639Y-297136D01*
X-3662636Y-358139D01*
X-3660139Y-358139D01*
X-3660139Y-424136D01*
X-3624579Y-459696D01*
X-3624579Y-2651804D01*
X-3660139Y-2687364D01*
X-3660139Y-2773636D01*
X-3599136Y-2834639D01*
X-3512864Y-2834639D01*
X-3451861Y-2773636D01*
X-3451861Y-2687364D01*
X-3487421Y-2651804D01*
X-3487421Y-459696D01*
X-3451861Y-424136D01*
X-3451861Y-337864D01*
X-3512864Y-276861D01*
X-3515361Y-276861D01*
X-3515361Y-210864D01*
X-3550921Y-175304D01*
X-3550921Y+733595D01*
X-3527595Y+756921D01*
X-3517854Y+756921D01*
X-3533139Y+741636D01*
X-3533139Y+655364D01*
X-3472136Y+594361D01*
X-3385864Y+594361D01*
X-3350304Y+629921D01*
X-2441405Y+629921D01*
X-1945639Y+134155D01*
X-1945639Y+83864D01*
X-1884636Y+22861D01*
X-1798364Y+22861D01*
X-1788159Y+33066D01*
X-1788159Y+32991D01*
X-1760247Y+5079D01*
X-1933405Y+5079D01*
X-2037079Y-98595D01*
X-2037079Y-790405D01*
X-1656079Y-1171405D01*
X-1656079Y-1254804D01*
X-1691639Y-1290364D01*
X-1691639Y-1340655D01*
X-1783079Y-1432095D01*
X-1783079Y-1572304D01*
X-1818639Y-1607864D01*
X-1818639Y-1694136D01*
X-1783079Y-1729696D01*
X-1783079Y-1749595D01*
X-1806405Y-1772921D01*
X-1869409Y-1772921D01*
X-1874489Y-1767841D01*
X-1935511Y-1767841D01*
X-1978659Y-1810989D01*
X-1978659Y-2239753D01*
X-2157283Y-2325861D01*
X-2217421Y-2325861D01*
X-2217421Y-1412196D01*
X-2181861Y-1376636D01*
X-2181861Y-1290364D01*
X-2242864Y-1229361D01*
X-2329136Y-1229361D01*
X-2390139Y-1290364D01*
X-2390139Y-1376636D01*
X-2354579Y-1412196D01*
X-2354579Y-3337095D01*
X-2377905Y-3360421D01*
X-3794804Y-3360421D01*
X-3830364Y-3324861D01*
X-3916636Y-3324861D01*
X-3949831Y-3358056D01*
X-3949831Y-2843031D01*
X-4081782Y-2711080D01*
X-4081561Y-2710860D01*
X-4081561Y-2529900D01*
X-4209520Y-2401941D01*
X-4381941Y-2401941D01*
X-4475481Y-2308401D01*
X-4475481Y-2253438D01*
X-4390480Y-2338439D01*
X-4209520Y-2338439D01*
X-4081561Y-2210480D01*
X-4081561Y-2029520D01*
X-4209520Y-1901561D01*
X-4368563Y-1901561D01*
X-4233481Y-1766479D01*
X-4233481Y-1280021D01*
X-4381561Y-1131941D01*
X-4381561Y-959520D01*
X-4509520Y-831561D01*
X-4690480Y-831561D01*
X-4690700Y-831782D01*
X-4779831Y-742651D01*
X-4779831Y-629468D01*
X-4690480Y-718819D01*
X-4509520Y-718819D01*
X-4381561Y-590860D01*
X-4381561Y-409900D01*
X-4509520Y-281941D01*
X-4690480Y-281941D01*
X-4779831Y-371292D01*
X-4779831Y-307349D01*
X-4690700Y-218218D01*
X-4690480Y-218439D01*
X-4509520Y-218439D01*
X-4381561Y-90480D01*
X-4381561Y+90480D01*
X-4509520Y+218439D01*
X-4509831Y+218439D01*
X-4509831Y+942651D01*
X-3891651Y+1560831D01*
X-3823999Y+1560831D01*
X-3739509Y+1476341D01*
X-3603839Y+1476341D01*
X-3603839Y+1306161D01*
X-3548579Y+1306161D01*
X-3548579Y+1292595D01*
X-3393905Y+1137921D01*
X-2428196Y+1137921D01*
X-2392636Y+1102361D01*
X-2306364Y+1102361D01*
X-2245361Y+1163364D01*
X-2245361Y+1227364D01*
X-2185861Y+1286864D01*
X-2185861Y+1373136D01*
X-2246864Y+1434139D01*
X-2333136Y+1434139D01*
X-2369696Y+1397579D01*
X-3112161Y+1397579D01*
X-3112161Y+1452839D01*
X-3162341Y+1452839D01*
X-3162341Y+1456509D01*
X-3206993Y+1501161D01*
X-3112161Y+1501161D01*
X-3112161Y+1748839D01*
X-3359839Y+1748839D01*
X-3359839Y+1693579D01*
X-3361173Y+1693579D01*
X-3361173Y+1772921D01*
X-2575095Y+1772921D01*
X-2481421Y+1866595D01*
X-2481421Y+1991361D01*
X-2457910Y+1991361D01*
X-2457910Y+1979926D01*
G37*
%LPC*%
G36*
X-4190759Y+1164621D02*
X-4079237Y+1164621D01*
X-4000379Y+1085763D01*
X-4000379Y+974241D01*
X-4079237Y+895383D01*
X-4190759Y+895383D01*
X-4269617Y+974241D01*
X-4269617Y+1085763D01*
X-4190759Y+1164621D01*
G37*
G36*
X-2626361Y-464864D02*
X-2626361Y-551136D01*
X-2661921Y-586696D01*
X-2661921Y-2270804D01*
X-2626361Y-2306364D01*
X-2626361Y-2392636D01*
X-2687364Y-2453639D01*
X-2773636Y-2453639D01*
X-2834639Y-2392636D01*
X-2834639Y-2306364D01*
X-2799079Y-2270804D01*
X-2799079Y-586696D01*
X-2834639Y-551136D01*
X-2834639Y-464864D01*
X-2773636Y-403861D01*
X-2687364Y-403861D01*
X-2626361Y-464864D01*
G37*
%LPD*%
G36*
X+340361Y+1467655D02*
X+340361Y+1417364D01*
X+401364Y+1356361D01*
X+434342Y+1356361D01*
X+434342Y+1342885D01*
X+477490Y+1299737D01*
X+502921Y+1299737D01*
X+502921Y+1223659D01*
X+459491Y+1223659D01*
X+399885Y+1164053D01*
X+399885Y+1080890D01*
X+360636Y+1120139D01*
X+322579Y+1120139D01*
X+322579Y+1485437D01*
X+340361Y+1467655D01*
G37*
G36*
X+3222411Y+2001605D02*
X+3222411Y+1888452D01*
X+3287863Y+1823000D01*
X+3222411Y+1757548D01*
X+3222411Y+1634452D01*
X+3309452Y+1547411D01*
X+3432548Y+1547411D01*
X+3476411Y+1591274D01*
X+3476411Y+1517395D01*
X+2995345Y+1036329D01*
X+2760946Y+1036329D01*
X+2725386Y+1071889D01*
X+2639114Y+1071889D01*
X+2580639Y+1013414D01*
X+2580639Y+1059136D01*
X+2519636Y+1120139D01*
X+2433364Y+1120139D01*
X+2372361Y+1059136D01*
X+2372361Y+972864D01*
X+2407921Y+937304D01*
X+2407921Y+610063D01*
X+2354579Y+663405D01*
X+2354579Y+1488905D01*
X+2324563Y+1518921D01*
X+2377905Y+1518921D01*
X+2481579Y+1622595D01*
X+2481579Y+2217421D01*
X+3006595Y+2217421D01*
X+3222411Y+2001605D01*
G37*
G36*
X+3741421Y+1355595D02*
X+3741421Y+62716D01*
X+3686548Y+117589D01*
X+3563452Y+117589D01*
X+3519589Y+73726D01*
X+3519589Y+157548D01*
X+3432548Y+244589D01*
X+3319395Y+244589D01*
X+2987405Y+576579D01*
X+2545079Y+576579D01*
X+2545079Y+937304D01*
X+2578111Y+970336D01*
X+2578111Y+924614D01*
X+2639114Y+863611D01*
X+2725386Y+863611D01*
X+2760946Y+899171D01*
X+3052155Y+899171D01*
X+3573395Y+1420411D01*
X+3676605Y+1420411D01*
X+3741421Y+1355595D01*
G37*
G36*
X+2090421Y+1559095D02*
X+2090421Y+1559094D01*
X+2130595Y+1518921D01*
X+2217421Y+1432095D01*
X+2217421Y+663405D01*
X+2130595Y+576579D01*
X+1920196Y+576579D01*
X+1884636Y+612139D01*
X+1798364Y+612139D01*
X+1737361Y+551136D01*
X+1737361Y+464864D01*
X+1798364Y+403861D01*
X+1884636Y+403861D01*
X+1920196Y+439421D01*
X+2187405Y+439421D01*
X+2286000Y+538016D01*
X+2347766Y+476250D01*
X+2241421Y+369905D01*
X+2241421Y-482361D01*
X+2142361Y-482361D01*
X+2142361Y-817639D01*
X+2731639Y-817639D01*
X+2731639Y-482361D01*
X+2378579Y-482361D01*
X+2378579Y+313095D01*
X+2504905Y+439421D01*
X+2930595Y+439421D01*
X+3222411Y+147605D01*
X+3222411Y+34452D01*
X+3287863Y-31000D01*
X+3222411Y-96452D01*
X+3222411Y-219548D01*
X+3309452Y-306589D01*
X+3432548Y-306589D01*
X+3476411Y-262726D01*
X+3476411Y-346548D01*
X+3563452Y-433589D01*
X+3686548Y-433589D01*
X+3766558Y-353579D01*
X+4734095Y-353579D01*
X+4757421Y-376905D01*
X+4757421Y-1032432D01*
X+1439546Y-1032432D01*
X+1439546Y-928549D01*
X+1441586Y-926509D01*
X+1441586Y-865491D01*
X+1407159Y-831064D01*
X+1407159Y-826726D01*
X+1402079Y-821646D01*
X+1402079Y+793938D01*
X+1425405Y+793938D01*
X+1529079Y+897612D01*
X+1529079Y+1191304D01*
X+1564639Y+1226864D01*
X+1564639Y+1313136D01*
X+1503636Y+1374139D01*
X+1465579Y+1374139D01*
X+1465579Y+1425405D01*
X+1424030Y+1466954D01*
X+1517639Y+1560562D01*
X+1517639Y+1561421D01*
X+2088095Y+1561421D01*
X+2090421Y+1559095D01*
G37*
%LPC*%
G36*
X+4163733Y-433591D02*
X+4356267Y-433591D01*
X+4492409Y-569733D01*
X+4492409Y-762267D01*
X+4356267Y-898409D01*
X+4163733Y-898409D01*
X+4027591Y-762267D01*
X+4027591Y-569733D01*
X+4163733Y-433591D01*
G37*
%LPD*%
G36*
X-327659Y+454139D02*
X-353136Y+454139D01*
X-375921Y+431354D01*
X-375921Y+721361D01*
X-337864Y+721361D01*
X-327659Y+731566D01*
X-327659Y+454139D01*
G37*
G36*
X-513079Y+385063D02*
X-530861Y+402845D01*
X-530861Y+453136D01*
X-561341Y+483616D01*
X-561341Y+1010921D01*
X-513079Y+1010921D01*
X-513079Y+385063D01*
G37*
G36*
X-1178559Y+733595D02*
X-1178559Y+548639D01*
X-1249636Y+548639D01*
X-1310639Y+487636D01*
X-1310639Y+401364D01*
X-1280159Y+370884D01*
X-1280159Y+170643D01*
X-1864361Y+754845D01*
X-1864361Y+756921D01*
X-1201885Y+756921D01*
X-1178559Y+733595D01*
G37*
G36*
X-353136Y+245861D02*
X-294639Y+245861D01*
X-294639Y+210864D01*
X-279354Y+195579D01*
X-345905Y+195579D01*
X-375921Y+165563D01*
X-375921Y+268646D01*
X-353136Y+245861D01*
G37*
G36*
X-767079Y+238804D02*
X-767079Y+125589D01*
X-772158Y+120510D01*
X-772158Y+107142D01*
X-791421Y+126405D01*
X-791421Y+263146D01*
X-767079Y+238804D01*
G37*
G36*
X-2072639Y+718864D02*
X-2011636Y+657861D01*
X-1961345Y+657861D01*
X-1447886Y+144402D01*
X-1455128Y+137159D01*
X-1554509Y+137159D01*
X-1618009Y+73659D01*
X-1620491Y+73659D01*
X-1640841Y+94009D01*
X-1640841Y+157511D01*
X-1683989Y+200659D01*
X-1745011Y+200659D01*
X-1750091Y+195579D01*
X-1762804Y+195579D01*
X-1798364Y+231139D01*
X-1848655Y+231139D01*
X-2374437Y+756921D01*
X-2072639Y+756921D01*
X-2072639Y+718864D01*
G37*
G36*
X+3476411Y-53274D02*
X+3454137Y-31000D01*
X+3476411Y-8726D01*
X+3476411Y-53274D01*
G37*
G36*
X+58421Y+924095D02*
X+58421Y-149861D01*
X+32284Y-149861D01*
X+32284Y+950232D01*
X+58421Y+924095D01*
G37*
G36*
X+3541863Y-158000D02*
X+3519589Y-180274D01*
X+3519589Y-135726D01*
X+3541863Y-158000D01*
G37*
G36*
X-805136Y-104139D02*
X-772159Y-104139D01*
X-772159Y-130511D01*
X-767079Y-135591D01*
X-767079Y-225595D01*
X-784861Y-243377D01*
X-784861Y-210864D01*
X-845864Y-149861D01*
X-878841Y-149861D01*
X-878841Y-100573D01*
X-878596Y-96150D01*
X-845860Y-63414D01*
X-805136Y-104139D01*
G37*
G36*
X-1127992Y-238992D02*
X-1122586Y-244398D01*
X-1122586Y-281101D01*
X-1132841Y-291356D01*
X-1132841Y-234143D01*
X-1127992Y-238992D01*
G37*
G36*
X-163693Y-346342D02*
X-185421Y-346342D01*
X-185421Y-294639D01*
X-163693Y-294639D01*
X-163693Y-346342D01*
G37*
G36*
X-703579Y-405937D02*
X-728516Y-381000D01*
X-703579Y-356063D01*
X-703579Y-405937D01*
G37*
G36*
X-1064492Y-492992D02*
X-1044405Y-513079D01*
X-790405Y-513079D01*
X-767079Y-536405D01*
X-767079Y-721361D01*
X-805136Y-721361D01*
X-840696Y-756921D01*
X-1178095Y-756921D01*
X-1201421Y-733595D01*
X-1201421Y-544139D01*
X-1146864Y-544139D01*
X-1085861Y-483136D01*
X-1085861Y-471623D01*
X-1064492Y-492992D01*
G37*
G36*
X+861508Y+1581508D02*
X+878377Y+1564639D01*
X+845864Y+1564639D01*
X+784861Y+1503636D01*
X+784861Y+1417364D01*
X+845864Y+1356361D01*
X+932136Y+1356361D01*
X+967696Y+1391921D01*
X+1305095Y+1391921D01*
X+1328421Y+1368595D01*
X+1328421Y+1073658D01*
X+1302990Y+1073658D01*
X+1225998Y+996666D01*
X+1225998Y+869842D01*
X+1259841Y+835999D01*
X+1259841Y+832006D01*
X+1264921Y+826926D01*
X+1264921Y-403861D01*
X+1226864Y-403861D01*
X+1165861Y-464864D01*
X+1165861Y-551136D01*
X+1201421Y-586696D01*
X+1201421Y-797095D01*
X+1148079Y-850436D01*
X+1148079Y-78696D01*
X+1183639Y-43136D01*
X+1183639Y+43136D01*
X+1122636Y+104139D01*
X+1036364Y+104139D01*
X+975361Y+43136D01*
X+975361Y-43136D01*
X+1010921Y-78696D01*
X+1010921Y-1335114D01*
X+998239Y-1322432D01*
X+823011Y-1322432D01*
X+776885Y-1368558D01*
X+776885Y-3123786D01*
X+823011Y-3169912D01*
X+998239Y-3169912D01*
X+1044365Y-3123786D01*
X+1044365Y-2263139D01*
X+1122636Y-2263139D01*
X+1137921Y-2247854D01*
X+1137921Y-3139905D01*
X+1167937Y-3169921D01*
X+790405Y-3169921D01*
X+756669Y-3136185D01*
X+756669Y-1559095D01*
X+663153Y-1465579D01*
X+663405Y-1465579D01*
X+767079Y-1361905D01*
X+767079Y+1673861D01*
X+769155Y+1673861D01*
X+861508Y+1581508D01*
G37*
G36*
X-1440136Y-675639D02*
X-1423659Y-675639D01*
X-1423659Y-905566D01*
X-1455421Y-873804D01*
X-1455421Y-745595D01*
X-1467421Y-733595D01*
X-1467421Y-648354D01*
X-1440136Y-675639D01*
G37*
G36*
X-1604579Y-762000D02*
X-1604579Y-790405D01*
X-1592579Y-802405D01*
X-1592579Y-873804D01*
X-1628139Y-909364D01*
X-1628139Y-995636D01*
X-1592579Y-1031196D01*
X-1592579Y-1040937D01*
X-1899921Y-733595D01*
X-1899921Y-437639D01*
X-1604579Y-437639D01*
X-1604579Y-762000D01*
G37*
G36*
X+439421Y+930007D02*
X+439421Y-556304D01*
X+403861Y-591864D01*
X+403861Y-678136D01*
X+464864Y-739139D01*
X+551136Y-739139D01*
X+566421Y-723854D01*
X+566421Y-924095D01*
X+259079Y-1231437D01*
X+259079Y-1171405D01*
X+386079Y-1044405D01*
X+386079Y-840696D01*
X+421639Y-805136D01*
X+421639Y-718864D01*
X+386079Y-683304D01*
X+386079Y+937304D01*
X+409102Y+960326D01*
X+439421Y+930007D01*
G37*
G36*
X+629921Y-1305095D02*
X+606595Y-1328421D01*
X+523196Y-1328421D01*
X+487636Y-1292861D01*
X+401364Y-1292861D01*
X+340361Y-1353864D01*
X+340361Y-1419861D01*
X+322579Y-1419861D01*
X+322579Y-1361905D01*
X+629921Y-1054563D01*
X+629921Y-1305095D01*
G37*
G36*
X-513079Y-1800861D02*
X-515155Y-1800861D01*
X-693421Y-1622595D01*
X-693421Y-1612854D01*
X-678136Y-1628139D01*
X-591864Y-1628139D01*
X-530861Y-1567136D01*
X-530861Y-1516845D01*
X-513079Y-1499063D01*
X-513079Y-1800861D01*
G37*
G36*
X+4757421Y-2275595D02*
X+4388007Y-2645009D01*
X+4379959Y-2636961D01*
X+4220557Y-2636961D01*
X+4434479Y-2423039D01*
X+4579959Y-2423039D01*
X+4693039Y-2309959D01*
X+4693039Y-2150041D01*
X+4579959Y-2036961D01*
X+4420041Y-2036961D01*
X+4306961Y-2150041D01*
X+4306961Y-2295521D01*
X+3910331Y-2692151D01*
X+3910331Y-3681412D01*
X+3890480Y-3661561D01*
X+3709520Y-3661561D01*
X+3581561Y-3789520D01*
X+3581561Y-3961941D01*
X+3400021Y-4143481D01*
X+3041517Y-4143481D01*
X+3146519Y-4038479D01*
X+3146519Y-4035818D01*
X+3209140Y-4098439D01*
X+3390100Y-4098439D01*
X+3518059Y-3970480D01*
X+3518059Y-3789520D01*
X+3390100Y-3661561D01*
X+3209140Y-3661561D01*
X+3146519Y-3724182D01*
X+3146519Y-3006479D01*
X+3243039Y-2909959D01*
X+3243039Y-2750041D01*
X+3129959Y-2636961D01*
X+2970041Y-2636961D01*
X+2856961Y-2750041D01*
X+2856961Y-2909959D01*
X+2953481Y-3006479D01*
X+2953481Y-3774562D01*
X+2840480Y-3661561D01*
X+2818579Y-3661561D01*
X+2818579Y-1958405D01*
X+2961993Y-1814991D01*
X+2970041Y-1823039D01*
X+3129959Y-1823039D01*
X+3243039Y-1709959D01*
X+3243039Y-1550041D01*
X+3222077Y-1529079D01*
X+4102095Y-1529079D01*
X+4115009Y-1541993D01*
X+4106961Y-1550041D01*
X+4106961Y-1709959D01*
X+4220041Y-1823039D01*
X+4379959Y-1823039D01*
X+4493039Y-1709959D01*
X+4493039Y-1550041D01*
X+4379959Y-1436961D01*
X+4220041Y-1436961D01*
X+4211993Y-1445009D01*
X+4158905Y-1391921D01*
X+2441405Y-1391921D01*
X+2377905Y-1328421D01*
X+1425405Y-1328421D01*
X+1402079Y-1305095D01*
X+1402079Y-1299912D01*
X+4757421Y-1299912D01*
X+4757421Y-2275595D01*
G37*
G36*
X-259079Y-853905D02*
X-259079Y-1800861D01*
X-297136Y-1800861D01*
X-332696Y-1836421D01*
X-352595Y-1836421D01*
X-370377Y-1818639D01*
X-337864Y-1818639D01*
X-276861Y-1757636D01*
X-276861Y-1671364D01*
X-312421Y-1635804D01*
X-312421Y-800563D01*
X-259079Y-853905D01*
G37*
G36*
X-1423659Y-1366489D02*
X-1423659Y-1474509D01*
X-1120139Y-1778029D01*
X-1120139Y-1821136D01*
X-1084579Y-1856696D01*
X-1084579Y-1904537D01*
X-1089195Y-1899921D01*
X-1163774Y-1899921D01*
X-1163774Y-1852136D01*
X-1224777Y-1791133D01*
X-1300092Y-1791133D01*
X-1353864Y-1737361D01*
X-1404155Y-1737361D01*
X-1455421Y-1686095D01*
X-1455421Y-1031196D01*
X-1423659Y-999434D01*
X-1423659Y-1366489D01*
G37*
G36*
X-1254992Y-873992D02*
X-1234905Y-894079D01*
X-840696Y-894079D01*
X-830579Y-904196D01*
X-830579Y-1679405D01*
X-612139Y-1897845D01*
X-612139Y-1899921D01*
X-790405Y-1899921D01*
X-945345Y-2054861D01*
X-975361Y-2054861D01*
X-975361Y-2024845D01*
X-947421Y-1996905D01*
X-947421Y-1856696D01*
X-911861Y-1821136D01*
X-911861Y-1734864D01*
X-972864Y-1673861D01*
X-1015971Y-1673861D01*
X-1276341Y-1413491D01*
X-1276341Y-852643D01*
X-1254992Y-873992D01*
G37*
G36*
X-830579Y-2552437D02*
X-1091421Y-2291595D01*
X-1091421Y-2136139D01*
X-1056639Y-2136139D01*
X-1056639Y-2202136D01*
X-995636Y-2263139D01*
X-909364Y-2263139D01*
X-848361Y-2202136D01*
X-848361Y-2151845D01*
X-830579Y-2134063D01*
X-830579Y-2552437D01*
G37*
G36*
X+340361Y-1630636D02*
X+375921Y-1666196D01*
X+375921Y-2705146D01*
X+360636Y-2689861D01*
X+322579Y-2689861D01*
X+322579Y-1628139D01*
X+340361Y-1628139D01*
X+340361Y-1630636D01*
G37*
G36*
X-163693Y-2194095D02*
X-693421Y-2723823D01*
X-693421Y-2136139D01*
X-655364Y-2136139D01*
X-594361Y-2075136D01*
X-594361Y-2037079D01*
X-163693Y-2037079D01*
X-163693Y-2194095D01*
G37*
G36*
X-2148841Y-3067857D02*
X-2148841Y-2931116D01*
X-2118361Y-2900636D01*
X-2118361Y-2857529D01*
X-2001491Y-2740659D01*
X-1821643Y-2740659D01*
X-2148841Y-3067857D01*
G37*
G36*
X+1348508Y-1445492D02*
X+1368595Y-1465579D01*
X+2310937Y-1465579D01*
X+2217421Y-1559095D01*
X+2217421Y-3286804D01*
X+2181861Y-3322364D01*
X+2181861Y-3408636D01*
X+2242864Y-3469639D01*
X+2329136Y-3469639D01*
X+2390139Y-3408636D01*
X+2390139Y-3322364D01*
X+2354579Y-3286804D01*
X+2354579Y-1615905D01*
X+2441405Y-1529079D01*
X+2877923Y-1529079D01*
X+2856961Y-1550041D01*
X+2856961Y-1709959D01*
X+2865009Y-1718007D01*
X+2681421Y-1901595D01*
X+2681421Y-3661561D01*
X+2659520Y-3661561D01*
X+2531561Y-3789520D01*
X+2531561Y-3970480D01*
X+2594562Y-4033481D01*
X+2539599Y-4033481D01*
X+2468059Y-3961941D01*
X+2468059Y-3789520D01*
X+2340100Y-3661561D01*
X+2189937Y-3661561D01*
X+2255519Y-3595979D01*
X+2255519Y-3516021D01*
X+2198979Y-3459481D01*
X+2159465Y-3459481D01*
X+1943563Y-3243579D01*
X+1953304Y-3243579D01*
X+1988864Y-3279139D01*
X+2075136Y-3279139D01*
X+2136139Y-3218136D01*
X+2136139Y-3131864D01*
X+2075136Y-3070861D01*
X+1988864Y-3070861D01*
X+1953304Y-3106421D01*
X+1298405Y-3106421D01*
X+1275079Y-3083095D01*
X+1275079Y-2453639D01*
X+1313136Y-2453639D01*
X+1374139Y-2392636D01*
X+1374139Y-2306364D01*
X+1338579Y-2270804D01*
X+1338579Y-1435563D01*
X+1348508Y-1445492D01*
G37*
G36*
X-134283Y-2575095D02*
X-443090Y-2883902D01*
X-443090Y-3400595D01*
X-521261Y-3478766D01*
X-1275782Y-3478766D01*
X-1051660Y-3254644D01*
X-1051660Y-2563434D01*
X-1032605Y-2544379D01*
X-957579Y-2619405D01*
X-957579Y-2822405D01*
X-929639Y-2850345D01*
X-929639Y-2900636D01*
X-868636Y-2961639D01*
X-836123Y-2961639D01*
X-957579Y-3083095D01*
X-957579Y-3159804D01*
X-993139Y-3195364D01*
X-993139Y-3281636D01*
X-932136Y-3342639D01*
X-866139Y-3342639D01*
X-866139Y-3345136D01*
X-805136Y-3406139D01*
X-718864Y-3406139D01*
X-657861Y-3345136D01*
X-657861Y-3258864D01*
X-693421Y-3223304D01*
X-693421Y-3108155D01*
X-661671Y-3076405D01*
X-661671Y-2886041D01*
X-134283Y-2358653D01*
X-134283Y-2575095D01*
G37*
G36*
X-2296159Y-3652491D02*
X-2330009Y-3686341D01*
X-3756341Y-3686341D01*
X-3756341Y-3606509D01*
X-3715991Y-3566159D01*
X-3693116Y-3566159D01*
X-3662636Y-3596639D01*
X-3576364Y-3596639D01*
X-3515361Y-3535636D01*
X-3515361Y-3497579D01*
X-2321095Y-3497579D01*
X-2296159Y-3472643D01*
X-2296159Y-3652491D01*
G37*
G36*
X+396008Y-3223492D02*
X+862516Y-3690000D01*
X+731345Y-3690000D01*
X+655766Y-3614421D01*
X+345905Y-3614421D01*
X+322579Y-3591095D01*
X+322579Y-3533139D01*
X+360636Y-3533139D01*
X+421639Y-3472136D01*
X+421639Y-3385864D01*
X+386079Y-3350304D01*
X+386079Y-3213563D01*
X+396008Y-3223492D01*
G37*
G36*
X-68579Y-3286804D02*
X-104139Y-3322364D01*
X-104139Y-3408636D01*
X-43136Y-3469639D01*
X-40639Y-3469639D01*
X-40639Y-3523136D01*
X+20364Y-3584139D01*
X+58421Y-3584139D01*
X+58421Y-3647905D01*
X+98421Y-3687905D01*
X+98421Y-3690000D01*
X-121921Y-3690000D01*
X-121921Y-3040110D01*
X-68579Y-2986768D01*
X-68579Y-3286804D01*
G37*
G36*
X-104874Y-2829095D02*
X-259079Y-2983300D01*
X-259079Y-4237905D01*
X-214623Y-4282361D01*
X-371639Y-4282361D01*
X-371639Y-4532341D01*
X-1276175Y-4532341D01*
X-1328421Y-4480095D01*
X-1328421Y-4014118D01*
X-1304100Y-4038439D01*
X-1123140Y-4038439D01*
X-995181Y-3910480D01*
X-995181Y-3729520D01*
X-1108777Y-3615924D01*
X-818083Y-3615924D01*
X-931679Y-3729520D01*
X-931679Y-3910480D01*
X-803720Y-4038439D01*
X-622760Y-4038439D01*
X-494801Y-3910480D01*
X-494801Y-3729520D01*
X-608397Y-3615924D01*
X-464451Y-3615924D01*
X-305932Y-3457405D01*
X-305932Y-2940712D01*
X-104874Y-2739654D01*
X-104874Y-2829095D01*
G37*
G36*
X+2376603Y-4143481D02*
X+2209979Y-4143481D01*
X+2164937Y-4098439D01*
X+2331561Y-4098439D01*
X+2376603Y-4143481D01*
G37*
G36*
X+619511Y-1615905D02*
X+619511Y-3192995D01*
X+733595Y-3307079D01*
X+1186125Y-3307079D01*
X+1186125Y-4282361D01*
X+1076623Y-4282361D01*
X+1084579Y-4274405D01*
X+1084579Y-3718095D01*
X+513079Y-3146595D01*
X+513079Y-1666196D01*
X+548639Y-1630636D01*
X+548639Y-1592579D01*
X+596185Y-1592579D01*
X+619511Y-1615905D01*
G37*
G36*
X+947421Y-4217595D02*
X+882655Y-4282361D01*
X+372579Y-4282361D01*
X+372579Y-4236095D01*
X+235579Y-4099095D01*
X+235579Y-4025278D01*
X+947421Y-4025278D01*
X+947421Y-4217595D01*
G37*
G36*
X+98421Y-4155905D02*
X+224877Y-4282361D01*
X-20655Y-4282361D01*
X-121921Y-4181095D01*
X-121921Y-4025278D01*
X+98421Y-4025278D01*
X+98421Y-4155905D01*
G37*
G36*
X+3910331Y-4090151D02*
X+3700651Y-4299831D01*
X+3516667Y-4299831D01*
X+3718059Y-4098439D01*
X+3890480Y-4098439D01*
X+3910331Y-4078588D01*
X+3910331Y-4090151D01*
G37*
G36*
X+1903481Y-4070000D02*
X+1903481Y-4109979D01*
X+2093333Y-4299831D01*
X+2027349Y-4299831D01*
X+1839409Y-4111891D01*
X+1839409Y-4098439D01*
X+1839720Y-4098439D01*
X+1903481Y-4034678D01*
X+1903481Y-4070000D01*
G37*
D11*
X-1079500Y-335000D02*
X-1079500Y-381000D01*
X-1016000Y-444500D01*
X-762000Y-444500D01*
X-698500Y-508000D01*
X-698500Y-1333500D01*
X-1109980Y-63500D02*
X-1109980Y+762000D01*
X-1173480Y+825500D01*
X-3556000Y+825500D01*
X-3619500Y+762000D01*
X-3619500Y-254000D01*
X-1109980Y-63500D02*
X-1143000Y-63500D01*
X-1143000Y-127000D01*
X-1079500Y-190500D01*
X-1054007Y-190500D01*
X-1079500Y-40000D02*
X-1079500Y-70000D01*
X-1109980Y-70000D01*
X-1109980Y-63500D01*
X-1054007Y-190500D02*
X-1054007Y-137135D01*
X-1079500Y-111642D01*
X-1079500Y-100000D01*
X-1079500Y-40000D02*
X-1079500Y-31179D01*
X-1097896Y-12783D01*
X-1097896Y+42726D01*
X-1079500Y+61122D01*
X-1079500Y-335000D02*
X-1054007Y-309507D01*
X-1054007Y-297735D01*
X-1054007Y-190500D01*
X+550000Y+3810000D02*
X+230000Y+3810000D01*
X+540000Y+4510000D02*
X-240000Y+4509509D01*
X-251028Y+4498481D01*
X-379067Y+4498481D01*
X-390000Y+4509414D01*
X-1179999Y+4508917D01*
X-1208283Y+4480633D01*
X-1331829Y+4480633D01*
X-1359999Y+4508803D01*
X-1841500Y+4508500D02*
X-1359999Y+4508803D01*
X-190500Y-825500D02*
X-190500Y-1968500D01*
X-762000Y-1968500D01*
X-952500Y-2159000D01*
X-190500Y+63500D02*
X-254000Y+0D01*
X-254000Y-762000D01*
X-190500Y-825500D01*
X-127000Y-698500D02*
X-190500Y-762000D01*
X-190500Y-825500D01*
D10*
X-190500Y-576284D02*
X-142863Y-528647D01*
X-142863Y-486842D01*
X-142863Y-467637D01*
X-185180Y-425320D01*
X-190500Y-420000D01*
D12*
X-190500Y-576284D02*
X-127000Y-639784D01*
X-127000Y-698500D01*
D11*
X-1905000Y+5270500D02*
X-1895500Y+5280000D01*
X+1578000Y+5280000D01*
X+1652860Y+5205140D01*
X+1652860Y+4887640D01*
X+1841500Y+4699000D01*
X-3873500Y-3429000D02*
X-2349500Y-3429000D01*
X-2286000Y-3365500D01*
X-2286000Y-1333500D01*
X+317500Y+1016000D02*
X+317500Y-762000D01*
X+1270000Y-2349500D02*
X+1270000Y-1016000D01*
X-762000Y-825500D02*
X-1206500Y-825500D01*
X-1270000Y-762000D01*
X-1270000Y+63500D01*
X-1968500Y+762000D01*
X-762000Y-825500D02*
X-762000Y-1651000D01*
X-508000Y-1905000D01*
X+889000Y+2413000D02*
X+1079500Y+2413000D01*
X+2032000Y+1778000D02*
X+1748117Y+2061883D01*
X+986117Y+2061883D01*
X+889000Y+2159000D01*
X+889000Y+2182522D01*
X+842459Y+2229063D01*
X+842459Y+2326900D01*
X+875559Y+2360000D01*
X+889000Y+2360000D01*
X+889000Y+2413000D02*
X+889000Y+2360000D01*
D10*
X-1530000Y+2857500D02*
X-1530000Y+4160647D01*
X-1520642Y+4170005D01*
X-1524000Y+4381500D02*
X-1494469Y+4351969D01*
X-1494469Y+4196178D01*
X-1520642Y+4170005D01*
D11*
X-1530000Y+2857500D02*
X-1520642Y+4170005D01*
D12*
X-1524000Y+2413000D02*
X-1530000Y+2857500D01*
D10*
X-1397000Y-571500D02*
X-1397000Y-444500D01*
D11*
X-889000Y-3238500D02*
X-889000Y-3111500D01*
X-762000Y-2984500D01*
X-762000Y-2095500D01*
X-698500Y-2032000D01*
X-2730500Y-508000D02*
X-2730500Y-2349500D01*
X+1333500Y-1110000D02*
X+1333500Y-1333500D01*
X+1397000Y-1397000D01*
X+2349500Y-1397000D01*
X+2413000Y-1460500D01*
X+1333500Y+862517D02*
X+1397000Y+862517D01*
X+1460500Y+926017D01*
X+1460500Y+1270000D01*
X+1333500Y-857237D02*
X+1333500Y+862517D01*
X+2413000Y-1460500D02*
X+4130500Y-1460500D01*
X+4300000Y-1630000D01*
X+2413000Y-1460500D02*
X+2286000Y-1587500D01*
X+2286000Y-3365500D01*
D10*
X+1333500Y+862517D02*
X+1333500Y+866508D01*
X+1299657Y+900351D01*
X+1299657Y+966157D01*
X+1333500Y+1000000D01*
X+1333500Y-857237D02*
X+1333500Y-861573D01*
X+1367927Y-896000D01*
X+1365887Y-898040D01*
X+1365887Y-1071454D01*
X+1364401Y-1071454D01*
X+1342425Y-1093430D01*
X+1342425Y-1101075D01*
X+1333500Y-1110000D01*
D11*
X-1460500Y-2413000D02*
X-1460500Y-2476500D01*
X-2159000Y-3175000D01*
X-3556000Y-2730500D02*
X-3556000Y-381000D01*
D10*
X-3619500Y-3492500D02*
X-3746500Y-3492500D01*
X-3830000Y-3576000D01*
X-3830000Y-3760000D01*
X-2299500Y-3760000D01*
X-2222500Y-3683000D01*
X-2222500Y-3175000D01*
X-1841500Y-2667000D02*
X-2032000Y-2667000D01*
X-1587500Y-2413000D02*
X-1841500Y-2667000D01*
X-2222500Y-2857500D02*
X-2032000Y-2667000D01*
X-2222500Y-2857500D02*
X-2222500Y-3175000D01*
D11*
X+254000Y+1778000D02*
X+254000Y-952500D01*
X+381000Y+1841500D02*
X+508000Y+1841500D01*
X+571500Y+1778000D01*
X+571500Y+1651000D01*
X+508000Y+1587500D01*
X+508000Y+965596D02*
X+571500Y+1029096D01*
X+571500Y+1524000D01*
X+508000Y+1587500D01*
X+508000Y+1520000D02*
X+508000Y+1587500D01*
X+508000Y+965596D02*
X+508000Y-635000D01*
X+381000Y+1841500D02*
X+381000Y+2222500D01*
D10*
X+508000Y+1520000D02*
X+533495Y+1494505D01*
X+533495Y+1388203D01*
X+522808Y+1388203D01*
X+508000Y+1373395D01*
X+508000Y+965596D02*
X+473544Y+1000052D01*
X+473544Y+1133544D01*
X+490000Y+1150000D01*
X+508000Y+1150000D01*
D11*
X-381000Y+3746500D02*
X-381000Y+825500D01*
X+0Y-3365500D02*
X+0Y-317500D01*
X+63500Y-254000D01*
X-1714500Y+2667000D02*
X-2476500Y+2667000D01*
X-2550000Y+2593500D01*
X-2550000Y+1895000D01*
X-2603500Y+1841500D01*
X-3556000Y+1841500D01*
X-3619500Y+1778000D01*
X-3619500Y+1688500D01*
X-3556000Y+1625000D01*
X-3236000Y+1625000D01*
X-1670000Y+3560000D02*
X-1629110Y+3519110D01*
X-1629110Y+3511038D01*
X-1629110Y+2752390D01*
X-1651000Y+2730500D01*
X-1714500Y+2667000D02*
X-1651000Y+2730500D01*
X+2159000Y+2303124D02*
X+2222500Y+2239624D01*
X+2222500Y+1651000D01*
X+2159000Y+2303124D02*
X+2159000Y+2603500D01*
D10*
X+950000Y+2300000D02*
X+2155876Y+2300000D01*
X+2159000Y+2303124D01*
D12*
X-635000Y+2349500D02*
X-640000Y+2344500D01*
X-640000Y+1630000D01*
D13*
X+1749240Y-3880000D02*
X+1749240Y-4149240D01*
X+1990000Y-4390000D01*
X+3738000Y-4390000D01*
X+4000500Y-4127500D01*
X+4000500Y-2729500D01*
X+4500000Y-2230000D01*
D11*
X-952500Y-190500D02*
X-946754Y-60140D01*
X-889000Y-254000D02*
X-952500Y-190500D01*
D10*
X-930000Y+320000D02*
X-907462Y+297462D01*
X-907462Y-20848D01*
X-946754Y-60140D01*
X-952500Y-190500D02*
X-952500Y-65886D01*
X-946754Y-60140D01*
X-1206500Y+444500D02*
X-1206500Y-270000D01*
X-1190000Y-440000D02*
X-1206500Y-423500D01*
X-1206500Y-317500D01*
X-1206500Y-270000D02*
X-1206500Y-317500D01*
D11*
X-1841500Y+4000500D02*
X-3111500Y+4000500D01*
X-3236000Y+4125000D01*
D10*
X-317500Y+4572000D02*
X-309500Y+4580000D01*
X+3548000Y+4580000D01*
X+3625000Y+4503000D01*
X+3625000Y+3673000D01*
D11*
X+1397000Y+2413000D02*
X+1270000Y+2540000D01*
X+952500Y+2540000D01*
D10*
X-254000Y+2476500D02*
X-254000Y+406000D01*
X-310000Y+350000D01*
D11*
X-1600000Y+2349500D02*
X-1854000Y+2095500D01*
X-2095500Y+2095500D01*
X-2349500Y+2286000D02*
X-2349500Y+2095500D01*
X-2095500Y+2095500D01*
X-2095500Y+2286000D02*
X-2095500Y+2095500D01*
X-2349500Y+2349500D02*
X-2349500Y+2286000D01*
X-2349500Y+2349500D02*
X-2349500Y+2374900D01*
X-2387600Y+2413000D01*
X-2510000Y+2413000D01*
X-2510000Y+2180000D01*
D10*
X-2470000Y+2095500D02*
X-2476500Y+2146500D01*
X-2510000Y+2180000D01*
D11*
X-1600000Y+2349500D02*
X-1590000Y+2349500D01*
X-1587500Y+2349500D01*
D10*
X-1524000Y+1651000D02*
X-1524000Y+2035012D01*
X-1479559Y+2079453D01*
X-1479559Y+2125559D01*
X-1524000Y+2170000D01*
X-1524000Y+2286000D01*
X-1587500Y+2349500D01*
D11*
X-1587500Y+4254500D02*
X-1600000Y+4254500D01*
X-1600000Y+2349500D01*
X-1270000Y+4572000D02*
X-2000000Y+4572000D01*
X-2667000Y+4572000D02*
X-2000000Y+4572000D01*
X-1397000Y-1841500D02*
X-1397000Y-1968500D01*
X+1980000Y+4950000D02*
X+2167500Y+4762500D01*
X+3683000Y+4762500D01*
X+3746500Y+4699000D01*
X+3746500Y+3619500D01*
X+3683000Y+3556000D01*
X+3556000Y+3556000D01*
X+3429000Y+3429000D01*
X+3302000Y+3429000D01*
X+3238500Y+3492500D01*
X+3238500Y+3556000D01*
X-1120239Y-2484738D02*
X-1120239Y-3226239D01*
X-1714000Y-3820000D01*
X+880000Y+4950000D02*
X-828500Y+4950000D01*
X-1143000Y+4635500D01*
X+2476500Y+508000D02*
X+2959000Y+508000D01*
X+3371000Y+96000D01*
X+2286000Y+3111500D02*
X+2730500Y+3556000D01*
X+3238500Y+3556000D01*
X-1397000Y-1841500D02*
X-1524000Y-1714500D01*
X-1524000Y-952500D01*
X-3236000Y+3829000D02*
X-3365500Y+3958500D01*
X-3365500Y+4572000D01*
X-3238500Y+4699000D01*
X+1350000Y+1630000D02*
X+910000Y+1630000D01*
X+762000Y+1778000D01*
X+2159000Y+1587500D02*
X+2286000Y+1460500D01*
X+2286000Y+635000D01*
X-3238500Y+4699000D02*
X-3111500Y+4826000D01*
X-3111500Y+5023500D01*
X-3238000Y+5150000D01*
X-2720000Y+4690000D02*
X-2720000Y+4572000D01*
X-2783500Y+4508500D01*
X-3048000Y+4508500D01*
X-3238500Y+4699000D01*
X+3238500Y+3556000D02*
X+3238500Y+3667500D01*
X+3371000Y+3800000D01*
X+1350000Y+1630000D02*
X+2116500Y+1630000D01*
X+2159000Y+1587500D01*
X+2310000Y-650000D02*
X+2310000Y+341500D01*
X+2476500Y+508000D01*
X-3230988Y+2875990D02*
X-3111500Y+2756502D01*
X-3111500Y+2603500D01*
X-1270375Y-1968500D02*
X-1397000Y-1968500D01*
X-1536000Y-270000D02*
X-1536000Y-762000D01*
X-1524000Y-774000D01*
X-1524000Y-952500D01*
X-1143000Y+4635500D02*
X-1206500Y+4572000D01*
X-1270000Y+4572000D01*
X-2720000Y+4690000D02*
X-2667000Y+4690000D01*
X-2667000Y+4572000D01*
X-3236000Y+3829000D02*
X-3236000Y+3175000D01*
X-3230988Y+3169988D01*
X-3230988Y+2875990D01*
X-1905000Y+2730500D02*
X-2984500Y+2730500D01*
X-3111500Y+2603500D01*
X+2286000Y+3111500D02*
X+2286000Y+2413000D01*
X+2413000Y+2286000D01*
X-2000000Y+4690000D02*
X-2000000Y+4572000D01*
X+2159000Y+1587500D02*
X+2349500Y+1587500D01*
X+2413000Y+1651000D01*
X+2413000Y+2286000D01*
X-2000000Y+4690000D02*
X-2000001Y+4690000D01*
X-2000000Y+5030000D01*
X-2000001Y+5030000D01*
X+317500Y-2794000D02*
X+317500Y-3429000D01*
X+3371000Y+1950000D02*
X+3035000Y+2286000D01*
X+2413000Y+2286000D01*
X-2720000Y+4690000D02*
X-2720000Y+5030000D01*
X-2720000Y+5029999D01*
X+2476500Y+508000D02*
X+2413000Y+508000D01*
X+2286000Y+635000D01*
X+2476500Y+508000D02*
X+2476500Y+1016000D01*
X-1536000Y-270000D02*
X-1397000Y-131000D01*
X-1397000Y+0D01*
X-3810000Y+1651000D02*
X-3111500Y+2349500D01*
X-3111500Y+2603500D01*
X+2286000Y+635000D02*
X+2159000Y+508000D01*
X+1841500Y+508000D01*
D10*
X+762000Y+1778000D02*
X+944075Y+1778000D01*
X+1007575Y+1841500D01*
X+972423Y+1876652D01*
X+876918Y+1876652D01*
X+841766Y+1841500D01*
X+830000Y+1841500D01*
D13*
X-4600000Y-1050000D02*
X-4870000Y-780000D01*
X-4870000Y-270000D01*
X-4600000Y+0D01*
D14*
X-4600000Y-1050000D02*
X-4330000Y-1320000D01*
X-4330000Y-1726500D01*
X-4572000Y-1968500D01*
X-4572000Y-2348380D01*
X-4300000Y-2620380D01*
D13*
X-4600000Y+0D02*
X-4600000Y+980000D01*
X-3929000Y+1651000D01*
X-3810000Y+1651000D01*
D10*
X-3236000Y+1329000D02*
X-3236000Y+1426000D01*
X-3360000Y+1550000D01*
X-3709000Y+1550000D01*
X-3810000Y+1651000D01*
D13*
X-4064000Y-3619500D02*
X-4064000Y-3794000D01*
X-4110000Y-3850000D01*
X-4250000Y-3850000D01*
X-4300000Y-3760000D01*
X-4300000Y-3650380D01*
X-4300000Y-2620380D02*
X-4040000Y-2880380D01*
X-4040000Y-3595500D01*
X-4064000Y-3619500D01*
D10*
X-1267913Y-1895272D02*
X-1270375Y-1895272D01*
X-1270375Y-1968500D01*
X-1120239Y-2484738D02*
X-1270375Y-2334602D01*
X-1270375Y-1968500D01*
D11*
X+254000Y+2286000D02*
X+254000Y+2794000D01*
X-2440057Y+2290000D02*
X-2407780Y+2257723D01*
X-2407780Y+2140000D01*
X-2389331Y+2121551D01*
X-2389331Y+2055669D01*
X-2389331Y+2008331D01*
X-2349500Y+1968500D01*
X-1714500Y+1968500D01*
X-1587500Y+2095500D02*
X-1714500Y+1968500D01*
X-635000Y+1079500D02*
X-698500Y+1143000D01*
X-508000Y+1079500D02*
X-508000Y+2984500D01*
X-635000Y+1079500D02*
X-508000Y+1079500D01*
X-635000Y+410000D02*
X-571500Y+346500D01*
X-571500Y-1460500D01*
X-635000Y-1524000D01*
D10*
X-635000Y+1079500D02*
X-635000Y+1016000D01*
X-635000Y+410000D02*
X-635000Y+1016000D01*
D11*
X-2349500Y+1206500D02*
X-3365500Y+1206500D01*
X-3480000Y+1321000D01*
X-3480000Y+1430000D01*
X+127000Y+3111500D02*
X+127000Y+1714500D01*
X+127000Y+1587500D02*
X+127000Y+1714500D01*
X+540000Y+3110000D02*
X+317500Y+2921000D01*
X+317500Y+2850000D01*
X+324613Y+2850000D01*
X+350280Y+2824333D01*
X+350280Y+2760878D01*
X+317500Y+2728098D01*
X+317500Y+1587500D01*
X+444500Y+1460500D02*
X+317500Y+1587500D01*
X-635000Y-1143000D02*
X-635000Y-163500D01*
X-698500Y-100000D01*
X-698500Y+317500D02*
X-698500Y+90000D01*
X-698500Y-100000D02*
X-698500Y-254000D01*
X-825500Y-381000D01*
X-952500Y-381000D01*
X-1016000Y-317500D01*
X-1016000Y+0D01*
D10*
X-698500Y+90000D02*
X-650728Y+42228D01*
X-650728Y+29528D01*
X-650728Y-45820D01*
X-698500Y-93592D01*
X-698500Y-100000D01*
D11*
X+190500Y+2984500D02*
X+190500Y+1079500D01*
X+63500Y+3619500D02*
X+63500Y+1016000D01*
X+127000Y+952500D01*
X+127000Y-3619500D01*
X+167000Y-3659500D01*
X+167000Y-4127500D01*
X+304000Y-4264500D01*
X+304000Y-4450000D01*
X+63500Y+4381500D02*
X-97470Y+4220530D01*
X-97470Y+1270000D01*
X-65704Y+1238234D01*
X-65704Y-2603500D01*
X-374511Y-2912307D01*
X-374511Y-3429000D01*
X-492856Y-3547345D01*
X-1333500Y-3547345D01*
X-1397000Y-3610845D01*
X-1397000Y-4508500D01*
X-1304580Y-4600920D01*
X+407080Y-4600920D01*
X+558000Y-4450000D01*
X+2750000Y-3880000D02*
X+2750000Y-1930000D01*
X+3050000Y-1630000D01*
D14*
X+2249620Y-3880000D02*
X+2499620Y-4130000D01*
X+2918500Y-4130000D01*
X+3050000Y-3998500D01*
X+3050000Y-2830000D01*
D11*
X+2032000Y-3175000D02*
X+1270000Y-3175000D01*
X+1206500Y-3111500D01*
X+1206500Y-1587500D01*
X+1206500Y-889000D02*
X+1206500Y-1587500D01*
X+1206500Y-889000D02*
X+1270000Y-825500D01*
X+1270000Y-508000D01*
X+1714500Y-3238500D02*
X+1841500Y-3238500D01*
X+2159000Y-3556000D01*
X+1714500Y-3238500D02*
X+762000Y-3238500D01*
X+688090Y-3164590D01*
X+688090Y-1587500D01*
X+624590Y-1524000D01*
X+317500Y-1524000D01*
D14*
X+2159000Y-3556000D02*
X+2000000Y-3715000D01*
X+2000000Y-4070000D01*
X+2170000Y-4240000D01*
X+3440000Y-4240000D01*
X+3800000Y-3880000D01*
D11*
X-190500Y+4064000D02*
X-127000Y+4000500D01*
X-127000Y+952500D01*
X-95114Y+920614D01*
X-95114Y-2222500D01*
X-730250Y-2857636D01*
X-730250Y-3048000D01*
X-762000Y-3079750D01*
X-762000Y-3302000D01*
X-3746000Y+5150000D02*
X-3746000Y+2952002D01*
X-3474988Y+2680990D01*
X+254000Y+4254500D02*
X+1143000Y+4254500D01*
X+1968500Y+3429000D01*
X-4000000Y+5150000D02*
X-4000000Y+2667000D01*
X-3912990Y+2579990D01*
X-3230988Y+2579990D01*
X+1905000Y+3175000D02*
X+1968500Y+3111500D01*
X+1968500Y+2970000D01*
X+1905000Y+3175000D02*
X+1930400Y+3175000D01*
X+1968500Y+3213100D01*
X+1968500Y+3238500D01*
D10*
X+230000Y+3910000D02*
X+190500Y+3949500D01*
X+190500Y+4076209D01*
X+220000Y+4360000D02*
X+174144Y+4314144D01*
X+174144Y+4219905D01*
X+190500Y+4203549D01*
X+190500Y+4076209D01*
X+1130791Y+4076209D01*
X+1968500Y+3238500D01*
X+1968500Y+2794000D02*
X+1938498Y+2824002D01*
X+1938498Y+2939566D01*
X+1938498Y+2939998D01*
X+1968500Y+2970000D01*
D11*
X-4000000Y+5150000D02*
X-3854360Y+5295640D01*
X-2286000Y+5295640D01*
X-2197360Y+5207000D01*
X+0Y+5207000D02*
X-2197360Y+5207000D01*
X+444500Y-1397000D02*
X+635000Y-1397000D01*
X+698500Y-1333500D01*
X+698500Y+2476500D01*
X+444500Y-1587500D02*
X+444500Y-3175000D01*
X+1016000Y-3746500D01*
X+1016000Y-4246000D01*
X+812000Y-4450000D01*
X+190500Y+3429000D02*
X+1016000Y+3429000D01*
X+1714500Y+2730500D01*
X+2095500Y+2730500D01*
X+2159000Y+2794000D01*
X+2159000Y+3937000D01*
X+2222500Y+4000500D01*
X+3429000Y+4000500D01*
X+3492500Y+3937000D01*
X+3492500Y+3746500D01*
X+3429000Y+3683000D01*
X+3371000Y+3683000D01*
X+3371000Y+3546000D01*
X+3371000Y+3545999D01*
X-190500Y+2430750D02*
X-190500Y+254000D01*
X-190500Y+2530000D02*
X-190500Y+2857500D01*
X-254000Y+2921000D01*
X-190500Y+2522587D02*
X-172396Y+2504483D01*
X-172396Y+2448854D01*
X-190500Y+2430750D01*
X-190500Y+2522587D02*
X-190500Y+2530000D01*
X+762000Y+3683000D02*
X+190500Y+3683000D01*
X+127000Y+3619500D01*
X+127000Y+3238500D01*
X+190500Y+3175000D01*
X+571500Y+3175000D01*
X+635000Y+3111500D01*
X+635000Y-952500D01*
X+254000Y-1333500D01*
X+254000Y-3619500D01*
X+317500Y-3683000D01*
X+627361Y-3683000D01*
X+802000Y-3857639D01*
X+2095500Y+3810000D02*
X+1460500Y+4445000D01*
X-1651000Y+4445000D01*
X-1714500Y+4381500D01*
X-1714500Y+3937000D01*
X-1778000Y+4381500D02*
X-1778000Y+4000500D01*
X-1714500Y+3937000D01*
X-1778000Y+4381500D02*
X-2095500Y+4381500D01*
X-2222500Y+4508500D01*
X+3625000Y-285000D02*
X+4762500Y-285000D01*
X+4826000Y-348500D01*
X+4826000Y-2304000D01*
X+4300000Y-2830000D01*
X+3625000Y+1569000D02*
X+3023750Y+967750D01*
X+2682250Y+967750D01*
X-1905000Y-1841500D02*
X-1778000Y-1841500D01*
X-1714500Y-1778000D01*
X-1714500Y-1651000D01*
X-1016000Y+190500D02*
X-1016000Y+381000D01*
X-918500Y+478500D01*
X+1397000Y+952500D02*
X+1397000Y+1397000D01*
X+1333500Y+1460500D01*
X+889000Y+1460500D01*
X-3485012Y+4229010D02*
X-3485012Y+4381500D01*
X-3492000Y+4388488D01*
X-3492000Y+5150000D01*
X-3485012Y+4229010D02*
X-3619500Y+4094522D01*
X-3619500Y+3119500D01*
X-3480000Y+2980000D01*
X-1587500Y-1333500D02*
X-1714500Y-1460500D01*
X-1714500Y-1651000D01*
X+3625000Y+1569000D02*
X+3810000Y+1384000D01*
X+3810000Y-100000D01*
X+3625000Y-285000D01*
X+3625000Y+3419000D02*
X+3810000Y+3234000D01*
X+3810000Y+1754000D01*
X+3625000Y+1569000D01*
X-1587500Y-1333500D02*
X-1587500Y-1143000D01*
X-1968500Y-762000D01*
X-1968500Y-127000D01*
X-1905000Y-63500D01*
X-1524000Y-63500D01*
D10*
X-1998208Y+1834760D02*
X-1671270Y+1507822D01*
X-1002178Y+1507822D01*
X-918500Y+478500D02*
X-889000Y+508000D01*
X-889000Y+790000D01*
X-900000Y+890000D02*
X-889000Y+879000D01*
X-889000Y+825500D01*
X-889000Y+790000D02*
X-889000Y+825500D01*
X-900000Y+890000D02*
X-900000Y+1405644D01*
X-1002178Y+1507822D01*
D11*
X-762000Y+0D02*
X-860000Y+98000D01*
X-860000Y+381000D01*
D10*
X-918500Y+478500D02*
X-918500Y+477181D01*
X-860000Y+418681D01*
X-860000Y+381000D01*
X-1905000Y-1841500D02*
X-1905000Y-2286000D01*
X-2190000Y-2430000D01*
X-2286000Y+2159000D02*
X-2286000Y+2318919D01*
X-2276784Y+2328135D01*
X-2276784Y+2533216D01*
X-2210000Y+2600000D01*
D11*
X-444500Y+4000500D02*
X-444500Y-1841500D01*
X-381000Y-1905000D01*
X-254000Y-1905000D01*
X-1143000Y-1968500D02*
X-1117600Y-1968500D01*
X-1079500Y-2006600D01*
X-1079500Y-2032000D01*
X-1016000Y-1778000D02*
X-1016000Y-1968500D01*
X-1079500Y-2032000D01*
X-1841500Y+127000D02*
X-2413000Y+698500D01*
X-3429000Y+698500D01*
X-1714500Y+127000D02*
X-1841500Y+127000D01*
X-889000Y-2730500D02*
X-889000Y-2794000D01*
X-825500Y-2857500D01*
D10*
X-1350000Y-380000D02*
X-1350000Y-76852D01*
X-1440000Y+63500D02*
X-1524000Y+63500D01*
X-1587500Y+0D01*
X-1651000Y+0D01*
X-1714500Y+63500D01*
X-1714500Y+127000D01*
X-1350000Y-76852D02*
X-1324429Y-51281D01*
X-1324429Y+60487D01*
X-1351421Y+87479D01*
X-1375634Y+87479D01*
X-1400640Y+87479D01*
X-1424619Y+63500D01*
X-1440000Y+63500D02*
X-1424619Y+63500D01*
X-1350000Y-520918D02*
X-1350000Y-512158D01*
X-1320272Y-482430D01*
X-1320272Y-415839D01*
X-1350000Y-386111D01*
X-1350000Y-380000D02*
X-1350000Y-386111D01*
X-1016000Y-1778000D02*
X-1350000Y-1444000D01*
X-1350000Y-1397000D01*
X-1350000Y-520918D02*
X-1321220Y-549698D01*
X-1321220Y-550589D01*
X-1321220Y-615420D01*
X-1350000Y-644200D01*
D11*
X-889000Y-2730500D02*
X-889000Y-2591000D01*
X-1160000Y-2320000D01*
X-1160000Y-1985500D01*
X-1143000Y-1968500D01*
D10*
X-1350000Y-1397000D02*
X-1350000Y-644200D01*
D11*
X+317500Y-762000D02*
X+317500Y-1016000D01*
X+190500Y-1143000D01*
X+190500Y-1810000D01*
X-190500Y-190500D02*
X-127000Y-127000D01*
X-127000Y+127000D01*
X-317500Y+127000D01*
X-381000Y+63500D01*
X-381000Y-1714500D01*
X-2794000Y+3302000D02*
X-2921000Y+3175000D01*
X-2921000Y+2794000D01*
X-3236000Y+1329000D02*
X-2345000Y+1329000D01*
X-2290000Y+1330000D01*
X-762000Y+1730000D02*
X-788015Y+1703985D01*
X-788015Y+1698053D01*
X-788015Y+1556015D01*
X-762000Y+1530000D01*
X-698500Y+317500D02*
X-762000Y+381000D01*
X-762000Y+1530000D01*
X-762000Y+1730000D02*
X-762000Y+3492500D01*
X+1143000Y-1714500D02*
X+1143000Y-1079500D01*
X+63500Y-3480000D02*
X+63500Y-698500D01*
X+50000Y-4450000D02*
X-190500Y-4209500D01*
X-190500Y-3011705D01*
X-36295Y-2857500D01*
X-36295Y+1870021D01*
D10*
X-36295Y+2506295D01*
X-30000Y+2560000D01*
D11*
X+1079500Y-2159000D02*
X+1079500Y+0D01*
D16*
X-698500Y-1333500D03*
X-3619500Y-254000D03*
X+230000Y+3810000D03*
X+550000Y+3810000D03*
X+540000Y+4510000D03*
X-1841500Y+4508500D03*
X-952500Y-2159000D03*
X-190500Y+63500D03*
X+1841500Y+4699000D03*
X-1905000Y+5270500D03*
X-2286000Y-1333500D03*
X-3873500Y-3429000D03*
X+317500Y+1016000D03*
X+1270000Y-1016000D03*
X+1270000Y-2349500D03*
X-1968500Y+762000D03*
X-508000Y-1905000D03*
X-762000Y-825500D03*
X+1079500Y+2413000D03*
X+2032000Y+1778000D03*
X+889000Y+2413000D03*
X-1530000Y+2857500D03*
X-1524000Y+4381500D03*
X-1524000Y+2413000D03*
X-1397000Y-444500D03*
X-1397000Y-571500D03*
X-698500Y-2032000D03*
X-2730500Y-2349500D03*
X-889000Y-3238500D03*
X+1460500Y+1270000D03*
X+2286000Y-3365500D03*
X-2159000Y-3175000D03*
X-1460500Y-2413000D03*
X-3556000Y-381000D03*
X-3556000Y-2730500D03*
X-1587500Y-2413000D03*
X-3619500Y-3492500D03*
X-2222500Y-2857500D03*
X+254000Y-952500D03*
X+254000Y+1778000D03*
X+508000Y-635000D03*
X+381000Y+2222500D03*
X+381000Y+1841500D03*
X-381000Y+825500D03*
X-381000Y+3746500D03*
X+63500Y-254000D03*
X+0Y-3365500D03*
X-1670000Y+3560000D03*
X+2222500Y+1651000D03*
X+2159000Y+2603500D03*
X-635000Y+2349500D03*
X+950000Y+2300000D03*
X-930000Y+320000D03*
X-889000Y-254000D03*
X-1190000Y-440000D03*
X-1206500Y+444500D03*
X-1841500Y+4000500D03*
X-317500Y+4572000D03*
X+952500Y+2540000D03*
X+1397000Y+2413000D03*
X-310000Y+350000D03*
X-254000Y+2476500D03*
X-2095500Y+2286000D03*
X-2470000Y+2095500D03*
X-1524000Y+1651000D03*
X-1587500Y+4254500D03*
X+2476500Y+1016000D03*
X-1397000Y+0D03*
X+1841500Y+508000D03*
X+317500Y-3429000D03*
X-1143000Y+4635500D03*
X+762000Y+1778000D03*
X-1524000Y-952500D03*
X-4064000Y-3619500D03*
X-1905000Y+2730500D03*
X-1120239Y-2484738D03*
X-1267913Y-1895272D03*
X-1397000Y-1841500D03*
X+254000Y+2794000D03*
X+254000Y+2286000D03*
X-2440057Y+2290000D03*
X-1587500Y+2095500D03*
X-508000Y+2984500D03*
X-698500Y+1143000D03*
X-635000Y-1524000D03*
X-635000Y+410000D03*
X-2349500Y+1206500D03*
X+127000Y+1714500D03*
X+127000Y+3111500D03*
X+127000Y+1587500D03*
X+540000Y+3110000D03*
X+444500Y+1460500D03*
X-762000Y+3492500D03*
X-1016000Y+0D03*
X-698500Y+317500D03*
X-635000Y-1143000D03*
X+190500Y+1079500D03*
X+190500Y+2984500D03*
X+63500Y+3619500D03*
X+63500Y+4381500D03*
X+1206500Y-1587500D03*
X+1270000Y-508000D03*
X+2032000Y-3175000D03*
X+317500Y-1524000D03*
X+1714500Y-3238500D03*
X-762000Y-3302000D03*
X-190500Y+4064000D03*
X+1968500Y+3429000D03*
X+254000Y+4254500D03*
X+1968500Y+2794000D03*
X+0Y+5207000D03*
X+220000Y+4360000D03*
X+230000Y+3910000D03*
X+1905000Y+3175000D03*
X+698500Y+2476500D03*
X+444500Y-1397000D03*
X+444500Y-1587500D03*
X+190500Y+3429000D03*
X-190500Y+254000D03*
X-254000Y+2921000D03*
X+762000Y+3683000D03*
X-1714500Y+3937000D03*
X-2222500Y+4508500D03*
X+2095500Y+3810000D03*
X+889000Y+1460500D03*
X-1714500Y-1651000D03*
X-1524000Y-63500D03*
X-1587500Y-1333500D03*
X+2682250Y+967750D03*
X-1998208Y+1834760D03*
X-900000Y+890000D03*
X-762000Y+0D03*
X-2190000Y-2430000D03*
X-2210000Y+2600000D03*
X-2286000Y+2159000D03*
X-1016000Y+190500D03*
X+1397000Y+952500D03*
X-254000Y-1905000D03*
X-444500Y+4000500D03*
X-1079500Y-2032000D03*
X-3429000Y+698500D03*
X-1841500Y+127000D03*
X-825500Y-2857500D03*
X-1016000Y-1778000D03*
X+317500Y-2794000D03*
X+317500Y-762000D03*
X+190500Y-1810000D03*
X-190500Y-190500D03*
X-381000Y-1714500D03*
X+2286000Y+3111500D03*
X-2794000Y+3302000D03*
X-2921000Y+2794000D03*
X-2730500Y-508000D03*
X-2290000Y+1330000D03*
X+1143000Y-1714500D03*
X+1143000Y-1079500D03*
X+63500Y-3480000D03*
X+63500Y-698500D03*
X-30000Y+2560000D03*
X+1079500Y-2159000D03*
X+1079500Y+0D03*
D17*
X-2009139Y+5275579D02*
X-2168955Y+5275579D01*
X-2174636Y+5281260D01*
X-2009139Y+5281260D01*
X-2009139Y+5275579D01*
X+4921260Y+5199555D02*
X+4839555Y+5281260D01*
X+4921260Y+5281260D01*
X+4921260Y+5199555D01*
X-4911260Y+5139555D02*
X-4911260Y+5281260D01*
X-4769555Y+5281260D01*
X-4911260Y+5139555D01*
X-4167639Y+4982361D02*
X-4068579Y+4982361D01*
X-4068579Y+4553961D01*
X-4079237Y+4564619D01*
X-4190759Y+4564619D01*
X-4269617Y+4485761D01*
X-4269617Y+4374239D01*
X-4190759Y+4295381D01*
X-4079237Y+4295381D01*
X-4068579Y+4306039D01*
X-4068579Y+3653963D01*
X-4079237Y+3664621D01*
X-4190759Y+3664621D01*
X-4269617Y+3585763D01*
X-4269617Y+3474241D01*
X-4190759Y+3395383D01*
X-4079237Y+3395383D01*
X-4068579Y+3406041D01*
X-4068579Y+3309963D01*
X-4074225Y+3315609D01*
X-4185747Y+3315609D01*
X-4264605Y+3236751D01*
X-4264605Y+3125229D01*
X-4185747Y+3046371D01*
X-4074225Y+3046371D01*
X-4068579Y+3052017D01*
X-4068579Y+2638595D01*
X-3941395Y+2511411D01*
X-3354827Y+2511411D01*
X-3354827Y+2456151D01*
X-3180079Y+2456151D01*
X-3180079Y+2377905D01*
X-3816815Y+1741169D01*
X-3966349Y+1741169D01*
X-4690169Y+1017349D01*
X-4690169Y+218439D01*
X-4690480Y+218439D01*
X-4818439Y+90480D01*
X-4818439Y-90480D01*
X-4818218Y-90700D01*
X-4911260Y-183742D01*
X-4911260Y+4860445D01*
X-4767396Y+4716581D01*
X-4532604Y+4716581D01*
X-4366581Y+4882604D01*
X-4366581Y+5117396D01*
X-4530445Y+5281260D01*
X-4167639Y+5281260D01*
X-4167639Y+4982361D01*
X-4185747Y+2415611D02*
X-4074225Y+2415611D01*
X-3995367Y+2336753D01*
X-3995367Y+2225231D01*
X-4074225Y+2146373D01*
X-4185747Y+2146373D01*
X-4264605Y+2225231D01*
X-4264605Y+2336753D01*
X-4185747Y+2415611D01*
X-4190759Y+2064619D02*
X-4079237Y+2064619D01*
X-4000379Y+1985761D01*
X-4000379Y+1874239D01*
X-4079237Y+1795381D01*
X-4190759Y+1795381D01*
X-4269617Y+1874239D01*
X-4269617Y+1985761D01*
X-4190759Y+2064619D01*
X-4818218Y-959300D02*
X-4818439Y-959520D01*
X-4818439Y-1140480D01*
X-4690480Y-1268439D01*
X-4518059Y-1268439D01*
X-4426519Y-1359979D01*
X-4426519Y-1414942D01*
X-4509520Y-1331941D01*
X-4690480Y-1331941D01*
X-4818439Y-1459900D01*
X-4818439Y-1640860D01*
X-4690480Y-1768819D01*
X-4509520Y-1768819D01*
X-4426519Y-1685818D01*
X-4426519Y-1686521D01*
X-4668519Y-1928521D01*
X-4668519Y-2388359D01*
X-4518439Y-2538439D01*
X-4518439Y-2710860D01*
X-4390480Y-2838819D01*
X-4209520Y-2838819D01*
X-4209300Y-2838598D01*
X-4130169Y-2917729D01*
X-4130169Y-3010912D01*
X-4209520Y-2931561D01*
X-4390480Y-2931561D01*
X-4518439Y-3059520D01*
X-4518439Y-3240480D01*
X-4390480Y-3368439D01*
X-4209520Y-3368439D01*
X-4130169Y-3289088D01*
X-4130169Y-3511292D01*
X-4209520Y-3431941D01*
X-4390480Y-3431941D01*
X-4518439Y-3559900D01*
X-4518439Y-3740860D01*
X-4390480Y-3868819D01*
X-4342693Y-3868819D01*
X-4316893Y-3915260D01*
X-4274559Y-3940169D01*
X-4089765Y-3940169D01*
X-4053171Y-3922872D01*
X-3973831Y-3826284D01*
X-3973831Y-3676606D01*
X-3959861Y-3662636D01*
X-3959861Y-3642879D01*
X-3949831Y-3632849D01*
X-3949831Y-3499944D01*
X-3916636Y-3533139D01*
X-3891307Y-3533139D01*
X-3903659Y-3545491D01*
X-3903659Y-3790509D01*
X-3860509Y-3833659D01*
X-2268991Y-3833659D01*
X-2148841Y-3713509D01*
X-2148841Y-3279139D01*
X-2115864Y-3279139D01*
X-2054861Y-3218136D01*
X-2054861Y-3167845D01*
X-1391921Y-2504905D01*
X-1391921Y-2491696D01*
X-1356361Y-2456136D01*
X-1356361Y-2369864D01*
X-1417364Y-2308861D01*
X-1503636Y-2308861D01*
X-1524000Y-2329225D01*
X-1544364Y-2308861D01*
X-1630636Y-2308861D01*
X-1691639Y-2369864D01*
X-1691639Y-2412971D01*
X-1872009Y-2593341D01*
X-2062511Y-2593341D01*
X-2105659Y-2636489D01*
X-2105659Y-2636491D01*
X-2217421Y-2748253D01*
X-2217421Y-2534139D01*
X-2146864Y-2534139D01*
X-2085861Y-2473136D01*
X-2085861Y-2464883D01*
X-1853180Y-2342344D01*
X-1831341Y-2306841D01*
X-1831341Y-1910079D01*
X-1749595Y-1910079D01*
X-1645921Y-1806405D01*
X-1645921Y-1729696D01*
X-1610361Y-1694136D01*
X-1610361Y-1607864D01*
X-1645921Y-1572304D01*
X-1645921Y-1488905D01*
X-1594655Y-1437639D01*
X-1592579Y-1437639D01*
X-1592579Y-1742905D01*
X-1501139Y-1834345D01*
X-1501139Y-1884636D01*
X-1465579Y-1920196D01*
X-1465579Y-1996906D01*
X-1425406Y-2037079D01*
X-1344034Y-2037079D01*
X-1344034Y-2365111D01*
X-1224378Y-2484767D01*
X-1224378Y-2527874D01*
X-1188818Y-2563434D01*
X-1188818Y-3197834D01*
X-1608032Y-3617048D01*
X-1623520Y-3601561D01*
X-1804480Y-3601561D01*
X-1932439Y-3729520D01*
X-1932439Y-3910480D01*
X-1804480Y-4038439D01*
X-1623520Y-4038439D01*
X-1495561Y-3910480D01*
X-1495561Y-3729520D01*
X-1511048Y-3714032D01*
X-1465579Y-3668563D01*
X-1465579Y-4536905D01*
X-1441224Y-4561260D01*
X-4490445Y-4561260D01*
X-4356581Y-4427396D01*
X-4356581Y-4192604D01*
X-4522604Y-4026581D01*
X-4757396Y-4026581D01*
X-4911260Y-4180445D01*
X-4911260Y-866258D01*
X-4818218Y-959300D01*
X+4376581Y+5177396D02*
X+4376581Y+4942604D01*
X+4542604Y+4776581D01*
X+4777396Y+4776581D01*
X+4921260Y+4920445D01*
X+4921260Y-4561260D01*
X+4789555Y-4561260D01*
X+4913419Y-4437396D01*
X+4913419Y-4202604D01*
X+4747396Y-4036581D01*
X+4512604Y-4036581D01*
X+4346581Y-4202604D01*
X+4346581Y-4437396D01*
X+4470445Y-4561260D01*
X+1436131Y-4561260D01*
X+1453605Y-4543786D01*
X+1453605Y-3307079D01*
X+1635804Y-3307079D01*
X+1671364Y-3342639D01*
X+1757636Y-3342639D01*
X+1793196Y-3307079D01*
X+1813095Y-3307079D01*
X+2042259Y-3536243D01*
X+1903481Y-3675021D01*
X+1903481Y-3725322D01*
X+1839720Y-3661561D01*
X+1658760Y-3661561D01*
X+1530801Y-3789520D01*
X+1530801Y-3970480D01*
X+1658760Y-4098439D01*
X+1659071Y-4098439D01*
X+1659071Y-4186589D01*
X+1952651Y-4480169D01*
X+3775349Y-4480169D01*
X+4090669Y-4164849D01*
X+4090669Y-2766849D01*
X+4106961Y-2750557D01*
X+4106961Y-2909959D01*
X+4220041Y-3023039D01*
X+4379959Y-3023039D01*
X+4493039Y-2909959D01*
X+4493039Y-2750041D01*
X+4484991Y-2741993D01*
X+4894579Y-2332405D01*
X+4894579Y-320095D01*
X+4790905Y-216421D01*
X+3790563Y-216421D01*
X+3878579Y-128405D01*
X+3878579Y+1412405D01*
X+3773589Y+1517395D01*
X+3773589Y+1620605D01*
X+3878579Y+1725595D01*
X+3878579Y+3262405D01*
X+3773589Y+3367395D01*
X+3773589Y+3480548D01*
X+3739060Y+3515076D01*
X+3815079Y+3591095D01*
X+3815079Y+4727405D01*
X+3711405Y+4831079D01*
X+3170758Y+4831079D01*
X+3199199Y+4859520D01*
X+3199199Y+5040480D01*
X+3071240Y+5168439D01*
X+2890280Y+5168439D01*
X+2762321Y+5040480D01*
X+2762321Y+4859520D01*
X+2790762Y+4831079D01*
X+2670378Y+4831079D01*
X+2698819Y+4859520D01*
X+2698819Y+5040480D01*
X+2570860Y+5168439D01*
X+2389900Y+5168439D01*
X+2261941Y+5040480D01*
X+2261941Y+4859520D01*
X+2290382Y+4831079D01*
X+2195905Y+4831079D01*
X+2182952Y+4844032D01*
X+2198439Y+4859520D01*
X+2198439Y+5040480D01*
X+2070480Y+5168439D01*
X+1889520Y+5168439D01*
X+1761561Y+5040480D01*
X+1761561Y+4875923D01*
X+1721439Y+4916045D01*
X+1721439Y+5233545D01*
X+1673724Y+5281260D01*
X+4480445Y+5281260D01*
X+4376581Y+5177396D01*
X+4163733Y+4413409D02*
X+4356267Y+4413409D01*
X+4492409Y+4277267D01*
X+4492409Y+4084733D01*
X+4356267Y+3948591D01*
X+4163733Y+3948591D01*
X+4027591Y+4084733D01*
X+4027591Y+4277267D01*
X+4163733Y+4413409D01*
X+4163733Y+3270409D02*
X+4356267Y+3270409D01*
X+4492409Y+3134267D01*
X+4492409Y+2941733D01*
X+4356267Y+2805591D01*
X+4163733Y+2805591D01*
X+4027591Y+2941733D01*
X+4027591Y+3134267D01*
X+4163733Y+3270409D01*
X+4163733Y+2563409D02*
X+4356267Y+2563409D01*
X+4492409Y+2427267D01*
X+4492409Y+2234733D01*
X+4356267Y+2098591D01*
X+4163733Y+2098591D01*
X+4027591Y+2234733D01*
X+4027591Y+2427267D01*
X+4163733Y+2563409D01*
X+4163733Y+1420409D02*
X+4356267Y+1420409D01*
X+4492409Y+1284267D01*
X+4492409Y+1091733D01*
X+4356267Y+955591D01*
X+4163733Y+955591D01*
X+4027591Y+1091733D01*
X+4027591Y+1284267D01*
X+4163733Y+1420409D01*
X+4163733Y+709409D02*
X+4356267Y+709409D01*
X+4492409Y+573267D01*
X+4492409Y+380733D01*
X+4356267Y+244591D01*
X+4163733Y+244591D01*
X+4027591Y+380733D01*
X+4027591Y+573267D01*
X+4163733Y+709409D01*
X+4321639Y+5149438D02*
X+4321639Y+5010562D01*
X+4223438Y+4912361D01*
X+4084562Y+4912361D01*
X+4027000Y+4969923D01*
X+3969438Y+4912361D01*
X+3830562Y+4912361D01*
X+3773000Y+4969923D01*
X+3715438Y+4912361D01*
X+3576562Y+4912361D01*
X+3478361Y+5010562D01*
X+3478361Y+5149438D01*
X+3576562Y+5247639D01*
X+3715438Y+5247639D01*
X+3773000Y+5190077D01*
X+3830562Y+5247639D01*
X+3969438Y+5247639D01*
X+4027000Y+5190077D01*
X+4084562Y+5247639D01*
X+4223438Y+5247639D01*
X+4321639Y+5149438D01*
X-4789555Y-4561260D02*
X-4911260Y-4561260D01*
X-4911260Y-4439555D01*
X-4789555Y-4561260D01*
X+1584281Y+5176735D02*
X+1584281Y+5055018D01*
X+1470860Y+5168439D01*
X+1289900Y+5168439D01*
X+1161941Y+5040480D01*
X+1161941Y+4859520D01*
X+1289900Y+4731561D01*
X+1470860Y+4731561D01*
X+1591408Y+4852108D01*
X+1737361Y+4706155D01*
X+1737361Y+4655864D01*
X+1739566Y+4653659D01*
X-251884Y+4653659D01*
X-274364Y+4676139D01*
X-360636Y+4676139D01*
X-421639Y+4615136D01*
X-421639Y+4577972D01*
X-1053650Y+4577575D01*
X-1038861Y+4592364D01*
X-1038861Y+4642655D01*
X-800095Y+4881421D01*
X+661561Y+4881421D01*
X+661561Y+4859520D01*
X+789520Y+4731561D01*
X+970480Y+4731561D01*
X+1098439Y+4859520D01*
X+1098439Y+5040480D01*
X+970480Y+5168439D01*
X+789520Y+5168439D01*
X+661561Y+5040480D01*
X+661561Y+5018579D01*
X-856905Y+5018579D01*
X-1135845Y+4739639D01*
X-1186136Y+4739639D01*
X-1247139Y+4678636D01*
X-1247139Y+4640579D01*
X-1881461Y+4640579D01*
X-1881461Y+4848539D01*
X-1931422Y+4848539D01*
X-1931422Y+4871461D01*
X-1881461Y+4871461D01*
X-1881461Y+5138421D01*
X-78696Y+5138421D01*
X-43136Y+5102861D01*
X+43136Y+5102861D01*
X+104139Y+5163864D01*
X+104139Y+5211421D01*
X+1549595Y+5211421D01*
X+1584281Y+5176735D01*
X-2265939Y+5178595D02*
X-2265939Y+5178594D01*
X-2225766Y+5138421D01*
X-2118539Y+5138421D01*
X-2118539Y+4928579D01*
X-2204975Y+4928579D01*
X-2268579Y+4864975D01*
X-2268579Y+4775025D01*
X-2204975Y+4711421D01*
X-2118539Y+4711421D01*
X-2118539Y+4640579D01*
X-2598421Y+4640579D01*
X-2598421Y+4711421D01*
X-2515025Y+4711421D01*
X-2451421Y+4775025D01*
X-2451421Y+4864975D01*
X-2515025Y+4928579D01*
X-2601461Y+4928579D01*
X-2601461Y+5188539D01*
X-2838539Y+5188539D01*
X-2838539Y+4871461D01*
X-2788579Y+4871461D01*
X-2788579Y+4848539D01*
X-2838539Y+4848539D01*
X-2838539Y+4577079D01*
X-3019595Y+4577079D01*
X-3141516Y+4699000D01*
X-3042921Y+4797595D01*
X-3042921Y+5051905D01*
X-3070361Y+5079345D01*
X-3070361Y+5227061D01*
X-2314405Y+5227061D01*
X-2265939Y+5178595D01*
X-3180079Y+4854405D02*
X-3423421Y+4611063D01*
X-3423421Y+4982361D01*
X-3180079Y+4982361D01*
X-3180079Y+4854405D01*
X+2119008Y+4714008D02*
X+2139095Y+4693921D01*
X+3654595Y+4693921D01*
X+3677921Y+4670595D01*
X+3677921Y+4554247D01*
X+3578509Y+4653659D01*
X+1943434Y+4653659D01*
X+1945639Y+4655864D01*
X+1945639Y+4731561D01*
X+2070480Y+4731561D01*
X+2085968Y+4747048D01*
X+2119008Y+4714008D01*
X-1945639Y+4465364D02*
X-1930354Y+4450079D01*
X-2067095Y+4450079D01*
X-2118361Y+4501345D01*
X-2118361Y+4503421D01*
X-1945639Y+4503421D01*
X-1945639Y+4465364D01*
X-1628139Y+4358639D02*
X-1630636Y+4358639D01*
X-1645921Y+4343354D01*
X-1645921Y+4353095D01*
X-1628139Y+4370877D01*
X-1628139Y+4358639D01*
X+1150648Y+4149868D02*
X+264159Y+4149868D01*
X+264159Y+4150361D01*
X+297136Y+4150361D01*
X+332696Y+4185921D01*
X+1114595Y+4185921D01*
X+1150648Y+4149868D01*
X-3560579Y+4388488D02*
X-3560579Y+4360083D01*
X-3553591Y+4353095D01*
X-3553591Y+4352849D01*
X-3608851Y+4352849D01*
X-3608851Y+4202155D01*
X-3677421Y+4133585D01*
X-3677421Y+4982361D01*
X-3560579Y+4982361D01*
X-3560579Y+4388488D01*
X-3096492Y+4460008D02*
X-3076405Y+4439921D01*
X-2755095Y+4439921D01*
X-2691595Y+4503421D01*
X-2326639Y+4503421D01*
X-2326639Y+4465364D01*
X-2265636Y+4404361D01*
X-2215345Y+4404361D01*
X-2123905Y+4312921D01*
X-1846579Y+4312921D01*
X-1846579Y+4104639D01*
X-1884636Y+4104639D01*
X-1920196Y+4069079D01*
X-3083095Y+4069079D01*
X-3112161Y+4098145D01*
X-3112161Y+4248839D01*
X-3296921Y+4248839D01*
X-3296921Y+4543595D01*
X-3238500Y+4602016D01*
X-3096492Y+4460008D01*
X-3434079Y+4053839D02*
X-3550921Y+4053839D01*
X-3550921Y+4066117D01*
X-3511867Y+4105171D01*
X-3434079Y+4105171D01*
X-3434079Y+4053839D01*
X+3551341Y+4472491D02*
X+3551341Y+3975143D01*
X+3457405Y+4069079D01*
X+2194095Y+4069079D01*
X+2090421Y+3965405D01*
X+2090421Y+3914139D01*
X+2088345Y+3914139D01*
X+1496143Y+4506341D01*
X+3517491Y+4506341D01*
X+3551341Y+4472491D01*
X-3160823Y+3952839D02*
X-3262855Y+3952839D01*
X-3296921Y+3986905D01*
X-3296921Y+4001161D01*
X-3209145Y+4001161D01*
X-3160823Y+3952839D01*
X+100485Y+4219905D02*
X+100485Y+4189396D01*
X+116841Y+4173040D01*
X+116841Y+3918991D01*
X+125861Y+3909971D01*
X+125861Y+3866864D01*
X+132725Y+3860000D01*
X+125861Y+3853136D01*
X+125861Y+3766864D01*
X+151620Y+3741104D01*
X+120396Y+3709880D01*
X+106636Y+3723639D01*
X+20364Y+3723639D01*
X-28891Y+3674384D01*
X-28891Y+4192125D01*
X+56345Y+4277361D01*
X+100485Y+4277361D01*
X+100485Y+4219905D01*
X+1842778Y+3260054D02*
X+1800861Y+3218136D01*
X+1800861Y+3131864D01*
X+1861864Y+3070861D01*
X+1899921Y+3070861D01*
X+1899921Y+3005589D01*
X+1864839Y+2970507D01*
X+1864839Y+2837614D01*
X+1864361Y+2837136D01*
X+1864361Y+2799079D01*
X+1742905Y+2799079D01*
X+1044405Y+3497579D01*
X+269196Y+3497579D01*
X+233636Y+3533139D01*
X+195579Y+3533139D01*
X+195579Y+3591095D01*
X+218905Y+3614421D01*
X+683304Y+3614421D01*
X+718864Y+3578861D01*
X+805136Y+3578861D01*
X+866139Y+3639864D01*
X+866139Y+3726136D01*
X+805136Y+3787139D01*
X+718864Y+3787139D01*
X+683304Y+3751579D01*
X+638854Y+3751579D01*
X+654139Y+3766864D01*
X+654139Y+3853136D01*
X+593136Y+3914139D01*
X+506864Y+3914139D01*
X+471304Y+3878579D01*
X+334139Y+3878579D01*
X+334139Y+3953136D01*
X+284725Y+4002550D01*
X+1100282Y+4002550D01*
X+1842778Y+3260054D01*
X+3222411Y+3861548D02*
X+3222411Y+3748395D01*
X+3169921Y+3695905D01*
X+3169921Y+3624579D01*
X+2702095Y+3624579D01*
X+2293155Y+3215639D01*
X+2242864Y+3215639D01*
X+2227579Y+3200354D01*
X+2227579Y+3908595D01*
X+2250905Y+3931921D01*
X+3292784Y+3931921D01*
X+3222411Y+3861548D01*
X-40639Y+4374345D02*
X-166049Y+4248935D01*
X-166049Y+4168139D01*
X-233636Y+4168139D01*
X-294639Y+4107136D01*
X-294639Y+4020864D01*
X-233636Y+3959861D01*
X-195579Y+3959861D01*
X-195579Y+3009854D01*
X-210864Y+3025139D01*
X-297136Y+3025139D01*
X-312421Y+3009854D01*
X-312421Y+3667804D01*
X-276861Y+3703364D01*
X-276861Y+3789636D01*
X-337864Y+3850639D01*
X-375921Y+3850639D01*
X-375921Y+3921804D01*
X-340361Y+3957364D01*
X-340361Y+4043636D01*
X-401364Y+4104639D01*
X-487636Y+4104639D01*
X-548639Y+4043636D01*
X-548639Y+3957364D01*
X-513079Y+3921804D01*
X-513079Y+3088639D01*
X-551136Y+3088639D01*
X-612139Y+3027636D01*
X-612139Y+2941364D01*
X-576579Y+2905804D01*
X-576579Y+2438354D01*
X-591864Y+2453639D01*
X-678136Y+2453639D01*
X-693421Y+2438354D01*
X-693421Y+3413804D01*
X-657861Y+3449364D01*
X-657861Y+3535636D01*
X-718864Y+3596639D01*
X-805136Y+3596639D01*
X-866139Y+3535636D01*
X-866139Y+3449364D01*
X-830579Y+3413804D01*
X-830579Y+1758405D01*
X-856594Y+1732390D01*
X-856594Y+1527610D01*
X-830579Y+1501595D01*
X-830579Y+1440391D01*
X-928519Y+1538331D01*
X-928519Y+1538333D01*
X-971667Y+1581481D01*
X-1446244Y+1581481D01*
X-1419861Y+1607864D01*
X-1419861Y+1694136D01*
X-1450341Y+1724616D01*
X-1450341Y+2004503D01*
X-1405900Y+2048944D01*
X-1405900Y+2156068D01*
X-1450341Y+2200509D01*
X-1450341Y+2316509D01*
X-1461778Y+2327946D01*
X-1419861Y+2369864D01*
X-1419861Y+2456136D01*
X-1453565Y+2489840D01*
X-1455884Y+2650458D01*
X-1457560Y+2782665D01*
X-1425861Y+2814364D01*
X-1425861Y+2900636D01*
X-1456341Y+2931116D01*
X-1456341Y+3554477D01*
X-1452116Y+4134363D01*
X-1420810Y+4165669D01*
X-1420810Y+4337415D01*
X-1419861Y+4338364D01*
X-1419861Y+4376421D01*
X-40639Y+4376421D01*
X-40639Y+4374345D01*
X+294639Y+2991921D02*
X+294639Y+3027636D01*
X+233636Y+3088639D01*
X+231139Y+3088639D01*
X+231139Y+3106421D01*
X+427724Y+3106421D01*
X+294639Y+2991921D01*
X-3603839Y+3006855D02*
X-3603839Y+2906825D01*
X-3677421Y+2980407D01*
X-3677421Y+3080437D01*
X-3603839Y+3006855D01*
X-3359839Y+3705161D02*
X-3304579Y+3705161D01*
X-3304579Y+3146595D01*
X-3299567Y+3141583D01*
X-3299567Y+2999829D01*
X-3354827Y+2999829D01*
X-3354827Y+2804829D01*
X-3501843Y+2804829D01*
X-3553175Y+2856161D01*
X-3356161Y+2856161D01*
X-3356161Y+3103839D01*
X-3506855Y+3103839D01*
X-3550921Y+3147905D01*
X-3550921Y+3806161D01*
X-3359839Y+3806161D01*
X-3359839Y+3705161D01*
X+1991361Y+3817155D02*
X+1991361Y+3766864D01*
X+2052364Y+3705861D01*
X+2090421Y+3705861D01*
X+2090421Y+2822405D01*
X+2072639Y+2804623D01*
X+2072639Y+2837136D01*
X+2012157Y+2897618D01*
X+2012157Y+2909489D01*
X+2042158Y+2939490D01*
X+2042158Y+3000510D01*
X+2037079Y+3005589D01*
X+2037079Y+3139905D01*
X+2014684Y+3162300D01*
X+2037079Y+3184695D01*
X+2037079Y+3202911D01*
X+2042158Y+3207990D01*
X+2042158Y+3269010D01*
X+1986307Y+3324861D01*
X+2011636Y+3324861D01*
X+2072639Y+3385864D01*
X+2072639Y+3472136D01*
X+2011636Y+3533139D01*
X+1961345Y+3533139D01*
X+1171405Y+4323079D01*
X+332696Y+4323079D01*
X+324139Y+4331636D01*
X+324139Y+4376421D01*
X+1432095Y+4376421D01*
X+1991361Y+3817155D01*
X-1884636Y+3896361D02*
X-1818639Y+3896361D01*
X-1818639Y+3893864D01*
X-1757636Y+3832861D01*
X-1671364Y+3832861D01*
X-1668579Y+3835646D01*
X-1668579Y+3664139D01*
X-1713136Y+3664139D01*
X-1774139Y+3603136D01*
X-1774139Y+3516864D01*
X-1713136Y+3455861D01*
X-1697689Y+3455861D01*
X-1697689Y+2780795D01*
X-1742905Y+2735579D01*
X-1800861Y+2735579D01*
X-1800861Y+2773636D01*
X-1861864Y+2834639D01*
X-1948136Y+2834639D01*
X-1983696Y+2799079D01*
X-2816861Y+2799079D01*
X-2816861Y+2837136D01*
X-2852421Y+2872696D01*
X-2852421Y+3146595D01*
X-2801155Y+3197861D01*
X-2750864Y+3197861D01*
X-2689861Y+3258864D01*
X-2689861Y+3345136D01*
X-2750864Y+3406139D01*
X-2837136Y+3406139D01*
X-2898139Y+3345136D01*
X-2898139Y+3294845D01*
X-2989579Y+3203405D01*
X-2989579Y+2872696D01*
X-3025139Y+2837136D01*
X-3025139Y+2786845D01*
X-3042921Y+2769063D01*
X-3042921Y+2784907D01*
X-3107149Y+2849135D01*
X-3107149Y+2999829D01*
X-3162409Y+2999829D01*
X-3162409Y+3198393D01*
X-3167421Y+3203405D01*
X-3167421Y+3705161D01*
X-3112161Y+3705161D01*
X-3112161Y+3931921D01*
X-1920196Y+3931921D01*
X-1884636Y+3896361D01*
X-3180079Y+2728097D02*
X-3180079Y+2703829D01*
X-3351149Y+2703829D01*
X-3351149Y+2752151D01*
X-3204133Y+2752151D01*
X-3180079Y+2728097D01*
X+2217421Y+2692354D02*
X+2202136Y+2707639D01*
X+2169623Y+2707639D01*
X+2217421Y+2755437D01*
X+2217421Y+2692354D01*
X-5079Y+3540804D02*
X-5079Y+2664139D01*
X-28891Y+2664139D01*
X-28891Y+3564616D01*
X-5079Y+3540804D01*
X-3814579Y+2952002D02*
X-3814579Y+2923597D01*
X-3598827Y+2707845D01*
X-3598827Y+2648569D01*
X-3884585Y+2648569D01*
X-3931421Y+2695405D01*
X-3931421Y+4982361D01*
X-3814579Y+4982361D01*
X-3814579Y+2952002D01*
X-297136Y+2816861D02*
X-259079Y+2816861D01*
X-259079Y+2580639D01*
X-297136Y+2580639D01*
X-312421Y+2565354D01*
X-312421Y+2832146D01*
X-297136Y+2816861D01*
X-2328868Y+2585300D02*
X-2350443Y+2563725D01*
X-2350443Y+2472827D01*
X-2359195Y+2481579D01*
X-2481421Y+2481579D01*
X-2481421Y+2565095D01*
X-2448095Y+2598421D01*
X-2315747Y+2598421D01*
X-2328868Y+2585300D01*
X+1686095Y+2661921D02*
X+2070146Y+2661921D01*
X+2054861Y+2646636D01*
X+2054861Y+2560364D01*
X+2090421Y+2524804D01*
X+2090421Y+2373659D01*
X+1501139Y+2373659D01*
X+1501139Y+2456136D01*
X+1440136Y+2517139D01*
X+1389845Y+2517139D01*
X+1298405Y+2608579D01*
X+1031196Y+2608579D01*
X+995636Y+2644139D01*
X+909364Y+2644139D01*
X+848361Y+2583136D01*
X+848361Y+2517139D01*
X+845864Y+2517139D01*
X+802639Y+2473914D01*
X+802639Y+2519636D01*
X+741636Y+2580639D01*
X+703579Y+2580639D01*
X+703579Y+3139905D01*
X+599905Y+3243579D01*
X+218905Y+3243579D01*
X+195579Y+3266905D01*
X+195579Y+3324861D01*
X+233636Y+3324861D01*
X+269196Y+3360421D01*
X+987595Y+3360421D01*
X+1686095Y+2661921D01*
X+1292861Y+2420155D02*
X+1292861Y+2373659D01*
X+1183639Y+2373659D01*
X+1183639Y+2456136D01*
X+1168354Y+2471421D01*
X+1241595Y+2471421D01*
X+1292861Y+2420155D01*
X-1668579Y+2377906D02*
X-1668579Y+2377905D01*
X-1882405Y+2164079D01*
X-2026921Y+2164079D01*
X-2026921Y+2207304D01*
X-1991361Y+2242864D01*
X-1991361Y+2329136D01*
X-2052364Y+2390139D01*
X-2138636Y+2390139D01*
X-2199639Y+2329136D01*
X-2199639Y+2242864D01*
X-2164079Y+2207304D01*
X-2164079Y+2164079D01*
X-2181861Y+2164079D01*
X-2181861Y+2202136D01*
X-2212341Y+2232616D01*
X-2212341Y+2288410D01*
X-2203125Y+2297626D01*
X-2203125Y+2495861D01*
X-2166864Y+2495861D01*
X-2105861Y+2556864D01*
X-2105861Y+2598421D01*
X-1686094Y+2598421D01*
X-1668579Y+2615936D01*
X-1668579Y+2377906D01*
X-1597659Y+2199639D02*
X-1630636Y+2199639D01*
X-1691639Y+2138636D01*
X-1691639Y+2088345D01*
X-1742905Y+2037079D01*
X-1815437Y+2037079D01*
X-1597659Y+2254857D01*
X-1597659Y+2199639D01*
X+3169921Y+3464095D02*
X+3273595Y+3360421D01*
X+3457405Y+3360421D01*
X+3476411Y+3379427D01*
X+3476411Y+3357452D01*
X+3563452Y+3270411D01*
X+3676605Y+3270411D01*
X+3741421Y+3205595D01*
X+3741421Y+1916716D01*
X+3686548Y+1971589D01*
X+3563452Y+1971589D01*
X+3519589Y+1927726D01*
X+3519589Y+2011548D01*
X+3432548Y+2098589D01*
X+3319395Y+2098589D01*
X+3063405Y+2354579D01*
X+2441405Y+2354579D01*
X+2354579Y+2441405D01*
X+2354579Y+3032804D01*
X+2390139Y+3068364D01*
X+2390139Y+3118655D01*
X+2758905Y+3487421D01*
X+3169921Y+3487421D01*
X+3169921Y+3464095D01*
X-2598492Y+2641992D02*
X-2618579Y+2621905D01*
X-2618579Y+1923405D01*
X-2631905Y+1910079D01*
X-3453937Y+1910079D01*
X-3042921Y+2321095D01*
X-3042921Y+2575095D01*
X-2956095Y+2661921D01*
X-2578563Y+2661921D01*
X-2598492Y+2641992D01*
X+566421Y+1880063D02*
X+536405Y+1910079D01*
X+459696Y+1910079D01*
X+449579Y+1920196D01*
X+449579Y+2143804D01*
X+485139Y+2179364D01*
X+485139Y+2265636D01*
X+424136Y+2326639D01*
X+386079Y+2326639D01*
X+386079Y+2699693D01*
X+418859Y+2732473D01*
X+418859Y+2852738D01*
X+386079Y+2885518D01*
X+386079Y+2888954D01*
X+525882Y+3005861D01*
X+566421Y+3005861D01*
X+566421Y+1880063D01*
X+3476411Y+1800726D02*
X+3454137Y+1823000D01*
X+3476411Y+1845274D01*
X+3476411Y+1800726D01*
X+2153921Y+2211219D02*
X+2153921Y+1729696D01*
X+2122804Y+1698579D01*
X+2099854Y+1698579D01*
X+2136139Y+1734864D01*
X+2136139Y+1821136D01*
X+2075136Y+1882139D01*
X+2024845Y+1882139D01*
X+1776522Y+2130462D01*
X+1014522Y+2130462D01*
X+957579Y+2187405D01*
X+957579Y+2195861D01*
X+993136Y+2195861D01*
X+1023616Y+2226341D01*
X+2138799Y+2226341D01*
X+2153921Y+2211219D01*
X+784861Y+2369864D02*
X+786650Y+2368075D01*
X+773880Y+2355305D01*
X+773880Y+2200658D01*
X+820421Y+2154117D01*
X+820421Y+2130595D01*
X+957712Y+1993304D01*
X+1719712Y+1993304D01*
X+1927861Y+1785155D01*
X+1927861Y+1734864D01*
X+1964146Y+1698579D01*
X+1517639Y+1698579D01*
X+1517639Y+1699438D01*
X+1419438Y+1797639D01*
X+1280562Y+1797639D01*
X+1182361Y+1699438D01*
X+1182361Y+1698579D01*
X+938405Y+1698579D01*
X+932643Y+1704341D01*
X+974584Y+1704341D01*
X+1081234Y+1810991D01*
X+1081234Y+1872009D01*
X+1002932Y+1950311D01*
X+846409Y+1950311D01*
X+811257Y+1915159D01*
X+799489Y+1915159D01*
X+767079Y+1882749D01*
X+767079Y+2397804D01*
X+784861Y+2415586D01*
X+784861Y+2369864D01*
X+3541863Y+1696000D02*
X+3519589Y+1673726D01*
X+3519589Y+1718274D01*
X+3541863Y+1696000D01*
X+2344421Y+2257595D02*
X+2344421Y+1679405D01*
X+2326639Y+1661623D01*
X+2326639Y+1694136D01*
X+2291079Y+1729696D01*
X+2291079Y+2268029D01*
X+2232658Y+2326450D01*
X+2232658Y+2333634D01*
X+2227579Y+2338713D01*
X+2227579Y+2374437D01*
X+2344421Y+2257595D01*
X-3688079Y+1660095D02*
X-3651643Y+1623659D01*
X-3678491Y+1623659D01*
X-3709424Y+1654592D01*
X-3688079Y+1675937D01*
X-3688079Y+1660095D01*
X-1597659Y+1724616D02*
X-1628139Y+1694136D01*
X-1628139Y+1607864D01*
X-1601756Y+1581481D01*
X-1640761Y+1581481D01*
X-1894069Y+1834789D01*
X-1894069Y+1877896D01*
X-1916094Y+1899921D01*
X-1686094Y+1899921D01*
X-1597659Y+1988357D01*
X-1597659Y+1724616D01*
X+502921Y+1749595D02*
X+502921Y+1679405D01*
X+479594Y+1656079D01*
X+439421Y+1615906D01*
X+439421Y+1564639D01*
X+437345Y+1564639D01*
X+386079Y+1615905D01*
X+386079Y+1737361D01*
X+424136Y+1737361D01*
X+459696Y+1772921D01*
X+479595Y+1772921D01*
X+502921Y+1749595D01*
X+1182361Y+1560562D02*
X+1213844Y+1529079D01*
X+967696Y+1529079D01*
X+935354Y+1561421D01*
X+1182361Y+1561421D01*
X+1182361Y+1560562D01*
X-3359839Y+1297823D02*
X-3368177Y+1306161D01*
X-3359839Y+1306161D01*
X-3359839Y+1297823D01*
X-576579Y+1148079D02*
X-594361Y+1148079D01*
X-594361Y+1186136D01*
X-655364Y+1247139D01*
X-693421Y+1247139D01*
X-693421Y+1462361D01*
X-576579Y+1462361D01*
X-576579Y+1148079D01*
X-2457910Y+1979926D02*
X-2377905Y+1899921D01*
X-2080322Y+1899921D01*
X-2102347Y+1877896D01*
X-2102347Y+1791624D01*
X-2041344Y+1730621D01*
X-1998237Y+1730621D01*
X-1701779Y+1434163D01*
X-1032687Y+1434163D01*
X-973659Y+1375135D01*
X-973659Y+963616D01*
X-1004139Y+933136D01*
X-1004139Y+846864D01*
X-962659Y+805384D01*
X-962659Y+538511D01*
X-992159Y+509011D01*
X-992159Y+501825D01*
X-1041401Y+452583D01*
X-1041401Y+790405D01*
X-1145075Y+894079D01*
X-3584405Y+894079D01*
X-3688079Y+790405D01*
X-3688079Y-175304D01*
X-3723639Y-210864D01*
X-3723639Y-297136D01*
X-3662636Y-358139D01*
X-3660139Y-358139D01*
X-3660139Y-424136D01*
X-3624579Y-459696D01*
X-3624579Y-2651804D01*
X-3660139Y-2687364D01*
X-3660139Y-2773636D01*
X-3599136Y-2834639D01*
X-3512864Y-2834639D01*
X-3451861Y-2773636D01*
X-3451861Y-2687364D01*
X-3487421Y-2651804D01*
X-3487421Y-459696D01*
X-3451861Y-424136D01*
X-3451861Y-337864D01*
X-3512864Y-276861D01*
X-3515361Y-276861D01*
X-3515361Y-210864D01*
X-3550921Y-175304D01*
X-3550921Y+733595D01*
X-3527595Y+756921D01*
X-3517854Y+756921D01*
X-3533139Y+741636D01*
X-3533139Y+655364D01*
X-3472136Y+594361D01*
X-3385864Y+594361D01*
X-3350304Y+629921D01*
X-2441405Y+629921D01*
X-1945639Y+134155D01*
X-1945639Y+83864D01*
X-1884636Y+22861D01*
X-1798364Y+22861D01*
X-1788159Y+33066D01*
X-1788159Y+32991D01*
X-1760247Y+5079D01*
X-1933405Y+5079D01*
X-2037079Y-98595D01*
X-2037079Y-790405D01*
X-1656079Y-1171405D01*
X-1656079Y-1254804D01*
X-1691639Y-1290364D01*
X-1691639Y-1340655D01*
X-1783079Y-1432095D01*
X-1783079Y-1572304D01*
X-1818639Y-1607864D01*
X-1818639Y-1694136D01*
X-1783079Y-1729696D01*
X-1783079Y-1749595D01*
X-1806405Y-1772921D01*
X-1869409Y-1772921D01*
X-1874489Y-1767841D01*
X-1935511Y-1767841D01*
X-1978659Y-1810989D01*
X-1978659Y-2239753D01*
X-2157283Y-2325861D01*
X-2217421Y-2325861D01*
X-2217421Y-1412196D01*
X-2181861Y-1376636D01*
X-2181861Y-1290364D01*
X-2242864Y-1229361D01*
X-2329136Y-1229361D01*
X-2390139Y-1290364D01*
X-2390139Y-1376636D01*
X-2354579Y-1412196D01*
X-2354579Y-3337095D01*
X-2377905Y-3360421D01*
X-3794804Y-3360421D01*
X-3830364Y-3324861D01*
X-3916636Y-3324861D01*
X-3949831Y-3358056D01*
X-3949831Y-2843031D01*
X-4081782Y-2711080D01*
X-4081561Y-2710860D01*
X-4081561Y-2529900D01*
X-4209520Y-2401941D01*
X-4381941Y-2401941D01*
X-4475481Y-2308401D01*
X-4475481Y-2253438D01*
X-4390480Y-2338439D01*
X-4209520Y-2338439D01*
X-4081561Y-2210480D01*
X-4081561Y-2029520D01*
X-4209520Y-1901561D01*
X-4368563Y-1901561D01*
X-4233481Y-1766479D01*
X-4233481Y-1280021D01*
X-4381561Y-1131941D01*
X-4381561Y-959520D01*
X-4509520Y-831561D01*
X-4690480Y-831561D01*
X-4690700Y-831782D01*
X-4779831Y-742651D01*
X-4779831Y-629468D01*
X-4690480Y-718819D01*
X-4509520Y-718819D01*
X-4381561Y-590860D01*
X-4381561Y-409900D01*
X-4509520Y-281941D01*
X-4690480Y-281941D01*
X-4779831Y-371292D01*
X-4779831Y-307349D01*
X-4690700Y-218218D01*
X-4690480Y-218439D01*
X-4509520Y-218439D01*
X-4381561Y-90480D01*
X-4381561Y+90480D01*
X-4509520Y+218439D01*
X-4509831Y+218439D01*
X-4509831Y+942651D01*
X-3891651Y+1560831D01*
X-3823999Y+1560831D01*
X-3739509Y+1476341D01*
X-3603839Y+1476341D01*
X-3603839Y+1306161D01*
X-3548579Y+1306161D01*
X-3548579Y+1292595D01*
X-3393905Y+1137921D01*
X-2428196Y+1137921D01*
X-2392636Y+1102361D01*
X-2306364Y+1102361D01*
X-2245361Y+1163364D01*
X-2245361Y+1227364D01*
X-2185861Y+1286864D01*
X-2185861Y+1373136D01*
X-2246864Y+1434139D01*
X-2333136Y+1434139D01*
X-2369696Y+1397579D01*
X-3112161Y+1397579D01*
X-3112161Y+1452839D01*
X-3162341Y+1452839D01*
X-3162341Y+1456509D01*
X-3206993Y+1501161D01*
X-3112161Y+1501161D01*
X-3112161Y+1748839D01*
X-3359839Y+1748839D01*
X-3359839Y+1693579D01*
X-3361173Y+1693579D01*
X-3361173Y+1772921D01*
X-2575095Y+1772921D01*
X-2481421Y+1866595D01*
X-2481421Y+1991361D01*
X-2457910Y+1991361D01*
X-2457910Y+1979926D01*
X-4190759Y+1164621D02*
X-4079237Y+1164621D01*
X-4000379Y+1085763D01*
X-4000379Y+974241D01*
X-4079237Y+895383D01*
X-4190759Y+895383D01*
X-4269617Y+974241D01*
X-4269617Y+1085763D01*
X-4190759Y+1164621D01*
X-2626361Y-464864D02*
X-2626361Y-551136D01*
X-2661921Y-586696D01*
X-2661921Y-2270804D01*
X-2626361Y-2306364D01*
X-2626361Y-2392636D01*
X-2687364Y-2453639D01*
X-2773636Y-2453639D01*
X-2834639Y-2392636D01*
X-2834639Y-2306364D01*
X-2799079Y-2270804D01*
X-2799079Y-586696D01*
X-2834639Y-551136D01*
X-2834639Y-464864D01*
X-2773636Y-403861D01*
X-2687364Y-403861D01*
X-2626361Y-464864D01*
X+340361Y+1467655D02*
X+340361Y+1417364D01*
X+401364Y+1356361D01*
X+434342Y+1356361D01*
X+434342Y+1342885D01*
X+477490Y+1299737D01*
X+502921Y+1299737D01*
X+502921Y+1223659D01*
X+459491Y+1223659D01*
X+399885Y+1164053D01*
X+399885Y+1080890D01*
X+360636Y+1120139D01*
X+322579Y+1120139D01*
X+322579Y+1485437D01*
X+340361Y+1467655D01*
X+3222411Y+2001605D02*
X+3222411Y+1888452D01*
X+3287863Y+1823000D01*
X+3222411Y+1757548D01*
X+3222411Y+1634452D01*
X+3309452Y+1547411D01*
X+3432548Y+1547411D01*
X+3476411Y+1591274D01*
X+3476411Y+1517395D01*
X+2995345Y+1036329D01*
X+2760946Y+1036329D01*
X+2725386Y+1071889D01*
X+2639114Y+1071889D01*
X+2580639Y+1013414D01*
X+2580639Y+1059136D01*
X+2519636Y+1120139D01*
X+2433364Y+1120139D01*
X+2372361Y+1059136D01*
X+2372361Y+972864D01*
X+2407921Y+937304D01*
X+2407921Y+610063D01*
X+2354579Y+663405D01*
X+2354579Y+1488905D01*
X+2324563Y+1518921D01*
X+2377905Y+1518921D01*
X+2481579Y+1622595D01*
X+2481579Y+2217421D01*
X+3006595Y+2217421D01*
X+3222411Y+2001605D01*
X+3741421Y+1355595D02*
X+3741421Y+62716D01*
X+3686548Y+117589D01*
X+3563452Y+117589D01*
X+3519589Y+73726D01*
X+3519589Y+157548D01*
X+3432548Y+244589D01*
X+3319395Y+244589D01*
X+2987405Y+576579D01*
X+2545079Y+576579D01*
X+2545079Y+937304D01*
X+2578111Y+970336D01*
X+2578111Y+924614D01*
X+2639114Y+863611D01*
X+2725386Y+863611D01*
X+2760946Y+899171D01*
X+3052155Y+899171D01*
X+3573395Y+1420411D01*
X+3676605Y+1420411D01*
X+3741421Y+1355595D01*
X+2090421Y+1559095D02*
X+2090421Y+1559094D01*
X+2130595Y+1518921D01*
X+2217421Y+1432095D01*
X+2217421Y+663405D01*
X+2130595Y+576579D01*
X+1920196Y+576579D01*
X+1884636Y+612139D01*
X+1798364Y+612139D01*
X+1737361Y+551136D01*
X+1737361Y+464864D01*
X+1798364Y+403861D01*
X+1884636Y+403861D01*
X+1920196Y+439421D01*
X+2187405Y+439421D01*
X+2286000Y+538016D01*
X+2347766Y+476250D01*
X+2241421Y+369905D01*
X+2241421Y-482361D01*
X+2142361Y-482361D01*
X+2142361Y-817639D01*
X+2731639Y-817639D01*
X+2731639Y-482361D01*
X+2378579Y-482361D01*
X+2378579Y+313095D01*
X+2504905Y+439421D01*
X+2930595Y+439421D01*
X+3222411Y+147605D01*
X+3222411Y+34452D01*
X+3287863Y-31000D01*
X+3222411Y-96452D01*
X+3222411Y-219548D01*
X+3309452Y-306589D01*
X+3432548Y-306589D01*
X+3476411Y-262726D01*
X+3476411Y-346548D01*
X+3563452Y-433589D01*
X+3686548Y-433589D01*
X+3766558Y-353579D01*
X+4734095Y-353579D01*
X+4757421Y-376905D01*
X+4757421Y-1032432D01*
X+1439546Y-1032432D01*
X+1439546Y-928549D01*
X+1441586Y-926509D01*
X+1441586Y-865491D01*
X+1407159Y-831064D01*
X+1407159Y-826726D01*
X+1402079Y-821646D01*
X+1402079Y+793938D01*
X+1425405Y+793938D01*
X+1529079Y+897612D01*
X+1529079Y+1191304D01*
X+1564639Y+1226864D01*
X+1564639Y+1313136D01*
X+1503636Y+1374139D01*
X+1465579Y+1374139D01*
X+1465579Y+1425405D01*
X+1424030Y+1466954D01*
X+1517639Y+1560562D01*
X+1517639Y+1561421D01*
X+2088095Y+1561421D01*
X+2090421Y+1559095D01*
X+4163733Y-433591D02*
X+4356267Y-433591D01*
X+4492409Y-569733D01*
X+4492409Y-762267D01*
X+4356267Y-898409D01*
X+4163733Y-898409D01*
X+4027591Y-762267D01*
X+4027591Y-569733D01*
X+4163733Y-433591D01*
X-327659Y+454139D02*
X-353136Y+454139D01*
X-375921Y+431354D01*
X-375921Y+721361D01*
X-337864Y+721361D01*
X-327659Y+731566D01*
X-327659Y+454139D01*
X-513079Y+385063D02*
X-530861Y+402845D01*
X-530861Y+453136D01*
X-561341Y+483616D01*
X-561341Y+1010921D01*
X-513079Y+1010921D01*
X-513079Y+385063D01*
X-1178559Y+733595D02*
X-1178559Y+548639D01*
X-1249636Y+548639D01*
X-1310639Y+487636D01*
X-1310639Y+401364D01*
X-1280159Y+370884D01*
X-1280159Y+170643D01*
X-1864361Y+754845D01*
X-1864361Y+756921D01*
X-1201885Y+756921D01*
X-1178559Y+733595D01*
X-353136Y+245861D02*
X-294639Y+245861D01*
X-294639Y+210864D01*
X-279354Y+195579D01*
X-345905Y+195579D01*
X-375921Y+165563D01*
X-375921Y+268646D01*
X-353136Y+245861D01*
X-767079Y+238804D02*
X-767079Y+125589D01*
X-772158Y+120510D01*
X-772158Y+107142D01*
X-791421Y+126405D01*
X-791421Y+263146D01*
X-767079Y+238804D01*
X-2072639Y+718864D02*
X-2011636Y+657861D01*
X-1961345Y+657861D01*
X-1447886Y+144402D01*
X-1455128Y+137159D01*
X-1554509Y+137159D01*
X-1618009Y+73659D01*
X-1620491Y+73659D01*
X-1640841Y+94009D01*
X-1640841Y+157511D01*
X-1683989Y+200659D01*
X-1745011Y+200659D01*
X-1750091Y+195579D01*
X-1762804Y+195579D01*
X-1798364Y+231139D01*
X-1848655Y+231139D01*
X-2374437Y+756921D01*
X-2072639Y+756921D01*
X-2072639Y+718864D01*
X+3476411Y-53274D02*
X+3454137Y-31000D01*
X+3476411Y-8726D01*
X+3476411Y-53274D01*
X+58421Y+924095D02*
X+58421Y-149861D01*
X+32284Y-149861D01*
X+32284Y+950232D01*
X+58421Y+924095D01*
X+3541863Y-158000D02*
X+3519589Y-180274D01*
X+3519589Y-135726D01*
X+3541863Y-158000D01*
X-805136Y-104139D02*
X-772159Y-104139D01*
X-772159Y-130511D01*
X-767079Y-135591D01*
X-767079Y-225595D01*
X-784861Y-243377D01*
X-784861Y-210864D01*
X-845864Y-149861D01*
X-878841Y-149861D01*
X-878841Y-100573D01*
X-878596Y-96150D01*
X-845860Y-63414D01*
X-805136Y-104139D01*
X-1127992Y-238992D02*
X-1122586Y-244398D01*
X-1122586Y-281101D01*
X-1132841Y-291356D01*
X-1132841Y-234143D01*
X-1127992Y-238992D01*
X-163693Y-346342D02*
X-185421Y-346342D01*
X-185421Y-294639D01*
X-163693Y-294639D01*
X-163693Y-346342D01*
X-703579Y-405937D02*
X-728516Y-381000D01*
X-703579Y-356063D01*
X-703579Y-405937D01*
X-1064492Y-492992D02*
X-1044405Y-513079D01*
X-790405Y-513079D01*
X-767079Y-536405D01*
X-767079Y-721361D01*
X-805136Y-721361D01*
X-840696Y-756921D01*
X-1178095Y-756921D01*
X-1201421Y-733595D01*
X-1201421Y-544139D01*
X-1146864Y-544139D01*
X-1085861Y-483136D01*
X-1085861Y-471623D01*
X-1064492Y-492992D01*
X+861508Y+1581508D02*
X+878377Y+1564639D01*
X+845864Y+1564639D01*
X+784861Y+1503636D01*
X+784861Y+1417364D01*
X+845864Y+1356361D01*
X+932136Y+1356361D01*
X+967696Y+1391921D01*
X+1305095Y+1391921D01*
X+1328421Y+1368595D01*
X+1328421Y+1073658D01*
X+1302990Y+1073658D01*
X+1225998Y+996666D01*
X+1225998Y+869842D01*
X+1259841Y+835999D01*
X+1259841Y+832006D01*
X+1264921Y+826926D01*
X+1264921Y-403861D01*
X+1226864Y-403861D01*
X+1165861Y-464864D01*
X+1165861Y-551136D01*
X+1201421Y-586696D01*
X+1201421Y-797095D01*
X+1148079Y-850436D01*
X+1148079Y-78696D01*
X+1183639Y-43136D01*
X+1183639Y+43136D01*
X+1122636Y+104139D01*
X+1036364Y+104139D01*
X+975361Y+43136D01*
X+975361Y-43136D01*
X+1010921Y-78696D01*
X+1010921Y-1335114D01*
X+998239Y-1322432D01*
X+823011Y-1322432D01*
X+776885Y-1368558D01*
X+776885Y-3123786D01*
X+823011Y-3169912D01*
X+998239Y-3169912D01*
X+1044365Y-3123786D01*
X+1044365Y-2263139D01*
X+1122636Y-2263139D01*
X+1137921Y-2247854D01*
X+1137921Y-3139905D01*
X+1167937Y-3169921D01*
X+790405Y-3169921D01*
X+756669Y-3136185D01*
X+756669Y-1559095D01*
X+663153Y-1465579D01*
X+663405Y-1465579D01*
X+767079Y-1361905D01*
X+767079Y+1673861D01*
X+769155Y+1673861D01*
X+861508Y+1581508D01*
X-1440136Y-675639D02*
X-1423659Y-675639D01*
X-1423659Y-905566D01*
X-1455421Y-873804D01*
X-1455421Y-745595D01*
X-1467421Y-733595D01*
X-1467421Y-648354D01*
X-1440136Y-675639D01*
X-1604579Y-762000D02*
X-1604579Y-790405D01*
X-1592579Y-802405D01*
X-1592579Y-873804D01*
X-1628139Y-909364D01*
X-1628139Y-995636D01*
X-1592579Y-1031196D01*
X-1592579Y-1040937D01*
X-1899921Y-733595D01*
X-1899921Y-437639D01*
X-1604579Y-437639D01*
X-1604579Y-762000D01*
X+439421Y+930007D02*
X+439421Y-556304D01*
X+403861Y-591864D01*
X+403861Y-678136D01*
X+464864Y-739139D01*
X+551136Y-739139D01*
X+566421Y-723854D01*
X+566421Y-924095D01*
X+259079Y-1231437D01*
X+259079Y-1171405D01*
X+386079Y-1044405D01*
X+386079Y-840696D01*
X+421639Y-805136D01*
X+421639Y-718864D01*
X+386079Y-683304D01*
X+386079Y+937304D01*
X+409102Y+960326D01*
X+439421Y+930007D01*
X+629921Y-1305095D02*
X+606595Y-1328421D01*
X+523196Y-1328421D01*
X+487636Y-1292861D01*
X+401364Y-1292861D01*
X+340361Y-1353864D01*
X+340361Y-1419861D01*
X+322579Y-1419861D01*
X+322579Y-1361905D01*
X+629921Y-1054563D01*
X+629921Y-1305095D01*
X-513079Y-1800861D02*
X-515155Y-1800861D01*
X-693421Y-1622595D01*
X-693421Y-1612854D01*
X-678136Y-1628139D01*
X-591864Y-1628139D01*
X-530861Y-1567136D01*
X-530861Y-1516845D01*
X-513079Y-1499063D01*
X-513079Y-1800861D01*
X+4757421Y-2275595D02*
X+4388007Y-2645009D01*
X+4379959Y-2636961D01*
X+4220557Y-2636961D01*
X+4434479Y-2423039D01*
X+4579959Y-2423039D01*
X+4693039Y-2309959D01*
X+4693039Y-2150041D01*
X+4579959Y-2036961D01*
X+4420041Y-2036961D01*
X+4306961Y-2150041D01*
X+4306961Y-2295521D01*
X+3910331Y-2692151D01*
X+3910331Y-3681412D01*
X+3890480Y-3661561D01*
X+3709520Y-3661561D01*
X+3581561Y-3789520D01*
X+3581561Y-3961941D01*
X+3400021Y-4143481D01*
X+3041517Y-4143481D01*
X+3146519Y-4038479D01*
X+3146519Y-4035818D01*
X+3209140Y-4098439D01*
X+3390100Y-4098439D01*
X+3518059Y-3970480D01*
X+3518059Y-3789520D01*
X+3390100Y-3661561D01*
X+3209140Y-3661561D01*
X+3146519Y-3724182D01*
X+3146519Y-3006479D01*
X+3243039Y-2909959D01*
X+3243039Y-2750041D01*
X+3129959Y-2636961D01*
X+2970041Y-2636961D01*
X+2856961Y-2750041D01*
X+2856961Y-2909959D01*
X+2953481Y-3006479D01*
X+2953481Y-3774562D01*
X+2840480Y-3661561D01*
X+2818579Y-3661561D01*
X+2818579Y-1958405D01*
X+2961993Y-1814991D01*
X+2970041Y-1823039D01*
X+3129959Y-1823039D01*
X+3243039Y-1709959D01*
X+3243039Y-1550041D01*
X+3222077Y-1529079D01*
X+4102095Y-1529079D01*
X+4115009Y-1541993D01*
X+4106961Y-1550041D01*
X+4106961Y-1709959D01*
X+4220041Y-1823039D01*
X+4379959Y-1823039D01*
X+4493039Y-1709959D01*
X+4493039Y-1550041D01*
X+4379959Y-1436961D01*
X+4220041Y-1436961D01*
X+4211993Y-1445009D01*
X+4158905Y-1391921D01*
X+2441405Y-1391921D01*
X+2377905Y-1328421D01*
X+1425405Y-1328421D01*
X+1402079Y-1305095D01*
X+1402079Y-1299912D01*
X+4757421Y-1299912D01*
X+4757421Y-2275595D01*
X-259079Y-853905D02*
X-259079Y-1800861D01*
X-297136Y-1800861D01*
X-332696Y-1836421D01*
X-352595Y-1836421D01*
X-370377Y-1818639D01*
X-337864Y-1818639D01*
X-276861Y-1757636D01*
X-276861Y-1671364D01*
X-312421Y-1635804D01*
X-312421Y-800563D01*
X-259079Y-853905D01*
X-1423659Y-1366489D02*
X-1423659Y-1474509D01*
X-1120139Y-1778029D01*
X-1120139Y-1821136D01*
X-1084579Y-1856696D01*
X-1084579Y-1904537D01*
X-1089195Y-1899921D01*
X-1163774Y-1899921D01*
X-1163774Y-1852136D01*
X-1224777Y-1791133D01*
X-1300092Y-1791133D01*
X-1353864Y-1737361D01*
X-1404155Y-1737361D01*
X-1455421Y-1686095D01*
X-1455421Y-1031196D01*
X-1423659Y-999434D01*
X-1423659Y-1366489D01*
X-1254992Y-873992D02*
X-1234905Y-894079D01*
X-840696Y-894079D01*
X-830579Y-904196D01*
X-830579Y-1679405D01*
X-612139Y-1897845D01*
X-612139Y-1899921D01*
X-790405Y-1899921D01*
X-945345Y-2054861D01*
X-975361Y-2054861D01*
X-975361Y-2024845D01*
X-947421Y-1996905D01*
X-947421Y-1856696D01*
X-911861Y-1821136D01*
X-911861Y-1734864D01*
X-972864Y-1673861D01*
X-1015971Y-1673861D01*
X-1276341Y-1413491D01*
X-1276341Y-852643D01*
X-1254992Y-873992D01*
X-830579Y-2552437D02*
X-1091421Y-2291595D01*
X-1091421Y-2136139D01*
X-1056639Y-2136139D01*
X-1056639Y-2202136D01*
X-995636Y-2263139D01*
X-909364Y-2263139D01*
X-848361Y-2202136D01*
X-848361Y-2151845D01*
X-830579Y-2134063D01*
X-830579Y-2552437D01*
X+340361Y-1630636D02*
X+375921Y-1666196D01*
X+375921Y-2705146D01*
X+360636Y-2689861D01*
X+322579Y-2689861D01*
X+322579Y-1628139D01*
X+340361Y-1628139D01*
X+340361Y-1630636D01*
X-163693Y-2194095D02*
X-693421Y-2723823D01*
X-693421Y-2136139D01*
X-655364Y-2136139D01*
X-594361Y-2075136D01*
X-594361Y-2037079D01*
X-163693Y-2037079D01*
X-163693Y-2194095D01*
X-2148841Y-3067857D02*
X-2148841Y-2931116D01*
X-2118361Y-2900636D01*
X-2118361Y-2857529D01*
X-2001491Y-2740659D01*
X-1821643Y-2740659D01*
X-2148841Y-3067857D01*
X+1348508Y-1445492D02*
X+1368595Y-1465579D01*
X+2310937Y-1465579D01*
X+2217421Y-1559095D01*
X+2217421Y-3286804D01*
X+2181861Y-3322364D01*
X+2181861Y-3408636D01*
X+2242864Y-3469639D01*
X+2329136Y-3469639D01*
X+2390139Y-3408636D01*
X+2390139Y-3322364D01*
X+2354579Y-3286804D01*
X+2354579Y-1615905D01*
X+2441405Y-1529079D01*
X+2877923Y-1529079D01*
X+2856961Y-1550041D01*
X+2856961Y-1709959D01*
X+2865009Y-1718007D01*
X+2681421Y-1901595D01*
X+2681421Y-3661561D01*
X+2659520Y-3661561D01*
X+2531561Y-3789520D01*
X+2531561Y-3970480D01*
X+2594562Y-4033481D01*
X+2539599Y-4033481D01*
X+2468059Y-3961941D01*
X+2468059Y-3789520D01*
X+2340100Y-3661561D01*
X+2189937Y-3661561D01*
X+2255519Y-3595979D01*
X+2255519Y-3516021D01*
X+2198979Y-3459481D01*
X+2159465Y-3459481D01*
X+1943563Y-3243579D01*
X+1953304Y-3243579D01*
X+1988864Y-3279139D01*
X+2075136Y-3279139D01*
X+2136139Y-3218136D01*
X+2136139Y-3131864D01*
X+2075136Y-3070861D01*
X+1988864Y-3070861D01*
X+1953304Y-3106421D01*
X+1298405Y-3106421D01*
X+1275079Y-3083095D01*
X+1275079Y-2453639D01*
X+1313136Y-2453639D01*
X+1374139Y-2392636D01*
X+1374139Y-2306364D01*
X+1338579Y-2270804D01*
X+1338579Y-1435563D01*
X+1348508Y-1445492D01*
X-134283Y-2575095D02*
X-443090Y-2883902D01*
X-443090Y-3400595D01*
X-521261Y-3478766D01*
X-1275782Y-3478766D01*
X-1051660Y-3254644D01*
X-1051660Y-2563434D01*
X-1032605Y-2544379D01*
X-957579Y-2619405D01*
X-957579Y-2822405D01*
X-929639Y-2850345D01*
X-929639Y-2900636D01*
X-868636Y-2961639D01*
X-836123Y-2961639D01*
X-957579Y-3083095D01*
X-957579Y-3159804D01*
X-993139Y-3195364D01*
X-993139Y-3281636D01*
X-932136Y-3342639D01*
X-866139Y-3342639D01*
X-866139Y-3345136D01*
X-805136Y-3406139D01*
X-718864Y-3406139D01*
X-657861Y-3345136D01*
X-657861Y-3258864D01*
X-693421Y-3223304D01*
X-693421Y-3108155D01*
X-661671Y-3076405D01*
X-661671Y-2886041D01*
X-134283Y-2358653D01*
X-134283Y-2575095D01*
X-2296159Y-3652491D02*
X-2330009Y-3686341D01*
X-3756341Y-3686341D01*
X-3756341Y-3606509D01*
X-3715991Y-3566159D01*
X-3693116Y-3566159D01*
X-3662636Y-3596639D01*
X-3576364Y-3596639D01*
X-3515361Y-3535636D01*
X-3515361Y-3497579D01*
X-2321095Y-3497579D01*
X-2296159Y-3472643D01*
X-2296159Y-3652491D01*
X+396008Y-3223492D02*
X+862516Y-3690000D01*
X+731345Y-3690000D01*
X+655766Y-3614421D01*
X+345905Y-3614421D01*
X+322579Y-3591095D01*
X+322579Y-3533139D01*
X+360636Y-3533139D01*
X+421639Y-3472136D01*
X+421639Y-3385864D01*
X+386079Y-3350304D01*
X+386079Y-3213563D01*
X+396008Y-3223492D01*
X-68579Y-3286804D02*
X-104139Y-3322364D01*
X-104139Y-3408636D01*
X-43136Y-3469639D01*
X-40639Y-3469639D01*
X-40639Y-3523136D01*
X+20364Y-3584139D01*
X+58421Y-3584139D01*
X+58421Y-3647905D01*
X+98421Y-3687905D01*
X+98421Y-3690000D01*
X-121921Y-3690000D01*
X-121921Y-3040110D01*
X-68579Y-2986768D01*
X-68579Y-3286804D01*
X-104874Y-2829095D02*
X-259079Y-2983300D01*
X-259079Y-4237905D01*
X-214623Y-4282361D01*
X-371639Y-4282361D01*
X-371639Y-4532341D01*
X-1276175Y-4532341D01*
X-1328421Y-4480095D01*
X-1328421Y-4014118D01*
X-1304100Y-4038439D01*
X-1123140Y-4038439D01*
X-995181Y-3910480D01*
X-995181Y-3729520D01*
X-1108777Y-3615924D01*
X-818083Y-3615924D01*
X-931679Y-3729520D01*
X-931679Y-3910480D01*
X-803720Y-4038439D01*
X-622760Y-4038439D01*
X-494801Y-3910480D01*
X-494801Y-3729520D01*
X-608397Y-3615924D01*
X-464451Y-3615924D01*
X-305932Y-3457405D01*
X-305932Y-2940712D01*
X-104874Y-2739654D01*
X-104874Y-2829095D01*
X+2376603Y-4143481D02*
X+2209979Y-4143481D01*
X+2164937Y-4098439D01*
X+2331561Y-4098439D01*
X+2376603Y-4143481D01*
X+619511Y-1615905D02*
X+619511Y-3192995D01*
X+733595Y-3307079D01*
X+1186125Y-3307079D01*
X+1186125Y-4282361D01*
X+1076623Y-4282361D01*
X+1084579Y-4274405D01*
X+1084579Y-3718095D01*
X+513079Y-3146595D01*
X+513079Y-1666196D01*
X+548639Y-1630636D01*
X+548639Y-1592579D01*
X+596185Y-1592579D01*
X+619511Y-1615905D01*
X+947421Y-4217595D02*
X+882655Y-4282361D01*
X+372579Y-4282361D01*
X+372579Y-4236095D01*
X+235579Y-4099095D01*
X+235579Y-4025278D01*
X+947421Y-4025278D01*
X+947421Y-4217595D01*
X+98421Y-4155905D02*
X+224877Y-4282361D01*
X-20655Y-4282361D01*
X-121921Y-4181095D01*
X-121921Y-4025278D01*
X+98421Y-4025278D01*
X+98421Y-4155905D01*
X+3910331Y-4090151D02*
X+3700651Y-4299831D01*
X+3516667Y-4299831D01*
X+3718059Y-4098439D01*
X+3890480Y-4098439D01*
X+3910331Y-4078588D01*
X+3910331Y-4090151D01*
X+1903481Y-4070000D02*
X+1903481Y-4109979D01*
X+2093333Y-4299831D01*
X+2027349Y-4299831D01*
X+1839409Y-4111891D01*
X+1839409Y-4098439D01*
X+1839720Y-4098439D01*
X+1903481Y-4034678D01*
X+1903481Y-4070000D01*
D23*
X-4300000Y-3150000D03*
X-4300000Y-3650380D03*
X-1714000Y-3820000D03*
X-1213620Y-3820000D03*
X-713240Y-3820000D03*
D33*
X+1350000Y+1630000D03*
X-640000Y+1630000D03*
D23*
X-4600000Y-1050000D03*
X-4600000Y-1550380D03*
D35*
X-2720000Y+5030000D03*
X-2720000Y+4690000D03*
X-2000000Y+4690000D03*
X-2000000Y+5030000D03*
D41*
X-4640000Y-4310000D03*
X+4630000Y-4320000D03*
X+4660000Y+5060000D03*
X-4650000Y+5000000D03*
D23*
X-4600000Y+0D03*
X-4600000Y-500380D03*
D43*
X+3625000Y+3419000D03*
X+3371000Y+3546000D03*
X+3625000Y+3673000D03*
X+3371000Y+3800000D03*
X+3625000Y+1569000D03*
X+3371000Y+1696000D03*
X+3625000Y+1823000D03*
X+3371000Y+1950000D03*
X+3625000Y-285000D03*
X+3371000Y-158000D03*
X+3625000Y-31000D03*
X+3371000Y+96000D03*
D44*
X-3236000Y+4125000D03*
X-3236000Y+3829000D03*
X-3485012Y+4229010D03*
X-3480000Y+3930000D03*
D45*
X-4134998Y+4430000D03*
X-4134998Y+3530002D03*
D44*
X-3230988Y+2875990D03*
X-3230988Y+2579990D03*
X-3480000Y+2980000D03*
X-3474988Y+2680990D03*
D45*
X-4129986Y+3180990D03*
X-4129986Y+2280992D03*
D44*
X-3236000Y+1625000D03*
X-3236000Y+1329000D03*
X-3485012Y+1729010D03*
X-3480000Y+1430000D03*
D45*
X-4134998Y+1930000D03*
X-4134998Y+1030002D03*
D23*
X+2980760Y+4950000D03*
X+2480380Y+4950000D03*
X+1980000Y+4950000D03*
D46*
X-204000Y-4450000D03*
X+50000Y-4450000D03*
X+304000Y-4450000D03*
X+558000Y-4450000D03*
X+812000Y-4450000D03*
X+1066000Y-4450000D03*
D23*
X+1380380Y+4950000D03*
X+880000Y+4950000D03*
D46*
X-3238000Y+5150000D03*
X-3492000Y+5150000D03*
X-3746000Y+5150000D03*
X-4000000Y+5150000D03*
X-1536000Y-270000D03*
X-1790000Y-270000D03*
D23*
X+1749240Y-3880000D03*
X+2249620Y-3880000D03*
X+2750000Y-3880000D03*
D48*
X+4300000Y-2830000D03*
X+4300000Y-1630000D03*
X+4500000Y-2230000D03*
X+3050000Y-1630000D03*
X+3050000Y-2830000D03*
D23*
X-4300000Y-2120000D03*
X-4300000Y-2620380D03*
X+3299620Y-3880000D03*
X+3800000Y-3880000D03*
D33*
X+3646000Y+5080000D03*
X+4154000Y+5080000D03*
X+3900000Y+5080000D03*
D46*
X+40000Y-3857639D03*
X+294000Y-3857639D03*
X+548000Y-3857639D03*
X+802000Y-3857639D03*
X+2310000Y-650000D03*
X+2564000Y-650000D03*
D58*
X-4990000Y-4640000D02*
X+5000000Y-4640000D01*
X+5000000Y+5360000D01*
X-4990000Y+5360000D01*
X-4990000Y-4640000D01*
X+1385625Y-1221172D02*
X+4785625Y-1221172D01*
X+4785625Y-1111172D01*
X+1385625Y-1111172D01*
X+1385625Y-1221172D01*
X+855625Y-3091172D02*
X+965625Y-3091172D01*
X+965625Y-1401172D01*
X+855625Y-1401172D01*
X+855625Y-3091172D01*
X+1264865Y-4511172D02*
X+1374865Y-4511172D01*
X+1374865Y-3331172D01*
X+1264865Y-3331172D01*
X+1264865Y-4511172D01*
M02*
