<!-- icon666.com - MILLIONS vector ICONS FREE --><svg xmlns="http://www.w3.org/2000/svg" id="Layer_3" data-name="Layer 3" viewBox="0 0 64 64"><path d="M52,23H50.816a2.982,2.982,0,0,0-5.632,0H39V20.315a7,7,0,1,0-6,0V23H26.816a2.982,2.982,0,0,0-5.632,0H20A11.01,11.01,0,0,0,9.051,33H6a1,1,0,0,0-1,1v2H1v2H5v2H1v2H5v2a1,1,0,0,0,1,1H9.051A11.01,11.01,0,0,0,20,55h1.184a2.982,2.982,0,0,0,5.632,0H45.184a2.982,2.982,0,0,0,5.632,0H52A11.013,11.013,0,0,0,63,44V34A11.013,11.013,0,0,0,52,23Zm-7,2V53H27V25ZM31,14a5,5,0,1,1,5,5A5.006,5.006,0,0,1,31,14Zm4,6.92a6.29,6.29,0,0,0,2,0V23H35ZM7,35H9v8H7Zm4,9V34a9.01,9.01,0,0,1,9-9h1V53H20A9.01,9.01,0,0,1,11,44ZM25,54a1,1,0,0,1-2,0V24a1,1,0,0,1,2,0Zm24,0a1,1,0,0,1-2,0V24a1,1,0,0,1,2,0ZM61,44a9.01,9.01,0,0,1-9,9H51V25h1a9.01,9.01,0,0,1,9,9Z"></path><path d="M38,16a1.993,1.993,0,0,0-1-1.722V11H35v3.278A2,2,0,1,0,38,16Z"></path></svg>