<!-- icon666.com - MILLIONS vector ICONS FREE --><svg viewBox="0 0 128 128" xmlns="http://www.w3.org/2000/svg"><g><path d="m79.091 87.553h-29.391a1.75 1.75 0 0 0 0 3.5h29.391a1.75 1.75 0 1 0 0-3.5z"></path><path d="m64.456 37.6a1.751 1.751 0 0 0 1.75-1.75v-10.366a1.75 1.75 0 1 0 -3.5 0v10.365a1.75 1.75 0 0 0 1.75 1.751z"></path><path d="m56.342 37.6a1.751 1.751 0 0 0 1.75-1.75v-10.366a1.75 1.75 0 1 0 -3.5 0v10.365a1.751 1.751 0 0 0 1.75 1.751z"></path><path d="m72.567 37.6a1.751 1.751 0 0 0 1.75-1.75v-10.366a1.75 1.75 0 1 0 -3.5 0v10.365a1.751 1.751 0 0 0 1.75 1.751z"></path><path d="m64.456 42.222a10.9 10.9 0 0 0 -7.7 3.179c-.01.009-.022.016-.032.026s-.018.023-.028.034a10.924 10.924 0 1 0 7.757-3.239zm0 18.362a7.415 7.415 0 0 1 -6.338-11.292l5.1 5.1a1.75 1.75 0 0 0 2.475-2.475l-5.1-5.1a7.427 7.427 0 1 1 3.864 13.767z"></path><path d="m86.5 6.263h-45a11.763 11.763 0 0 0 -11.75 11.75v80.8a1.75 1.75 0 0 0 1.75 1.75h12.3v6.25a1.749 1.749 0 0 0 1.75 1.75h5.25v9.677h-4.471a1.75 1.75 0 0 0 0 3.5h12.449a1.75 1.75 0 0 0 0-3.5h-4.478v-9.68h5.25a1.75 1.75 0 0 0 1.75-1.75v-6.25h6.3v6.25a1.75 1.75 0 0 0 1.75 1.75h5.25v9.677h-4.469a1.75 1.75 0 0 0 0 3.5h12.449a1.75 1.75 0 1 0 0-3.5h-4.475v-9.677h5.25a1.749 1.749 0 0 0 1.75-1.75v-6.25h11.395a1.75 1.75 0 0 0 1.75-1.75v-80.8a11.763 11.763 0 0 0 -11.75-11.747zm0 3.5a8.276 8.276 0 0 1 8.059 6.5c-64.756 0-48.867 0-61.12 0a8.272 8.272 0 0 1 8.059-6.5zm-37.864 61.43h30.728a3.25 3.25 0 0 1 0 6.5h-30.728a3.25 3.25 0 0 1 0-6.5zm28.991-3.5h-27.254a21.017 21.017 0 0 1 -7.493-16.123v-31.807h42.24v31.807a21.017 21.017 0 0 1 -7.493 16.123zm-19.827 37.367h-10.5v-4.5h10.5zm23.8 0h-10.5v-4.5h10.5zm-48.356-8v-77.3h6.136v31.81a24.477 24.477 0 0 0 6.539 16.7 6.747 6.747 0 0 0 2.717 12.924h30.728a6.747 6.747 0 0 0 2.717-12.924 24.477 24.477 0 0 0 6.539-16.7v-31.807h6.131v77.3z"></path></g></svg>